<svg xmlns="http://www.w3.org/2000/svg" width="183" height="24" viewBox="0 0 183 24" fill="none">
  <g clip-path="url(#clip0_1540_32489)">
    <path fill-rule="evenodd" clip-rule="evenodd" d="M37.1776 11.8746H42.5806C42.2207 10.502 41.235 9.94547 40.0345 9.94547C38.7145 9.94547 37.6566 10.665 37.1776 11.8746ZM45.7504 14.2221H36.9859C37.3457 15.99 38.8338 16.6415 40.1303 16.6415C41.7632 16.6415 42.4612 15.6646 42.4612 15.6646H45.4864C44.5732 17.9892 42.3889 19.2672 40.0346 19.2672C36.7924 19.2672 33.959 16.8725 33.959 13.247C33.959 9.64264 36.7688 7.41064 39.9386 7.41064C43.0127 7.41064 46.1356 9.47962 45.7504 14.2221Z" fill="#3D08E5"/>
    <path fill-rule="evenodd" clip-rule="evenodd" d="M75.5253 13.3397C75.5253 11.526 74.4206 10.1082 72.596 10.1082C70.7698 10.1082 69.5455 11.526 69.5455 13.3397C69.5455 15.1533 70.7698 16.5712 72.596 16.5712C74.4206 16.5712 75.5253 15.1533 75.5253 13.3397ZM66.3992 13.3623C66.3992 9.64264 69.3773 7.41064 72.5959 7.41064C75.8381 7.41064 78.6715 9.66527 78.6715 13.3151C78.6715 17.0124 75.7403 19.267 72.4983 19.267C69.2325 19.267 66.3992 17.0124 66.3992 13.3623Z" fill="#3D08E5"/>
    <path fill-rule="evenodd" clip-rule="evenodd" d="M91.5265 12.8515V19.1517H88.3311V13.5481C88.3311 13.1526 88.6208 10.2237 86.3148 10.1085C85.1847 10.0384 83.1683 10.6421 83.1683 13.6883V19.1517H79.9988V7.52615H82.9084L82.918 9.14002C82.918 9.14002 84.2299 7.41064 86.6768 7.41064C89.7745 7.41064 91.5265 9.64264 91.5265 12.8515Z" fill="#3D08E5"/>
    <path fill-rule="evenodd" clip-rule="evenodd" d="M103.206 9.87544C102.197 9.87544 101.765 10.3638 101.765 10.8523C101.765 11.6418 102.846 11.8746 103.566 12.0148C105.705 12.4557 107.866 13.0843 107.866 15.5471C107.866 17.942 105.825 19.2672 103.351 19.2672C100.59 19.2672 98.4522 17.641 98.3074 15.1762H101.26C101.333 15.8728 101.814 16.7796 103.279 16.7796C104.503 16.7796 104.793 16.1531 104.793 15.6646C104.793 14.8032 103.951 14.5476 103.134 14.362C101.718 14.0592 98.6674 13.5027 98.6674 10.8523C98.6674 8.5731 100.926 7.41064 103.255 7.41064C105.944 7.41064 107.721 8.99147 107.866 10.945H104.911C104.816 10.5494 104.433 9.87544 103.206 9.87544Z" fill="#3D08E5"/>
    <path fill-rule="evenodd" clip-rule="evenodd" d="M117.575 13.3397C117.575 11.4088 116.493 10.2709 114.933 10.2709C113.469 10.2709 112.002 11.2932 112.002 13.3397C112.002 15.3844 113.469 16.4084 114.933 16.4084C116.493 16.4084 117.575 15.2688 117.575 13.3397ZM120.577 7.52615V23.801H117.575V18.0119C116.807 18.8486 115.725 19.267 114.476 19.267C111.428 19.267 108.881 16.8497 108.881 13.3397C108.881 9.82796 111.428 7.41064 114.476 7.41064C116.872 7.41064 117.77 8.96764 117.77 8.96764L117.765 7.52615H120.577Z" fill="#3D08E5"/>
    <path fill-rule="evenodd" clip-rule="evenodd" d="M137.738 11.8746H143.141C142.781 10.502 141.795 9.94547 140.595 9.94547C139.275 9.94547 138.217 10.665 137.738 11.8746ZM146.311 14.2221H137.545C137.906 15.99 139.394 16.6415 140.69 16.6415C142.323 16.6415 143.022 15.6646 143.022 15.6646H146.047C145.134 17.9892 142.949 19.2672 140.595 19.2672C137.353 19.2672 134.519 16.8725 134.519 13.247C134.519 9.64264 137.33 7.41064 140.499 7.41064C143.573 7.41064 146.696 9.47962 146.311 14.2221Z" fill="#3D08E5"/>
    <path fill-rule="evenodd" clip-rule="evenodd" d="M150.497 11.8746H155.899C155.54 10.502 154.555 9.94547 153.354 9.94547C152.034 9.94547 150.976 10.665 150.497 11.8746ZM159.07 14.2221H150.306C150.665 15.99 152.153 16.6415 153.45 16.6415C155.083 16.6415 155.78 15.6646 155.78 15.6646H158.806C157.892 17.9892 155.708 19.2672 153.354 19.2672C150.112 19.2672 147.278 16.8725 147.278 13.247C147.278 9.64264 150.088 7.41064 153.258 7.41064C156.332 7.41064 159.455 9.47962 159.07 14.2221Z" fill="#3D08E5"/>
    <path fill-rule="evenodd" clip-rule="evenodd" d="M169.763 16.5488V19.1517H159.557V17.6166L165.345 10.1313H159.798V7.52637H169.524V9.06146L163.735 16.5488H169.763Z" fill="#3D08E5"/>
    <path fill-rule="evenodd" clip-rule="evenodd" d="M182.257 7.52637V17.7567V17.9895C182.257 21.1283 180.599 23.9188 176.493 23.9188C172.651 23.9188 170.562 21.4766 170.562 19.6404H173.563C173.563 19.6404 174.019 21.1983 176.397 21.1983C178.415 21.1983 179.256 20.0813 179.256 18.4551V17.9667C178.726 18.548 177.719 19.2675 175.918 19.2675C172.771 19.2675 170.803 17.0601 170.803 13.8284L170.777 7.52637H173.899V13.13C173.899 14.7105 174.477 16.5717 176.469 16.5717C177.502 16.5717 179.207 16.0832 179.207 12.9898V7.52637H182.257Z" fill="#3D08E5"/>
    <path fill-rule="evenodd" clip-rule="evenodd" d="M31.6734 15.662C31.6734 16.3869 31.959 16.686 32.4889 16.686C32.8623 16.686 33.1049 16.6426 33.4586 16.5365L33.6564 18.9256C32.9953 19.1376 32.356 19.2663 31.5404 19.2663C29.6691 19.2663 28.5232 18.67 28.5232 16.088V2.87695H31.6734V15.662Z" fill="#3D08E5"/>
    <path fill-rule="evenodd" clip-rule="evenodd" d="M65.0437 12.8517V19.1518H61.8484V13.5483C61.8484 11.9448 62.0168 9.92127 59.8069 10.1086C59.2321 10.1541 57.6462 10.4094 57.6462 13.6884V19.1518H54.4764V13.5483C54.4764 11.9448 54.6444 9.92127 52.4349 10.1086C51.858 10.1541 50.2741 10.4094 50.2741 13.6884V19.1518H47.1042V7.52629H50.0142L50.0169 9.14016C50.0169 9.14016 51.129 7.41078 53.2032 7.41078C55.7028 7.41078 56.6838 9.29341 56.6838 9.29341C56.6838 9.29341 57.76 7.38818 60.505 7.38818C63.6261 7.38818 65.0437 9.62016 65.0437 12.8517Z" fill="#3D08E5"/>
    <path fill-rule="evenodd" clip-rule="evenodd" d="M121.924 13.8266V7.52637H125.119V13.13C125.119 13.5255 124.83 16.4543 127.136 16.5696C128.266 16.6397 130.282 16.0359 130.282 12.9898V7.52637H133.452V19.1519H130.546L130.532 17.5381C130.532 17.5381 129.22 19.2675 126.774 19.2675C123.676 19.2675 121.924 17.0355 121.924 13.8266Z" fill="#3D08E5"/>
    <path fill-rule="evenodd" clip-rule="evenodd" d="M6.61606 14.7307L13.0543 17.7073C13.8523 18.0763 14.4155 18.6958 14.7197 19.4064C15.4891 21.2058 14.4376 23.0461 12.7869 23.7079C11.1358 24.3695 9.3763 23.9437 8.57622 22.0725L5.7743 15.5029C5.55718 14.9937 6.10261 14.4933 6.61606 14.7307Z" fill="#FFC233"/>
    <path fill-rule="evenodd" clip-rule="evenodd" d="M7.00191 12.8034L13.6479 10.2912C15.8567 9.45622 18.2694 11.036 18.2369 13.3314C18.2363 13.3614 18.2358 13.3914 18.2351 13.4216C18.1873 15.6569 15.8417 17.1593 13.6814 16.3685L7.0082 13.926C6.47588 13.7313 6.47195 13.0038 7.00191 12.8034Z" fill="#FFC233"/>
    <path fill-rule="evenodd" clip-rule="evenodd" d="M6.62985 11.9335L13.1631 9.15746C15.3341 8.23488 15.885 5.46596 14.1847 3.86608C14.1624 3.84501 14.1401 3.8242 14.1176 3.80338C12.4505 2.25606 9.69483 2.80086 8.74578 4.83891L5.81406 11.1356C5.58014 11.6377 6.1088 12.1548 6.62985 11.9335Z" fill="#FFC233"/>
    <path fill-rule="evenodd" clip-rule="evenodd" d="M4.94857 10.8365L7.32384 4.32356C7.61833 3.516 7.56378 2.69246 7.25934 1.98189C6.48838 0.18324 4.40051 -0.397353 2.75003 0.265492C1.09982 0.928594 0.167327 2.43453 0.968964 4.30503L3.78925 10.8675C4.00795 11.376 4.75924 11.3559 4.94857 10.8365Z" fill="#FFC233"/>
  </g>
  <defs>
    <clipPath id="clip0_1540_32489">
      <rect width="181.714" height="24" fill="white" transform="translate(0.677002)"/>
    </clipPath>
  </defs>
</svg>