<svg xmlns="http://www.w3.org/2000/svg" width="58" height="24" viewBox="0 0 58 24" fill="none">
<path fill-rule="evenodd" clip-rule="evenodd" d="M57.6768 12.4003C57.6768 8.29882 55.6902 5.0625 51.8931 5.0625C48.08 5.0625 45.7729 8.29882 45.7729 12.3682C45.7729 17.1907 48.4966 19.6259 52.4058 19.6259C54.3123 19.6259 55.7543 19.1933 56.8437 18.5845V15.3803C55.7543 15.925 54.5046 16.2614 52.9185 16.2614C51.3644 16.2614 49.9866 15.7167 49.8103 13.8262H57.6448C57.6448 13.6179 57.6768 12.7848 57.6768 12.4003ZM49.7623 10.8783C49.7623 9.06784 50.8677 8.31484 51.8771 8.31484C52.8544 8.31484 53.8958 9.06784 53.8958 10.8783H49.7623Z" fill="#635BFF"/>
<path fill-rule="evenodd" clip-rule="evenodd" d="M39.5887 5.0625C38.0186 5.0625 37.0093 5.79948 36.4486 6.31217L36.2403 5.31884H32.7156V23.9998L36.7209 23.1506L36.7369 18.6166C37.3137 19.0331 38.1628 19.6259 39.5727 19.6259C42.4405 19.6259 45.052 17.3188 45.052 12.2401C45.036 7.59388 42.3925 5.0625 39.5887 5.0625ZM38.6275 16.1012C37.6822 16.1012 37.1214 15.7648 36.7369 15.3482L36.7209 9.40429C37.1375 8.93967 37.7142 8.61924 38.6275 8.61924C40.0854 8.61924 41.0947 10.2534 41.0947 12.3522C41.0947 14.4991 40.1014 16.1012 38.6275 16.1012Z" fill="#635BFF"/>
<path fill-rule="evenodd" clip-rule="evenodd" d="M27.2043 4.11749L31.2257 3.25234V0L27.2043 0.849132V4.11749Z" fill="#635BFF"/>
<path d="M31.2257 5.33496H27.2043V19.3537H31.2257V5.33496Z" fill="#635BFF"/>
<path fill-rule="evenodd" clip-rule="evenodd" d="M22.8944 6.52062L22.6381 5.33504H19.1775V19.3537H23.1828V9.85306C24.1281 8.61942 25.7302 8.84372 26.2269 9.01995V5.33504C25.7142 5.14278 23.8397 4.79031 22.8944 6.52062Z" fill="#635BFF"/>
<path fill-rule="evenodd" clip-rule="evenodd" d="M14.8837 1.8584L10.9745 2.69151L10.9585 15.5246C10.9585 17.8958 12.7369 19.6421 15.108 19.6421C16.4218 19.6421 17.3831 19.4018 17.9118 19.1134V15.8611C17.3991 16.0693 14.8677 16.8063 14.8677 14.4352V8.74758H17.9118V5.33504H14.8677L14.8837 1.8584Z" fill="#635BFF"/>
<path fill-rule="evenodd" clip-rule="evenodd" d="M4.05341 9.40429C4.05341 8.77946 4.56609 8.53914 5.41522 8.53914C6.63284 8.53914 8.17089 8.90763 9.38852 9.5645V5.79948C8.05874 5.27078 6.74499 5.0625 5.41522 5.0625C2.16288 5.0625 0 6.76076 0 9.59655C0 14.0184 6.08812 13.3135 6.08812 15.22C6.08812 15.957 5.44726 16.1973 4.55007 16.1973C3.22029 16.1973 1.52203 15.6526 0.176235 14.9156V18.7287C1.66622 19.3696 3.17223 19.6419 4.55007 19.6419C7.88251 19.6419 10.1736 17.9917 10.1736 15.1239C10.1575 10.3495 4.05341 11.1987 4.05341 9.40429Z" fill="#635BFF"/>
</svg>