<svg width="24" height="24" viewBox="0 0 24 24" fill="none" xmlns="http://www.w3.org/2000/svg">
<g id="Group 3">
<path id="shape" d="M13.5256 23.423C12.9183 24.1879 11.6869 23.7688 11.6722 22.7923L11.4583 8.50879H21.0624C22.802 8.50879 23.7722 10.518 22.6905 11.8804L13.5256 23.423Z" fill="url(#paint0_linear_1597_3240)"/>
<path id="shape_2" d="M13.5256 23.423C12.9183 24.1879 11.6869 23.7688 11.6722 22.7923L11.4583 8.50879H21.0624C22.802 8.50879 23.7722 10.518 22.6905 11.8804L13.5256 23.423Z" fill="url(#paint1_linear_1597_3240)" fill-opacity="0.2"/>
<path id="shape_3" d="M9.61961 0.439934C10.2269 -0.324965 11.4584 0.0941444 11.473 1.07072L11.5668 15.3542H2.08279C0.343162 15.3542 -0.62706 13.3449 0.454692 11.9825L9.61961 0.439934Z" fill="#3ECF8E"/>
</g>
<defs>
<linearGradient id="paint0_linear_1597_3240" x1="11.4583" y1="11.6758" x2="19.9941" y2="15.2557" gradientUnits="userSpaceOnUse">
<stop stop-color="#249361"/>
<stop offset="1" stop-color="#3ECF8E"/>
</linearGradient>
<linearGradient id="paint1_linear_1597_3240" x1="7.6739" y1="6.49434" x2="11.5667" y2="13.8223" gradientUnits="userSpaceOnUse">
<stop/>
<stop offset="1" stop-opacity="0"/>
</linearGradient>
</defs>
</svg>
