<svg xmlns="http://www.w3.org/2000/svg" width="40" height="24" viewBox="0 0 40 24" fill="none">
  <path fill-rule="evenodd" clip-rule="evenodd" d="M19.6364 0C14.4 0 11.1273 2.61818 9.81818 7.85455C11.7818 5.23636 14.0727 4.25455 16.6909 4.90909C18.1847 5.28218 19.2524 6.36655 20.4342 7.56582C22.3593 9.52 24.5876 11.7818 29.4545 11.7818C34.6909 11.7818 37.9636 9.16364 39.2727 3.92727C37.3091 6.54545 35.0182 7.52727 32.4 6.87273C30.9062 6.49964 29.8385 5.41527 28.6567 4.216C26.7316 2.26182 24.5033 0 19.6364 0ZM9.81818 11.7818C4.58182 11.7818 1.30909 14.4 0 19.6364C1.96364 17.0182 4.25455 16.0364 6.87273 16.6909C8.36655 17.0647 9.43418 18.1484 10.616 19.3476C12.5411 21.3018 14.7695 23.5636 19.6364 23.5636C24.8727 23.5636 28.1455 20.9455 29.4545 15.7091C27.4909 18.3273 25.2 19.3091 22.5818 18.6545C21.088 18.2815 20.0204 17.1971 18.8385 15.9978C16.9135 14.0436 14.6851 11.7818 9.81818 11.7818Z" fill="#38BDF8"/>
</svg>