<svg width="48" height="48" viewBox="0 0 48 48" fill="none" xmlns="http://www.w3.org/2000/svg">
<path d="M37.1353 21.9467L36.8304 22.3967L36.7195 22.3873C35.5369 22.2186 34.6037 22.003 33.4581 21.4592C32.5157 21.0186 31.5548 20.6342 30.5755 20.2967C27.2586 19.1624 23.9695 17.9624 20.7173 16.6967C20.6896 16.6873 20.6619 16.6967 20.6434 16.7248C20.6341 16.7436 20.6434 16.7624 20.6526 16.7811C21.7059 18.0936 22.7869 19.3873 23.8771 20.6624C23.988 20.7936 24.0526 20.8779 24.0711 20.9342C24.1543 21.1311 24.0988 21.2155 23.9233 21.1873L19.6456 20.6248C19.6086 20.6155 19.5809 20.6436 19.5809 20.6718C19.5809 20.6905 19.5902 20.7186 19.5994 20.7279C20.4863 21.4967 21.3918 22.2186 22.3065 22.903C23.2581 23.6155 22.214 24.0092 21.6967 24.3936C21.6505 24.4218 21.6412 24.4873 21.6782 24.5248C21.6874 24.5342 21.6967 24.5436 21.7059 24.553C22.5374 24.9936 23.3782 25.4061 24.2374 25.8092C24.3852 25.8748 24.5054 25.9592 24.607 26.0436C24.644 26.0811 24.6532 26.1279 24.6254 26.1748C24.2559 26.8779 23.6739 27.4405 23.0179 28.153C22.9902 28.1811 22.9902 28.2092 23.0179 28.2467L23.0641 28.2936C20.5233 29.8592 17.9548 31.3686 15.3587 32.8218C15.1276 32.953 14.8967 33.0467 14.6657 33.1124C14.638 33.1218 14.6103 33.103 14.601 33.0748C14.5918 33.0561 14.601 33.0373 14.6103 33.0279C16.5597 30.3092 18.7956 27.8624 20.9206 25.303C21.0869 25.1061 21.2532 24.7873 21.5304 24.6092C21.5673 24.5811 21.5858 24.553 21.595 24.5061C21.6043 24.403 21.5396 24.3936 21.4565 24.4124C19.6548 24.6655 17.8532 24.8998 16.0424 25.1248C15.8298 25.153 15.6451 24.7686 15.5249 24.6373C14.2776 23.2686 13.0488 21.8811 11.8478 20.4748C11.432 19.9873 11.044 19.4811 10.6744 18.9373C10.6374 18.8905 10.6559 18.8248 10.7021 18.7873C10.7206 18.7686 10.7483 18.7686 10.7761 18.7686C13.2613 19.1811 15.876 19.8561 18.1858 20.3436C18.2227 20.353 18.2597 20.3248 18.2689 20.2873C18.2689 20.2686 18.2689 20.2498 18.2505 20.2311C16.6059 18.0936 14.8412 15.9279 13.3537 13.6686C12.901 12.9748 12.5222 12.1967 11.8755 11.6718C11.007 10.9686 10.1108 10.303 9.19616 9.66549C9.15915 9.63733 9.14072 9.59985 9.14072 9.55298V9.2061C10.8592 8.06236 12.5592 6.89046 14.2314 5.69046C14.5825 5.43734 15.026 5.04359 15.488 5.36234C22.3989 10.1342 29.3559 14.8498 36.35 19.5092C37.2831 20.1186 37.2739 20.9342 37.1353 21.9467Z" fill="#FF353F"/>
<path d="M9.17767 9.21582V9.56269C9.17767 9.60956 9.19617 9.64704 9.23311 9.67514C10.1478 10.3033 11.044 10.9783 11.9125 11.6814C12.5592 12.2064 12.938 12.9845 13.3907 13.6783C14.8782 15.9377 16.6429 18.1033 18.2874 20.2408C18.3152 20.2689 18.3059 20.3158 18.2782 20.3439C18.2598 20.3533 18.2413 20.3627 18.2227 20.3627C15.9038 19.8751 13.2891 19.1908 10.813 18.7877C10.7576 18.7783 10.7021 18.8158 10.6929 18.8721C10.6836 18.9002 10.6929 18.9283 10.7114 18.947C11.0717 19.4814 11.469 19.997 11.8847 20.4845C13.0858 21.8908 14.3146 23.2783 15.5619 24.647C15.682 24.7783 15.8668 25.1627 16.0793 25.1345C17.8902 24.9096 19.6918 24.6751 21.4934 24.4221C21.5766 24.4127 21.6413 24.4221 21.632 24.5158C21.6227 24.5627 21.6043 24.6002 21.5674 24.6189C21.2809 24.797 21.1239 25.1158 20.9576 25.3127C18.8326 27.8721 16.5967 30.3283 14.6472 33.0377C14.6287 33.0564 14.638 33.0939 14.6565 33.1127C14.6657 33.1221 14.6842 33.122 14.7027 33.122C14.9336 33.0564 15.1647 32.9627 15.3956 32.8314C17.9918 31.3689 20.5603 29.8596 23.101 28.3033C26.3347 28.2002 29.5777 28.1533 32.8298 28.1627C32.8853 28.1627 32.9038 28.1908 32.8853 28.2377C32.7375 28.8377 32.488 29.4002 31.9152 29.7189C31.3146 30.047 30.7326 30.4127 30.169 30.8064C25.3092 34.2096 20.4586 37.6314 15.6173 41.072C15.1462 41.4096 14.2961 40.7345 13.9081 40.4721C12.2173 39.3377 10.5174 38.2127 8.80814 37.1064C8.42929 36.8627 8.44779 36.1033 8.44779 35.6908C8.44779 27.2721 8.44779 18.8533 8.44779 10.4345C8.42929 9.79704 8.6233 9.45017 9.17767 9.21582Z" fill="#DB1638"/>
<path d="M31.3423 23.1371C31.3331 23.1746 31.3054 23.2121 31.2684 23.2308C29.8086 24.0371 28.8478 22.2746 28.3304 21.2152C28.3119 21.1871 28.3212 21.1777 28.3581 21.1777L31.6288 21.6277C31.675 21.6371 31.6934 21.6558 31.6842 21.7027L31.3423 23.1371Z" fill="#020617"/>
<path d="M37.1723 23.0342C38.0962 23.353 41.6533 26.0904 41.5886 26.128C41.5517 26.1561 40.988 25.903 40.9511 25.8842C39.6114 25.3498 38.3087 25.2092 36.9043 25.031C36.5994 24.9936 36.3407 24.9373 36.1467 24.8623C36.0913 24.8436 35.9527 24.778 35.9712 24.7217C36.0081 24.703 37.1723 23.0342 37.1723 23.0342Z" fill="#FFA00F"/>
<path d="M41.5886 26.1377C41.5793 26.1471 41.5608 26.1565 41.5424 26.1659C39.7869 26.6346 37.9853 26.9908 36.1467 27.2534C35.9065 27.2908 35.7217 27.3659 35.4815 27.4596C35.4168 27.4877 35.3891 27.4596 35.3891 27.394C35.4168 26.7565 35.2875 26.1471 35.0011 25.5752C34.9826 25.5283 34.9919 25.4908 35.0288 25.4627L35.9712 24.7314C35.9897 24.7596 36.0913 24.8627 36.1467 24.8814C36.3407 24.9565 36.5994 25.0127 36.9043 25.0502C38.3087 25.2283 39.6114 25.369 40.9511 25.9034C41.025 25.9221 41.6255 26.0908 41.5886 26.1377Z" fill="#FE6B16"/>
</svg>
