<svg width="48" height="48" viewBox="0 0 48 48" fill="none" xmlns="http://www.w3.org/2000/svg">
<path d="M11.2888 16.8257C10.3228 16.7507 9.35672 16.6381 8.39908 16.4797C8.01853 16.4171 7.90144 16.2712 8.08544 15.9043C8.72109 14.6245 9.69132 13.6823 11.0002 13.082C11.0212 13.0736 11.0337 13.057 11.042 13.0403C11.3432 12.3357 11.6066 11.7187 12.0791 11.0642C13.363 9.30069 15.0608 8.1167 17.1727 7.5122C19.3431 6.89101 21.7477 6.87851 23.9641 7.24121C24.7587 7.37045 24.8173 8.17089 24.1941 8.57946C23.8847 8.77957 23.5668 8.95884 23.2407 9.11726C23.2197 9.12559 23.2114 9.15061 23.2197 9.17145C23.2239 9.17979 23.2281 9.18396 23.2323 9.18813C25.4236 10.7349 27.0713 12.8819 27.7613 15.5125C28.1293 16.9008 28.3217 18.3057 28.3468 19.7149C28.3468 19.7649 28.3719 19.8149 28.4179 19.8441C29.409 20.507 30.3457 21.2365 31.2365 22.0286C31.2699 22.0578 31.3159 22.0661 31.3577 22.0453C32.2778 21.6159 35.5062 20.1442 36.2505 21.2865C36.2631 21.3032 36.2757 21.3074 36.2965 21.3032C36.8612 21.1365 38.3206 20.6612 38.835 20.9656C39.525 21.3782 38.9103 22.1454 38.4419 22.4997C37.6557 23.0959 36.6897 23.4919 35.8115 23.9422C35.7738 23.963 35.7571 24.0089 35.778 24.0464C35.7864 24.0589 35.7947 24.0714 35.8073 24.0756C35.8867 24.1256 35.9787 24.1423 36.0875 24.134C37.225 24.0298 38.6426 23.8588 39.939 23.8796C40.6708 23.8922 41.4612 24.134 41.8125 24.8177C42.2683 25.6973 41.708 26.3686 40.9218 26.7646C40.8967 26.7771 40.8967 26.7896 40.9218 26.798C41.5783 27.094 42.0676 27.49 41.9924 28.2654C41.8669 29.5954 39.7341 29.8997 38.743 29.9205C38.7137 29.9205 38.6928 29.9456 38.6928 29.9705C38.6928 29.9831 38.6969 29.9956 38.7053 30.0039C39.2406 30.5375 39.9599 31.2921 40.1732 32.0259C40.4199 32.8639 39.4497 33.2516 38.8141 33.3266C37.7811 33.4475 36.7566 33.435 35.7362 33.2891C35.0294 33.189 34.2474 32.9806 33.5114 32.7846C33.4947 32.7805 33.478 32.7846 33.4696 32.7972C31.9306 34.6398 30.0154 35.9447 27.7278 36.716C27.6358 36.7452 27.5104 36.7243 27.4853 36.8577C27.3306 37.6415 27.1884 38.2377 27.1758 38.8172C27.1717 38.9505 27.2427 39.0673 27.3431 39.1298C27.8366 39.4383 28.4513 40.047 28.4848 40.664C28.5099 41.1018 28.0331 41.4019 27.661 41.3686C27.1842 41.3227 26.5694 40.9851 26.0969 40.7807C25.8292 40.6682 25.6787 40.664 25.3734 40.7182C24.8256 40.8225 24.2778 40.9392 23.7341 41.0642C22.9981 41.231 22.5172 41.3686 22.2872 41.4728C22.1241 41.5479 21.9234 41.6812 21.6808 41.873C21.1664 42.2816 20.7106 41.6146 20.7399 41.1393C20.7608 40.7933 20.8904 40.489 21.133 40.2346C21.1455 40.2179 21.1455 40.1971 21.1288 40.1846C21.1246 40.1804 21.1204 40.1804 21.1163 40.1763C20.9323 40.1054 20.7399 40.0846 20.5392 40.1137C19.8491 40.2138 19.1633 40.3347 18.4775 40.4764C17.6369 40.6474 16.9302 40.9016 16.374 41.6104C16.2694 41.7438 16.098 41.7104 15.9851 41.6021C15.5125 41.1602 15.7801 40.4806 15.9892 39.9719C16.006 39.9303 15.9976 39.9219 15.96 39.947C15.822 40.0304 15.6797 40.1388 15.5251 40.1304C15.2532 40.1179 15.1528 39.8469 15.2072 39.6051C15.3828 38.7797 16.1732 38.0959 16.9427 37.8791C17.2187 37.7999 17.616 37.7666 18.1387 37.7749C18.7493 37.7832 19.3682 37.8291 19.9997 37.9083C20.3384 37.95 20.7357 37.1871 20.8653 36.9286C20.8737 36.9077 20.8695 36.8953 20.8486 36.8869C17.754 36.0114 15.2616 34.2854 13.3713 31.7049C13.3588 31.6882 13.3463 31.684 13.3296 31.6965C13.0243 31.9133 12.7232 31.6548 12.5266 31.4464C10.2935 29.0867 9.02219 24.9761 10.6113 21.9369C10.7451 21.6784 10.9542 21.3866 11.1257 21.1114C11.1382 21.0948 11.1382 21.0739 11.1382 21.0531C10.8748 19.5856 10.996 18.2765 11.3138 16.8424C11.3181 16.8382 11.3097 16.8299 11.2888 16.8257ZM12.4848 11.8021C12.2631 12.1356 12.075 12.4899 11.9245 12.8735C11.9202 12.8819 11.9245 12.886 11.9328 12.8902C11.937 12.8902 11.937 12.8902 11.9411 12.8902C12.2297 12.8193 12.5183 12.8152 12.811 12.8819C13.3337 13.0152 14.4252 13.4655 14.559 14.0825C14.559 14.0908 14.5632 14.095 14.5715 14.095C14.5758 14.095 14.5841 14.095 14.5883 14.0992L14.559 14.2159C14.4712 14.4619 14.2956 14.5745 14.0279 14.5661C13.6097 14.5494 13.6892 14.1992 13.6976 13.9199C13.6976 13.8741 13.6766 13.8324 13.639 13.8074C12.811 13.2946 11.9202 13.5489 11.1132 13.9241C10.3771 14.2659 9.64531 14.6996 9.03891 15.2665C9.02637 15.2791 9.02637 15.2999 9.03891 15.3124C9.04728 15.3207 9.064 15.3249 9.07655 15.3207C9.3902 15.179 9.64531 15.1248 10.0384 15.0456C11.5899 14.7287 13.2041 14.7996 14.7347 15.1873L15.3202 15.4291C15.3703 15.45 15.3912 15.5083 15.3745 15.5584C15.3703 15.5708 15.362 15.5834 15.3494 15.5917C15.111 15.8168 14.8727 16.067 14.6427 16.3463C13.9945 16.9424 13.0368 16.955 12.2046 16.9091C12.1837 16.9091 12.167 16.9175 12.1628 16.9383C12.0248 17.4469 11.9328 17.9597 11.891 18.4766C11.8073 19.2354 11.8031 19.9942 11.8868 20.7529C11.8951 20.8446 11.8868 20.9363 11.8617 21.028C11.7362 21.445 11.6651 21.8702 11.6526 22.3038C11.5146 23.6295 11.4477 26.0642 13.2793 26.3435C13.961 26.2768 14.4043 25.9183 14.8476 25.4305C14.9396 25.3305 15.0316 25.2679 15.1236 25.4138C15.7718 26.4269 16.8507 27.0898 18.0844 26.9772C17.7749 27.3566 17.3902 27.5442 16.9343 27.54C16.1398 27.5317 15.454 27.094 14.9438 26.4811C14.9312 26.4644 14.9145 26.4644 14.9019 26.4811C14.4419 26.9564 13.731 27.2732 13.0661 27.1356C12.7357 27.0398 12.4263 26.8896 12.1419 26.6854C12.1335 26.6812 12.1251 26.6812 12.121 26.6896C12.1168 26.6937 12.1168 26.6979 12.1168 26.7021C13.2083 31.2045 16.5245 34.8149 21.0159 36.0948C23.3787 36.766 25.6662 36.6034 27.9704 35.8197C28.4304 35.6654 28.8695 35.4611 29.2919 35.2151C30.0111 34.8816 30.6678 34.4564 31.2657 33.9353C31.6881 33.5851 32.0854 33.2016 32.4576 32.793C32.4659 32.7846 32.4659 32.7721 32.4576 32.7638C32.4534 32.7596 32.4492 32.7596 32.4409 32.7596C30.7179 32.9097 28.8695 32.9472 27.1884 32.6679C24.0812 32.1468 21.0995 30.104 20.238 26.9314C20.1502 26.6062 20.0624 26.1351 19.9746 25.5097C19.9788 25.1804 19.9871 24.9303 19.9997 24.7635C20.1251 23.2293 21.0075 21.7285 22.5088 21.2115C23.111 21.0031 23.8303 20.9572 24.491 20.9905C25.4236 21.0406 26.3478 21.1782 27.2678 21.4075L27.4937 21.5075C27.5146 21.5158 27.5229 21.5325 27.5229 21.5575L27.5104 21.6951C27.3138 22.1037 26.9834 22.0953 26.5569 22.0036C25.2438 21.7243 23.3828 21.4033 22.2077 22.1495C21.133 22.8374 20.7148 24.1715 20.8319 25.3888C20.9448 26.5645 21.3672 27.6359 22.099 28.5989C22.8016 29.537 23.6756 30.2707 24.721 30.8044C25.5532 31.2713 26.5611 31.734 27.5229 31.8007C27.5773 31.8049 27.5815 31.7966 27.5271 31.7758C26.5485 31.3796 25.7247 31.0712 24.9343 30.4875C24.7963 30.3041 24.8131 30.1415 24.9845 29.9956C25.0013 29.9831 25.0222 29.9747 25.0431 29.9705C25.202 29.9622 25.3567 29.9956 25.5072 30.0623C25.7331 30.1665 29.317 31.8299 29.0577 30.9836C29.0535 30.967 29.0409 30.9544 29.0242 30.9461C28.4639 30.7502 27.1382 30.3207 26.9249 29.883C26.9166 29.8663 26.9124 29.8455 26.9166 29.8246C26.9751 29.5578 27.1967 29.5661 27.4226 29.637C27.8867 29.783 28.4137 29.9789 28.8026 30.0956C30.8099 30.7168 32.8674 30.9919 34.9793 30.9295C35.5647 30.9128 37.2458 30.7752 37.6181 30.2707C37.8271 29.9872 37.2291 29.5078 36.9615 29.6412C36.4722 29.8872 35.9369 30.0247 35.364 30.0581C33.5741 30.1623 31.7885 29.9831 30.053 29.6203C29.8815 29.587 29.271 29.4203 29.4508 29.1451C29.5302 29.02 29.6641 28.9742 29.8522 28.9992C31.3577 29.2202 32.8465 29.4244 34.3687 29.4578C34.8078 29.4661 36.3635 29.4536 36.5098 28.9784C36.5182 28.9575 36.514 28.9408 36.5057 28.9242C36.4429 28.8074 36.3802 28.724 36.3091 28.6615C35.8156 28.2363 35.3096 27.7193 34.7743 27.3566C34.5778 27.2232 34.4314 27.144 34.3394 27.1231C33.0807 26.823 32.0226 26.5145 31.1653 26.2018C31.0859 26.1726 31.0316 26.1142 31.0023 26.0267C30.8601 25.5765 31.4999 25.7057 31.6923 25.7599C32.4032 25.9642 33.1308 26.1643 33.8752 26.3602C33.9631 26.3852 33.9798 26.356 33.9296 26.2852L33.5281 25.7057C33.3023 25.3847 33.0179 25.047 32.675 24.6926C31.2281 23.1918 29.7351 21.8201 28.1962 20.5778C27.9788 20.4027 27.5187 20.0608 27.4058 19.8149C27.4393 18.9102 27.3724 17.9931 27.2009 17.0633C27.1675 16.8924 27.1382 16.7549 27.1089 16.659C26.8454 15.3457 26.3729 14.1075 25.6996 12.9528C24.7253 11.3477 23.4079 10.1095 21.7477 9.23816C21.7142 9.22148 21.6766 9.23399 21.6599 9.26734C21.6516 9.28402 21.6516 9.30486 21.6557 9.32154L21.7602 9.5967C21.6725 9.51332 21.6139 9.4216 21.5846 9.31737C21.5721 9.27568 21.5846 9.22982 21.6139 9.20064C21.7519 9.05472 21.9066 8.94216 22.0865 8.86295C22.5758 8.64616 23.1737 8.40853 23.6045 8.09585C23.755 7.98329 23.546 7.86656 23.4456 7.85405C19.5021 7.36628 14.7263 8.10419 12.4848 11.8021ZM12.4472 15.3707C11.5732 15.3957 10.7033 15.475 9.83763 15.6084C9.82932 15.6084 9.82095 15.6167 9.8251 15.625C9.8251 15.6334 9.82932 15.6376 9.83763 15.6376C11.0629 15.9502 12.305 16.1254 13.5721 16.1629C13.8606 16.1712 14.0572 16.0378 14.2412 15.8419L14.5758 15.5292C14.5883 15.5166 14.5883 15.5 14.5758 15.4875C14.5715 15.4833 14.5674 15.4791 14.5632 15.4791C13.8648 15.3332 13.1581 15.2957 12.4472 15.3707ZM32.0185 22.604C31.9641 22.5873 31.9181 22.5998 31.8846 22.6373C31.868 22.6582 31.868 22.6748 31.8889 22.6957L32.6081 23.3419C32.6332 23.3627 32.6625 23.371 32.6918 23.3586C33.5574 23.0917 34.5025 22.6748 35.1758 22.1412L35.5689 21.7618C35.5856 21.7451 35.5856 21.7326 35.5647 21.7201C35.0629 21.445 34.2642 21.6493 33.7456 21.8368C33.156 22.0453 32.5789 22.2996 32.0185 22.604ZM38.237 21.5909C37.7811 21.5451 37.0535 21.8285 36.6228 21.9952C36.4262 22.0703 36.3217 22.2412 36.192 22.3955C35.7362 22.9333 35.1089 23.1668 34.4858 23.4503C34.4314 23.4752 34.4314 23.4836 34.49 23.4669C35.7153 23.1876 36.8402 22.6831 37.869 21.9619C38.0111 21.8619 38.1366 21.7493 38.2495 21.6284C38.2579 21.6201 38.2579 21.6034 38.2495 21.5951C38.2454 21.5909 38.2411 21.5909 38.237 21.5909ZM10.8664 23.6587C10.536 25.2137 10.7703 26.7938 11.4435 28.2196C11.4686 28.2779 11.477 28.2738 11.4644 28.2112C11.1006 26.5853 10.9208 25.3221 10.9584 23.8005C10.9584 23.763 10.9333 23.6754 10.9166 23.6462C10.9082 23.6337 10.8915 23.6295 10.8789 23.6379C10.8706 23.642 10.8664 23.6503 10.8664 23.6587ZM33.294 24.1798C33.3692 24.2799 33.5992 24.5675 33.7498 24.5133C34.0634 24.4091 34.3729 24.3091 34.6782 24.2173C34.6949 24.2132 34.7033 24.1965 34.6991 24.1798C34.6949 24.1715 34.6865 24.1631 34.6782 24.159C34.2014 24.0005 33.7875 24.0464 33.3065 24.1381C33.294 24.1423 33.2814 24.1548 33.2856 24.1673C33.2898 24.1715 33.294 24.1756 33.294 24.1798ZM36.4597 24.8552C35.8993 24.9261 35.3431 25.0053 34.7869 25.0928C34.6071 25.122 34.4524 25.1554 34.3353 25.1887C34.2893 25.2054 34.26 25.2554 34.2767 25.3013C34.2809 25.3138 34.285 25.3263 34.2934 25.3346C35.2051 26.3894 36.0791 27.4566 36.9698 28.5198C37.2166 28.8158 37.3044 28.9658 37.6348 29.02C38.6677 29.1951 39.6714 29.1284 40.6458 28.8116C41.4654 28.5072 41.2396 27.7402 40.5998 27.4358C40.0435 27.169 39.4665 27.1273 38.8726 26.9522L38.8433 26.923C38.835 26.7646 38.9103 26.6729 39.0733 26.6395C39.6254 26.5353 41.2731 26.1476 41.1685 25.3388C41.0388 24.3466 39.2866 24.5634 38.6468 24.6009C37.9066 24.6468 37.179 24.7302 36.4597 24.8552ZM33.1351 31.7132C33.2187 31.7799 33.3358 31.8299 33.4571 31.8508C34.8705 32.0717 36.2631 31.9842 37.6348 31.5923C37.8773 31.5214 38.6217 31.2963 38.6468 31.0545C38.651 31.0337 38.6426 31.0128 38.6259 30.9961C38.5046 30.8669 38.3583 30.771 38.1868 30.7085C38.1659 30.7002 38.1491 30.7043 38.1366 30.7251C37.8606 31.1879 37.4884 31.3088 36.9406 31.4381C35.7989 31.7132 34.4189 31.6923 33.1602 31.6465C33.0848 31.6465 33.0765 31.6674 33.1351 31.7132ZM29.7686 31.5172C29.9651 31.6507 30.3541 31.7132 30.7221 31.7966C31.2867 31.9216 31.8554 31.98 32.4367 31.98C32.4576 31.98 32.4701 31.9717 32.4743 31.9509C32.5329 31.7799 32.1649 31.7174 32.0478 31.6965C31.2908 31.5506 30.5381 31.3797 29.7811 31.1796C29.7435 31.1712 29.7059 31.1921 29.6933 31.2296C29.6599 31.363 29.6808 31.4589 29.7686 31.5172ZM35.5522 32.572C35.5815 32.6095 36.9615 32.6637 37.1162 32.6721C37.7561 32.6971 38.8267 32.7304 39.3452 32.2968C39.3619 32.2844 39.3661 32.2677 39.3661 32.251C39.3702 32.1051 39.3201 31.9842 39.2156 31.8841C39.1988 31.8675 39.1821 31.8675 39.1612 31.8758C38.0488 32.4094 36.79 32.5595 35.5689 32.5428C35.5438 32.5386 35.5396 32.5512 35.5522 32.572ZM27.6066 40.2597C27.4602 40.0387 27.2846 39.8469 27.0797 39.6843C26.674 39.3591 26.4608 39.0965 26.5485 38.5504C26.5778 38.3627 26.5988 38.171 26.6071 37.975C26.7074 37.6707 26.7828 37.358 26.8329 37.0328C26.8371 37.0161 26.8288 37.0078 26.812 37.012L26.2809 37.0954C26.26 37.0995 26.2475 37.1121 26.2433 37.1329C26.1471 37.754 25.9756 38.3544 25.7331 38.9339C25.6076 39.234 25.3943 39.4258 25.0891 39.5092C24.3321 39.7177 23.4665 39.8469 22.6384 40.0846C22.3332 40.1721 21.3922 40.6307 21.4842 41.0267C21.4968 41.0851 21.5596 41.1268 21.6181 41.1101C21.6265 41.1101 21.6348 41.106 21.6432 41.1018C22.0363 40.9142 22.4419 40.764 22.8601 40.6557C23.7592 40.4222 24.6625 40.2221 25.5783 40.0637C26.3353 39.9303 27.3264 40.8183 27.7362 40.6515C27.7571 40.6432 27.7655 40.6307 27.7613 40.6098C27.7362 40.4764 27.686 40.3597 27.6066 40.2597ZM19.6735 39.0548C19.6861 39.0632 19.6902 39.0756 19.6861 39.0881C19.6819 39.0965 19.6777 39.1007 19.6693 39.1007C19.1884 39.2132 18.7158 39.2925 18.2349 39.3425C17.6369 39.405 16.7922 39.7468 16.6082 40.3847C16.583 40.4639 16.6124 40.489 16.6876 40.4556C16.9887 40.3263 17.2814 40.1554 17.5742 40.0637C18.5695 39.751 19.5564 39.6551 20.6939 39.4925C20.995 39.4509 21.1623 39.5384 21.4717 39.6885C21.4885 39.6968 21.5093 39.701 21.5302 39.6968L22.1325 39.5634C22.1659 39.5551 22.1869 39.5259 22.1785 39.4925C22.1743 39.48 22.1659 39.4675 22.1575 39.4592C21.9694 39.3091 21.7896 39.1715 21.6181 39.0465C21.409 38.8964 21.363 38.6963 21.4801 38.4461C21.6808 38.0125 21.9401 37.604 22.2454 37.2121C22.2579 37.1954 22.2537 37.1746 22.2412 37.1662C22.237 37.1621 22.2329 37.1621 22.2245 37.1579L21.685 37.0828C21.6641 37.0787 21.6474 37.087 21.6348 37.1079C21.4048 37.5331 21.1372 37.9333 20.8361 38.3127C20.6563 38.5379 20.4137 38.6254 20.1084 38.5837C19.7906 38.5379 19.2553 38.4837 18.5025 38.4211C17.7289 38.3586 17.1685 38.4086 16.5622 38.9256C16.5454 38.9422 16.5413 38.9672 16.558 38.9839C16.558 38.9839 16.558 38.9839 16.5622 38.9881C16.6165 39.0465 17.478 38.8755 17.6118 38.8547C18.3019 38.7463 19.0838 38.763 19.6735 39.0548ZM22.0697 38.6462C22.3457 38.8463 22.605 39.0632 22.8434 39.3049C22.8727 39.3341 22.9103 39.3466 22.9521 39.3341C23.5877 39.1965 24.2234 39.0632 24.8549 38.9256C25.1894 38.8547 25.5616 37.554 25.6285 37.2454C25.6285 37.2413 25.6243 37.233 25.6202 37.233H25.616C24.7587 37.3455 23.893 37.3747 23.0316 37.3163C22.9521 37.3121 22.8768 37.3496 22.8183 37.433C22.5465 37.8041 22.2955 38.1793 22.0572 38.5587C22.0363 38.592 22.0446 38.6296 22.0697 38.6462Z" fill="#3F171F"/>
<path d="M23.9498 7.44123C23.9292 7.44123 23.9127 7.42654 23.8963 7.40696C23.8839 7.38737 23.8674 7.38247 23.8469 7.38247C21.0878 7.61261 18.2546 7.92599 15.8208 9.64953C15.0384 10.2029 14.4949 10.8395 13.9225 11.6817C13.663 12.0636 13.3542 12.1028 13 11.7943C15.2073 7.45592 19.91 6.58433 23.7892 7.15724C23.8922 7.17192 24.0939 7.30902 23.9498 7.44123Z" fill="#FE5845"/>
<path d="M23.5473 8.03846C23.122 8.32305 22.5314 8.5461 22.0482 8.74608C21.8706 8.81915 21.7136 8.92299 21.5815 9.05759C21.5526 9.08836 21.5402 9.12682 21.5526 9.16527C21.5815 9.26141 21.6435 9.34602 21.7261 9.42295C21.8499 9.60368 21.9862 9.74981 22.1431 9.86521C23.2294 10.6767 24.1545 11.5689 24.9309 12.6226C24.9763 12.6842 25.0424 12.7226 25.092 12.6342C25.1002 12.6188 25.1168 12.6072 25.1374 12.5995C25.3191 12.538 25.443 12.6188 25.6041 12.6149C25.6164 12.6149 25.6164 12.6111 25.6041 12.6072C25.5958 12.6034 25.5876 12.5995 25.5793 12.5957C25.5628 12.588 25.5628 12.5803 25.5752 12.5688C25.5958 12.5534 25.6041 12.538 25.6082 12.5188C26.2732 13.5841 26.7398 14.7263 27 15.9377C26.9876 15.9608 26.9711 15.9762 26.9546 15.9877C26.9216 16.0069 26.8802 16.0031 26.8513 15.98C26.6737 15.8108 26.5416 15.6262 26.459 15.4224C26.2566 14.9378 26.0419 14.4609 25.8106 13.9879C25.8023 13.9763 25.7941 13.9725 25.7817 13.9802C25.6 14.1148 25.0754 13.5495 24.807 14.134C24.7988 14.1494 24.7988 14.1648 24.807 14.184L24.8979 14.3802C24.902 14.3879 24.9103 14.3917 24.9185 14.3917C24.9268 14.3879 24.9351 14.384 24.9433 14.3763C24.9557 14.3609 24.964 14.3609 24.964 14.384V14.5302C24.964 14.5532 24.9516 14.5686 24.9268 14.5725C24.8979 14.5763 24.8937 14.5955 24.9062 14.6301C24.9392 14.7109 24.9309 14.707 24.8896 14.6301C24.8814 14.6148 24.8648 14.6071 24.8442 14.6071C23.7167 12.5495 21.8624 11.5343 19.4174 11.3074C18.5501 11.092 17.4309 11.3689 17.0674 12.2111C17.0013 12.3111 16.9312 12.4534 16.861 12.638C16.8073 12.7765 16.704 12.8149 16.5429 12.8265C16.4521 12.8342 16.3488 12.8688 16.2663 12.8765C15.9028 12.9188 15.5352 12.9418 15.1718 12.9418C14.8621 12.9418 14.4945 12.8072 14.1682 12.9226C14.1063 12.9457 14.0567 12.9265 14.0195 12.8726C14.0113 12.8573 13.9947 12.8419 13.9783 12.8342C13.7594 12.7072 13.5322 12.5995 13.2926 12.5149C13.1563 12.4649 13.02 12.4688 12.8755 12.4611C12.5864 12.4034 12.3015 12.4034 12.0165 12.4688C12.0082 12.4688 12.0041 12.4649 12 12.4611C12 12.4572 12 12.4572 12 12.4534C12.1487 12.1035 12.3345 11.7727 12.5534 11.465C12.9085 11.7035 13.2183 11.6765 13.4785 11.3766C14.0526 10.719 14.6019 10.219 15.3824 9.7806C17.8232 8.42304 20.6605 8.18075 23.4317 8C23.4524 8 23.4689 8.00385 23.4813 8.01923C23.5061 8.02692 23.5267 8.03846 23.5473 8.03846Z" fill="#F32112"/>
<path d="M25.998 12.8127C25.9938 12.834 25.9814 12.8554 25.9648 12.8682C25.9524 12.881 25.9524 12.8896 25.969 12.8982C25.9772 12.9025 25.9855 12.9067 25.9938 12.911C26.0021 12.9153 26.0021 12.9153 25.9938 12.9195C25.8324 12.9195 25.7041 12.834 25.5261 12.9025C25.5055 12.911 25.493 12.9238 25.4806 12.9409C25.431 13.0392 25.3647 13.0007 25.3192 12.9281C24.5411 11.7613 23.6141 10.7697 22.5256 9.86368C22.3683 9.73551 22.2276 9.5688 22.1076 9.3722L22.0041 9.09013C21.9917 9.05594 22.0083 9.01748 22.0414 9.00466C22.0579 8.99611 22.0787 9.00038 22.0952 9.00893C23.7341 9.89366 25.0378 11.163 25.998 12.8127Z" fill="#FE5845"/>
<path d="M19.8346 11.0904C21.6704 11.9261 21.1987 14.493 19.386 14.9408C18.341 15.1995 17.3607 14.5925 17.0879 13.4782C17.0509 13.329 17.0648 13.1251 17 12.936C17.0232 12.8763 17.0509 12.8116 17.0833 12.742C17.1573 12.5927 17.1526 12.4236 17.2035 12.2644C17.6151 11.17 18.8635 10.8118 19.8346 11.0904ZM19.0069 13.0106C19.5201 13.4335 20.2831 12.2345 19.4554 12.0107C19.4323 12.0058 19.4092 12.0107 19.3907 12.0256C19.2705 12.135 19.1317 12.2097 18.9791 12.2445C18.956 12.2495 18.9375 12.2644 18.9237 12.2843C18.7294 12.5579 18.7572 12.8017 19.0069 13.0106Z" fill="#3F171F"/>
<path d="M24.7625 14.7287C25.128 15.5274 25.4092 16.3695 25.7306 17.1943C25.7025 17.2246 25.6703 17.2377 25.6382 17.229C25.6181 17.2246 25.602 17.2116 25.594 17.1899L25.5177 17.0076C25.5096 16.9859 25.4976 16.9859 25.4815 17.0033C25.4614 17.0293 25.4534 17.0597 25.4574 17.0944C25.5578 18.2318 25.8752 19.1259 26.4255 20.1287C26.6184 20.4802 26.8112 20.8319 27 21.1878C26.1203 20.949 25.2284 20.8058 24.3326 20.7537C23.6979 20.719 23.007 20.7667 22.4285 20.9838C20.9864 21.5263 20.1387 23.0847 20.0182 24.6821C20.0062 24.8601 19.9981 25.1162 19.9941 25.4591C19.8616 25.585 19.7491 25.7239 19.6647 25.8715C19.2831 26.4271 18.789 26.7961 18.1784 26.9871C16.9933 27.1043 15.9569 26.4141 15.3342 25.3593C15.2458 25.2074 15.1535 25.2724 15.0691 25.3766C14.6433 25.8889 14.2175 26.2578 13.5627 26.3273C13.5306 26.2404 13.4823 26.1623 13.4261 26.0973C12.5102 25.0641 12.2089 23.6273 12.1084 22.2643C12.1045 22.1992 12.0683 22.1471 12 22.1211C12.012 21.6653 12.0803 21.2225 12.2009 20.7928C12.229 20.6973 12.237 20.6018 12.2249 20.5063C12.1446 19.7162 12.1486 18.9262 12.229 18.1363C12.3093 18.1623 12.3696 18.1883 12.4178 18.2664C13.1931 19.4862 14.1291 20.3414 15.507 20.6365C16.1015 20.7667 16.459 20.5237 16.5755 19.9159C16.8607 18.4184 15.7842 16.9338 14.8803 15.9528C14.8762 15.9485 14.8723 15.9398 14.8723 15.9311C14.8723 15.9268 14.8723 15.9181 14.8683 15.9138C15.0932 15.6229 15.3181 15.3625 15.5471 15.1281C15.5833 15.089 15.5873 15.0239 15.5512 14.9848C15.5431 14.9762 15.531 14.9675 15.519 14.9588L14.9566 14.707L14.8762 13.7824C14.8762 13.7607 14.8642 13.7434 14.8481 13.7304L14.7879 13.6913L14.816 13.5697C15.7038 13.6392 16.4349 13.3223 17.0134 12.6104C17.0696 12.7797 17.0576 12.9534 17.0897 13.0835C17.3227 14.0559 18.1784 14.5855 19.0862 14.3597C20.661 13.9691 21.0707 11.7292 19.4759 11C21.8621 11.2604 23.6658 12.4064 24.7625 14.7287Z" fill="#F9EDDD"/>
<path d="M19.2055 12.9181C18.9619 12.727 18.9349 12.5086 19.1243 12.2539C19.1378 12.2357 19.1559 12.222 19.1784 12.2175C19.3272 12.1856 19.4625 12.1174 19.5797 12.0173C19.5977 12.0037 19.6203 11.9946 19.6429 12.0037C20.45 12.2084 19.706 13.3048 19.2055 12.9181Z" fill="#F9EDDD"/>
<path d="M17 12C16.9567 12.1787 16.9606 12.3741 16.8976 12.5361C16.8701 12.6143 16.8464 12.6869 16.8268 12.7539C16.2638 13.6697 15.5433 14.0774 14.6732 13.9879C14.6693 13.9879 14.6654 13.9879 14.6575 13.9824C14.6496 13.9824 14.6457 13.9768 14.6457 13.9657C14.5197 13.1391 13.4921 12.5361 13 12.3574C13.1378 12.3686 13.2677 12.3629 13.3976 12.4355C13.626 12.5584 13.8425 12.7148 14.0512 12.8991C14.0669 12.9158 14.0787 12.9326 14.0906 12.9549C14.122 13.0386 14.1693 13.061 14.2323 13.0275C14.5433 12.8544 14.8937 13.0554 15.189 13.0554C15.5393 13.0554 15.8858 13.0219 16.2323 12.9605C16.311 12.9438 16.4095 12.8935 16.4961 12.8879C16.6496 12.8712 16.748 12.8097 16.7992 12.6143C16.8701 12.3462 16.937 12.1396 17 12Z" fill="#CF1611"/>
<path d="M14.8152 13.7665L14.8812 13.8081C14.8988 13.8219 14.912 13.8359 14.912 13.8635L15 14.8484C13.3895 14.4184 11.6911 14.3398 10.0586 14.6912C9.64062 14.7791 9.37663 14.8392 9.04664 14.9964C9.02903 15.0056 9.00703 14.9964 9.00263 14.9779C8.99823 14.964 8.99823 14.9455 9.01143 14.9363C9.64943 14.3075 10.4195 13.8266 11.1939 13.4474C12.0431 13.0313 12.9803 12.7539 13.8516 13.318C13.8912 13.3457 13.9176 13.3919 13.9132 13.4428C13.9044 13.7526 13.8164 14.141 14.2608 14.1595C14.538 14.1687 14.7228 14.0392 14.8152 13.7665Z" fill="#FEBB0F"/>
<path d="M26.7585 16.086C26.7816 16.1746 26.8081 16.3016 26.8313 16.4594C26.967 17.3178 27.0199 18.1647 26.9934 19C26.5799 18.488 26.2457 17.9222 25.9876 17.3024L25.8321 16.929C25.5674 16.1976 25.3358 15.4547 25.0347 14.7426C25.0513 14.7426 25.0645 14.7503 25.0711 14.7657C25.1042 14.8465 25.1109 14.8465 25.0844 14.7657C25.0745 14.7349 25.081 14.7157 25.1009 14.708C25.1208 14.7041 25.1307 14.6887 25.1307 14.6656V14.5193C25.1307 14.4962 25.1241 14.4962 25.1142 14.5116C25.1075 14.5193 25.1009 14.5271 25.0943 14.5271C25.0877 14.5309 25.081 14.5271 25.0778 14.5155L25.005 14.3192C24.9983 14.3037 24.9983 14.2884 25.005 14.2691C25.22 13.6879 25.6402 14.2499 25.7858 14.1151C25.7957 14.1074 25.8023 14.1074 25.8089 14.1228C25.9942 14.5963 26.1696 15.0736 26.3284 15.5587C26.3945 15.7627 26.5004 15.9475 26.6427 16.1168C26.6658 16.1438 26.6989 16.1477 26.7254 16.1245C26.7353 16.1245 26.7452 16.1091 26.7585 16.086Z" fill="#CF1611"/>
<path d="M12.8958 15C12.9096 15.0526 12.9464 15.0736 13.0064 15.0736C13.3799 15.0736 13.7488 15.0736 14.1223 15.0684C14.15 15.0684 14.1638 15.0842 14.173 15.1104L14.1868 15.1472C14.196 15.1736 14.2099 15.1894 14.233 15.1947C14.4773 15.263 14.7217 15.284 14.9661 15.2578C14.9984 15.2525 15.0076 15.2683 14.9938 15.2999L14.8692 15.5944C14.6664 15.8417 14.4451 16.0101 14.1315 15.9995C12.7344 15.9522 11.3649 15.7312 10.0138 15.3367C10.0046 15.3314 10 15.3209 10 15.3104C10 15.2999 10.0092 15.2946 10.0138 15.2946C10.973 15.1315 11.932 15.0316 12.8958 15Z" fill="#F48E01"/>
<path d="M15.0038 16C15.0038 16.0036 15.0038 16.0109 15.0083 16.0146C15.0083 16.0219 15.0129 16.0255 15.0175 16.0329C16.0462 16.858 17.2714 18.1068 16.9468 19.3664C16.8142 19.8777 16.4119 20.0785 15.7307 19.9726C14.1625 19.7243 13.0973 19.005 12.2149 17.979C12.16 17.9133 12.0869 17.8913 12 17.8695C12.0457 17.4167 12.1463 16.9676 12.2971 16.5221C12.3018 16.5038 12.3201 16.4965 12.3429 16.4965C13.2527 16.5331 14.2951 16.5258 15.0038 16Z" fill="#F1D8C5"/>
<path d="M26.2061 17.1888L26.348 17.5633C26.3359 17.5595 26.3268 17.5633 26.3178 17.571C26.3027 17.5865 26.2967 17.6019 26.3057 17.6251L26.6318 18.4205C26.6378 18.4321 26.6439 18.4398 26.6529 18.4476L26.665 18.4553C26.6801 18.463 26.6892 18.4785 26.6952 18.4978C26.7224 18.5712 26.7737 18.6677 26.8492 18.7874C27.133 19.2392 27.3504 19.6099 27.6644 19.9226C27.8002 20.0578 28.0116 20.2702 27.9995 20.4555C27.9965 20.5096 27.9422 20.8726 27.8576 20.9034C27.7218 20.8609 27.5829 20.8378 27.4409 20.8339C27.4228 20.8339 27.4138 20.8456 27.4108 20.8687C27.4077 20.9343 27.3805 20.9768 27.3353 21L27.3443 20.8726C27.3473 20.8533 27.3383 20.8378 27.3232 20.8262L27.1601 20.7336C27.0152 20.4169 26.8733 20.1042 26.7284 19.7914C26.3147 18.8994 26.0763 18.1039 26.0007 17.0922C25.9977 17.0614 26.0038 17.0343 26.0189 17.0112C26.031 16.9957 26.037 16.9957 26.046 17.015L26.1034 17.1772C26.1095 17.1965 26.1215 17.2081 26.1366 17.2119C26.1638 17.2274 26.1849 17.2158 26.2061 17.1888Z" fill="#F1D8C5"/>
<path d="M26.0701 18.0015C26.42 18.6092 26.8775 19.1641 27.4337 19.6662C27.5548 19.8889 28.0526 20.1984 28.2813 20.357C29.9319 21.4819 31.5331 22.7238 33.085 24.0827C33.4528 24.4036 33.7578 24.7093 34 25C33.8072 24.8641 33.6232 24.7207 33.4573 24.5622C32.0893 23.2636 30.5913 22.2028 28.7478 21.4026C28.6806 21.3724 28.5325 21.3309 28.3172 21.2743C28.3172 21.2704 28.3172 21.2667 28.3172 21.2667C28.4428 21.2403 28.5236 20.8817 28.528 20.8288C28.546 20.6476 28.232 20.44 28.0302 20.3079C27.5592 20.0021 27.2408 19.6398 26.8192 19.1981C26.707 19.0811 26.6308 18.9867 26.5905 18.915C26.5815 18.8961 26.5635 18.8848 26.5456 18.8735L26.5276 18.8659C26.5142 18.8584 26.5052 18.8508 26.4962 18.8395L26.0074 18.0619C25.9939 18.0392 25.9984 18.0241 26.0253 18.009C26.0388 18.0015 26.0522 17.9977 26.0701 18.0015Z" fill="#F9EDDD"/>
<path d="M28 21.0742C28 21.0782 28 21.0824 28 21.0824C27.8262 21.4202 27.7315 21.6922 27.4037 21.9023C27.1154 22.0836 26.7126 22.0795 26.373 22.0547C25.4647 21.9847 24.5919 21.9146 23.6876 22.0795C23.3677 22.1371 23.1071 22.2278 22.9136 22.3555C21.6735 23.1548 21.6262 25.153 21.9105 26.4385C22.0566 27.1018 22.1593 27.6251 22.2146 28C21.5235 27.0482 21.1246 25.9935 21.018 24.8275C20.9074 23.6245 21.3023 22.3019 22.3172 21.6263C23.423 20.8846 25.1843 21.206 26.4244 21.482C26.8271 21.5727 27.1352 21.5809 27.3247 21.1771C27.384 21.1525 27.4195 21.1071 27.4234 21.0371C27.4234 21.0123 27.4392 21 27.463 21C27.6367 21.0041 27.8184 21.0288 28 21.0742Z" fill="#8BD1C5"/>
<path d="M35.5498 21.5419C35.6108 21.4069 35.7094 21.3046 35.8456 21.2269C35.8691 21.2146 35.8738 21.1901 35.8597 21.1696C35.855 21.1655 35.8503 21.1573 35.8409 21.1573C35.6155 21.0591 35.4606 21.0878 35.1741 21.1287C34.4088 21.2351 33.789 21.4028 33.0424 21.6891C32.7043 21.82 32.3616 21.9223 32 22C32.6292 21.7014 33.2725 21.4478 33.9392 21.2433C34.5215 21.0633 35.4183 20.8628 35.9818 21.1287C36.0052 21.1409 36.0052 21.1533 35.9865 21.1696L35.5498 21.5419Z" fill="#8BD1C5"/>
<path d="M37.9781 21.0052C37.9912 21.0052 38 21.0185 38 21.0318C38 21.0362 37.9956 21.0406 37.9956 21.045C37.877 21.1731 37.7454 21.2924 37.596 21.3984C36.516 22.1669 35.3348 22.6969 34.0483 22.9927C33.9869 23.006 33.9825 23.0016 34.044 22.9751C34.6982 22.6748 35.3568 22.423 35.8353 21.8577C35.9714 21.6943 36.0813 21.5176 36.2876 21.4337C36.7311 21.257 37.4994 20.9567 37.9781 21.0052Z" fill="#42BDB8"/>
<path d="M28.5894 21C28.7938 21.0606 28.9274 21.1126 28.9899 21.1471C30.7049 22.0647 32.0984 23.2767 33.371 24.77C33.5254 24.9518 33.6965 25.1205 33.8759 25.272L34.2764 25.8737C34.3265 25.9516 34.3098 25.9775 34.2222 25.9516C33.4795 25.7481 32.7535 25.5404 32.0442 25.3283C31.8522 25.272 31.2139 25.1378 31.3557 25.6053C31.3849 25.6962 31.4392 25.7568 31.5185 25.7871C32.378 26.1117 33.4336 26.4277 34.6854 26.7436C34.7772 26.7653 34.919 26.8475 35.1193 26.9861C35.6534 27.3669 36.154 27.9037 36.6506 28.3408C36.7215 28.4014 36.7841 28.4923 36.8467 28.6135C36.8551 28.6308 36.8592 28.6524 36.8509 28.6698C36.7048 29.1588 35.1527 29.1762 34.7146 29.1675C33.1958 29.1329 31.7062 28.9208 30.2083 28.6914C30.0205 28.6611 29.887 28.713 29.8077 28.8429C29.6283 29.1286 30.2375 29.2974 30.4086 29.3363C32.1401 29.7129 33.9177 29.899 35.7076 29.7908C36.2793 29.7562 36.8092 29.6133 37.3015 29.358C37.5685 29.2194 38.1652 29.7215 37.9566 30.0115C37.581 30.5352 35.9079 30.6781 35.3237 30.6954C33.2166 30.7603 31.1638 30.4703 29.161 29.8297C28.773 29.7042 28.2473 29.5051 27.7841 29.3536C27.5629 29.2801 27.3376 29.267 27.2793 29.5484C27.275 29.57 27.275 29.5917 27.2876 29.609C27.5045 30.0635 28.823 30.5093 29.3822 30.7127C29.3989 30.717 29.4113 30.7301 29.4156 30.7517C29.67 31.6303 26.0984 29.9033 25.8731 29.7951C25.7229 29.7215 25.5685 29.6912 25.41 29.6999C25.3891 29.6999 25.3682 29.7086 25.3515 29.7258C25.1846 29.8773 25.1679 30.0462 25.3015 30.2366C25.1888 30.3189 25.1179 30.4271 25.0887 30.5655C24.0455 30.0115 23.1735 29.2454 22.4726 28.2759C22.4141 27.882 22.3098 27.3323 22.1513 26.6355C21.8508 25.2893 21.9009 23.1858 23.2111 22.3461C23.4155 22.2162 23.6867 22.1167 24.0289 22.0561C24.9885 21.8873 25.9065 21.9609 26.8662 22.0301C27.225 22.0561 27.6547 22.0604 27.9552 21.87C28.3056 21.6449 28.4058 21.3593 28.5894 21Z" fill="#42BDB8"/>
<path d="M35.6812 21.5505C34.9308 22.1838 33.8776 22.6785 32.9129 22.9952C32.8803 23.0051 32.843 23.0002 32.8197 22.9754L32.0181 22.2085C31.9948 22.1887 31.9948 22.164 32.0135 22.1393C32.0507 22.0947 32.102 22.0848 32.1626 22.0996C32.5168 22.0057 32.8616 21.8819 33.1972 21.7236C33.9382 21.3773 34.5534 21.1744 35.313 21.0458C35.5973 20.9963 35.7511 20.9617 35.9748 21.0804C35.9981 21.0903 36.0074 21.1199 35.9934 21.1447C35.9887 21.1546 35.9841 21.1596 35.9794 21.1646C35.8397 21.2635 35.7417 21.3872 35.6812 21.5505Z" fill="#42BDB8"/>
<path d="M12.0366 22C12.0787 22.0289 12.101 22.0743 12.1035 22.1362C12.1629 23.4324 12.3487 24.7987 12.9158 25.7812C12.9505 25.8431 12.9802 25.9174 13 26C11.9152 25.7234 11.9549 23.3127 12.0366 22Z" fill="#F1D8C5"/>
<path d="M11.197 23.0236C11.2025 23.0057 11.2192 22.9967 11.2413 23.0011C11.2525 23.0011 11.2581 23.0057 11.2636 23.0147C11.2858 23.0417 11.3192 23.1408 11.3192 23.1813C11.2692 24.8259 11.508 26.191 11.9912 27.9481C12.0078 28.0157 12.0022 28.0157 11.9633 27.9571C11.0692 26.4117 10.7582 24.7042 11.197 23.0236Z" fill="#306084"/>
<path d="M38.5335 26.9804C38.5202 27.0014 38.498 27.0066 38.467 26.9909C38.4493 26.9804 38.4361 26.9594 38.4449 26.9332C38.4803 26.8073 38.4538 26.7181 38.3741 26.6604C38.3519 26.6447 38.3387 26.629 38.3254 26.6027C37.8826 25.837 37.4267 25.0187 36.8865 24.3474C36.8733 24.3265 36.8511 24.3212 36.829 24.3212L36.0276 24.4314C36.0055 24.4366 35.9967 24.4209 36.0011 24.3999C36.0011 24.3894 36.0055 24.3789 36.0144 24.3737C36.7803 24.2216 37.5506 24.1166 38.3254 24.0589C39.0027 24.0117 40.8577 23.7337 40.995 24.9873C41.1056 26.0048 39.3614 26.4926 38.777 26.6237C38.6043 26.6657 38.5202 26.7811 38.5335 26.9804Z" fill="#8BD1C5"/>
<path d="M39.005 26.4528L39.0371 26.4868C39.0279 26.4964 39.0234 26.5061 39.0234 26.5158C39.0188 26.5352 39.0279 26.5497 39.0417 26.5594L39.2022 26.6466C39.216 26.6563 39.2343 26.666 39.248 26.6806C39.3444 26.7823 39.5232 26.9422 39.78 27.1554C40.0093 27.3492 40.4128 27.7901 40.9861 28.4684C40.9998 28.4878 41.0044 28.5072 40.9952 28.5265C40.9769 28.5653 40.9769 28.6089 40.9906 28.6477C39.9222 29.0159 38.8216 29.0934 37.6889 28.8899C37.3266 28.8269 37.2349 28.6525 36.9598 28.3085C35.983 27.0682 35.0291 25.8278 34.0249 24.6069C33.9882 24.5633 33.9928 24.4954 34.0341 24.4567C34.0432 24.447 34.057 24.4421 34.0708 24.4373C34.2037 24.3937 34.3688 24.3598 34.566 24.3258C35.1759 24.2241 35.7858 24.132 36.4003 24.0497C36.3911 24.0593 36.3865 24.0642 36.3865 24.0739C36.382 24.0981 36.3911 24.1078 36.414 24.103L37.2441 24.0012C37.267 23.9964 37.2853 24.006 37.3037 24.0254C37.8631 24.6505 38.3309 25.4063 38.794 26.1088C38.8078 26.1282 38.8262 26.1476 38.8445 26.1621C38.9316 26.2154 38.9546 26.2978 38.9179 26.4141C38.9133 26.4335 38.9225 26.4577 38.9408 26.4674C38.9684 26.4771 38.9913 26.4722 39.005 26.4528Z" fill="#42BDB8"/>
<path d="M20.3515 25C20.4405 25.6637 20.5294 26.1637 20.6184 26.5088C21.491 29.876 24.5112 32.0441 27.6585 32.5972C29.3614 32.8936 31.2336 32.8538 32.9788 32.6945C32.9915 32.6945 33 32.7034 33 32.7122C33 32.7167 33 32.7255 32.9958 32.7299C32.6188 33.1636 32.2163 33.5662 31.7886 33.9423C31.6741 33.929 31.6022 33.9246 31.5725 33.929C30.0052 34.0927 28.3956 33.9732 26.7436 33.5706C25.1805 33.1901 23.7954 32.3981 22.5839 31.199C21.0378 29.6636 20.2287 27.7964 20.1525 25.5974C20.1482 25.5089 20.0974 25.4514 20 25.4248C20.0931 25.2699 20.2118 25.1328 20.3515 25Z" fill="#CF1611"/>
<path d="M19.5401 25C19.6348 25.0265 19.6843 25.0841 19.6884 25.1727C19.7625 27.3735 20.549 29.2423 22.052 30.7789C23.2256 31.9789 24.5721 32.7716 26.0957 33.1524C27.7016 33.5554 29.2623 33.6749 30.79 33.5111C30.8188 33.5067 30.8888 33.5111 31 33.5244C30.4111 34.0779 29.7647 34.5296 29.0564 34.8839C28.0393 34.9503 27.0222 34.968 26.0051 34.9946C24.2221 35.0389 22.5256 34.813 20.9155 34.3126C17.5965 33.2808 14.4012 30.5973 13.1576 27.0015C13.0875 26.7934 13.0382 26.5764 13.001 26.3595C12.9969 26.3373 13.0052 26.324 13.0217 26.3108C13.0382 26.3019 13.0546 26.3019 13.0752 26.3019C13.7299 26.448 14.4258 26.1159 14.8829 25.6067C14.8994 25.5889 14.9117 25.5889 14.9241 25.6067C15.4264 26.2576 16.1059 26.7226 16.8842 26.7314C17.333 26.7358 17.7118 26.5366 18.0165 26.1336C18.6384 25.9476 19.149 25.5668 19.5401 25Z" fill="#F32112"/>
<path d="M12.9355 26.4621C12.9148 26.4621 12.8982 26.4621 12.8817 26.4706C12.861 26.479 12.8568 26.496 12.861 26.5172C12.8982 26.7249 12.9437 26.9326 13.0183 27.1319C14.2642 30.5743 17.4804 33.1434 20.8166 34.1312C22.4351 34.6102 24.1405 34.8307 25.9328 34.7841C26.9552 34.7586 27.9776 34.7417 29 34.6781C28.5819 34.9282 28.1473 35.1317 27.692 35.2928C25.4112 36.0898 23.147 36.2552 20.8084 35.5726C16.3586 34.2711 13.0762 30.604 12 26.0212C12 26.0127 12.0042 26.0042 12.0125 26C12.0166 26 12.0207 26 12.0249 26.0042C12.3022 26.2119 12.6043 26.3646 12.9355 26.4621Z" fill="#CF1611"/>
<path d="M39.0193 27C39.5302 27.0942 40.0268 27.1166 40.5053 27.2601C41.0558 27.4237 41.2501 27.8363 40.5449 28C40.534 27.982 40.534 27.9619 40.5484 27.944C40.5556 27.935 40.5521 27.926 40.5412 27.917C40.0915 27.6009 39.7785 27.3991 39.595 27.3094C39.3935 27.2085 39.2568 27.1367 39.1776 27.0897C39.1668 27.083 39.156 27.0785 39.1416 27.074L39.0157 27.0336C39.0013 27.0292 38.9977 27.0224 39.0013 27.0134C39.0085 27.009 39.0121 27.0045 39.0193 27Z" fill="#8BD1C5"/>
<path d="M25.2251 30C26.059 30.4409 26.9283 30.6757 27.9608 30.9802C28.0138 30.996 28.0138 31.0024 27.9564 30.9992C26.9415 30.9516 25.8781 30.5995 25 30.2411C25.0309 30.1396 25.1059 30.0603 25.2251 30Z" fill="#306084"/>
<path d="M33.0415 31.5933C32.9782 31.5209 32.9873 31.488 33.0687 31.488C34.4294 31.5604 35.9213 31.5933 37.1555 31.1587C37.7478 30.9479 38.1501 30.7636 38.4485 30.0326C38.4621 29.9997 38.4801 29.9932 38.5028 30.0064C38.6836 30.1051 38.8418 30.2566 38.9774 30.4607C38.9955 30.4871 39 30.5133 39 30.5529C38.9729 30.9347 38.1682 31.2904 37.906 31.4023C36.4231 32.0279 34.9177 32.1596 33.3896 31.8106C33.2585 31.7777 33.1319 31.7052 33.0415 31.5933Z" fill="#306084"/>
<path d="M30.0971 31.4284C30.0032 31.3556 29.9764 31.2309 30.0211 31.0646C30.0345 31.0178 30.0748 30.9919 30.115 31.0023C30.9197 31.2516 31.7289 31.4647 32.5381 31.6466C32.6633 31.6726 33.0522 31.7557 32.9941 31.9636C32.9852 31.9844 32.9717 32 32.9539 32C32.3325 32 31.7244 31.9272 31.1209 31.7714C30.723 31.6726 30.3117 31.5946 30.0971 31.4284Z" fill="#306084"/>
<path d="M37.2362 31.9835C37.1114 31.9733 36.0276 31.9068 36.0079 31.8607C35.9947 31.8351 35.998 31.825 36.0177 31.825C36.9767 31.8454 37.9653 31.6613 38.8389 31.0067C38.8553 30.9965 38.8685 30.9965 38.8816 31.017C38.9637 31.1397 39.0031 31.288 38.9998 31.467C38.9998 31.4925 38.9932 31.5078 38.9834 31.5232C38.5761 32.0601 37.7354 32.0141 37.2362 31.9835Z" fill="#306084"/>
<path d="M26.8971 37.9475C26.7613 38.3537 26.7253 38.7721 26.7812 39.1985C26.8132 39.4301 27.1166 39.621 27.3522 39.7956C27.432 39.8525 27.5398 39.9663 27.6796 40.1247C27.6916 40.1409 27.7076 40.145 27.7275 40.145C27.7754 40.1409 27.8153 40.149 27.8552 40.1734C27.9311 40.2709 27.979 40.3846 27.999 40.5106C28.003 40.5309 27.995 40.543 27.975 40.5512C27.5837 40.7136 26.6375 39.8485 25.9148 39.9784C25.0444 40.1368 24.178 40.3277 23.3197 40.5552C22.9203 40.6608 22.5331 40.8071 22.1578 40.9898C22.1059 41.0142 22.042 40.9939 22.014 40.937C22.01 40.9289 22.006 40.9208 22.006 40.9126C21.9182 40.5268 22.8165 40.08 23.108 39.9947C23.8946 39.7631 24.7211 39.6332 25.4477 39.4342C25.7352 39.3529 25.9428 39.1661 26.0626 38.8736C26.2941 38.309 26.4579 37.7241 26.5497 37.1188C26.5537 37.0985 26.5656 37.0864 26.5856 37.0823L27.0927 37.001C27.1087 36.997 27.1166 37.0051 27.1126 37.0213C27.0687 37.3422 26.9928 37.651 26.8971 37.9475Z" fill="#F48E01"/>
<path d="M19.7473 38.7544C19.2271 38.496 18.5458 38.4812 17.9304 38.5698C17.8132 38.5882 17.0586 38.7359 17.011 38.6879C16.9963 38.6732 16.9963 38.6473 17.011 38.6362C17.011 38.6362 17.011 38.6362 17.0147 38.6325C17.5458 38.1785 18.0366 38.1305 18.7143 38.1859C19.3737 38.2413 19.8425 38.2892 20.1209 38.3298C20.3883 38.3704 20.6007 38.2892 20.7583 38.0899C21.022 37.754 21.2564 37.3996 21.4579 37.0231C21.4689 37.0046 21.4836 36.9972 21.5019 37.0009L21.9744 37.0673C21.989 37.0711 22 37.0858 22 37.1006C22 37.1043 21.9964 37.1117 21.9927 37.1153C21.7216 37.4586 21.4982 37.8241 21.3224 38.208C21.2198 38.4295 21.2601 38.6067 21.4433 38.7396C21.5934 38.8503 21.751 38.9721 21.9158 39.105C21.9378 39.1235 21.9414 39.1567 21.9231 39.1789C21.9158 39.1899 21.9048 39.1936 21.8938 39.1973L21.3663 39.3154C21.348 39.3191 21.3334 39.3154 21.3151 39.308C21.0477 39.1751 20.8975 39.0977 20.6337 39.1345C19.6374 39.2785 18.7729 39.3671 17.9011 39.6403C17.6447 39.7215 17.3883 39.8728 17.1245 39.9873C17.0586 40.0168 17.033 39.9947 17.055 39.9245C17.2162 39.356 17.9561 39.0533 18.4799 39.0017C18.9011 38.9573 19.315 38.8835 19.7363 38.7876C19.7473 38.7839 19.7546 38.7728 19.7509 38.7617C19.7583 38.7654 19.7546 38.758 19.7473 38.7544Z" fill="#F48E01"/>
<path d="M27.1294 38C27.1221 38.1715 27.1075 38.3394 27.0784 38.5036C27.0018 38.9818 27.1876 39.2117 27.541 39.4963C27.7195 39.6424 27.8725 39.8102 28 40C27.9636 39.9781 27.9271 39.9708 27.8835 39.9745C27.8653 39.9781 27.8507 39.9708 27.8397 39.9562C27.7159 39.8102 27.6139 39.7117 27.541 39.6606C27.3261 39.5036 27.0492 39.3321 27.02 39.1241C26.9727 38.7409 27.0091 38.3649 27.1294 38Z" fill="#FEBB0F"/>
</svg>
