<svg width="48" height="48" viewBox="0 0 48 48" fill="none" xmlns="http://www.w3.org/2000/svg">
<path d="M12.2183 13.6265C12.3985 13.4952 12.6987 13.5655 12.7541 13.7999C12.7957 13.9687 12.8188 14.2031 12.6571 14.3155C12.4493 14.428 12.1352 14.3484 12.0428 14.1139C12.0013 13.9312 12.0567 13.7249 12.2183 13.6265Z" fill="#F6F0EE"/>
<path d="M13.5623 7.66859C13.6593 7.54208 13.761 7.34048 13.9503 7.39206C14.3244 7.43891 14.7123 7.53269 15.0264 7.75299C15.1373 7.80923 15.105 7.94986 15.0541 8.03891C14.8001 8.49362 14.4583 8.89675 14.2182 9.3655C14.5045 9.23425 14.7123 8.98107 14.9617 8.79359C15.2343 8.58733 15.5022 8.37642 15.7885 8.1842C15.8854 8.13269 15.9963 8.03891 16.1118 8.09049C16.3427 8.18893 16.5413 8.34826 16.7399 8.49828C16.8877 8.62487 17.0586 8.74673 17.1325 8.93895C17.0262 9.13582 16.7907 9.19671 16.6152 9.31392C15.7376 9.8483 14.8324 10.3499 14.0011 10.9545C14.0057 10.9827 14.0149 11.0389 14.0196 11.0623C14.7078 11.1936 15.3266 11.5545 15.8947 11.9576C16.4166 12.3467 16.86 12.8343 17.3034 13.3077C17.8253 13.8702 18.3379 14.442 18.7952 15.0608C19.4418 15.9702 20.1577 16.8233 20.8551 17.6905C21.3354 18.3093 21.9866 18.7545 22.6609 19.1248C24.1342 19.9921 25.4967 21.0374 26.8777 22.0452C28.7112 23.4702 30.5725 24.8577 32.3461 26.3576C33.1635 26.9952 33.9533 27.6702 34.7339 28.3499C35.0987 28.6592 35.5282 28.9545 35.7037 29.4186C35.8007 29.6717 35.6067 29.9061 35.4128 30.042C35.0571 30.2952 34.5953 30.2577 34.1796 30.2952C33.7039 30.3467 33.2328 30.2623 32.7571 30.2858C32.7386 30.3139 32.7063 30.3748 32.6878 30.4077C32.5862 30.3327 32.4661 30.3373 32.3507 30.3702C30.9004 30.5483 29.4456 30.703 27.9861 30.8061C27.2887 30.8671 26.5913 30.8436 25.8939 30.8483C25.0764 30.8577 24.2636 30.7545 23.4553 30.6608C22.5778 30.567 21.751 30.2249 20.9474 29.8733C20.4301 29.6343 19.9314 29.3576 19.4648 29.0201C18.9614 28.6498 18.4441 28.2889 18.0146 27.8295C17.719 27.5014 17.4142 27.1733 17.1787 26.7983C16.9616 26.4842 16.8322 26.1186 16.6244 25.7998C16.6475 26.2217 16.726 26.6389 16.8462 27.042C16.7538 27.1733 16.6522 27.3045 16.5044 27.3795C15.6869 27.8108 14.7262 28.1154 13.8071 27.8764C12.3661 27.6139 11.0914 26.5827 10.4864 25.2327C10.3016 24.6936 10.0614 24.1639 10.0153 23.5873C9.9691 23.2452 9.93677 22.903 9.95519 22.5608C9.97834 22.1154 9.87211 21.6749 9.89053 21.2295C9.92286 20.3718 9.93211 19.4952 9.69197 18.6608C9.50724 18.042 9.13312 17.5123 8.89298 16.9217L8.96688 16.9123C9.52107 16.8936 10.0799 16.8608 10.6203 16.7248C10.4402 16.2374 10.1677 15.7921 9.9506 15.3233C9.82128 15.0374 9.62272 14.7936 9.4195 14.5545C9.25785 14.3624 9.11004 14.1561 8.98531 13.9405C8.81907 13.6639 8.74051 13.3311 8.50961 13.0968C8.59735 12.7264 8.67126 12.3373 8.90681 12.028C9.38717 11.3858 10.0614 10.8749 10.8327 10.6546C11.133 10.5421 11.4609 10.5421 11.7703 10.4577C11.9597 10.2749 12.0567 10.0217 12.2091 9.81076C12.6848 9.10766 13.1005 8.37642 13.5623 7.66859ZM12.0936 12.8483C11.5486 12.9421 11.0821 13.4014 11.0036 13.9639C10.9713 14.2358 10.9344 14.5405 11.0775 14.7842C11.3962 15.2436 11.9135 15.5952 12.4862 15.5624C13.3314 15.6233 14.1073 14.7514 13.9364 13.903C13.8625 13.4905 13.4977 13.2186 13.1466 13.0452C12.8187 12.9045 12.4539 12.7779 12.0936 12.8483Z" fill="#FFDA4B"/>
<path d="M12.0937 12.8488C12.4539 12.7832 12.8142 12.905 13.1421 13.0504C13.4931 13.2238 13.858 13.491 13.9319 13.9082C14.1073 14.7566 13.3314 15.6285 12.4816 15.5675C11.9089 15.6003 11.3917 15.2488 11.073 14.7894C10.9298 14.5457 10.9667 14.241 10.9991 13.9691C11.0822 13.4019 11.5487 12.9426 12.0937 12.8488ZM12.2184 13.627C12.0567 13.7254 12.0059 13.9316 12.0429 14.1098C12.1353 14.3441 12.4493 14.4238 12.6571 14.3113C12.8188 14.1988 12.7957 13.9644 12.7541 13.7957C12.6987 13.566 12.3939 13.4956 12.2184 13.627Z" fill="#4E2631"/>
<path d="M7.13795 13.9782C7.56748 13.6407 8.034 13.3501 8.51428 13.0923C8.74524 13.3267 8.81915 13.6595 8.99004 13.936C9.1147 14.1517 9.2671 14.3579 9.42416 14.5501C9.27635 14.5876 9.12861 14.6345 8.99463 14.7001C8.48195 14.9485 7.93701 15.1173 7.41049 15.3376C6.69921 15.6423 5.96947 15.9048 5.28131 16.2563C5.09195 16.3548 4.92568 16.5001 4.75479 16.622C4.76865 16.1533 5.16122 15.8392 5.41525 15.4923C5.88634 14.8782 6.53294 14.4423 7.13795 13.9782Z" fill="#FEC234"/>
<path d="M8.69901 16.875C8.79141 16.8844 8.87915 16.8938 8.97155 16.8984L8.89765 16.9078C9.13779 17.4984 9.5119 18.0328 9.69663 18.6468C9.93685 19.4813 9.9276 20.3578 9.89527 21.2156C9.87678 21.661 9.98301 22.1016 9.95993 22.5469C9.94609 22.889 9.97376 23.2359 10.0199 23.5734C10.0662 24.15 10.3063 24.6797 10.491 25.2188C11.096 26.564 12.3708 27.6 13.8118 27.8625C14.7355 28.1062 15.6916 27.8015 16.509 27.3656C16.6522 27.2906 16.7584 27.1594 16.8508 27.0281C16.9894 27.5672 17.2665 28.0547 17.5667 28.5141C18.0424 29.2406 18.7629 29.7093 19.4972 30.1406C20.4117 30.689 21.4555 31.0359 22.504 31.139C22.9796 31.1625 23.4508 31.2281 23.9264 31.2234C24.9472 31.2562 25.9124 31.6313 26.9239 31.7438C27.8845 31.8234 28.8545 31.7531 29.8013 31.5515C30.5356 31.3734 31.2145 31.0359 31.8889 30.7031C32.0644 30.6234 32.2168 30.5016 32.3507 30.3609C32.4662 30.3281 32.5863 30.3235 32.6879 30.3985C33.8148 31.3172 34.9417 32.2359 36.0271 33.2015C36.5905 33.6797 37.154 34.1578 37.7221 34.6313C38.4287 35.2687 39.177 35.85 39.8929 36.4828C40.4378 36.9515 41.0013 37.3969 41.5186 37.8938C41.8003 38.175 42.1328 38.4188 42.3453 38.7657C42.4053 38.8828 42.5116 39.0516 42.3822 39.1641C42.1513 39.4031 41.8419 39.5812 41.5093 39.6046C41.4169 39.45 41.2692 39.3609 41.1167 39.2859C40.4378 38.8875 39.8466 38.3625 39.2047 37.9078C38.5627 37.425 37.9069 36.9609 37.2556 36.4969C36.3273 35.8687 35.4128 35.2078 34.466 34.6125C33.764 34.1812 33.0758 33.7219 32.3785 33.2813C32.1383 33.1266 31.8935 32.9718 31.621 32.8875C31.3762 32.8125 31.1176 32.8687 30.8682 32.8969C30.9051 33.15 30.8266 33.4031 30.6419 33.5766C30.8358 33.7875 31.0344 33.9937 31.2192 34.2188C30.8912 34.0313 30.5864 33.8062 30.2585 33.614C29.7227 33.2906 29.1731 32.9859 28.6513 32.6437C28.5035 32.5594 28.3511 32.4281 28.1709 32.4656C27.5243 32.5687 26.8823 32.6765 26.245 32.8219C26.0695 32.8406 26.0372 33.0375 25.9864 33.1734C25.8108 33.7266 25.0903 36.3937 25.0118 36.7453C25.4737 37.0594 22.7857 36.9422 22.3561 37.1906C22.0513 37.3594 18.3334 36.6656 18.5366 36.6094C18.7352 36.4406 18.8876 36.2203 19.0724 36.0328C19.0492 35.8969 19.0261 35.7609 18.9892 35.6297C18.7675 34.8938 18.5643 34.1531 18.3796 33.4031C18.3241 33.1875 18.3196 32.9625 18.241 32.7563C17.696 32.5641 17.1233 32.4468 16.5737 32.2594C15.6407 31.9125 14.7217 31.5235 13.8488 31.0359C13.0359 30.6281 12.2646 30.1312 11.5672 29.5453C11.0776 29.1609 10.6573 28.6969 10.2232 28.2468C9.18861 27.0797 8.28797 25.7016 8.02475 24.1266C7.9231 23.5687 7.83077 23.0015 7.85386 22.4297C7.83536 21.7219 7.90002 21.014 8.03859 20.3203C8.21873 19.4343 8.38496 18.5438 8.57894 17.6578C8.62052 17.4 8.68059 17.1422 8.69901 16.875ZM20.7904 33.1453C20.5734 33.5062 19.8806 36.0188 19.7882 36.4031C19.8714 36.5438 23.1551 36.525 23.4969 36.4875C23.7556 36.4734 23.8018 36.6281 23.8803 36.3891C23.9588 35.9484 23.5801 33.7969 23.5847 33.2109C22.8965 33.0844 22.1899 33.15 21.4925 33.1266C21.2569 33.1312 21.0167 33.075 20.7904 33.1453Z" fill="#FEC234"/>
<path d="M26.7484 37.7481H17.2573C16.9662 37.7481 16.7261 37.509 16.7261 37.2091V36.895C16.7261 36.5997 16.9617 36.356 17.2573 36.356H26.753C27.044 36.356 27.2841 36.595 27.2841 36.895V37.2091C27.2795 37.509 27.044 37.7481 26.7484 37.7481Z" fill="#FEC234"/>
<path d="M8.99456 14.7002C9.13312 14.6346 9.27627 14.5878 9.42409 14.5503C9.62731 14.7846 9.82587 15.0331 9.95519 15.319C10.1723 15.7878 10.4448 16.2331 10.6249 16.7206C10.0845 16.8519 9.52573 16.8893 8.97147 16.9081C8.87907 16.8987 8.79133 16.8893 8.699 16.8847C7.79837 16.8237 6.8885 16.8097 5.99249 16.7112C5.57682 16.669 5.16116 16.6596 4.74548 16.669L4.75472 16.6268C4.9256 16.5002 5.09187 16.3597 5.28123 16.2612C5.97402 15.9144 6.70376 15.6519 7.41042 15.3424C7.93227 15.1175 8.48187 14.9487 8.99456 14.7002Z" fill="#FBA62F"/>
<path d="M16.6336 25.791C16.8369 26.1097 16.9708 26.4754 17.1879 26.7895C17.428 27.1645 17.7282 27.4879 18.0239 27.8207C18.4487 28.2848 18.9707 28.641 19.4741 29.0113C19.936 29.3488 20.4347 29.6254 20.9566 29.8644C21.7602 30.216 22.587 30.5582 23.4645 30.652C24.2728 30.7457 25.0857 30.8489 25.9031 30.8395C26.6006 30.8347 27.2979 30.8582 27.9953 30.7973C29.4548 30.6941 30.9096 30.5394 32.3598 30.3613C32.2259 30.502 32.0735 30.6238 31.898 30.7035C31.2237 31.0363 30.5402 31.3738 29.8104 31.5519C27.5196 32.0676 22.7255 31.9176 19.5064 30.2067C18.7674 29.7754 18.0562 29.2504 17.5804 28.5238C17.2802 28.0644 17.0032 27.577 16.8646 27.0379C16.7353 26.6301 16.6567 26.2129 16.6336 25.791Z" fill="#FBA62F"/>
<path d="M28.3325 32.4796C28.5819 32.4515 31.3715 32.8077 31.6209 32.878C31.898 32.9624 32.1428 33.1171 32.3783 33.2718C33.0757 33.7171 33.7593 34.1718 34.466 34.6031C35.4128 35.2031 36.3272 35.8593 37.2556 36.4874C37.9068 36.9515 38.5626 37.4155 39.2046 37.8984C39.8466 38.353 40.4377 38.878 41.1167 39.2765C41.2691 39.3515 41.4215 39.4405 41.5093 39.5952C41.1259 39.6749 40.7472 39.5671 40.3731 39.4968C39.8281 39.2765 39.3062 39.0093 38.7797 38.7468C37.1586 37.8468 35.5837 36.8765 33.9949 35.9155C33.0665 35.3671 28.3694 32.7374 28.3325 32.4796Z" fill="#FBA62F"/>
<path d="M23.072 21.8999C23.2706 21.9374 23.4184 22.078 23.5616 22.2046C24.0512 22.6546 24.6146 23.0061 25.1226 23.4374C26.2958 24.3092 27.5336 25.0874 28.8037 25.8139C28.9283 25.8843 29.0854 25.9499 29.0992 26.1139C28.9653 26.1046 28.8314 26.0764 28.7205 25.9921C28.4619 25.8093 28.1709 25.6874 27.903 25.5186C27.4643 25.2374 26.9886 25.0218 26.5775 24.703C25.9494 24.2999 25.3489 23.8498 24.7254 23.4374C24.259 23.0999 23.8202 22.7342 23.3999 22.3452C23.2845 22.2093 23.0489 22.1155 23.072 21.8999Z" fill="#F9E8A2"/>
<path d="M21.9913 23.5825C22.4208 23.845 22.7164 24.2762 23.1275 24.5669C23.9634 25.2794 24.901 25.8607 25.8894 26.3341C26.1572 26.4841 26.4297 26.62 26.7068 26.756C26.6884 26.7982 26.6699 26.845 26.6514 26.8872C25.7185 26.5263 24.8224 26.0669 24.0049 25.4856C23.6771 25.2465 23.3075 25.0638 23.0212 24.7685C22.7441 24.4872 22.4393 24.2247 22.1852 23.92C22.0975 23.8216 22.0328 23.7044 21.9913 23.5825Z" fill="#F9E8A2"/>
<path d="M20.2685 25.1572C20.698 25.4197 20.9936 25.851 21.4047 26.1417C22.2407 26.8541 23.1782 27.4354 24.1666 27.9088C24.1343 27.9932 24.1204 28.0354 24.0419 28.0822C23.4276 27.7916 22.8364 27.4541 22.2868 27.0604C21.9589 26.8213 21.5894 26.6385 21.3031 26.3432C21.026 26.0619 20.7212 25.7994 20.4671 25.4947C20.3747 25.3963 20.3147 25.2792 20.2685 25.1572Z" fill="#F9E8A2"/>
</svg>
