<svg width="48" height="48" viewBox="0 0 48 48" fill="none" xmlns="http://www.w3.org/2000/svg">
<g clip-path="url(#clip0_107_4324)">
<mask id="mask0_107_4324" style="mask-type:alpha" maskUnits="userSpaceOnUse" x="-9" y="0" width="65" height="57">
<path d="M46.8171 0H0.139431C-4.54772 0 -8.34741 3.36126 -8.34741 7.50759V48.7993C-8.34741 52.9457 -4.54772 56.3069 0.139431 56.3069H46.8171C51.5042 56.3069 55.3039 52.9457 55.3039 48.7993V7.50759C55.3039 3.36126 51.5042 0 46.8171 0Z" fill="#2A2931"/>
</mask>
<g mask="url(#mask0_107_4324)">
<path fill-rule="evenodd" clip-rule="evenodd" d="M6.28038 14.0386C7.03536 14.2912 7.7881 14.5431 8.60743 14.5598C8.63172 14.5602 8.64046 14.5708 8.63366 14.5914C7.34276 18.5264 6.99381 22.6791 8.08146 26.6895C8.43114 27.9784 9.03142 29.235 9.74462 30.399C11.63 33.4729 14.8361 35.8219 18.5252 36.9967C18.9252 37.1242 19.3788 37.2246 19.8285 37.3241C19.9996 37.362 20.1701 37.3998 20.337 37.4388C20.3627 37.4452 20.3685 37.4584 20.3545 37.4781C20.3058 37.5462 20.2572 37.6141 20.2088 37.6819C19.7087 38.382 19.2184 39.0683 18.6585 39.7311C18.6439 39.7482 18.6243 39.7579 18.5996 39.7601C17.1581 39.8615 15.8198 40.2365 14.5848 40.8853C14.4919 40.934 14.3789 40.9788 14.2638 41.0243C14.0519 41.1081 13.8328 41.1949 13.7186 41.3151C13.3536 41.6992 13.8431 42.4242 14.3451 42.1348C14.3878 42.1102 14.4306 42.0855 14.4734 42.0608C14.9804 41.7678 15.4917 41.4723 16.044 41.2874C16.6778 41.0751 17.3315 40.9195 18.0051 40.8202C18.0376 40.8155 18.0439 40.8247 18.024 40.8479C17.7557 41.1658 17.5678 41.4552 17.3813 41.7424C17.2634 41.924 17.146 42.1048 17.0092 42.2915C16.5087 42.9739 17.4427 43.3193 17.836 42.8089C18.0905 42.4785 18.5541 41.8558 19.2267 40.9407C19.3226 40.8101 19.362 40.8115 19.5179 40.817C19.5244 40.8172 19.531 40.8174 19.5379 40.8176C20.0307 40.8339 20.4382 40.8775 20.7603 40.9485C20.7923 40.9553 20.7945 40.9669 20.7668 40.9833C20.6207 41.067 20.4817 41.1596 20.3501 41.261C20.007 41.5233 20.5854 42.1916 21.0808 41.8983C21.1759 41.842 21.266 41.7739 21.354 41.7076C21.4561 41.6305 21.555 41.5558 21.6548 41.5046C22.3615 41.1433 23.1244 40.9216 23.9438 40.8396C23.9846 40.8352 24.0171 40.824 24.0414 40.806C24.0431 40.8043 24.0451 40.803 24.0474 40.8021C24.0496 40.8011 24.0521 40.8006 24.0546 40.8004L24.0591 40.8007L24.0619 40.8014C24.0643 40.8021 24.0665 40.8033 24.0684 40.8047L24.0707 40.8069L24.0729 40.81C24.0739 40.812 24.0746 40.8142 24.0747 40.8164C24.0748 40.8186 24.0744 40.8208 24.0736 40.8229C24.0728 40.825 24.0715 40.8269 24.0698 40.8286C23.6736 41.3218 23.2978 41.8165 22.9428 42.3127C22.7515 42.5804 22.7828 42.7991 23.0368 42.9688C23.3916 43.2065 23.7274 42.807 23.9052 42.5905C24.3428 42.0586 24.7823 41.528 25.2238 40.9987C25.3238 40.8793 25.4731 40.8357 25.6718 40.8679C26.8194 41.0535 27.776 41.485 28.5414 42.1626C28.8073 42.3978 29.5554 41.794 29.1088 41.3828C28.2954 40.6339 27.3085 40.159 26.1482 39.9579C26.1157 39.9519 26.1086 39.9367 26.1271 39.9122C26.7905 39.0469 27.4153 38.1604 28.0016 37.2526C28.0284 37.2109 28.0708 37.1785 28.1217 37.1611L28.9121 36.8923C30.5275 36.3437 31.9597 35.5506 33.2089 34.513C33.2632 34.4678 33.3202 34.4208 33.3787 34.3724C33.8126 34.0142 34.338 33.5804 34.5915 33.2216C34.6882 33.0845 34.7938 33.011 34.9084 33.0011C37.5529 32.7731 39.8804 32.3387 42.248 31.7129C42.3831 31.6773 42.5159 31.5937 42.6465 31.4623C42.662 31.4466 42.6698 31.426 42.6684 31.4049C42.6327 30.9757 42.3042 30.8623 41.8722 30.8204C41.8469 30.8182 41.826 30.8086 41.8095 30.7914C41.2592 30.2049 40.6929 29.6312 40.1106 29.0701C38.6777 27.6897 37.3205 26.2436 35.9902 24.7871C35.9883 24.785 35.9867 24.7827 35.9855 24.7801C35.9848 24.7786 35.9842 24.7771 35.9838 24.7756C35.9827 24.7713 35.9827 24.7669 35.9839 24.7627C35.9849 24.7584 35.9872 24.7545 35.9903 24.7511C35.9934 24.7478 35.9974 24.7451 36.0019 24.7433C38.9429 23.5743 41.0613 21.2234 41.607 18.4104C41.6318 18.2819 41.6332 18.182 41.6114 18.1107C41.5345 17.8591 41.327 17.8639 41.0578 17.8702C41.0105 17.8713 40.9613 17.8724 40.9105 17.8723C37.1452 17.8598 33.3801 17.8534 29.6152 17.853C29.4836 17.853 29.345 17.8371 29.2129 17.8219C29.1921 17.8195 29.1715 17.8172 29.1511 17.8149C29.1258 17.8119 29.1071 17.8003 29.095 17.7801C29.026 17.6615 28.9727 17.537 28.9347 17.4063C28.3745 15.482 27.8624 13.7491 26.8287 11.8513C25.7133 9.80386 24.0188 7.66046 21.6454 6.67833C20.868 6.35675 20.0959 6.12346 19.264 6.0442C16.4549 5.77869 13.6625 6.73053 11.5273 8.33196C10.4287 9.15621 9.63389 10.1364 8.76334 11.2204C8.70068 11.2985 8.62176 11.3598 8.52657 11.404C7.55135 11.8586 6.56764 12.3 5.57542 12.7283C5.22939 12.8779 5.07786 13.1195 5.15726 13.4514C5.24738 13.8267 5.48769 13.864 5.7701 13.908C5.87809 13.9248 5.99224 13.9426 6.1065 13.9805C6.16449 13.9998 6.22245 14.0192 6.28038 14.0386ZM9.78105 13.4572C8.80437 13.4765 7.78617 13.4441 6.72645 13.3599C6.70799 13.3586 6.70533 13.3519 6.71844 13.34C6.7772 13.2883 6.84568 13.2458 6.92387 13.2123C7.28778 13.055 7.63424 12.874 7.98057 12.693C8.24295 12.5558 8.50525 12.4187 8.77499 12.2921C8.81383 12.2738 8.85238 12.256 8.89054 12.2383C9.21734 12.0871 9.51468 11.9495 9.71038 11.6811C11.2286 9.59893 13.3164 7.83252 16.1219 7.24737C17.2074 7.02052 18.3205 6.90002 19.4227 7.06371C23.2488 7.63339 25.5691 11.1546 26.7347 14.0997C27.3039 15.5385 27.7482 16.8792 28.0678 18.1217C28.2477 18.8221 28.5457 18.8293 29.2822 18.846C29.3075 18.8465 29.3286 18.8551 29.3456 18.8718C29.3645 18.8909 29.3881 18.9106 29.4118 18.9304C29.4432 18.9566 29.4746 18.9828 29.4949 19.0078C32.4155 22.5877 35.5029 25.8795 38.674 29.0585C39.267 29.6526 39.9269 30.2745 40.6533 30.9241C40.6993 30.9652 40.7535 31.0012 40.8078 31.0372C40.8337 31.0543 40.8594 31.0715 40.8843 31.0891C40.9008 31.1012 40.8988 31.1093 40.8785 31.1136C38.72 31.5815 37.0262 31.8702 34.9238 32.0558C33.2154 32.206 31.4627 32.195 29.7732 32.0661C26.6188 31.8264 23.5002 30.8333 21.4115 28.608C19.8787 26.9757 18.8436 24.1781 20.5286 22.3563C21.8471 20.9301 24.2869 20.7909 26.1424 21.2588C26.2375 21.2827 26.3441 21.3262 26.4548 21.3712C26.6755 21.4612 26.9121 21.5576 27.1033 21.5172C27.4427 21.4457 27.6897 21.0468 27.5069 20.7851C27.4384 20.6863 27.2966 20.601 27.0815 20.5293C25.5887 20.0318 23.8265 19.8855 22.2843 20.285C20.2299 20.8168 18.7591 22.3356 18.6323 24.2632C18.5252 25.9021 19.213 27.5859 20.3093 28.8974C23.3289 32.5114 28.4736 33.172 33.1811 33.152C33.2074 33.152 33.2117 33.1606 33.1943 33.1778C31.595 34.7605 29.6586 35.8335 27.3852 36.3967C25.6827 36.8189 23.8571 36.9645 22.057 36.7383C21.7316 36.6975 21.4062 36.6556 21.0808 36.6127C20.388 36.5218 19.5983 36.3059 19.0497 36.1403C15.5056 35.0698 12.6193 32.9238 10.7601 30.069C8.95055 27.2895 8.31749 24.0724 8.51856 20.8702C8.64823 18.7951 8.9542 16.8192 9.69727 14.8949C9.80255 14.6235 9.94934 14.3905 10.105 14.1434C10.1131 14.1306 10.1212 14.1177 10.1293 14.1049C10.3536 13.7504 10.323 13.4463 9.78105 13.4572ZM40.4683 18.837C39.7092 21.1699 37.8064 23.1284 35.2494 24.0203C35.2008 24.037 35.16 24.0275 35.127 23.9919C33.5967 22.3271 32.1289 20.6199 30.7239 18.8705C30.7196 18.8651 30.7171 18.8587 30.7165 18.8521C30.716 18.8455 30.7175 18.8388 30.7209 18.833C30.7243 18.8271 30.7294 18.8222 30.7358 18.8188C30.742 18.8154 30.7493 18.8137 30.7567 18.8138L40.4421 18.8054C40.4664 18.8054 40.4751 18.8159 40.4683 18.837ZM21.7008 40.2318C21.2053 40.0595 20.6617 39.9397 20.0697 39.8722C20.0592 39.8711 20.0494 39.8677 20.0407 39.8624C20.0321 39.857 20.0252 39.8499 20.0205 39.8416C20.0157 39.8333 20.0133 39.8242 20.0135 39.8149C20.0137 39.8056 20.0165 39.7965 20.0215 39.7884C20.4436 39.107 20.9185 38.4441 21.4465 37.7997C21.5106 37.7215 21.5849 37.6869 21.6694 37.696C23.3154 37.8773 24.9503 37.8221 26.5744 37.5303C26.6171 37.523 26.6266 37.5352 26.6028 37.5671L25.0431 39.6892C25.0256 39.7128 25.0018 39.7323 24.9739 39.7459C24.9459 39.7595 24.9146 39.7668 24.8828 39.7672C23.8739 39.7781 22.996 39.9553 22.0293 40.2363C21.9419 40.2615 21.7867 40.2621 21.7008 40.2318ZM15.3263 10.8117C14.8557 11.4368 14.9897 12.2894 15.4946 12.8565C16.521 14.0075 18.6381 13.6582 19.1749 12.2849C19.5698 11.2731 18.6614 10.1705 17.5409 9.9488C16.6784 9.77866 15.8028 10.1782 15.3263 10.8117Z" fill="#C9C9C9"/>
</g>
</g>
<defs>
<clipPath id="clip0_107_4324">
<rect width="48" height="48" fill="white"/>
</clipPath>
</defs>
</svg>
