<svg width="48" height="48" viewBox="0 0 48 48" fill="none" xmlns="http://www.w3.org/2000/svg">
<mask id="mask0_107_4400" style="mask-type:luminance" maskUnits="userSpaceOnUse" x="3" y="3" width="42" height="42">
<path d="M45 3H3V45H45V3Z" fill="white"/>
</mask>
<g mask="url(#mask0_107_4400)">
<path d="M29.2951 11.5276C30.8701 11.1256 32.5476 11.1626 34.1144 11.5891C34.3031 11.6343 34.4918 11.704 34.6435 11.8311C34.5492 11.8394 34.4548 11.8352 34.3605 11.8147C32.7404 11.4497 31.0546 11.4374 29.4099 11.6548C29.2787 11.6671 29.1434 11.7081 29.0162 11.663C29.1064 11.6096 29.1926 11.5522 29.2951 11.5276Z" fill="#91AEB6"/>
<path d="M16.9453 15.1822C17.0069 15.0879 17.0274 14.9361 17.1586 14.9238C17.0396 15.4078 16.7936 15.8508 16.4777 16.2322C16.3136 16.4332 16.125 16.6259 15.8789 16.7162C16.2521 16.2158 16.6746 15.7482 16.9453 15.1822Z" fill="#FEFEFD"/>
<path d="M21.6211 14.9359C22.101 14.8211 22.5891 15.0754 22.8516 15.4732C22.8516 15.5143 22.8516 15.5963 22.8516 15.6373C22.5563 15.6578 22.2609 15.584 21.9739 15.5348L21.9574 15.5963L21.8959 15.6496C21.9 15.383 21.8343 15.1082 21.6211 14.9359Z" fill="#91AEB6"/>
<path d="M30.7061 16.4535C31.0793 16.3673 31.4689 16.4288 31.8463 16.474C31.7601 16.5437 31.674 16.6093 31.5838 16.679C31.3213 16.6257 31.0465 16.5396 30.7758 16.6093C30.7389 16.5642 30.7101 16.5109 30.7061 16.4535Z" fill="#91AEB6"/>
<path d="M18.6802 17.3066C18.8156 17.3764 18.8525 17.5445 18.9592 17.6471C19.2749 17.9875 19.6769 18.3443 20.1732 18.3198C20.2757 18.3198 20.3783 18.3198 20.4808 18.3279C20.0994 18.4715 19.681 18.4469 19.3037 18.5904L19.2873 18.5945C18.951 18.25 18.6351 17.8111 18.6802 17.3066Z" fill="#91AEB6"/>
<path d="M10.3951 17.9133C10.5017 17.7369 10.5878 17.5482 10.6658 17.3555C10.6617 17.4949 10.6863 17.6343 10.7274 17.7657L10.7355 17.7902C10.6699 17.9051 10.6043 18.0199 10.5141 18.1143C10.4238 18.1019 10.4197 17.9953 10.3828 17.9338L10.3951 17.9133Z" fill="#FEFEFD"/>
<path d="M36.317 17.9502C36.5221 18.102 36.7805 18.2209 36.8912 18.4629C36.5959 18.426 36.3621 18.2004 36.0914 18.0896C36.1652 18.0404 36.2431 17.9953 36.317 17.9502Z" fill="#91AEB6"/>
<path d="M23.0279 18.7918C23.3438 18.7713 23.6596 18.6564 23.9754 18.7425C23.4997 18.9641 22.9869 19.0953 22.4865 19.2471C22.6096 19.1159 22.7285 18.9805 22.8598 18.8534C22.9131 18.8287 22.9705 18.8082 23.0279 18.7918Z" fill="#91AEB6"/>
<path d="M18.5859 19.1521C18.7664 19.0536 18.9304 19.2915 19.0986 19.3407C19.2422 19.4228 19.3816 19.5089 19.5293 19.5827C19.4186 19.5991 19.3119 19.6319 19.2135 19.6893C19.0084 19.5048 18.75 19.3817 18.5859 19.1521Z" fill="#91AEB6"/>
<path d="M32.2893 19.9932C32.5928 20.0752 32.8799 20.2105 33.1629 20.3336C33.0234 20.3418 32.884 20.3746 32.7446 20.3828C32.5271 20.309 32.318 20.2065 32.1293 20.0711C32.1704 20.0506 32.2483 20.0095 32.2893 19.9932Z" fill="#91AEB6"/>
<path d="M18.7418 20.9648C18.8771 21.0264 19.0207 21.0756 19.1601 21.1289C18.9756 21.1043 18.7869 21.1002 18.5982 21.1207C18.6679 21.2847 18.8566 21.3258 19.0166 21.3381C19.4267 21.3627 19.8369 21.334 20.2429 21.3708C20.1404 21.4857 19.9641 21.4119 19.8328 21.4324C19.3119 21.416 18.7213 21.4611 18.2783 21.133C18.4136 21.0346 18.5777 20.9935 18.7418 20.9648Z" fill="#91AEB6"/>
<path d="M31.6617 23.918C32.2072 24.0861 32.7077 24.3814 33.2203 24.6316C34.2129 25.1854 35.1604 25.8252 36.0504 26.5306C36.116 26.5922 36.1694 26.666 36.2226 26.7357C36.1734 26.7194 36.0791 26.6907 36.0299 26.6742C34.8733 25.9646 33.7372 25.2181 32.5518 24.5578C32.2319 24.3856 31.9365 24.1559 31.5961 24.0164L31.6617 23.918Z" fill="#91AEB6"/>
<path d="M18.75 7.98382C20.6203 7.16351 22.6546 6.67132 24.7054 6.72464C24.0779 7.1471 23.3929 7.49984 22.8474 8.03304C22.5809 8.30784 22.2609 8.55394 22.0886 8.89847C22.3102 8.77132 22.5275 8.64417 22.7695 8.55804C24.0779 8.09866 25.4192 7.70491 26.8014 7.57366C27.8062 7.45882 28.8234 7.45882 29.8242 7.57366C29.6684 7.71311 29.4428 7.70491 29.2623 7.79515C28.2656 8.193 27.2484 8.54163 26.2764 9.00101C26.2148 9.03382 26.1287 9.05433 26.1246 9.13636C26.3461 9.07894 26.5758 9.08304 26.8054 9.08714C27.5971 9.10355 28.3928 9.11585 29.1721 9.25941C30.099 9.43167 31.0259 9.64906 31.8914 10.0346C32.9824 10.4776 33.9996 11.0928 34.9389 11.8024C35.0414 11.8762 35.1317 11.9623 35.2219 12.0484C35.0373 11.9582 34.824 11.9254 34.6394 11.8311C34.4836 11.704 34.299 11.6383 34.1104 11.5891C32.5435 11.1625 30.866 11.1256 29.291 11.5276C29.1885 11.5522 29.1024 11.6096 29.0162 11.6588C28.7701 11.7203 28.5158 11.7654 28.2779 11.8557C29.5248 12.0115 30.706 12.512 31.7724 13.16C33.2982 14.0992 34.6067 15.3543 35.7756 16.7037C36.3621 17.3969 36.8748 18.1475 37.4162 18.8734C37.2522 18.7422 37.084 18.6192 36.9076 18.5043L36.8871 18.4633C36.7804 18.2213 36.5179 18.1024 36.3129 17.9506C34.9429 17.1672 33.409 16.6668 31.8421 16.474C31.4648 16.433 31.0752 16.3715 30.7019 16.4535C30.706 16.5151 30.7347 16.5684 30.7758 16.6094C31.7766 17.1795 32.7568 17.8112 33.5772 18.6274C34.8486 19.8332 35.8207 21.3098 36.723 22.8027C36.4974 22.6428 36.2841 22.4665 36.0709 22.2942C35.2629 21.437 34.217 20.8381 33.1588 20.3377C32.8716 20.2106 32.5846 20.0793 32.2852 19.9973C32.2359 20.0096 32.1375 20.0301 32.0883 20.0424L32.1129 19.9645C31.957 19.9563 31.8094 19.9071 31.6617 19.8702C31.7766 19.9645 31.9529 19.9686 32.0472 20.0793C33.0727 20.8832 33.8766 21.9332 34.5656 23.0324C35.3613 24.3654 36.0421 25.7641 36.723 27.1545C36.5549 27.0192 36.3703 26.9002 36.2227 26.7402C36.1652 26.6705 36.116 26.5967 36.0504 26.5352C35.1562 25.8297 34.2129 25.1899 33.2203 24.6362C32.7076 24.3859 32.2072 24.0907 31.6617 23.9225C31.5099 23.8938 31.3828 23.8077 31.2434 23.7502C31.8709 24.304 32.2974 25.034 32.7486 25.7313C33.5607 27.0397 34.3359 28.3768 35.0004 29.7631C35.2506 30.2881 35.55 30.7926 35.7961 31.3176C35.7551 31.3012 35.673 31.2684 35.6361 31.2561C35.3736 31.0018 35.1111 30.7434 34.7953 30.5588C34.6641 30.4439 34.5533 30.6327 34.4549 30.6983C33.9463 30.6737 33.4582 30.5383 32.966 30.4234C31.6863 30.0953 30.423 29.6852 29.2254 29.1233C29.2746 29.2463 29.3279 29.3694 29.3812 29.4924C29.4797 29.7262 29.492 29.9846 29.5371 30.2348C29.7053 31.6375 29.6437 33.0936 29.1474 34.4266C28.6881 35.4766 28.0852 36.502 27.1828 37.2362C26.7604 37.027 26.3912 36.7234 26.0877 36.3625C25.7309 35.9359 25.3945 35.493 25.1074 35.0131C24.7506 34.4348 24.4799 33.8154 24.1477 33.2248C24.0738 33.0895 23.9713 32.9705 23.8729 32.8516L23.8647 32.946C23.7416 33.9303 23.3027 34.8409 22.8474 35.7145C22.4168 36.4938 21.9328 37.2402 21.3914 37.9416C21.0264 38.4174 20.6203 38.8768 20.1035 39.1885C19.8656 39.3197 19.6524 39.5085 19.3898 39.5987C18.8649 39.3197 18.4546 38.8481 18.1716 38.3272C18.7746 38.3928 19.2422 37.9498 19.6277 37.5561C20.6326 36.502 21.3586 35.2059 21.8795 33.8524C22.306 32.7942 22.5111 31.658 22.5685 30.526C22.8556 30.485 23.1346 30.4152 23.4135 30.3415C23.6596 30.2676 23.8482 30.4932 24.0492 30.5957C24.6439 30.9402 25.0828 31.4817 25.4848 32.0231C26.141 32.9172 26.6988 33.8811 27.1213 34.9064C27.3017 33.516 27.2936 32.0969 27.0885 30.7064C26.8916 29.4801 26.5019 28.2578 25.7514 27.2529C25.0746 26.3055 24.1312 25.5877 23.1059 25.0545C23.6841 25.1939 24.2789 25.1652 24.8654 25.1899C24.6849 24.8904 24.3814 24.71 24.1354 24.4762C24.7259 24.4311 25.3248 24.4557 25.8867 24.6484C27.15 25.0791 28.2697 25.8256 29.3238 26.6213C29.6519 26.8551 29.9431 27.1422 30.3123 27.3063C29.8037 26.285 29.1269 25.3457 28.3148 24.55C27.2977 23.5534 25.7841 23.0858 24.3855 23.3483C23.9672 23.4795 23.5037 23.3811 23.1059 23.5862C23.4011 23.217 23.84 23.0242 24.2502 22.8109C24.4019 22.733 24.5578 22.6674 24.7219 22.6264C25.2879 22.4705 25.8252 22.208 26.4035 22.0891C26.6865 22.0317 26.9736 22.0234 27.2567 21.9907C26.4568 21.6338 25.5422 21.6338 24.6931 21.7814C24.5373 21.5477 24.3692 21.3057 24.1272 21.158C23.7088 20.9447 23.2248 20.9694 22.7737 20.9242C21.9082 20.8668 21.0961 21.2483 20.2511 21.3508C19.841 21.3139 19.4309 21.3467 19.0248 21.318C18.8648 21.3098 18.6761 21.2647 18.6064 21.1006C18.7951 21.0801 18.9838 21.0842 19.1684 21.1088C19.0248 21.0596 18.8854 21.0063 18.75 20.9447C18.5654 20.8217 18.3931 20.6535 18.3644 20.4239L18.3972 20.3952C18.5367 20.4074 18.6105 20.551 18.7336 20.5961C18.9469 20.6904 19.1847 20.7314 19.4144 20.7602C19.0904 20.6659 18.7377 20.5223 18.5572 20.2024L18.4957 20.2147L18.5162 20.1203L18.4178 20.1449L18.4506 20.0506L18.3522 20.0752L18.3809 19.9932C18.307 19.9645 18.2332 19.9358 18.1594 19.9071L18.1471 19.8373C18.5572 20.0629 19.0125 20.1572 19.4759 20.2147C19.0535 19.9727 18.6064 19.7676 18.2086 19.4887C18.6229 19.7184 19.0535 19.9604 19.5375 20.0014C19.4431 19.8784 19.3406 19.7635 19.2258 19.6609C19.3242 19.6035 19.4309 19.5666 19.5416 19.5543C19.759 19.6527 19.9928 19.7266 20.2306 19.7389C20.1158 19.6199 20.0091 19.5051 19.882 19.4067C19.6811 19.2549 19.4965 19.0827 19.2996 18.9309C19.5744 19.099 19.8943 19.1401 20.1897 19.259C20.4727 19.3657 20.7721 19.4723 21.0796 19.4559C21.4488 19.4354 21.8056 19.3452 22.1707 19.2877C22.2814 19.2672 22.3921 19.2426 22.5029 19.218C23.0033 19.0662 23.516 18.9391 23.9918 18.7135C23.676 18.6274 23.3602 18.7422 23.0443 18.7627C23.3519 18.5699 23.5365 18.2418 23.7006 17.9301C23.9097 17.5199 24 17.0647 24.0492 16.6135C24.0779 16.4248 24.0738 16.2074 24.2338 16.0762C24.4799 15.8547 24.767 15.6907 25.0459 15.5143C25.3781 15.3051 25.7678 15.2231 26.1533 15.1821C25.7227 15.5594 25.2961 15.9737 25.0828 16.5192C25.5463 16.1787 25.9892 15.8014 26.5102 15.5553C27.2402 15.1574 28.0154 14.8293 28.8357 14.6817C29.9185 14.5135 31.0301 14.5217 32.117 14.6407C32.0104 14.571 31.9037 14.5053 31.7889 14.452C31.0096 14.1362 30.2385 13.7793 29.4099 13.6071C28.2697 13.3404 27.0926 13.3938 25.94 13.5168C25.3535 13.5784 24.7793 13.7383 24.1928 13.7711C24.525 13.4512 24.8777 13.1313 25.2796 12.9057C25.0008 12.8934 24.7178 12.8606 24.4471 12.9467C24.1067 13.0452 23.7826 13.2051 23.4504 13.3199C23.192 13.4102 22.9172 13.3364 22.6547 13.3527C21.6744 13.3446 20.85 13.9721 20.124 14.5627C19.5703 15.0467 18.8894 15.342 18.2619 15.7071C18.1347 15.908 18.1184 16.1665 17.9912 16.3715C17.6344 16.9949 17.1053 17.5609 16.4244 17.8276C15.965 18.0122 15.4687 17.926 14.9889 17.8973C14.8494 17.8891 14.4392 17.8358 14.3162 17.7742C14.066 17.6676 13.6354 17.524 13.3442 17.3231C12.5812 16.7734 12.8642 15.8957 12.8355 15.8752C13.0447 14.5668 13.742 13.3692 14.4926 12.2904C14.5377 12.2207 14.5828 12.1469 14.6238 12.0731C14.4556 12.1428 14.3244 12.2699 14.2014 12.393C13.7584 12.8483 13.3524 13.3364 12.9791 13.849C12.573 14.4233 12.2326 15.0713 12.1793 15.7809C12.0931 16.351 12.1957 16.9211 12.2654 17.483C11.8389 17.479 10.4689 18.1475 10.4689 18.2131C10.4279 18.0819 10.3213 17.5527 10.2884 17.602C10.1531 17.0032 10.0793 16.3838 10.1531 15.7727C10.1859 15.502 10.2721 15.2436 10.309 14.9729C9.88651 15.6291 9.57069 16.3633 9.45585 17.1385C9.37792 17.6184 9.37382 18.1024 9.3369 18.5864C8.96776 18.1311 8.86112 17.5159 8.82831 16.9457C8.77909 15.7112 9.25487 14.534 9.75936 13.4307C10.1818 12.512 10.7642 11.6711 11.4246 10.9082C11.6666 10.6416 11.884 10.3463 12.1834 10.1372C11.9947 10.5719 11.8348 11.0189 11.7363 11.4824C11.601 12.0731 11.3877 12.6596 11.4082 13.2748C11.9291 12.233 12.6141 11.2774 13.3359 10.3668C13.8363 9.7721 14.3531 9.19788 14.9355 8.68109C15.5179 8.1971 16.1086 7.70901 16.7935 7.37268C16.5105 8.17249 16.1332 8.95179 15.9855 9.79671C16.732 9.00101 17.7451 8.4637 18.75 7.98382ZM16.9453 15.1821C16.6746 15.7481 16.2522 16.2157 15.8789 16.712C16.125 16.6217 16.3136 16.429 16.4777 16.2279C16.7936 15.8465 17.0397 15.4035 17.1586 14.9196C17.0274 14.9359 17.0027 15.0836 16.9453 15.1821Z" fill="#FEFEFD"/>
<path d="M22.8516 15.4731C23.233 15.9653 23.1591 16.6544 22.9253 17.1916C22.6588 17.8602 22.0928 18.3565 21.4816 18.7051C21.0878 18.9389 20.6285 19.0456 20.1732 19.0538C19.8205 19.0538 19.5498 18.7995 19.3037 18.5821C19.6811 18.4386 20.0994 18.4631 20.4809 18.3196C20.608 18.2868 20.731 18.2416 20.8541 18.1966C21.4201 17.9874 21.781 17.4378 21.9041 16.8676C22.0394 16.4534 21.9861 16.0145 21.9615 15.5921L21.9779 15.5305C22.2691 15.5798 22.5604 15.6536 22.8556 15.6331C22.8516 15.5961 22.8516 15.5142 22.8516 15.4731Z" fill="#FEFEFD"/>
<path d="M25.9195 13.5453C27.0721 13.4181 28.2533 13.3649 29.3894 13.6356C30.2179 13.8078 30.9891 14.1646 31.7684 14.4805C31.8832 14.5297 31.9899 14.5994 32.0965 14.6692C31.0054 14.5502 29.898 14.542 28.8152 14.7101C27.9949 14.8537 27.2197 15.1859 26.4896 15.5838C25.9646 15.8299 25.5258 16.2072 25.0623 16.5476C25.2715 16.0021 25.7021 15.5879 26.1328 15.2106C25.7473 15.2516 25.3576 15.3377 25.0253 15.5428C24.7465 15.7192 24.4594 15.8832 24.2133 16.1047C24.0533 16.2359 24.0574 16.4574 24.0287 16.642C23.9795 17.0973 23.8892 17.5484 23.6801 17.9586C23.516 18.2744 23.3314 18.5984 23.0238 18.7912C22.9664 18.8077 22.909 18.8282 22.8516 18.8487C23.233 18.2949 23.5775 17.7002 23.7211 17.0357C23.8729 16.3139 23.9385 15.4813 23.4545 14.866C24 14.9931 24.5824 14.9276 25.1074 14.7348C25.5258 14.5953 25.9605 14.5051 26.3789 14.3615C27.1992 14.058 28.0851 14.058 28.9465 14.0416L28.9423 13.9596C27.4535 13.9431 25.9687 14.0006 24.4798 13.9883C24.3445 13.9883 24.2091 13.9596 24.082 13.9144C24.1066 13.8857 24.1517 13.8283 24.1723 13.7955C24.7628 13.7668 25.3371 13.6069 25.9195 13.5453Z" fill="#728D97"/>
<path d="M31.8463 16.4692C33.4131 16.662 34.9471 17.1624 36.317 17.9458C36.2431 17.9909 36.1652 18.036 36.0873 18.0853C34.6681 17.388 33.1342 16.9614 31.5838 16.6743C31.674 16.6045 31.7601 16.539 31.8463 16.4692Z" fill="#728D97"/>
<path d="M10.3582 17.4707C10.3992 17.1549 10.6452 16.9088 10.7396 16.6094C10.7231 16.8596 10.7231 17.1139 10.6657 17.36C10.5919 17.5528 10.5017 17.7414 10.3951 17.9177C10.2351 17.7824 10.4648 17.6143 10.3582 17.4707Z" fill="#FEFEFD"/>
<path d="M22.2691 19.0861C22.5152 19.1353 22.6383 18.8933 22.8556 18.8481C22.7285 18.9753 22.6055 19.1106 22.4824 19.2419C22.3717 19.2706 22.2609 19.2911 22.1502 19.3116C22.1379 19.2789 22.1092 19.2173 22.0968 19.1886C22.1379 19.1968 22.224 19.2091 22.265 19.2173C22.2691 19.1845 22.2691 19.1188 22.2691 19.0861Z" fill="#728D97"/>
<path d="M19.1889 19.37C19.1971 19.3453 19.2093 19.2961 19.2176 19.2715C19.2298 19.3043 19.2545 19.37 19.2668 19.3987C19.4636 19.5012 19.6974 19.5299 19.8902 19.6447C19.8861 19.5915 19.8779 19.4848 19.8697 19.4274C19.9968 19.5299 20.1035 19.6447 20.2184 19.7596C19.9764 19.7473 19.7466 19.6735 19.5293 19.575C19.3816 19.5012 19.2421 19.4151 19.0986 19.333L19.1889 19.37Z" fill="#728D97"/>
<path d="M18.1634 20.0464C18.3029 20.0956 18.3808 20.2268 18.4711 20.3335L18.3849 20.4155L18.3521 20.4442C18.3849 20.6739 18.5572 20.8421 18.7376 20.9651C18.5736 20.9938 18.4095 21.0349 18.2742 21.1291L18.2578 21.1374C18.0158 20.8216 18.1963 20.4114 18.1634 20.0464Z" fill="#728D97"/>
<path d="M32.7445 20.3827C32.884 20.3745 33.0234 20.3417 33.1629 20.3335C34.2211 20.8339 35.267 21.4327 36.075 22.2899C35.8125 22.1997 35.5951 22.0274 35.3613 21.8839C34.5205 21.3343 33.5894 20.9282 32.7445 20.3827Z" fill="#728D97"/>
<path d="M24.6891 21.7969C25.5381 21.6451 26.4527 21.6493 27.2525 22.0061C26.9654 22.0389 26.6783 22.0471 26.3994 22.1045C25.8211 22.2235 25.2838 22.486 24.7178 22.6419C24.7259 22.3589 24.7178 22.0758 24.6891 21.7969Z" fill="#728D97"/>
<path d="M24.3813 23.3604C25.7841 23.0979 27.2935 23.5614 28.3106 24.5622C29.1228 25.3579 29.8036 26.3012 30.3081 27.3184C29.9348 27.1544 29.6436 26.8672 29.3196 26.6335C28.2655 25.8337 27.1458 25.0872 25.8825 24.6606C25.3206 24.4678 24.7177 24.4391 24.1311 24.4883C24.3773 24.7221 24.6848 24.9026 24.8612 25.202C24.2747 25.1774 23.68 25.2061 23.1017 25.0667C24.127 25.5999 25.0704 26.3217 25.7472 27.2651C26.4978 28.2699 26.8874 29.4922 27.0842 30.7186C27.2893 32.109 27.2975 33.5282 27.1171 34.9186C26.6946 33.8932 26.1368 32.9294 25.4805 32.0352C25.0745 31.4938 24.6356 30.9524 24.045 30.6079C23.844 30.5053 23.6554 30.2797 23.4092 30.3536C23.1304 30.4274 22.8515 30.493 22.5643 30.5382C22.511 31.6743 22.3018 32.8104 21.8753 33.8645C21.3544 35.218 20.6284 36.5141 19.6235 37.5682C19.2339 37.9661 18.7663 38.405 18.1675 38.3393H18.1347C17.9337 37.9292 17.7204 37.5149 17.6055 37.0678C17.5071 36.4403 17.5276 35.7964 17.5728 35.1647C17.6547 34.488 17.6507 33.803 17.7943 33.1345C17.8558 33.2247 17.9009 33.3272 17.9255 33.4338C18.2577 34.652 18.5653 35.8907 19.1313 37.0268C19.1723 37.1007 19.2216 37.1662 19.2667 37.2401C20.1075 36.5059 20.7105 35.542 21.1862 34.5412C21.8958 33.1139 22.2075 31.4979 22.1009 29.9106C22.6013 29.9188 23.1017 29.8901 23.598 29.9598C23.9425 30.0419 24.2378 30.2551 24.5085 30.4807C25.177 31.055 25.6856 31.7809 26.1737 32.5028C26.4075 32.8473 26.551 33.2452 26.8341 33.5528C26.9038 32.1993 26.8259 30.817 26.4198 29.5127C26.1163 28.4792 25.5544 27.5317 24.8202 26.7483C24.3773 26.2684 23.8276 25.9034 23.2862 25.5507C22.7161 25.1692 22.0558 24.9272 21.3831 24.8042C21.543 24.677 21.7563 24.6524 21.9286 24.5457C22.4618 24.2217 23.0319 23.9633 23.5815 23.6639C23.8318 23.5204 24.1188 23.4752 24.3813 23.3604Z" fill="#728D97"/>
<path d="M29.2253 29.1226C30.423 29.6886 31.6863 30.0946 32.966 30.4227C33.4582 30.5375 33.9463 30.6729 34.4548 30.6976C34.5492 30.6319 34.6641 30.4432 34.7953 30.558C35.1152 30.7386 35.3736 31.0011 35.6361 31.2553C34.9101 31.1815 34.1965 31.0175 33.4787 30.8903C32.1457 30.6442 30.8332 30.275 29.6109 29.6886C29.5125 29.6476 29.4386 29.5573 29.4428 29.4465C29.4264 29.4588 29.3976 29.4835 29.3812 29.4917C29.3279 29.3686 29.2746 29.2455 29.2253 29.1226Z" fill="#728D97"/>
<path d="M23.8769 32.855C23.9754 32.9699 24.0779 33.0888 24.1518 33.2282C24.484 33.8188 24.7588 34.4382 25.1115 35.0165C25.3986 35.4923 25.735 35.9393 26.0918 36.3659C26.3953 36.7228 26.7644 37.0303 27.1869 37.2396C27.15 37.2765 27.1172 37.3134 27.0843 37.3503C26.5676 37.1616 26.0549 36.9114 25.6857 36.4848C24.9967 35.6851 24.4963 34.7417 24.0984 33.7737C23.9959 33.5071 23.8934 33.2364 23.8646 32.9534L23.8769 32.855Z" fill="#728D97"/>
<path d="M9.57072 21.0019C9.84142 20.8255 10.1655 20.9527 10.428 21.0757C9.91115 21.4695 9.36564 21.8714 9.05393 22.4579C8.25002 23.8238 8.14338 25.4644 8.23772 27.0148C8.34846 28.3273 8.54943 29.6562 9.08264 30.8743C9.14826 31.0302 9.22209 31.1983 9.38205 31.2763C9.42307 31.4403 9.4928 31.6004 9.5051 31.7767L9.49279 31.8177C8.75862 30.8087 8.29104 29.6233 8.00392 28.4134C7.83576 27.5521 7.73322 26.6744 7.74142 25.8007C7.77424 24.5661 8.00803 23.3152 8.60275 22.2201C8.84064 21.7525 9.14006 21.3054 9.57072 21.0019Z" fill="#FFF25C"/>
<path d="M8.90213 31.5879C8.90657 31.5924 8.91101 31.5968 8.91545 31.6012C8.91101 31.5968 8.90657 31.5879 8.90213 31.5879Z" fill="#FFF25C"/>
<path d="M22.4907 22.1994L22.5111 22.1338C22.4907 22.1378 22.4702 22.1378 22.4496 22.142L22.4907 22.1994Z" fill="#040C19"/>
<path d="M39.7295 32.3552C39.3768 32.1625 39.1225 31.8302 38.9871 31.4529C38.8107 30.9607 38.6877 30.4521 38.6344 29.9353C38.7246 30.0132 38.8149 30.0912 38.901 30.1773C39.6516 30.9443 40.6114 31.5308 41.6614 31.7688C41.2101 31.0632 40.8082 30.3291 40.4678 29.5662C39.8526 28.2004 39.2455 26.81 38.9379 25.3374C39.5695 25.7271 40.2217 26.0757 40.8779 26.4121C40.5457 25.3457 40.1151 24.3079 39.7295 23.2579C39.4547 22.491 39.1348 21.7404 38.8887 20.9611C39.2742 21.1005 39.6229 21.318 40.0043 21.4533C39.8321 20.8257 39.5737 20.2188 39.3399 19.6117C38.7984 18.2459 38.1873 16.9047 37.4244 15.6454C37.1332 15.1574 36.801 14.6939 36.5098 14.2017C37.0881 14.3371 37.6623 14.4847 38.2447 14.6078C39.0938 14.7595 39.9592 14.8005 40.8205 14.78C40.0822 14.0336 39.3234 13.3117 38.5237 12.6308C36.8748 11.1994 35.066 9.9238 33.0481 9.07477C33.1834 8.89021 33.3967 8.79176 33.5731 8.65231C32.884 8.16013 32.0678 7.90993 31.2639 7.68434C31.6904 7.33161 32.2524 7.21266 32.7282 6.95016C31.9283 6.61794 31.0629 6.46208 30.2098 6.34314C28.6799 6.17087 27.1254 6.28161 25.6202 6.60153C25.8785 6.32673 26.2313 6.17497 26.5348 5.95758C26.7029 5.83454 26.8875 5.7361 27.0721 5.64587C26.8342 5.57614 26.584 5.56383 26.3379 5.53923C24.7547 5.43258 23.1633 5.62536 21.6129 5.95758C20.7106 6.16676 19.8041 6.40466 18.9592 6.7861C18.5942 6.94196 18.2578 7.15934 17.9051 7.34391C18.0117 7.09372 18.2332 6.92146 18.4096 6.72048C18.7008 6.38415 19.0453 6.10524 19.3857 5.82224C18.8157 5.76071 18.2332 5.83454 17.6836 5.9945C16.8715 6.22829 16.084 6.57282 15.3827 7.0486C14.7551 7.47516 14.1439 7.94684 13.66 8.54157C13.5164 8.70973 13.3893 8.89431 13.2047 9.02146C13.4056 8.63591 13.6476 8.27497 13.9143 7.93044C12.4418 8.46364 11.1785 9.47263 10.2106 10.6908C9.33283 11.7654 8.62735 12.9959 8.22951 14.3289C7.9506 15.2271 7.76193 16.1664 7.79884 17.1097C7.77013 17.8644 7.90958 18.656 8.33205 19.2959C7.28615 20.6042 6.45353 22.1137 6.02697 23.7379C5.72345 24.8986 5.69474 26.1167 5.85881 27.3021C6.01466 28.7172 6.53146 30.0871 7.31896 31.2725C7.92189 32.1748 8.70939 32.9746 9.68556 33.4709C10.1408 33.7375 10.6617 33.8441 11.1744 33.922C10.8299 33.1058 10.6453 32.2158 10.674 31.3299C10.6782 30.8541 10.7027 30.3332 10.9939 29.9313C11.3877 29.4965 11.8799 29.1642 12.3721 28.8484C12.9381 28.4834 13.5615 28.2291 14.1563 27.9215C14.5623 28.5654 14.9151 34.6234 14.7797 35.4232C14.7469 36.5306 14.9151 37.638 15.2719 38.684C15.6287 39.7422 16.1332 40.7675 16.8387 41.6371C17.3678 42.3015 18.1389 42.765 18.9715 42.9209C19.558 43.0193 20.1404 42.8306 20.6819 42.6174C22.1256 42.0021 23.2945 40.8619 24.1559 39.5699C24.6768 40.1154 25.3084 40.5748 26.0467 40.7635C26.666 40.9316 27.3181 40.7757 27.8965 40.5297C28.7742 40.1236 29.5617 39.5248 30.2098 38.8111C31.1244 37.8103 31.8914 36.6783 32.5026 35.4642C33.4705 35.9605 34.4877 36.3953 35.5664 36.588C36.1939 36.4527 36.8256 36.3542 37.449 36.2025C39.5819 35.6775 41.5506 34.6111 43.2856 33.2822C42.0715 33.0894 40.7959 32.9992 39.7295 32.3552ZM9.94396 26.9084C9.57892 27.6712 9.37794 28.5079 9.31642 29.3488C9.30822 29.9927 9.27541 30.6367 9.38205 31.2765C9.42306 31.4406 9.49279 31.6005 9.50099 31.7769L9.5256 31.7072C9.57892 31.9082 9.66916 32.101 9.71837 32.306C9.42716 32.0968 9.15646 31.8672 8.91036 31.6047C8.90626 31.6005 8.90216 31.5965 8.89806 31.5924C7.90958 30.6285 7.26564 29.3652 6.9006 28.0486C6.58478 26.7813 6.57248 25.4482 6.80626 24.1644C6.9047 23.6148 7.09748 23.0857 7.31076 22.5689C8.44279 20.0587 10.6494 18.9103 11.2277 18.5535C11.6625 18.3238 12.126 18.0039 12.6428 18.1269C13.1842 18.2007 13.5657 18.6232 13.9143 19.0005C14.0824 19.2015 14.3572 19.2549 14.6074 19.2549C14.5008 19.46 14.5459 19.6978 14.55 19.9193C14.5869 20.592 14.9643 21.1867 15.4072 21.6748C15.5672 21.8512 15.7928 21.9373 15.9938 22.0521C16.2604 22.1382 16.5434 22.1547 16.8223 22.1752C16.7033 22.3146 16.5434 22.4049 16.367 22.4623C16.4532 22.573 16.5434 22.6797 16.6295 22.7904C16.7607 22.7945 16.9043 22.8027 17.0109 22.7125C17.5934 22.3392 18.225 22.0316 18.91 21.9004C19.2791 21.8552 19.6564 21.8675 20.0256 21.7978C20.6777 21.6707 21.293 21.4082 21.9533 21.3262C22.4004 21.2688 22.8598 21.2236 23.3109 21.2688C23.516 21.322 23.7211 21.3836 23.9221 21.4492C24.0492 21.4656 24.1723 21.4984 24.2953 21.5353C24.3732 21.642 24.3897 21.7691 24.3774 21.8962C24.2379 21.888 24.1067 21.8388 24.0205 21.7199C23.5242 21.765 23.0197 21.7978 22.5481 21.9578C22.3102 22.0193 22.0805 22.089 21.8426 22.1465C21.0346 22.3064 20.2553 22.5689 19.4637 22.7822C18.7459 22.9709 16.3178 23.5574 16.0101 23.459C16.0101 23.459 15.5549 23.9265 15.2144 24.0578C14.7592 24.2137 13.2088 24.8125 13.0817 24.8576C12.7043 24.7058 12.3639 25.0667 11.966 25.0627C11.6871 25.0586 11.4041 25.1283 11.1827 25.3005C10.6453 25.7189 10.2188 26.2808 9.94396 26.9084ZM15.2842 25.1898C14.7059 25.4195 14.2178 25.8174 13.6928 26.1454C13.2662 26.4162 12.8848 26.7484 12.5115 27.0847C12.0768 27.4867 11.5641 27.7943 11.1539 28.2291C11.5764 27.1954 12.1957 26.2234 13.0407 25.481C13.3524 25.276 17.1299 24.0332 17.1299 24.0332C17.9666 23.7912 18.6762 23.3113 19.5088 23.0652C20.2553 22.8314 21.0305 22.7002 21.7811 22.4828C22.0067 22.4541 23.3356 22.3433 23.7457 22.4664C23.2864 22.6961 22.8024 22.8642 22.3594 23.1267C22.0764 23.2908 21.7893 23.463 21.4694 23.541C20.7269 23.7337 19.9928 23.9675 19.2586 24.185C17.9543 24.6074 16.5516 24.6443 15.2842 25.1898ZM36.9077 18.5042L36.8871 18.4632C36.5918 18.4263 36.358 18.2007 36.0873 18.09C34.6681 17.3927 33.1342 16.9662 31.5838 16.6791C31.3213 16.6257 31.0465 16.5396 30.7758 16.6093C31.7766 17.1795 32.7569 17.8111 33.5772 18.6273C34.8487 19.8332 35.8207 21.3097 36.7231 22.8027C36.4975 22.6427 36.2842 22.4664 36.0709 22.2941C35.8084 22.2039 35.591 22.0316 35.3572 21.888C34.5164 21.3343 33.5854 20.9283 32.7404 20.3869C32.5231 20.313 32.3139 20.2105 32.1252 20.0752C32.1662 20.0547 32.2442 20.0137 32.2851 19.9972C32.2359 20.0095 32.1375 20.03 32.0883 20.0424L32.1129 19.9685C31.957 19.9603 31.8094 19.9111 31.6617 19.8742C31.7766 19.9685 31.9529 19.9726 32.0473 20.0834C33.0726 20.8873 33.8766 21.9373 34.5657 23.0365C35.3614 24.3695 36.0422 25.7681 36.7231 27.1586C36.5549 27.0232 36.3703 26.9042 36.2226 26.7443C36.1734 26.7279 36.0791 26.6992 36.0299 26.6828C34.8732 25.9732 33.7371 25.2267 32.5518 24.5664C32.2319 24.3941 31.9365 24.1644 31.5961 24.0249L31.6577 23.9306C31.5059 23.9019 31.3787 23.8158 31.2393 23.7584C31.8668 24.3121 32.2934 25.0422 32.7445 25.7394C33.5567 27.0478 34.3319 28.385 34.9963 29.7712C35.2465 30.2962 35.5459 30.8007 35.792 31.3257C35.751 31.3093 35.6689 31.2765 35.632 31.2642C34.9061 31.1904 34.1924 31.0263 33.4746 30.8992C32.1416 30.6531 30.8291 30.284 29.6069 29.6975C29.5084 29.6564 29.4346 29.5662 29.4387 29.4555C29.4223 29.4677 29.3936 29.4924 29.3772 29.5005C29.4756 29.7343 29.4879 29.9927 29.533 30.243C29.7012 31.6457 29.6397 33.1017 29.1434 34.4347C28.684 35.4847 28.0811 36.5101 27.1787 37.2443C27.1418 37.2813 27.109 37.3181 27.0762 37.355C26.5594 37.1664 26.0467 36.9162 25.6776 36.4896C24.9885 35.6898 24.4881 34.7465 24.0902 33.7785C23.9877 33.5119 23.8852 33.2412 23.8564 32.9582C23.7334 33.9425 23.2945 34.8531 22.8393 35.7267C22.4086 36.506 21.9246 37.2525 21.3832 37.9539C21.0181 38.4297 20.6121 38.889 20.0953 39.2007C19.8533 39.332 19.6442 39.5207 19.3817 39.6109C18.8567 39.332 18.4465 38.8603 18.1635 38.3394H18.1306C17.9297 37.9292 17.7165 37.515 17.6016 37.068C17.5072 36.4404 17.5237 35.7965 17.5688 35.1648C17.6467 34.488 17.6467 33.8031 17.7862 33.1345C17.8477 33.2248 17.8928 33.3273 17.9174 33.434C18.2496 34.6521 18.5572 35.8908 19.1232 37.0269C19.1643 37.1007 19.2094 37.1664 19.2586 37.2402C20.0994 36.506 20.7024 35.5422 21.1782 34.5414C21.8877 33.114 22.1994 31.498 22.0928 29.9107C22.5931 29.9189 23.0936 29.8902 23.5899 29.96C23.9344 30.042 24.2297 30.2552 24.5004 30.4808C25.1689 31.055 25.6776 31.781 26.1657 32.5029C26.3994 32.8475 26.543 33.2453 26.826 33.5529C26.8957 32.1994 26.8178 30.8172 26.4117 29.5129C26.1082 28.4792 25.5463 27.5318 24.8121 26.7484C24.3692 26.2685 23.8195 25.9035 23.2782 25.5507C22.708 25.1693 22.0477 24.9273 21.375 24.8042C21.535 24.6771 21.7482 24.6525 21.9205 24.5459C22.4537 24.2218 23.0239 23.9635 23.5734 23.664C23.8195 23.5164 24.1067 23.4712 24.3692 23.3564C23.9508 23.4877 23.4873 23.3892 23.0894 23.5943C23.3848 23.2252 23.8237 23.0324 24.2338 22.8191C24.3856 22.7412 24.5415 22.6755 24.7055 22.6345C24.7178 22.3515 24.7096 22.0726 24.6768 21.7896C24.5209 21.5558 24.3527 21.3138 24.1107 21.1662C23.6924 20.9529 23.2084 20.9775 22.7572 20.9324C21.8918 20.875 21.0797 21.2564 20.2348 21.359C20.1322 21.4738 19.9559 21.4 19.8246 21.4204C19.3037 21.4041 18.7131 21.4492 18.2702 21.1252L18.2537 21.1334C18.0117 20.8135 18.1922 20.4033 18.1553 20.0382C18.2947 20.0875 18.3727 20.2188 18.4629 20.3254L18.3768 20.4074C18.5162 20.4197 18.5901 20.5632 18.7131 20.6084C18.9264 20.7027 19.1643 20.7438 19.3939 20.7725C19.0699 20.6781 18.7172 20.5345 18.5367 20.2146L18.4793 20.2269L18.4998 20.1326L18.4014 20.1572L18.4342 20.0629L18.3357 20.0875L18.3644 20.0055C18.2907 19.9767 18.2168 19.948 18.143 19.9193L18.1306 19.8496C18.5408 20.0752 18.9961 20.1695 19.4596 20.2269C19.0371 19.985 18.5901 19.7799 18.1922 19.501C18.6064 19.7265 19.0371 19.9726 19.5211 20.0137C19.4268 19.8906 19.3242 19.7757 19.2094 19.6732C19.0043 19.4887 18.7459 19.3656 18.5819 19.1359C18.7623 19.0375 18.9264 19.2754 19.0945 19.3246L19.1848 19.3574C19.193 19.3328 19.2053 19.2836 19.2135 19.259C19.2258 19.2917 19.2504 19.3574 19.2627 19.3861C19.4596 19.4887 19.6934 19.5174 19.8862 19.6322C19.882 19.5789 19.8739 19.4722 19.8657 19.4148C19.6647 19.263 19.4801 19.0949 19.2832 18.939C19.558 19.1072 19.8779 19.1482 20.1732 19.2672C20.4563 19.3738 20.7556 19.4805 21.0633 19.464C21.4324 19.4435 21.7893 19.3574 22.1543 19.2959C22.142 19.263 22.1133 19.2015 22.101 19.1688C22.142 19.1769 22.2282 19.1933 22.2692 19.1975C22.2692 19.1646 22.2692 19.099 22.2692 19.0621C22.5152 19.1113 22.6383 18.8693 22.8556 18.8242C23.2371 18.2704 23.5817 17.6757 23.7252 17.0113C23.8769 16.2894 23.9426 15.4568 23.4586 14.8416C24 14.9688 24.5865 14.9031 25.1115 14.7103C25.5299 14.5709 25.9647 14.4806 26.383 14.3371C27.2033 14.0336 28.0893 14.0336 28.9506 14.0172L28.9465 13.9351C27.4577 13.9146 25.9729 13.9762 24.484 13.9638C24.3487 13.9638 24.2133 13.9351 24.0862 13.89C24.1107 13.8613 24.1559 13.8039 24.1764 13.7752C24.5086 13.4552 24.8614 13.1353 25.2633 12.9097C24.9844 12.8975 24.7014 12.8646 24.4306 12.9507C24.0902 13.0492 23.7662 13.2092 23.434 13.324C23.1756 13.4142 22.9008 13.3404 22.6383 13.3568C21.658 13.3486 20.8336 13.9762 20.1077 14.5667C19.554 15.0507 18.8731 15.3461 18.2455 15.7111C18.1184 15.9121 18.1019 16.1704 17.9748 16.3755C17.618 16.999 17.0889 17.565 16.408 17.8316C15.9487 18.0162 15.4524 17.926 14.9725 17.9013C13.8979 17.7701 13.1431 17.0688 12.9955 16.8965C12.7125 16.638 12.8601 16.1992 12.8684 15.8629C12.8684 15.8629 13.7215 13.3691 14.4762 12.2904C14.5213 12.2207 14.5664 12.1468 14.6074 12.073C14.4393 12.1427 14.308 12.2699 14.185 12.393C13.742 12.8482 13.3359 13.3363 12.9627 13.849C12.5567 14.4232 12.2162 15.0712 12.1629 15.7808C12.0768 16.351 12.1793 16.9211 12.249 17.4829C11.8225 17.4789 10.6084 17.9957 10.5181 18.09C10.4279 18.0777 10.2885 17.688 10.2721 17.6019C10.1367 17.0031 10.0629 16.3837 10.1367 15.7726C10.1695 15.5019 10.2556 15.2435 10.2926 14.9728C9.87013 15.6291 9.55431 16.3632 9.43947 17.1385C9.36564 17.6183 9.35743 18.1023 9.32052 18.5863C8.95138 18.131 8.84474 17.5158 8.81193 16.9457C8.76271 15.7111 9.23849 14.534 9.74298 13.4306C10.1654 12.5119 10.7479 11.6711 11.4082 10.9082C11.6502 10.6416 11.8676 10.3462 12.167 10.1371C11.9783 10.5718 11.8184 11.0189 11.7199 11.4824C11.5846 12.073 11.3713 12.6595 11.3918 13.2748C11.9127 12.2329 12.5976 11.2773 13.3195 10.3667C13.8199 9.77204 14.3367 9.19782 14.9192 8.68102C15.5016 8.19704 16.0922 7.70896 16.7772 7.37263C16.4942 8.17243 16.1168 8.95173 15.9692 9.79665C16.7362 8.96814 17.7492 8.43083 18.7582 7.95095C20.6285 7.13064 22.6629 6.63845 24.7137 6.69176C24.0862 7.11423 23.4012 7.46696 22.8556 8.00016C22.5891 8.27497 22.2692 8.52106 22.0969 8.86559C22.3184 8.73845 22.5357 8.6113 22.7777 8.52516C24.0862 8.06579 25.4274 7.67204 26.8096 7.54079C27.8144 7.42595 28.8317 7.42595 29.8324 7.54079C29.6766 7.68024 29.451 7.67204 29.2705 7.76227C28.2739 8.16013 27.2567 8.50876 26.2846 8.96814C26.2231 9.00095 26.1369 9.02146 26.1328 9.10348C26.3543 9.04606 26.584 9.05016 26.8137 9.05426C27.6053 9.07067 28.401 9.08298 29.1803 9.22654C30.1072 9.3988 31.0342 9.61618 31.8996 10.0017C32.9907 10.4447 34.0078 11.06 34.9471 11.7695C35.0496 11.8433 35.1399 11.9295 35.2301 12.0156C35.0455 11.9254 34.8322 11.8925 34.6476 11.7982C34.5533 11.8064 34.459 11.8023 34.3647 11.7777C32.7445 11.4127 31.0588 11.4004 29.4141 11.6177C29.2828 11.63 29.1475 11.6711 29.0203 11.626C28.7742 11.6875 28.5199 11.7326 28.282 11.8228C29.5289 11.9787 30.7101 12.4791 31.7766 13.1271C33.3024 14.0664 34.6107 15.3215 35.7797 16.6709C36.3662 17.364 36.8789 18.1146 37.4203 18.8406C37.2522 18.7422 37.084 18.6191 36.9077 18.5042ZM20.9607 15.7234C20.9074 15.6619 20.8869 15.584 20.8992 15.4978L20.85 15.4938C20.8131 15.4199 20.7598 15.3584 20.6942 15.3092C21.1617 15.4035 21.6375 15.7563 21.6867 16.2607C21.7237 16.8472 21.5063 17.4789 21.0305 17.848C20.6819 18.0982 20.1692 18.2377 19.7918 17.9711C19.4637 17.7783 19.3365 17.4132 19.1602 17.1015C19.4186 17.2779 19.7098 17.4625 20.0379 17.4337C20.3578 17.4255 20.6737 17.2369 20.8213 16.9498C21.0346 16.5765 20.9936 16.1336 20.9607 15.7234ZM20.1732 18.3156C20.2758 18.3156 20.3783 18.3156 20.4809 18.3238C20.608 18.291 20.7311 18.2459 20.8541 18.2007C21.4202 17.9916 21.7811 17.442 21.9041 16.8718C22.0394 16.4576 21.9862 16.0188 21.9615 15.5962L21.9 15.6496C21.9082 15.3871 21.8426 15.1123 21.6252 14.94C22.1051 14.8252 22.5931 15.0795 22.8556 15.4773C23.2371 15.9695 23.1633 16.6586 22.9295 17.1959C22.6629 17.8644 22.0969 18.3607 21.4857 18.7093C21.092 18.9431 20.6327 19.0498 20.1774 19.0579C19.8246 19.0579 19.554 18.8037 19.3078 18.5863L19.2915 18.5904C18.9551 18.25 18.6434 17.8111 18.6885 17.3066C18.8239 17.3763 18.8607 17.5445 18.9674 17.647C19.2709 17.9834 19.6769 18.3402 20.1732 18.3156Z" fill="#040C19"/>
<path d="M22.6301 22.3843L22.4907 22.1997L22.4455 22.3597C22.5071 22.3679 22.5686 22.3761 22.6301 22.3843Z" fill="#040C19"/>
<path d="M11.3918 20.9819C11.2851 20.8096 11.2892 20.6045 11.3056 20.4117C11.4779 20.3748 11.6707 20.2107 11.8347 20.3297C11.8266 20.3953 11.8101 20.5307 11.8019 20.5963C12.3269 20.7768 12.8847 20.8301 13.4016 21.027C13.6312 21.109 13.865 21.2197 14.0085 21.4248C14.1111 21.552 14.0782 21.7447 13.988 21.8678C13.8896 22.0155 13.6107 22.237 13.3318 22.2738C13.2826 22.3887 13.1144 22.5158 13.0324 22.3518C13.0324 22.3107 13.0365 22.237 13.0365 22.1959C12.938 22.1877 12.7986 22.159 12.7535 22.1467C12.7083 22.1344 12.5894 22.0647 12.4828 22.0072C12.0275 21.7899 11.646 21.4208 11.3918 20.9819Z" fill="#040C19"/>
<path d="M20.6941 15.3047C21.1617 15.399 21.6375 15.7518 21.6867 16.2563C21.7236 16.8428 21.5062 17.4744 21.0305 17.8436C20.6819 18.0938 20.1691 18.2332 19.7918 17.9666C19.4636 17.7739 19.3365 17.4088 19.1601 17.0971C19.4186 17.2694 19.7098 17.458 20.0379 17.4293C20.3578 17.4211 20.6736 17.2324 20.8213 16.9453C21.0305 16.5721 20.9894 16.1291 20.9566 15.7231C20.9033 15.6615 20.8828 15.5836 20.8951 15.4975L20.8459 15.4934C20.8131 15.4196 20.7598 15.358 20.6941 15.3047Z" fill="#FDA505"/>
<path d="M11.2318 18.5535C11.6666 18.3237 12.13 18.0038 12.6468 18.1269C13.1883 18.2048 13.5697 18.6232 13.9183 19.0005C14.0865 19.2015 14.3613 19.2548 14.6115 19.2548C14.5048 19.4599 14.55 19.6978 14.5541 19.9192C14.591 20.5919 14.9683 21.1867 15.4113 21.6747C15.5713 21.8511 15.7968 21.9372 15.9978 22.0521C16.2603 22.1669 18.2332 22.0275 18.9181 21.8963C19.2873 21.8511 19.6646 21.8634 20.0338 21.7937C20.6859 21.6665 21.3011 21.404 21.9615 21.322C22.4085 21.2646 22.868 21.2195 23.3191 21.2646C23.5242 21.3179 23.7293 21.3794 23.9303 21.445C24.0574 21.4615 24.1805 21.4942 24.3035 21.5353C24.3814 21.6419 24.3978 21.765 24.3856 21.8963C24.246 21.888 23.8195 21.8142 23.5981 21.8019C23.1018 21.8511 23.032 21.7978 22.5562 21.9577C22.3183 22.0192 22.0886 22.089 21.8508 22.1464C21.0428 22.3064 20.2635 22.5689 19.4718 22.7822C18.7541 22.9708 15.563 23.9265 15.2226 24.0577C14.7673 24.2136 13.2826 24.9232 13.1595 24.9642C12.692 25.0708 12.3761 25.0626 11.9783 25.0626C11.6994 25.0585 11.4164 25.1282 11.1949 25.3005C10.6535 25.7229 10.2269 26.2849 9.95212 26.9125C9.58708 27.6753 9.38611 28.512 9.32458 29.3529C9.31638 29.9968 9.28357 30.6407 9.39021 31.2806C9.22614 31.2027 9.15642 31.0345 9.09079 30.8787C8.55759 29.6646 8.35662 28.3316 8.24587 27.0191C8.15564 25.4728 8.26228 23.8322 9.06208 22.4622C9.3738 21.8757 9.91521 21.4737 10.4361 21.08C10.1736 20.957 9.84958 20.8257 9.57888 21.0062C9.15232 21.3097 8.8488 21.7609 8.60271 22.2162C8.00798 23.3112 7.7742 24.5622 7.74138 25.7968C7.73318 26.6745 7.83572 27.5523 8.00388 28.4095C8.29099 29.6195 8.76267 30.8048 9.49274 31.8138L9.50505 31.7728L9.52966 31.703C9.58298 31.904 9.67322 32.0968 9.72244 32.3019C9.43122 32.0927 9.16052 31.863 8.91443 31.6005C8.91032 31.5964 8.90622 31.5923 8.90212 31.5882C7.91364 30.6243 7.2697 29.3611 6.90466 28.0445C6.58884 26.7771 6.57654 25.4441 6.81032 24.1603C6.90876 23.6107 7.10154 23.0816 7.31482 22.5648C7.95056 21.0923 9.04568 19.7429 11.2318 18.5535ZM11.3918 20.9816C11.646 21.4205 12.2818 21.9044 12.4787 22.0111C12.6755 22.1136 12.6797 22.1259 12.7494 22.1505C12.8437 22.1792 12.938 22.1915 13.0324 22.1997C13.0324 22.2407 13.6148 22.1956 13.7133 22.0931C13.8035 22.0521 13.8856 22.0234 13.984 21.8757C14.0742 21.7527 14.107 21.5599 14.0045 21.4327C13.8609 21.2277 13.6231 21.1169 13.3974 21.0349C12.8806 20.8339 11.8635 20.674 11.7978 20.6042C11.7322 20.5345 11.8224 20.4032 11.8306 20.3376C11.6666 20.2187 11.4738 20.3827 11.3015 20.4197C11.2893 20.6083 11.2893 20.8093 11.3918 20.9816Z" fill="#FDA505"/>
<path d="M24.242 22.2609C23.7826 22.4906 22.8023 22.8638 22.3593 23.1263C22.0763 23.2904 21.7893 23.4627 21.4693 23.5406C20.7269 23.7333 19.9927 23.9713 19.2585 24.1846C17.9542 24.607 16.5515 24.6439 15.2842 25.1894C14.7058 25.4191 14.2177 25.817 13.6927 26.1451C13.2662 26.4158 12.8847 26.748 12.5115 27.0843C12.0768 27.4863 11.564 27.7939 11.1539 28.2287C9.46813 26.7849 11.3835 25.5421 11.884 25.4396C13.3031 25.7513 12.4172 25.3986 19.5087 23.0648C20.2552 22.831 22.1174 22.3716 22.872 22.1543C23.0935 22.1256 23.8113 22.1338 24.242 22.2609Z" fill="#FDA505"/>
</g>
</svg>
