<svg width="48" height="48" viewBox="0 0 48 48" fill="none" xmlns="http://www.w3.org/2000/svg">
<path d="M40.7812 12.947C40.6781 12.8766 40.5703 12.8063 40.4672 12.7314C39.8765 12.3235 39.0562 12.5813 38.5828 13.0454C38.55 13.0782 38.5078 13.097 38.4609 13.097C36.9656 11.3016 35.1375 10.5376 32.8125 10.8142C30.6843 11.072 28.7156 11.9907 27.0749 13.3689C27.0422 13.397 27.0374 13.3923 27.0562 13.3548C28.5141 10.5423 31.35 8.12353 34.6593 8.05323C37.5656 7.9923 40.1859 9.82982 40.7671 12.7548C40.7812 12.8204 40.7859 12.8814 40.7812 12.947Z" fill="#2274EE"/>
<path d="M36.4313 13.0224C35.8172 14.0395 34.1906 13.5098 34.5281 12.2817C34.6031 12.0145 34.7765 11.8833 35.0532 11.8833C35.0859 11.8833 35.1 11.8973 35.1047 11.9302C35.1938 12.6286 35.6297 13.1817 36.4031 12.9849C36.4453 12.9755 36.4547 12.9895 36.4313 13.0224Z" fill="#2274EE"/>
<path d="M40.7813 12.947L40.786 12.9986C40.786 13.0267 40.8 13.0502 40.8188 13.0736C41.7985 14.2689 41.9813 15.8017 41.5735 17.2736C41.4563 17.7049 41.2594 18.0658 40.9829 18.3658C40.9594 18.3939 40.936 18.3892 40.9219 18.3564C40.8047 18.1549 39.8859 16.922 38.5594 16.1673C38.0391 15.8252 37.4813 15.5533 36.8859 15.347C36.8532 15.3377 36.8438 15.3142 36.8578 15.2861C37.1672 14.4283 37.6875 13.7345 38.4235 13.1955C38.4609 13.1673 38.5594 13.0783 38.5922 13.0408C39.0657 12.5767 39.8859 12.3189 40.4766 12.7268C40.5704 12.8064 40.6782 12.8767 40.7813 12.947Z" fill="#FD930F"/>
<path d="M5.84065 33.9797C5.42815 34.0078 5.24065 33.6281 5.41878 33.2719C5.63909 32.836 5.87346 32.6672 6.32815 32.2828C11.8266 27.6562 17.4375 23.1656 23.0531 18.689C23.8313 18.0703 24.2813 17.7188 24.3937 17.6344C26.025 16.4766 30.8859 14.4234 31.6219 17.8078C32.0438 19.7438 30.825 21.9375 29.5501 23.3015C27.8297 25.1438 25.5469 26.2781 23.1188 26.9438C22.2281 27.1875 21.5157 27.3563 20.9766 27.4406C20.7141 27.4828 20.6531 27.4406 20.461 27.6375C18.3797 29.7281 16.0734 30.9281 13.3219 31.8234C11.0438 32.5641 8.74693 33.2485 6.43596 33.8672C6.20627 33.9328 6.0094 33.9703 5.84065 33.9797Z" fill="#2274EE"/>
<path d="M39.2156 17.6154C39.0187 17.4748 38.8219 17.3341 38.6109 17.2217C38.4984 17.1654 38.386 17.1045 38.2828 17.0342C38.1328 18.0092 38.0344 19.0686 37.8656 19.8748C36.7359 25.2092 32.9906 29.1654 28.0359 31.303C25.0171 32.606 21.9234 32.892 18.7547 32.1654L18.75 32.2029L19.9875 32.6998C20.1 32.7326 20.2688 32.6904 20.2969 32.6951L22.439 33.1076C22.8563 33.0842 23.2547 33.0982 23.6344 33.1404L26.025 32.8498C26.0813 32.8217 26.1375 32.7983 26.1985 32.7795C26.9812 32.5592 27.7547 32.3061 28.5187 32.0248C34.4156 29.8311 39.45 24.6373 39.975 18.1639C39.7266 17.9764 39.4734 17.7983 39.2156 17.6154Z" fill="#2274EE"/>
<path d="M22.439 33.1081C22.3453 34.3081 22.4438 36.0284 23.25 37.0034C23.2688 37.0268 23.2922 37.0362 23.3203 37.0362C23.639 37.0221 23.9062 37.0877 24.1312 37.3315C24.7687 38.0065 23.4469 37.955 22.9218 38.0393C22.214 38.0487 21.45 38.0159 20.761 38.0018C20.7281 37.9924 20.6953 37.9971 20.6672 38.0112C20.2219 37.9877 19.6875 37.6924 20.3485 37.1861C20.6719 36.9377 21.2203 37.0924 21.6328 37.2518C21.6563 37.2612 21.675 37.2565 21.6938 37.2378L22.0125 36.8487C22.0359 36.8205 22.0406 36.7924 22.0265 36.7596C21.4406 35.3206 20.6484 34.1158 19.9922 32.7049C20.1141 32.6393 20.2734 32.6956 20.3016 32.7002L22.439 33.1081Z" fill="#FD930F"/>
<path d="M26.0203 32.8501C25.7672 33.7267 26.0203 34.3642 26.4797 35.1798C26.9437 36.0001 27.5578 36.7032 28.3218 37.2798C28.3641 37.3125 28.4203 37.3173 28.4625 37.2891C29.4656 37.4063 29.4703 38.0251 28.8422 38.0766C28.0453 38.1423 27.2484 38.1563 26.4515 38.1141C26.1422 38.0954 25.3312 38.0485 25.3312 38.0485C25.3218 38.0251 24.8719 37.1485 26.6156 37.2001C26.6531 37.2047 26.6672 37.1907 26.6672 37.1532C26.625 36.7219 25.8938 35.8126 25.6406 35.5079C24.9797 34.7157 24.3093 33.9282 23.625 33.1407L26.0203 32.8501Z" fill="#FD930F"/>
</svg>
