<?xml version="1.0" encoding="UTF-8"?>
<svg id="Layer_1" data-name="Layer 1" xmlns="http://www.w3.org/2000/svg" viewBox="0 0 1824 499">
  <defs>
    <style>
      .cls-1 {
        fill: none;
      }

      .cls-1, .cls-2 {
        stroke-width: 0px;
      }

      .cls-3 {
        opacity: .24;
      }

      .cls-2 {
        fill: #f1f5f9;
      }
    </style>
  </defs>
  <rect class="cls-1" width="1824" height="499"/>
  <g class="cls-3">
    <circle class="cls-2" cx="2" cy="41.5" r="2"/>
    <circle class="cls-2" cx="54" cy="41.5" r="2"/>
    <circle class="cls-2" cx="106" cy="41.5" r="2"/>
    <circle class="cls-2" cx="158" cy="41.5" r="2"/>
    <circle class="cls-2" cx="210" cy="41.5" r="2"/>
    <circle class="cls-2" cx="262" cy="41.5" r="2"/>
    <circle class="cls-2" cx="314" cy="41.5" r="2"/>
    <circle class="cls-2" cx="366" cy="41.5" r="2"/>
    <circle class="cls-2" cx="418" cy="41.5" r="2"/>
    <circle class="cls-2" cx="470" cy="41.5" r="2"/>
    <circle class="cls-2" cx="522" cy="41.5" r="2"/>
    <circle class="cls-2" cx="574" cy="41.5" r="2"/>
    <circle class="cls-2" cx="626" cy="41.5" r="2"/>
    <circle class="cls-2" cx="678" cy="41.5" r="2"/>
    <circle class="cls-2" cx="730" cy="41.5" r="2"/>
    <circle class="cls-2" cx="782" cy="41.5" r="2"/>
    <circle class="cls-2" cx="834" cy="41.5" r="2"/>
    <circle class="cls-2" cx="886" cy="41.5" r="2"/>
    <circle class="cls-2" cx="938" cy="41.5" r="2"/>
    <circle class="cls-2" cx="990" cy="41.5" r="2"/>
    <circle class="cls-2" cx="1042" cy="41.5" r="2"/>
    <circle class="cls-2" cx="1094" cy="41.5" r="2"/>
    <circle class="cls-2" cx="1146" cy="41.5" r="2"/>
    <circle class="cls-2" cx="1198" cy="41.5" r="2"/>
    <circle class="cls-2" cx="1250" cy="41.5" r="2"/>
    <circle class="cls-2" cx="1302" cy="41.5" r="2"/>
    <circle class="cls-2" cx="1354" cy="41.5" r="2"/>
    <circle class="cls-2" cx="1406" cy="41.5" r="2"/>
    <circle class="cls-2" cx="1458" cy="41.5" r="2"/>
    <circle class="cls-2" cx="1510" cy="41.5" r="2"/>
    <circle class="cls-2" cx="1562" cy="41.5" r="2"/>
    <circle class="cls-2" cx="1614" cy="41.5" r="2"/>
    <circle class="cls-2" cx="1666" cy="41.5" r="2"/>
    <circle class="cls-2" cx="1718" cy="41.5" r="2"/>
    <circle class="cls-2" cx="1770" cy="41.5" r="2"/>
    <circle class="cls-2" cx="1822" cy="41.5" r="2"/>
    <circle class="cls-2" cx="2" cy="93.5" r="2"/>
    <circle class="cls-2" cx="54" cy="93.5" r="2"/>
    <circle class="cls-2" cx="106" cy="93.5" r="2"/>
    <circle class="cls-2" cx="158" cy="93.5" r="2"/>
    <circle class="cls-2" cx="210" cy="93.5" r="2"/>
    <circle class="cls-2" cx="262" cy="93.5" r="2"/>
    <circle class="cls-2" cx="314" cy="93.5" r="2"/>
    <circle class="cls-2" cx="366" cy="93.5" r="2"/>
    <circle class="cls-2" cx="418" cy="93.5" r="2"/>
    <circle class="cls-2" cx="470" cy="93.5" r="2"/>
    <circle class="cls-2" cx="522" cy="93.5" r="2"/>
    <circle class="cls-2" cx="574" cy="93.5" r="2"/>
    <circle class="cls-2" cx="626" cy="93.5" r="2"/>
    <circle class="cls-2" cx="678" cy="93.5" r="2"/>
    <circle class="cls-2" cx="730" cy="93.5" r="2"/>
    <circle class="cls-2" cx="782" cy="93.5" r="2"/>
    <circle class="cls-2" cx="834" cy="93.5" r="2"/>
    <circle class="cls-2" cx="886" cy="93.5" r="2"/>
    <circle class="cls-2" cx="938" cy="93.5" r="2"/>
    <circle class="cls-2" cx="990" cy="93.5" r="2"/>
    <circle class="cls-2" cx="1042" cy="93.5" r="2"/>
    <circle class="cls-2" cx="1094" cy="93.5" r="2"/>
    <circle class="cls-2" cx="1146" cy="93.5" r="2"/>
    <circle class="cls-2" cx="1198" cy="93.5" r="2"/>
    <circle class="cls-2" cx="1250" cy="93.5" r="2"/>
    <circle class="cls-2" cx="1302" cy="93.5" r="2"/>
    <circle class="cls-2" cx="1354" cy="93.5" r="2"/>
    <circle class="cls-2" cx="1406" cy="93.5" r="2"/>
    <circle class="cls-2" cx="1458" cy="93.5" r="2"/>
    <circle class="cls-2" cx="1510" cy="93.5" r="2"/>
    <circle class="cls-2" cx="1562" cy="93.5" r="2"/>
    <circle class="cls-2" cx="1614" cy="93.5" r="2"/>
    <circle class="cls-2" cx="1666" cy="93.5" r="2"/>
    <circle class="cls-2" cx="1718" cy="93.5" r="2"/>
    <circle class="cls-2" cx="1770" cy="93.5" r="2"/>
    <circle class="cls-2" cx="1822" cy="93.5" r="2"/>
    <circle class="cls-2" cx="2" cy="145.5" r="2"/>
    <circle class="cls-2" cx="54" cy="145.5" r="2"/>
    <circle class="cls-2" cx="106" cy="145.5" r="2"/>
    <circle class="cls-2" cx="158" cy="145.5" r="2"/>
    <circle class="cls-2" cx="210" cy="145.5" r="2"/>
    <circle class="cls-2" cx="262" cy="145.5" r="2"/>
    <circle class="cls-2" cx="314" cy="145.5" r="2"/>
    <circle class="cls-2" cx="366" cy="145.5" r="2"/>
    <circle class="cls-2" cx="418" cy="145.5" r="2"/>
    <circle class="cls-2" cx="470" cy="145.5" r="2"/>
    <circle class="cls-2" cx="522" cy="145.5" r="2"/>
    <circle class="cls-2" cx="574" cy="145.5" r="2"/>
    <circle class="cls-2" cx="626" cy="145.5" r="2"/>
    <circle class="cls-2" cx="678" cy="145.5" r="2"/>
    <circle class="cls-2" cx="730" cy="145.5" r="2"/>
    <circle class="cls-2" cx="782" cy="145.5" r="2"/>
    <circle class="cls-2" cx="834" cy="145.5" r="2"/>
    <circle class="cls-2" cx="886" cy="145.5" r="2"/>
    <circle class="cls-2" cx="938" cy="145.5" r="2"/>
    <circle class="cls-2" cx="990" cy="145.5" r="2"/>
    <circle class="cls-2" cx="1042" cy="145.5" r="2"/>
    <circle class="cls-2" cx="1094" cy="145.5" r="2"/>
    <circle class="cls-2" cx="1146" cy="145.5" r="2"/>
    <circle class="cls-2" cx="1198" cy="145.5" r="2"/>
    <circle class="cls-2" cx="1250" cy="145.5" r="2"/>
    <circle class="cls-2" cx="1302" cy="145.5" r="2"/>
    <circle class="cls-2" cx="1354" cy="145.5" r="2"/>
    <circle class="cls-2" cx="1406" cy="145.5" r="2"/>
    <circle class="cls-2" cx="1458" cy="145.5" r="2"/>
    <circle class="cls-2" cx="1510" cy="145.5" r="2"/>
    <circle class="cls-2" cx="1562" cy="145.5" r="2"/>
    <circle class="cls-2" cx="1614" cy="145.5" r="2"/>
    <circle class="cls-2" cx="1666" cy="145.5" r="2"/>
    <circle class="cls-2" cx="1718" cy="145.5" r="2"/>
    <circle class="cls-2" cx="1770" cy="145.5" r="2"/>
    <circle class="cls-2" cx="1822" cy="145.5" r="2"/>
    <circle class="cls-2" cx="2" cy="197.5" r="2"/>
    <circle class="cls-2" cx="54" cy="197.5" r="2"/>
    <circle class="cls-2" cx="106" cy="197.5" r="2"/>
    <circle class="cls-2" cx="158" cy="197.5" r="2"/>
    <circle class="cls-2" cx="210" cy="197.5" r="2"/>
    <circle class="cls-2" cx="262" cy="197.5" r="2"/>
    <circle class="cls-2" cx="314" cy="197.5" r="2"/>
    <circle class="cls-2" cx="366" cy="197.5" r="2"/>
    <circle class="cls-2" cx="418" cy="197.5" r="2"/>
    <circle class="cls-2" cx="470" cy="197.5" r="2"/>
    <circle class="cls-2" cx="522" cy="197.5" r="2"/>
    <circle class="cls-2" cx="574" cy="197.5" r="2"/>
    <circle class="cls-2" cx="626" cy="197.5" r="2"/>
    <circle class="cls-2" cx="678" cy="197.5" r="2"/>
    <circle class="cls-2" cx="730" cy="197.5" r="2"/>
    <circle class="cls-2" cx="782" cy="197.5" r="2"/>
    <circle class="cls-2" cx="834" cy="197.5" r="2"/>
    <circle class="cls-2" cx="886" cy="197.5" r="2"/>
    <circle class="cls-2" cx="938" cy="197.5" r="2"/>
    <circle class="cls-2" cx="990" cy="197.5" r="2"/>
    <circle class="cls-2" cx="1042" cy="197.5" r="2"/>
    <circle class="cls-2" cx="1094" cy="197.5" r="2"/>
    <circle class="cls-2" cx="1146" cy="197.5" r="2"/>
    <circle class="cls-2" cx="1198" cy="197.5" r="2"/>
    <circle class="cls-2" cx="1250" cy="197.5" r="2"/>
    <circle class="cls-2" cx="1302" cy="197.5" r="2"/>
    <circle class="cls-2" cx="1354" cy="197.5" r="2"/>
    <circle class="cls-2" cx="1406" cy="197.5" r="2"/>
    <circle class="cls-2" cx="1458" cy="197.5" r="2"/>
    <circle class="cls-2" cx="1510" cy="197.5" r="2"/>
    <circle class="cls-2" cx="1562" cy="197.5" r="2"/>
    <circle class="cls-2" cx="1614" cy="197.5" r="2"/>
    <circle class="cls-2" cx="1666" cy="197.5" r="2"/>
    <circle class="cls-2" cx="1718" cy="197.5" r="2"/>
    <circle class="cls-2" cx="1770" cy="197.5" r="2"/>
    <circle class="cls-2" cx="1822" cy="197.5" r="2"/>
    <circle class="cls-2" cx="2" cy="249.5" r="2"/>
    <circle class="cls-2" cx="54" cy="249.5" r="2"/>
    <circle class="cls-2" cx="106" cy="249.5" r="2"/>
    <circle class="cls-2" cx="158" cy="249.5" r="2"/>
    <circle class="cls-2" cx="210" cy="249.5" r="2"/>
    <circle class="cls-2" cx="262" cy="249.5" r="2"/>
    <circle class="cls-2" cx="314" cy="249.5" r="2"/>
    <circle class="cls-2" cx="366" cy="249.5" r="2"/>
    <circle class="cls-2" cx="418" cy="249.5" r="2"/>
    <circle class="cls-2" cx="470" cy="249.5" r="2"/>
    <circle class="cls-2" cx="522" cy="249.5" r="2"/>
    <circle class="cls-2" cx="574" cy="249.5" r="2"/>
    <circle class="cls-2" cx="626" cy="249.5" r="2"/>
    <circle class="cls-2" cx="678" cy="249.5" r="2"/>
    <circle class="cls-2" cx="730" cy="249.5" r="2"/>
    <circle class="cls-2" cx="782" cy="249.5" r="2"/>
    <circle class="cls-2" cx="834" cy="249.5" r="2"/>
    <circle class="cls-2" cx="886" cy="249.5" r="2"/>
    <circle class="cls-2" cx="938" cy="249.5" r="2"/>
    <circle class="cls-2" cx="990" cy="249.5" r="2"/>
    <circle class="cls-2" cx="1042" cy="249.5" r="2"/>
    <circle class="cls-2" cx="1094" cy="249.5" r="2"/>
    <circle class="cls-2" cx="1146" cy="249.5" r="2"/>
    <circle class="cls-2" cx="1198" cy="249.5" r="2"/>
    <circle class="cls-2" cx="1250" cy="249.5" r="2"/>
    <circle class="cls-2" cx="1302" cy="249.5" r="2"/>
    <circle class="cls-2" cx="1354" cy="249.5" r="2"/>
    <circle class="cls-2" cx="1406" cy="249.5" r="2"/>
    <circle class="cls-2" cx="1458" cy="249.5" r="2"/>
    <circle class="cls-2" cx="1510" cy="249.5" r="2"/>
    <circle class="cls-2" cx="1562" cy="249.5" r="2"/>
    <circle class="cls-2" cx="1614" cy="249.5" r="2"/>
    <circle class="cls-2" cx="1666" cy="249.5" r="2"/>
    <circle class="cls-2" cx="1718" cy="249.5" r="2"/>
    <circle class="cls-2" cx="1770" cy="249.5" r="2"/>
    <circle class="cls-2" cx="1822" cy="249.5" r="2"/>
    <circle class="cls-2" cx="2" cy="301.5" r="2"/>
    <circle class="cls-2" cx="54" cy="301.5" r="2"/>
    <circle class="cls-2" cx="106" cy="301.5" r="2"/>
    <circle class="cls-2" cx="158" cy="301.5" r="2"/>
    <circle class="cls-2" cx="210" cy="301.5" r="2"/>
    <circle class="cls-2" cx="262" cy="301.5" r="2"/>
    <circle class="cls-2" cx="314" cy="301.5" r="2"/>
    <circle class="cls-2" cx="366" cy="301.5" r="2"/>
    <circle class="cls-2" cx="418" cy="301.5" r="2"/>
    <circle class="cls-2" cx="470" cy="301.5" r="2"/>
    <circle class="cls-2" cx="522" cy="301.5" r="2"/>
    <circle class="cls-2" cx="574" cy="301.5" r="2"/>
    <circle class="cls-2" cx="626" cy="301.5" r="2"/>
    <circle class="cls-2" cx="678" cy="301.5" r="2"/>
    <circle class="cls-2" cx="730" cy="301.5" r="2"/>
    <circle class="cls-2" cx="782" cy="301.5" r="2"/>
    <circle class="cls-2" cx="834" cy="301.5" r="2"/>
    <circle class="cls-2" cx="886" cy="301.5" r="2"/>
    <circle class="cls-2" cx="938" cy="301.5" r="2"/>
    <circle class="cls-2" cx="990" cy="301.5" r="2"/>
    <circle class="cls-2" cx="1042" cy="301.5" r="2"/>
    <circle class="cls-2" cx="1094" cy="301.5" r="2"/>
    <circle class="cls-2" cx="1146" cy="301.5" r="2"/>
    <circle class="cls-2" cx="1198" cy="301.5" r="2"/>
    <circle class="cls-2" cx="1250" cy="301.5" r="2"/>
    <circle class="cls-2" cx="1302" cy="301.5" r="2"/>
    <circle class="cls-2" cx="1354" cy="301.5" r="2"/>
    <circle class="cls-2" cx="1406" cy="301.5" r="2"/>
    <circle class="cls-2" cx="1458" cy="301.5" r="2"/>
    <circle class="cls-2" cx="1510" cy="301.5" r="2"/>
    <circle class="cls-2" cx="1562" cy="301.5" r="2"/>
    <circle class="cls-2" cx="1614" cy="301.5" r="2"/>
    <circle class="cls-2" cx="1666" cy="301.5" r="2"/>
    <circle class="cls-2" cx="1718" cy="301.5" r="2"/>
    <circle class="cls-2" cx="1770" cy="301.5" r="2"/>
    <circle class="cls-2" cx="1822" cy="301.5" r="2"/>
    <circle class="cls-2" cx="2" cy="353.5" r="2"/>
    <circle class="cls-2" cx="54" cy="353.5" r="2"/>
    <circle class="cls-2" cx="106" cy="353.5" r="2"/>
    <circle class="cls-2" cx="158" cy="353.5" r="2"/>
    <circle class="cls-2" cx="210" cy="353.5" r="2"/>
    <circle class="cls-2" cx="262" cy="353.5" r="2"/>
    <circle class="cls-2" cx="314" cy="353.5" r="2"/>
    <circle class="cls-2" cx="366" cy="353.5" r="2"/>
    <circle class="cls-2" cx="418" cy="353.5" r="2"/>
    <circle class="cls-2" cx="470" cy="353.5" r="2"/>
    <circle class="cls-2" cx="522" cy="353.5" r="2"/>
    <circle class="cls-2" cx="574" cy="353.5" r="2"/>
    <circle class="cls-2" cx="626" cy="353.5" r="2"/>
    <circle class="cls-2" cx="678" cy="353.5" r="2"/>
    <circle class="cls-2" cx="730" cy="353.5" r="2"/>
    <circle class="cls-2" cx="782" cy="353.5" r="2"/>
    <circle class="cls-2" cx="834" cy="353.5" r="2"/>
    <circle class="cls-2" cx="886" cy="353.5" r="2"/>
    <circle class="cls-2" cx="938" cy="353.5" r="2"/>
    <circle class="cls-2" cx="990" cy="353.5" r="2"/>
    <circle class="cls-2" cx="1042" cy="353.5" r="2"/>
    <circle class="cls-2" cx="1094" cy="353.5" r="2"/>
    <circle class="cls-2" cx="1146" cy="353.5" r="2"/>
    <circle class="cls-2" cx="1198" cy="353.5" r="2"/>
    <circle class="cls-2" cx="1250" cy="353.5" r="2"/>
    <circle class="cls-2" cx="1302" cy="353.5" r="2"/>
    <circle class="cls-2" cx="1354" cy="353.5" r="2"/>
    <circle class="cls-2" cx="1406" cy="353.5" r="2"/>
    <circle class="cls-2" cx="1458" cy="353.5" r="2"/>
    <circle class="cls-2" cx="1510" cy="353.5" r="2"/>
    <circle class="cls-2" cx="1562" cy="353.5" r="2"/>
    <circle class="cls-2" cx="1614" cy="353.5" r="2"/>
    <circle class="cls-2" cx="1666" cy="353.5" r="2"/>
    <circle class="cls-2" cx="1718" cy="353.5" r="2"/>
    <circle class="cls-2" cx="1770" cy="353.5" r="2"/>
    <circle class="cls-2" cx="1822" cy="353.5" r="2"/>
    <circle class="cls-2" cx="2" cy="405.5" r="2"/>
    <circle class="cls-2" cx="54" cy="405.5" r="2"/>
    <circle class="cls-2" cx="106" cy="405.5" r="2"/>
    <circle class="cls-2" cx="158" cy="405.5" r="2"/>
    <circle class="cls-2" cx="210" cy="405.5" r="2"/>
    <circle class="cls-2" cx="262" cy="405.5" r="2"/>
    <circle class="cls-2" cx="314" cy="405.5" r="2"/>
    <circle class="cls-2" cx="366" cy="405.5" r="2"/>
    <circle class="cls-2" cx="418" cy="405.5" r="2"/>
    <circle class="cls-2" cx="470" cy="405.5" r="2"/>
    <circle class="cls-2" cx="522" cy="405.5" r="2"/>
    <circle class="cls-2" cx="574" cy="405.5" r="2"/>
    <circle class="cls-2" cx="626" cy="405.5" r="2"/>
    <circle class="cls-2" cx="678" cy="405.5" r="2"/>
    <circle class="cls-2" cx="730" cy="405.5" r="2"/>
    <circle class="cls-2" cx="782" cy="405.5" r="2"/>
    <circle class="cls-2" cx="834" cy="405.5" r="2"/>
    <circle class="cls-2" cx="886" cy="405.5" r="2"/>
    <circle class="cls-2" cx="938" cy="405.5" r="2"/>
    <circle class="cls-2" cx="990" cy="405.5" r="2"/>
    <circle class="cls-2" cx="1042" cy="405.5" r="2"/>
    <circle class="cls-2" cx="1094" cy="405.5" r="2"/>
    <circle class="cls-2" cx="1146" cy="405.5" r="2"/>
    <circle class="cls-2" cx="1198" cy="405.5" r="2"/>
    <circle class="cls-2" cx="1250" cy="405.5" r="2"/>
    <circle class="cls-2" cx="1302" cy="405.5" r="2"/>
    <circle class="cls-2" cx="1354" cy="405.5" r="2"/>
    <circle class="cls-2" cx="1406" cy="405.5" r="2"/>
    <circle class="cls-2" cx="1458" cy="405.5" r="2"/>
    <circle class="cls-2" cx="1510" cy="405.5" r="2"/>
    <circle class="cls-2" cx="1562" cy="405.5" r="2"/>
    <circle class="cls-2" cx="1614" cy="405.5" r="2"/>
    <circle class="cls-2" cx="1666" cy="405.5" r="2"/>
    <circle class="cls-2" cx="1718" cy="405.5" r="2"/>
    <circle class="cls-2" cx="1770" cy="405.5" r="2"/>
    <circle class="cls-2" cx="1822" cy="405.5" r="2"/>
    <circle class="cls-2" cx="2" cy="457.5" r="2"/>
    <circle class="cls-2" cx="54" cy="457.5" r="2"/>
    <circle class="cls-2" cx="106" cy="457.5" r="2"/>
    <circle class="cls-2" cx="158" cy="457.5" r="2"/>
    <circle class="cls-2" cx="210" cy="457.5" r="2"/>
    <circle class="cls-2" cx="262" cy="457.5" r="2"/>
    <circle class="cls-2" cx="314" cy="457.5" r="2"/>
    <circle class="cls-2" cx="366" cy="457.5" r="2"/>
    <circle class="cls-2" cx="418" cy="457.5" r="2"/>
    <circle class="cls-2" cx="470" cy="457.5" r="2"/>
    <circle class="cls-2" cx="522" cy="457.5" r="2"/>
    <circle class="cls-2" cx="574" cy="457.5" r="2"/>
    <circle class="cls-2" cx="626" cy="457.5" r="2"/>
    <circle class="cls-2" cx="678" cy="457.5" r="2"/>
    <circle class="cls-2" cx="730" cy="457.5" r="2"/>
    <circle class="cls-2" cx="782" cy="457.5" r="2"/>
    <circle class="cls-2" cx="834" cy="457.5" r="2"/>
    <circle class="cls-2" cx="886" cy="457.5" r="2"/>
    <circle class="cls-2" cx="938" cy="457.5" r="2"/>
    <circle class="cls-2" cx="990" cy="457.5" r="2"/>
    <circle class="cls-2" cx="1042" cy="457.5" r="2"/>
    <circle class="cls-2" cx="1094" cy="457.5" r="2"/>
    <circle class="cls-2" cx="1146" cy="457.5" r="2"/>
    <circle class="cls-2" cx="1198" cy="457.5" r="2"/>
    <circle class="cls-2" cx="1250" cy="457.5" r="2"/>
    <circle class="cls-2" cx="1302" cy="457.5" r="2"/>
    <circle class="cls-2" cx="1354" cy="457.5" r="2"/>
    <circle class="cls-2" cx="1406" cy="457.5" r="2"/>
    <circle class="cls-2" cx="1458" cy="457.5" r="2"/>
    <circle class="cls-2" cx="1510" cy="457.5" r="2"/>
    <circle class="cls-2" cx="1562" cy="457.5" r="2"/>
    <circle class="cls-2" cx="1614" cy="457.5" r="2"/>
    <circle class="cls-2" cx="1666" cy="457.5" r="2"/>
    <circle class="cls-2" cx="1718" cy="457.5" r="2"/>
    <circle class="cls-2" cx="1770" cy="457.5" r="2"/>
    <circle class="cls-2" cx="1822" cy="457.5" r="2"/>
  </g>
</svg>