<svg width="660" height="660" viewBox="0 0 660 660" fill="none" xmlns="http://www.w3.org/2000/svg">
<g clip-path="url(#clip0_110_54805)">
<circle cx="12" cy="12" r="2" fill="#F1F5F9"/>
<circle cx="49" cy="12" r="2" fill="#F1F5F9"/>
<circle cx="86" cy="12" r="2" fill="#F1F5F9"/>
<circle cx="123" cy="12" r="2" fill="#F1F5F9"/>
<circle cx="160" cy="12" r="2" fill="#F1F5F9"/>
<circle cx="197" cy="12" r="2" fill="#F1F5F9"/>
<circle cx="234" cy="12" r="2" fill="#F1F5F9"/>
<circle cx="271" cy="12" r="2" fill="#F1F5F9"/>
<circle cx="308" cy="12" r="2" fill="#F1F5F9"/>
<circle cx="345" cy="12" r="2" fill="#F1F5F9"/>
<circle cx="382" cy="12" r="2" fill="#F1F5F9"/>
<circle cx="419" cy="12" r="2" fill="#F1F5F9"/>
<circle cx="456" cy="12" r="2" fill="#F1F5F9"/>
<circle cx="493" cy="12" r="2" fill="#F1F5F9"/>
<circle cx="530" cy="12" r="2" fill="#F1F5F9"/>
<circle cx="567" cy="12" r="2" fill="#F1F5F9"/>
<circle cx="604" cy="12" r="2" fill="#F1F5F9"/>
<circle cx="641" cy="12" r="2" fill="#F1F5F9"/>
<circle cx="12" cy="49" r="2" fill="#F1F5F9"/>
<circle cx="49" cy="49" r="2" fill="#F1F5F9"/>
<circle cx="86" cy="49" r="2" fill="#F1F5F9"/>
<circle cx="123" cy="49" r="2" fill="#F1F5F9"/>
<circle cx="160" cy="49" r="2" fill="#F1F5F9"/>
<circle cx="197" cy="49" r="2" fill="#F1F5F9"/>
<circle cx="234" cy="49" r="2" fill="#F1F5F9"/>
<circle cx="271" cy="49" r="2" fill="#F1F5F9"/>
<circle cx="308" cy="49" r="2" fill="#F1F5F9"/>
<circle cx="345" cy="49" r="2" fill="#F1F5F9"/>
<circle cx="382" cy="49" r="2" fill="#F1F5F9"/>
<circle cx="419" cy="49" r="2" fill="#F1F5F9"/>
<circle cx="456" cy="49" r="2" fill="#F1F5F9"/>
<circle cx="493" cy="49" r="2" fill="#F1F5F9"/>
<circle cx="530" cy="49" r="2" fill="#F1F5F9"/>
<circle cx="567" cy="49" r="2" fill="#F1F5F9"/>
<circle cx="604" cy="49" r="2" fill="#F1F5F9"/>
<circle cx="641" cy="49" r="2" fill="#F1F5F9"/>
<circle cx="12" cy="86" r="2" fill="#F1F5F9"/>
<circle cx="49" cy="86" r="2" fill="#F1F5F9"/>
<circle cx="86" cy="86" r="2" fill="#F1F5F9"/>
<circle cx="123" cy="86" r="2" fill="#F1F5F9"/>
<circle cx="160" cy="86" r="2" fill="#F1F5F9"/>
<circle cx="197" cy="86" r="2" fill="#F1F5F9"/>
<circle cx="234" cy="86" r="2" fill="#F1F5F9"/>
<circle cx="271" cy="86" r="2" fill="#F1F5F9"/>
<circle cx="308" cy="86" r="2" fill="#F1F5F9"/>
<circle cx="345" cy="86" r="2" fill="#F1F5F9"/>
<circle cx="382" cy="86" r="2" fill="#F1F5F9"/>
<circle cx="419" cy="86" r="2" fill="#F1F5F9"/>
<circle cx="456" cy="86" r="2" fill="#F1F5F9"/>
<circle cx="493" cy="86" r="2" fill="#F1F5F9"/>
<circle cx="530" cy="86" r="2" fill="#F1F5F9"/>
<circle cx="567" cy="86" r="2" fill="#F1F5F9"/>
<circle cx="604" cy="86" r="2" fill="#F1F5F9"/>
<circle cx="641" cy="86" r="2" fill="#F1F5F9"/>
<circle cx="12" cy="123" r="2" fill="#F1F5F9"/>
<circle cx="49" cy="123" r="2" fill="#F1F5F9"/>
<circle cx="86" cy="123" r="2" fill="#F1F5F9"/>
<circle cx="123" cy="123" r="2" fill="#F1F5F9"/>
<circle cx="160" cy="123" r="2" fill="#F1F5F9"/>
<circle cx="197" cy="123" r="2" fill="#F1F5F9"/>
<circle cx="234" cy="123" r="2" fill="#F1F5F9"/>
<circle cx="271" cy="123" r="2" fill="#F1F5F9"/>
<circle cx="308" cy="123" r="2" fill="#F1F5F9"/>
<circle cx="345" cy="123" r="2" fill="#F1F5F9"/>
<circle cx="382" cy="123" r="2" fill="#F1F5F9"/>
<circle cx="419" cy="123" r="2" fill="#F1F5F9"/>
<circle cx="456" cy="123" r="2" fill="#F1F5F9"/>
<circle cx="493" cy="123" r="2" fill="#F1F5F9"/>
<circle cx="530" cy="123" r="2" fill="#F1F5F9"/>
<circle cx="567" cy="123" r="2" fill="#F1F5F9"/>
<circle cx="604" cy="123" r="2" fill="#F1F5F9"/>
<circle cx="641" cy="123" r="2" fill="#F1F5F9"/>
<circle cx="12" cy="160" r="2" fill="#F1F5F9"/>
<circle cx="49" cy="160" r="2" fill="#F1F5F9"/>
<circle cx="86" cy="160" r="2" fill="#F1F5F9"/>
<circle cx="123" cy="160" r="2" fill="#F1F5F9"/>
<circle cx="160" cy="160" r="2" fill="#F1F5F9"/>
<circle cx="197" cy="160" r="2" fill="#F1F5F9"/>
<circle cx="234" cy="160" r="2" fill="#F1F5F9"/>
<circle cx="271" cy="160" r="2" fill="#F1F5F9"/>
<circle cx="308" cy="160" r="2" fill="#F1F5F9"/>
<circle cx="345" cy="160" r="2" fill="#F1F5F9"/>
<circle cx="382" cy="160" r="2" fill="#F1F5F9"/>
<circle cx="419" cy="160" r="2" fill="#F1F5F9"/>
<circle cx="456" cy="160" r="2" fill="#F1F5F9"/>
<circle cx="493" cy="160" r="2" fill="#F1F5F9"/>
<circle cx="530" cy="160" r="2" fill="#F1F5F9"/>
<circle cx="567" cy="160" r="2" fill="#F1F5F9"/>
<circle cx="604" cy="160" r="2" fill="#F1F5F9"/>
<circle cx="641" cy="160" r="2" fill="#F1F5F9"/>
<circle cx="12" cy="197" r="2" fill="#F1F5F9"/>
<circle cx="49" cy="197" r="2" fill="#F1F5F9"/>
<circle cx="86" cy="197" r="2" fill="#F1F5F9"/>
<circle cx="123" cy="197" r="2" fill="#F1F5F9"/>
<circle cx="160" cy="197" r="2" fill="#F1F5F9"/>
<circle cx="197" cy="197" r="2" fill="#F1F5F9"/>
<circle cx="234" cy="197" r="2" fill="#F1F5F9"/>
<circle cx="271" cy="197" r="2" fill="#F1F5F9"/>
<circle cx="308" cy="197" r="2" fill="#F1F5F9"/>
<circle cx="345" cy="197" r="2" fill="#F1F5F9"/>
<circle cx="382" cy="197" r="2" fill="#F1F5F9"/>
<circle cx="419" cy="197" r="2" fill="#F1F5F9"/>
<circle cx="456" cy="197" r="2" fill="#F1F5F9"/>
<circle cx="493" cy="197" r="2" fill="#F1F5F9"/>
<circle cx="530" cy="197" r="2" fill="#F1F5F9"/>
<circle cx="567" cy="197" r="2" fill="#F1F5F9"/>
<circle cx="604" cy="197" r="2" fill="#F1F5F9"/>
<circle cx="641" cy="197" r="2" fill="#F1F5F9"/>
<circle cx="12" cy="234" r="2" fill="#F1F5F9"/>
<circle cx="49" cy="234" r="2" fill="#F1F5F9"/>
<circle cx="86" cy="234" r="2" fill="#F1F5F9"/>
<circle cx="123" cy="234" r="2" fill="#F1F5F9"/>
<circle cx="160" cy="234" r="2" fill="#F1F5F9"/>
<circle cx="197" cy="234" r="2" fill="#F1F5F9"/>
<circle cx="234" cy="234" r="2" fill="#F1F5F9"/>
<circle cx="271" cy="234" r="2" fill="#F1F5F9"/>
<circle cx="308" cy="234" r="2" fill="#F1F5F9"/>
<circle cx="345" cy="234" r="2" fill="#F1F5F9"/>
<circle cx="382" cy="234" r="2" fill="#F1F5F9"/>
<circle cx="419" cy="234" r="2" fill="#F1F5F9"/>
<circle cx="456" cy="234" r="2" fill="#F1F5F9"/>
<circle cx="493" cy="234" r="2" fill="#F1F5F9"/>
<circle cx="530" cy="234" r="2" fill="#F1F5F9"/>
<circle cx="567" cy="234" r="2" fill="#F1F5F9"/>
<circle cx="604" cy="234" r="2" fill="#F1F5F9"/>
<circle cx="641" cy="234" r="2" fill="#F1F5F9"/>
<circle cx="12" cy="271" r="2" fill="#F1F5F9"/>
<circle cx="49" cy="271" r="2" fill="#F1F5F9"/>
<circle cx="86" cy="271" r="2" fill="#F1F5F9"/>
<circle cx="123" cy="271" r="2" fill="#F1F5F9"/>
<circle cx="160" cy="271" r="2" fill="#F1F5F9"/>
<circle cx="197" cy="271" r="2" fill="#F1F5F9"/>
<circle cx="234" cy="271" r="2" fill="#F1F5F9"/>
<circle cx="271" cy="271" r="2" fill="#F1F5F9"/>
<circle cx="308" cy="271" r="2" fill="#F1F5F9"/>
<circle cx="345" cy="271" r="2" fill="#F1F5F9"/>
<circle cx="382" cy="271" r="2" fill="#F1F5F9"/>
<circle cx="419" cy="271" r="2" fill="#F1F5F9"/>
<circle cx="456" cy="271" r="2" fill="#F1F5F9"/>
<circle cx="493" cy="271" r="2" fill="#F1F5F9"/>
<circle cx="530" cy="271" r="2" fill="#F1F5F9"/>
<circle cx="567" cy="271" r="2" fill="#F1F5F9"/>
<circle cx="604" cy="271" r="2" fill="#F1F5F9"/>
<circle cx="641" cy="271" r="2" fill="#F1F5F9"/>
<circle cx="12" cy="308" r="2" fill="#F1F5F9"/>
<circle cx="49" cy="308" r="2" fill="#F1F5F9"/>
<circle cx="86" cy="308" r="2" fill="#F1F5F9"/>
<circle cx="123" cy="308" r="2" fill="#F1F5F9"/>
<circle cx="160" cy="308" r="2" fill="#F1F5F9"/>
<circle cx="197" cy="308" r="2" fill="#F1F5F9"/>
<circle cx="234" cy="308" r="2" fill="#F1F5F9"/>
<circle cx="271" cy="308" r="2" fill="#F1F5F9"/>
<circle cx="308" cy="308" r="2" fill="#F1F5F9"/>
<circle cx="345" cy="308" r="2" fill="#F1F5F9"/>
<circle cx="382" cy="308" r="2" fill="#F1F5F9"/>
<circle cx="419" cy="308" r="2" fill="#F1F5F9"/>
<circle cx="456" cy="308" r="2" fill="#F1F5F9"/>
<circle cx="493" cy="308" r="2" fill="#F1F5F9"/>
<circle cx="530" cy="308" r="2" fill="#F1F5F9"/>
<circle cx="567" cy="308" r="2" fill="#F1F5F9"/>
<circle cx="604" cy="308" r="2" fill="#F1F5F9"/>
<circle cx="641" cy="308" r="2" fill="#F1F5F9"/>
<circle cx="12" cy="345" r="2" fill="#F1F5F9"/>
<circle cx="49" cy="345" r="2" fill="#F1F5F9"/>
<circle cx="86" cy="345" r="2" fill="#F1F5F9"/>
<circle cx="123" cy="345" r="2" fill="#F1F5F9"/>
<circle cx="160" cy="345" r="2" fill="#F1F5F9"/>
<circle cx="197" cy="345" r="2" fill="#F1F5F9"/>
<circle cx="234" cy="345" r="2" fill="#F1F5F9"/>
<circle cx="271" cy="345" r="2" fill="#F1F5F9"/>
<circle cx="308" cy="345" r="2" fill="#F1F5F9"/>
<circle cx="345" cy="345" r="2" fill="#F1F5F9"/>
<circle cx="382" cy="345" r="2" fill="#F1F5F9"/>
<circle cx="419" cy="345" r="2" fill="#F1F5F9"/>
<circle cx="456" cy="345" r="2" fill="#F1F5F9"/>
<circle cx="493" cy="345" r="2" fill="#F1F5F9"/>
<circle cx="530" cy="345" r="2" fill="#F1F5F9"/>
<circle cx="567" cy="345" r="2" fill="#F1F5F9"/>
<circle cx="604" cy="345" r="2" fill="#F1F5F9"/>
<circle cx="641" cy="345" r="2" fill="#F1F5F9"/>
<circle cx="12" cy="382" r="2" fill="#F1F5F9"/>
<circle cx="49" cy="382" r="2" fill="#F1F5F9"/>
<circle cx="86" cy="382" r="2" fill="#F1F5F9"/>
<circle cx="123" cy="382" r="2" fill="#F1F5F9"/>
<circle cx="160" cy="382" r="2" fill="#F1F5F9"/>
<circle cx="197" cy="382" r="2" fill="#F1F5F9"/>
<circle cx="234" cy="382" r="2" fill="#F1F5F9"/>
<circle cx="271" cy="382" r="2" fill="#F1F5F9"/>
<circle cx="308" cy="382" r="2" fill="#F1F5F9"/>
<circle cx="345" cy="382" r="2" fill="#F1F5F9"/>
<circle cx="382" cy="382" r="2" fill="#F1F5F9"/>
<circle cx="419" cy="382" r="2" fill="#F1F5F9"/>
<circle cx="456" cy="382" r="2" fill="#F1F5F9"/>
<circle cx="493" cy="382" r="2" fill="#F1F5F9"/>
<circle cx="530" cy="382" r="2" fill="#F1F5F9"/>
<circle cx="567" cy="382" r="2" fill="#F1F5F9"/>
<circle cx="604" cy="382" r="2" fill="#F1F5F9"/>
<circle cx="641" cy="382" r="2" fill="#F1F5F9"/>
<circle cx="12" cy="419" r="2" fill="#F1F5F9"/>
<circle cx="49" cy="419" r="2" fill="#F1F5F9"/>
<circle cx="86" cy="419" r="2" fill="#F1F5F9"/>
<circle cx="123" cy="419" r="2" fill="#F1F5F9"/>
<circle cx="160" cy="419" r="2" fill="#F1F5F9"/>
<circle cx="197" cy="419" r="2" fill="#F1F5F9"/>
<circle cx="234" cy="419" r="2" fill="#F1F5F9"/>
<circle cx="271" cy="419" r="2" fill="#F1F5F9"/>
<circle cx="308" cy="419" r="2" fill="#F1F5F9"/>
<circle cx="345" cy="419" r="2" fill="#F1F5F9"/>
<circle cx="382" cy="419" r="2" fill="#F1F5F9"/>
<circle cx="419" cy="419" r="2" fill="#F1F5F9"/>
<circle cx="456" cy="419" r="2" fill="#F1F5F9"/>
<circle cx="493" cy="419" r="2" fill="#F1F5F9"/>
<circle cx="530" cy="419" r="2" fill="#F1F5F9"/>
<circle cx="567" cy="419" r="2" fill="#F1F5F9"/>
<circle cx="604" cy="419" r="2" fill="#F1F5F9"/>
<circle cx="641" cy="419" r="2" fill="#F1F5F9"/>
<circle cx="12" cy="456" r="2" fill="#F1F5F9"/>
<circle cx="49" cy="456" r="2" fill="#F1F5F9"/>
<circle cx="86" cy="456" r="2" fill="#F1F5F9"/>
<circle cx="123" cy="456" r="2" fill="#F1F5F9"/>
<circle cx="160" cy="456" r="2" fill="#F1F5F9"/>
<circle cx="197" cy="456" r="2" fill="#F1F5F9"/>
<circle cx="234" cy="456" r="2" fill="#F1F5F9"/>
<circle cx="271" cy="456" r="2" fill="#F1F5F9"/>
<circle cx="308" cy="456" r="2" fill="#F1F5F9"/>
<circle cx="345" cy="456" r="2" fill="#F1F5F9"/>
<circle cx="382" cy="456" r="2" fill="#F1F5F9"/>
<circle cx="419" cy="456" r="2" fill="#F1F5F9"/>
<circle cx="456" cy="456" r="2" fill="#F1F5F9"/>
<circle cx="493" cy="456" r="2" fill="#F1F5F9"/>
<circle cx="530" cy="456" r="2" fill="#F1F5F9"/>
<circle cx="567" cy="456" r="2" fill="#F1F5F9"/>
<circle cx="604" cy="456" r="2" fill="#F1F5F9"/>
<circle cx="641" cy="456" r="2" fill="#F1F5F9"/>
<circle cx="12" cy="493" r="2" fill="#F1F5F9"/>
<circle cx="49" cy="493" r="2" fill="#F1F5F9"/>
<circle cx="86" cy="493" r="2" fill="#F1F5F9"/>
<circle cx="123" cy="493" r="2" fill="#F1F5F9"/>
<circle cx="160" cy="493" r="2" fill="#F1F5F9"/>
<circle cx="197" cy="493" r="2" fill="#F1F5F9"/>
<circle cx="234" cy="493" r="2" fill="#F1F5F9"/>
<circle cx="271" cy="493" r="2" fill="#F1F5F9"/>
<circle cx="308" cy="493" r="2" fill="#F1F5F9"/>
<circle cx="345" cy="493" r="2" fill="#F1F5F9"/>
<circle cx="382" cy="493" r="2" fill="#F1F5F9"/>
<circle cx="419" cy="493" r="2" fill="#F1F5F9"/>
<circle cx="456" cy="493" r="2" fill="#F1F5F9"/>
<circle cx="493" cy="493" r="2" fill="#F1F5F9"/>
<circle cx="530" cy="493" r="2" fill="#F1F5F9"/>
<circle cx="567" cy="493" r="2" fill="#F1F5F9"/>
<circle cx="604" cy="493" r="2" fill="#F1F5F9"/>
<circle cx="641" cy="493" r="2" fill="#F1F5F9"/>
<circle cx="12" cy="530" r="2" fill="#F1F5F9"/>
<circle cx="49" cy="530" r="2" fill="#F1F5F9"/>
<circle cx="86" cy="530" r="2" fill="#F1F5F9"/>
<circle cx="123" cy="530" r="2" fill="#F1F5F9"/>
<circle cx="160" cy="530" r="2" fill="#F1F5F9"/>
<circle cx="197" cy="530" r="2" fill="#F1F5F9"/>
<circle cx="234" cy="530" r="2" fill="#F1F5F9"/>
<circle cx="271" cy="530" r="2" fill="#F1F5F9"/>
<circle cx="308" cy="530" r="2" fill="#F1F5F9"/>
<circle cx="345" cy="530" r="2" fill="#F1F5F9"/>
<circle cx="382" cy="530" r="2" fill="#F1F5F9"/>
<circle cx="419" cy="530" r="2" fill="#F1F5F9"/>
<circle cx="456" cy="530" r="2" fill="#F1F5F9"/>
<circle cx="493" cy="530" r="2" fill="#F1F5F9"/>
<circle cx="530" cy="530" r="2" fill="#F1F5F9"/>
<circle cx="567" cy="530" r="2" fill="#F1F5F9"/>
<circle cx="604" cy="530" r="2" fill="#F1F5F9"/>
<circle cx="641" cy="530" r="2" fill="#F1F5F9"/>
<circle cx="12" cy="567" r="2" fill="#F1F5F9"/>
<circle cx="49" cy="567" r="2" fill="#F1F5F9"/>
<circle cx="86" cy="567" r="2" fill="#F1F5F9"/>
<circle cx="123" cy="567" r="2" fill="#F1F5F9"/>
<circle cx="160" cy="567" r="2" fill="#F1F5F9"/>
<circle cx="197" cy="567" r="2" fill="#F1F5F9"/>
<circle cx="234" cy="567" r="2" fill="#F1F5F9"/>
<circle cx="271" cy="567" r="2" fill="#F1F5F9"/>
<circle cx="308" cy="567" r="2" fill="#F1F5F9"/>
<circle cx="345" cy="567" r="2" fill="#F1F5F9"/>
<circle cx="382" cy="567" r="2" fill="#F1F5F9"/>
<circle cx="419" cy="567" r="2" fill="#F1F5F9"/>
<circle cx="456" cy="567" r="2" fill="#F1F5F9"/>
<circle cx="493" cy="567" r="2" fill="#F1F5F9"/>
<circle cx="530" cy="567" r="2" fill="#F1F5F9"/>
<circle cx="567" cy="567" r="2" fill="#F1F5F9"/>
<circle cx="604" cy="567" r="2" fill="#F1F5F9"/>
<circle cx="641" cy="567" r="2" fill="#F1F5F9"/>
<circle cx="12" cy="604" r="2" fill="#F1F5F9"/>
<circle cx="49" cy="604" r="2" fill="#F1F5F9"/>
<circle cx="86" cy="604" r="2" fill="#F1F5F9"/>
<circle cx="123" cy="604" r="2" fill="#F1F5F9"/>
<circle cx="160" cy="604" r="2" fill="#F1F5F9"/>
<circle cx="197" cy="604" r="2" fill="#F1F5F9"/>
<circle cx="234" cy="604" r="2" fill="#F1F5F9"/>
<circle cx="271" cy="604" r="2" fill="#F1F5F9"/>
<circle cx="308" cy="604" r="2" fill="#F1F5F9"/>
<circle cx="345" cy="604" r="2" fill="#F1F5F9"/>
<circle cx="382" cy="604" r="2" fill="#F1F5F9"/>
<circle cx="419" cy="604" r="2" fill="#F1F5F9"/>
<circle cx="456" cy="604" r="2" fill="#F1F5F9"/>
<circle cx="493" cy="604" r="2" fill="#F1F5F9"/>
<circle cx="530" cy="604" r="2" fill="#F1F5F9"/>
<circle cx="567" cy="604" r="2" fill="#F1F5F9"/>
<circle cx="604" cy="604" r="2" fill="#F1F5F9"/>
<circle cx="641" cy="604" r="2" fill="#F1F5F9"/>
<circle cx="12" cy="641" r="2" fill="#F1F5F9"/>
<circle cx="49" cy="641" r="2" fill="#F1F5F9"/>
<circle cx="86" cy="641" r="2" fill="#F1F5F9"/>
<circle cx="123" cy="641" r="2" fill="#F1F5F9"/>
<circle cx="160" cy="641" r="2" fill="#F1F5F9"/>
<circle cx="197" cy="641" r="2" fill="#F1F5F9"/>
<circle cx="234" cy="641" r="2" fill="#F1F5F9"/>
<circle cx="271" cy="641" r="2" fill="#F1F5F9"/>
<circle cx="308" cy="641" r="2" fill="#F1F5F9"/>
<circle cx="345" cy="641" r="2" fill="#F1F5F9"/>
<circle cx="382" cy="641" r="2" fill="#F1F5F9"/>
<circle cx="419" cy="641" r="2" fill="#F1F5F9"/>
<circle cx="456" cy="641" r="2" fill="#F1F5F9"/>
<circle cx="493" cy="641" r="2" fill="#F1F5F9"/>
<circle cx="530" cy="641" r="2" fill="#F1F5F9"/>
<circle cx="567" cy="641" r="2" fill="#F1F5F9"/>
<circle cx="604" cy="641" r="2" fill="#F1F5F9"/>
<circle cx="641" cy="641" r="2" fill="#F1F5F9"/>
</g>
<defs>
<clipPath id="clip0_110_54805">
<rect width="660" height="660" fill="white"/>
</clipPath>
</defs>
</svg>
