<svg width="33" height="32" viewBox="0 0 33 32" fill="none" xmlns="http://www.w3.org/2000/svg">
<path d="M0.5 16C0.5 8.45753 0.5 4.68629 2.84315 2.34315C5.18629 0 8.95753 0 16.5 0C24.0425 0 27.8137 0 30.1569 2.34315C32.5 4.68629 32.5 8.45753 32.5 16C32.5 23.5425 32.5 27.3137 30.1569 29.6569C27.8137 32 24.0425 32 16.5 32C8.95753 32 5.18629 32 2.84315 29.6569C0.5 27.3137 0.5 23.5425 0.5 16Z" fill="url(#paint0_linear_19_2981)"/>
<path fill-rule="evenodd" clip-rule="evenodd" d="M17.0025 8.32L18.5025 9L17.8225 7.5L18.5025 6L17.0025 6.68L15.5025 6L16.1825 7.5L15.5025 9L17.0025 8.32ZM23.3825 8.96L25.5025 8L24.5425 10.12L25.5025 12.24L23.3825 11.28L21.2625 12.24L22.2225 10.12L21.2625 8L23.3825 8.96ZM15.6725 11.83C16.7725 10.72 18.5625 10.72 19.6725 11.83C20.7825 12.93 20.7825 14.72 19.6725 15.83L12.3325 23.17C11.2325 24.28 9.4425 24.28 8.3325 23.17C7.2225 22.07 7.2225 20.28 8.3325 19.17L15.6725 11.83ZM16.2725 17.11L18.6225 14.76C19.1425 14.24 19.1425 13.4 18.6225 12.88C18.1025 12.36 17.2625 12.36 16.7425 12.88L14.3925 15.23C13.8725 15.75 13.8725 16.59 14.3925 17.11C14.9125 17.63 15.7525 17.63 16.2725 17.11ZM19.5025 18L22.5025 19.36L25.5025 18L24.1425 21L25.5025 24L22.5025 22.64L19.5025 24L20.8625 21L19.5025 18Z" fill="url(#paint1_linear_19_2981)"/>
<defs>
<linearGradient id="paint0_linear_19_2981" x1="0.5" y1="0" x2="32.5" y2="32" gradientUnits="userSpaceOnUse">
<stop stop-color="#3E00FA"/>
<stop offset="1" stop-color="#6FA0FF"/>
</linearGradient>
<linearGradient id="paint1_linear_19_2981" x1="7.5" y1="6" x2="25.5" y2="24" gradientUnits="userSpaceOnUse">
<stop offset="0.578125" stop-color="white"/>
<stop offset="1" stop-color="white" stop-opacity="0.5"/>
</linearGradient>
</defs>
</svg>
