<?xml version="1.0" encoding="UTF-8"?>
<svg id="Layer_1" data-name="Layer 1" xmlns="http://www.w3.org/2000/svg" xmlns:xlink="http://www.w3.org/1999/xlink" viewBox="0 0 165.13 32">
  <defs>
    <linearGradient id="linear-gradient" x1=".19" y1="33.19" x2="32.19" y2=".81" gradientTransform="translate(0 33) scale(1 -1)" gradientUnits="userSpaceOnUse">
      <stop offset="0" stop-color="#3e00fa"/>
      <stop offset="1" stop-color="#6fa0ff"/>
    </linearGradient>
    <linearGradient id="linear-gradient-2" x1="6.81" y1="22.41" x2="25.17" y2="10.34" gradientTransform="translate(0 33) scale(1 -1)" gradientUnits="userSpaceOnUse">
      <stop offset=".58" stop-color="#fff"/>
      <stop offset="1" stop-color="#fff" stop-opacity=".5"/>
    </linearGradient>
    <linearGradient id="linear-gradient-3" x1="162.09" y1="18.52" x2="166.11" y2="17.94" gradientTransform="translate(0 33) scale(1 -1)" gradientUnits="userSpaceOnUse">
      <stop offset="0" stop-color="#3e00fa"/>
      <stop offset="1" stop-color="#6fa0ff"/>
    </linearGradient>
    <linearGradient id="linear-gradient-4" x1="146.89" y1="22.99" x2="161.04" y2="11.07" gradientTransform="translate(0 33) scale(1 -1)" gradientUnits="userSpaceOnUse">
      <stop offset="0" stop-color="#3e00fa"/>
      <stop offset="1" stop-color="#6fa0ff"/>
    </linearGradient>
  </defs>
  <path d="m0,16C0,8.46,0,4.69,2.37,2.34,4.74,0,8.56,0,16.19,0s11.45,0,13.82,2.34c2.37,2.34,2.37,6.11,2.37,13.66s0,11.31-2.37,13.66c-2.37,2.34-6.19,2.34-13.82,2.34s-11.45,0-13.82-2.34c-2.37-2.34-2.37-6.11-2.37-13.66Z" style="fill: url(#linear-gradient); stroke-width: 0px;"/>
  <path d="m11.35,12.15v1.88c0,.23,0,.34-.03.44-.02.09-.06.18-.11.27-.06.09-.14.17-.3.33l-.98.98c-.16.16-.24.24-.3.33-.05.08-.09.17-.11.27-.03.11-.03.22-.03.44v3.78c0,1.12,0,1.68.22,1.94.19.22.48.34.77.32.34-.03.73-.42,1.53-1.21l1.97-1.97c.73-.73,1.1-1.1,1.52-1.23.37-.12.77-.12,1.14,0,.42.14.79.5,1.52,1.23l1.97,1.97c.79.79,1.19,1.19,1.53,1.21.29.02.58-.1.77-.32.22-.26.22-.82.22-1.94v-3.81c0-.22,0-.32-.02-.43-.02-.09-.06-.18-.1-.26-.05-.09-.13-.17-.27-.33l-.95-1.01c-.14-.15-.21-.23-.26-.31-.05-.08-.08-.16-.1-.25-.02-.1-.03-.2-.03-.41l-.06-1.99c-.01-.42-.02-.64-.07-.84-.05-.18-.12-.35-.21-.5-.11-.18-.26-.33-.55-.63l-2.87-2.94c-.37-.38-.55-.57-.77-.64-.19-.06-.39-.06-.58,0-.21.07-.4.26-.77.64l-2.83,2.9c-.31.32-.47.48-.58.66-.1.16-.17.34-.21.53-.05.21-.05.43-.05.88Zm4.5-.73c.11-.29.16-.43.24-.47.07-.04.15-.04.22,0,.08.04.13.19.24.47l.53,1.43c.02.06.03.09.05.11.02.02.03.04.06.06.02.02.05.03.11.05l1.43.53c.29.11.43.16.47.24.04.07.04.15,0,.22-.04.08-.19.13-.47.24l-1.43.53c-.06.02-.09.03-.11.05-.02.02-.04.03-.06.06-.02.02-.03.05-.05.11l-.53,1.43c-.11.29-.16.43-.24.47-.07.04-.15.04-.22,0-.08-.04-.13-.19-.24-.47l-.53-1.43c-.02-.06-.03-.09-.05-.11-.02-.02-.03-.04-.06-.06-.02-.02-.05-.03-.11-.05l-1.43-.53c-.29-.11-.43-.16-.47-.24-.04-.07-.04-.15,0-.22.04-.08.19-.13.47-.24l1.43-.53c.06-.02.09-.03.11-.05.02-.02.04-.03.06-.06.02-.02.03-.05.05-.11l.53-1.43Zm-1.85,10.84l1.04-1.04c.37-.37.55-.55.76-.62.19-.06.39-.06.57,0,.21.07.39.25.76.62l1.04,1.04c.32.32.49.49.56.68.06.17.07.35.03.52-.04.2-.18.38-.46.74l-1.04,1.36c-.4.52-.6.78-.84.88-.21.08-.45.08-.66,0-.24-.09-.44-.35-.84-.88l-1.04-1.36c-.28-.36-.42-.55-.46-.74-.04-.17-.03-.36.03-.52.07-.19.23-.35.56-.68Z" style="fill: url(#linear-gradient-2); fill-rule: evenodd; stroke-width: 0px;"/>
  <path d="m141.41,22.36v-10.51h1.56v1.59h.11c.19-.52.54-.94,1.04-1.27.5-.32,1.07-.49,1.7-.49.12,0,.27,0,.45,0,.18,0,.31.01.4.02v1.64c-.05-.01-.18-.03-.38-.06-.19-.03-.39-.05-.61-.05-.51,0-.97.11-1.37.32-.4.21-.71.5-.94.88-.23.37-.34.79-.34,1.27v6.65h-1.62Z" style="fill: #020617; stroke-width: 0px;"/>
  <path d="m134.6,22.58c-1.01,0-1.89-.22-2.62-.67-.73-.45-1.29-1.08-1.69-1.89-.39-.81-.59-1.76-.59-2.83s.2-2.03.59-2.85c.4-.83.95-1.47,1.66-1.93.71-.47,1.54-.7,2.49-.7.55,0,1.09.09,1.62.27s1.02.48,1.46.89c.44.41.79.94,1.05,1.62s.39,1.5.39,2.48v.68h-8.1v-1.4h6.46c0-.59-.12-1.12-.35-1.59-.23-.47-.57-.83-1-1.1-.43-.27-.93-.4-1.52-.4-.64,0-1.2.16-1.67.48-.47.31-.82.73-1.07,1.23-.25.51-.38,1.05-.38,1.63v.93c0,.79.14,1.47.41,2.02.28.55.66.97,1.16,1.25.49.28,1.07.42,1.72.42.43,0,.81-.06,1.15-.18.35-.12.65-.31.9-.55.25-.25.44-.55.58-.92l1.56.44c-.16.53-.44.99-.83,1.4-.39.4-.87.71-1.44.93-.57.22-1.21.33-1.92.33Z" style="fill: #020617; stroke-width: 0px;"/>
  <path d="m127.88,11.85v1.37h-5.45v-1.37h5.45Zm-3.86-2.52h1.61v10.02c0,.46.07.8.2,1.03.14.22.31.37.52.45.22.07.44.11.68.11.18,0,.32,0,.44-.03.11-.02.21-.04.27-.05l.33,1.45c-.11.04-.26.08-.46.12-.2.05-.44.07-.75.07-.46,0-.9-.1-1.34-.29-.43-.2-.79-.49-1.08-.9-.28-.4-.42-.91-.42-1.52v-10.46Z" style="fill: #020617; stroke-width: 0px;"/>
  <path d="m115.48,22.36v-10.51h1.56v1.59h.11c.19-.52.54-.94,1.04-1.27.5-.32,1.07-.49,1.7-.49.12,0,.27,0,.44,0,.18,0,.31.01.4.02v1.64c-.06-.01-.18-.03-.38-.06-.19-.03-.39-.05-.61-.05-.51,0-.97.11-1.37.32-.4.21-.71.5-.95.88-.23.37-.34.79-.34,1.27v6.65h-1.61Z" style="fill: #020617; stroke-width: 0px;"/>
  <path d="m107.71,22.61c-.67,0-1.27-.13-1.81-.38-.54-.26-.97-.62-1.29-1.1-.32-.48-.48-1.07-.48-1.75,0-.6.12-1.09.36-1.46.24-.38.55-.68.95-.89.4-.21.83-.37,1.31-.48.48-.11.97-.2,1.46-.26.64-.08,1.16-.14,1.55-.18.4-.05.69-.12.88-.23.19-.1.28-.29.28-.55v-.05c0-.68-.18-1.2-.55-1.57-.36-.37-.92-.56-1.66-.56s-1.38.17-1.81.51c-.44.34-.75.7-.92,1.08l-1.53-.55c.27-.64.64-1.14,1.1-1.49.46-.36.96-.61,1.51-.75.55-.15,1.09-.22,1.61-.22.34,0,.73.04,1.16.12.44.08.87.24,1.28.49.42.25.76.62,1.03,1.12.27.5.41,1.16.41,2v6.93h-1.61v-1.42h-.08c-.11.23-.29.47-.55.73-.26.26-.6.48-1.02.66-.42.18-.94.27-1.55.27Zm.25-1.45c.64,0,1.18-.13,1.61-.38.44-.25.78-.57,1-.97.23-.4.34-.81.34-1.25v-1.48c-.07.08-.22.16-.45.23-.23.06-.49.12-.79.17-.3.05-.59.09-.87.12-.28.03-.5.06-.68.08-.42.05-.81.14-1.18.27-.36.12-.65.3-.88.54-.22.24-.33.56-.33.97,0,.56.21.99.62,1.27.42.28.95.42,1.6.42Z" style="fill: #020617; stroke-width: 0px;"/>
  <path d="m102.19,11.85v1.37h-5.45v-1.37h5.45Zm-3.86-2.52h1.62v10.02c0,.46.07.8.2,1.03.14.22.31.37.52.45.21.07.44.11.68.11.18,0,.32,0,.44-.03.11-.02.21-.04.27-.05l.33,1.45c-.11.04-.26.08-.46.12-.2.05-.44.07-.75.07-.46,0-.9-.1-1.34-.29-.43-.2-.79-.49-1.08-.9-.28-.4-.42-.91-.42-1.52v-10.46Z" style="fill: #020617; stroke-width: 0px;"/>
  <path d="m93.21,11.85c-.08-.69-.42-1.23-1-1.62-.58-.38-1.3-.57-2.15-.57-.62,0-1.16.1-1.63.3-.46.2-.82.48-1.08.83-.26.35-.38.75-.38,1.2,0,.37.09.7.27.97.18.26.42.49.7.66.28.17.58.32.89.43.31.11.6.2.86.27l1.42.38c.36.1.77.23,1.22.4.45.17.88.4,1.29.69.42.29.76.66,1.03,1.11.27.45.4,1.01.4,1.66,0,.76-.2,1.44-.6,2.05-.39.61-.97,1.1-1.72,1.46-.75.36-1.67.54-2.74.54-1,0-1.87-.16-2.61-.49-.73-.32-1.3-.78-1.72-1.35-.42-.58-.65-1.25-.7-2.02h1.75c.05.53.22.97.53,1.31.31.34.71.6,1.19.77.48.16,1,.25,1.56.25.65,0,1.23-.11,1.75-.31.52-.21.92-.51,1.22-.89.3-.38.45-.83.45-1.34,0-.47-.13-.84-.39-1.14-.26-.29-.6-.53-1.03-.71-.42-.18-.88-.34-1.38-.48l-1.72-.49c-1.1-.31-1.96-.76-2.6-1.35-.64-.58-.96-1.35-.96-2.29,0-.78.21-1.47.64-2.05.43-.59,1-1.04,1.72-1.37.73-.33,1.54-.49,2.43-.49s1.71.16,2.41.49c.7.32,1.26.76,1.67,1.31.42.56.63,1.19.66,1.9h-1.64Z" style="fill: #020617; stroke-width: 0px;"/>
  <path d="m83.12,11.85v2.19h-6.33v-2.19h6.33Zm-4.89-2.52h2.92v9.8c0,.27.04.48.12.63.08.15.2.25.34.31.15.06.32.09.52.09.14,0,.27-.01.41-.03.14-.03.24-.05.31-.06l.46,2.17c-.15.05-.35.1-.62.16-.26.06-.59.1-.96.12-.7.03-1.32-.07-1.85-.28-.52-.21-.93-.55-1.22-1-.29-.45-.44-1.02-.43-1.71v-10.18Z" style="fill: #020617; stroke-width: 0px;"/>
  <path d="m68.9,11.85l1.93,3.67,1.98-3.67h2.99l-3.05,5.26,3.13,5.26h-2.98l-2.07-3.63-2.04,3.63h-3.01l3.12-5.26-3.01-5.26h3.01Z" style="fill: #020617; stroke-width: 0px;"/>
  <path d="m59.92,22.56c-1.08,0-2.01-.22-2.79-.66-.78-.44-1.37-1.07-1.79-1.88-.42-.81-.63-1.77-.63-2.88s.21-2.03.63-2.85c.42-.82,1.01-1.45,1.77-1.91.77-.46,1.67-.68,2.7-.68.69,0,1.34.11,1.94.34.6.22,1.13.55,1.57.99.45.44.8,1,1.05,1.67.25.67.38,1.45.38,2.34v.8h-8.88v-1.81h6.13c0-.42-.09-.79-.27-1.12-.18-.32-.44-.58-.76-.76-.32-.19-.69-.28-1.12-.28s-.83.1-1.18.31c-.34.2-.6.47-.79.81-.19.34-.29.71-.29,1.13v1.72c0,.52.1.97.29,1.35.2.38.47.67.83.88.36.21.78.31,1.27.31.32,0,.62-.05.89-.14.27-.09.5-.23.69-.41.19-.18.34-.41.44-.67l2.7.18c-.14.65-.42,1.21-.84,1.7-.42.48-.96.85-1.63,1.12-.66.26-1.43.4-2.29.4Z" style="fill: #020617; stroke-width: 0px;"/>
  <path d="m52.74,8.34v14.02h-2.56l-6.1-8.82h-.1v8.82h-2.96v-14.02h2.6l6.05,8.81h.12v-8.81h2.95Z" style="fill: #020617; stroke-width: 0px;"/>
  <path d="m165.13,7.59v14.36h-2.05V7.59h2.05Z" style="fill: url(#linear-gradient-3); stroke-width: 0px;"/>
  <path d="m151.09,21.95h-2.17l4.87-14.36h2.36l4.87,14.36h-2.17l-3.83-11.75h-.11l-3.83,11.75Zm.36-5.62h7.03v1.82h-7.03v-1.82Z" style="fill: url(#linear-gradient-4); stroke-width: 0px;"/>
</svg>