<svg width="169" height="33" viewBox="0 0 169 33" fill="none" xmlns="http://www.w3.org/2000/svg">
<path d="M0.5 16.5C0.5 8.95753 0.5 5.18629 2.87138 2.84315C5.24275 0.5 9.05943 0.5 16.6928 0.5C24.3261 0.5 28.1428 0.5 30.5142 2.84315C32.8855 5.18629 32.8855 8.95753 32.8855 16.5C32.8855 24.0425 32.8855 27.8137 30.5142 30.1569C28.1428 32.5 24.3261 32.5 16.6928 32.5C9.05943 32.5 5.24275 32.5 2.87138 30.1569C0.5 27.8137 0.5 24.0425 0.5 16.5Z" fill="url(#paint0_linear_1664_8415)"/>
<path fill-rule="evenodd" clip-rule="evenodd" d="M11.8457 12.6491V14.5265C11.8457 14.7522 11.8457 14.8651 11.8202 14.9713C11.7976 15.0654 11.7603 15.1555 11.7097 15.238C11.6526 15.3312 11.5728 15.411 11.4132 15.5706L10.4325 16.5513C10.2729 16.7109 10.1931 16.7907 10.136 16.8839C10.0854 16.9664 10.0481 17.0565 10.0255 17.1506C10 17.2568 10 17.3697 10 17.5954V21.3786C10 22.4968 10 23.0559 10.2211 23.3148C10.413 23.5394 10.7008 23.6586 10.9953 23.6354C11.3347 23.6087 11.73 23.2134 12.5206 22.4227L14.4871 20.4562C15.2181 19.7253 15.5835 19.3599 16.005 19.2229C16.3757 19.1025 16.775 19.1025 17.1457 19.2229C17.5671 19.3599 17.9326 19.7253 18.6635 20.4562L20.63 22.4227C21.4206 23.2134 21.816 23.6087 22.1554 23.6354C22.4499 23.6586 22.7377 23.5394 22.9295 23.3148C23.1506 23.0559 23.1506 22.4968 23.1506 21.3786V17.5677C23.1506 17.3519 23.1506 17.244 23.1272 17.142C23.1064 17.0515 23.072 16.9647 23.0253 16.8844C22.9726 16.7939 22.8988 16.7152 22.7513 16.5578L21.8015 15.5447C21.6604 15.3943 21.5899 15.3191 21.5386 15.2328C21.4931 15.1564 21.459 15.0737 21.4371 14.9874C21.4125 14.8902 21.4093 14.7871 21.4029 14.581L21.3408 12.5951C21.3275 12.1705 21.3209 11.9583 21.2691 11.7586C21.2231 11.5815 21.1511 11.4122 21.0554 11.2563C20.9474 11.0805 20.799 10.9285 20.5023 10.6245L17.6319 7.68409C17.2629 7.30612 17.0784 7.11714 16.8647 7.04655C16.6768 6.98448 16.4738 6.98448 16.2859 7.04655C16.0722 7.11714 15.8877 7.30612 15.5187 7.68409L12.6856 10.5863C12.3755 10.904 12.2204 11.0628 12.1096 11.2471C12.0113 11.4106 11.939 11.5882 11.8952 11.7738C11.8457 11.9831 11.8457 12.2051 11.8457 12.6491ZM16.3445 11.9209C16.4514 11.6319 16.5049 11.4874 16.5828 11.4461C16.6503 11.4104 16.7311 11.4104 16.7985 11.4461C16.8765 11.4874 16.9299 11.6319 17.0369 11.9209L17.5665 13.3521C17.5881 13.4106 17.599 13.4399 17.6162 13.4644C17.6315 13.4862 17.6504 13.5051 17.6722 13.5204C17.6967 13.5377 17.726 13.5485 17.7846 13.5702L19.2158 14.0998C19.5048 14.2067 19.6493 14.2602 19.6905 14.3381C19.7262 14.4056 19.7262 14.4863 19.6905 14.5538C19.6493 14.6317 19.5048 14.6852 19.2158 14.7922L17.7846 15.3218C17.726 15.3434 17.6967 15.3543 17.6722 15.3715C17.6504 15.3868 17.6315 15.4057 17.6162 15.4275C17.599 15.452 17.5881 15.4813 17.5665 15.5398L17.0369 16.9711C16.9299 17.2601 16.8765 17.4046 16.7985 17.4458C16.7311 17.4815 16.6503 17.4815 16.5828 17.4458C16.5049 17.4046 16.4514 17.2601 16.3445 16.9711L15.8149 15.5398C15.7932 15.4813 15.7824 15.452 15.7651 15.4275C15.7498 15.4057 15.7309 15.3868 15.7091 15.3715C15.6846 15.3543 15.6553 15.3434 15.5968 15.3218L14.1656 14.7922C13.8766 14.6852 13.7321 14.6317 13.6908 14.5538C13.6551 14.4863 13.6551 14.4056 13.6908 14.3381C13.7321 14.2602 13.8766 14.2067 14.1656 14.0998L15.5968 13.5702C15.6553 13.5485 15.6846 13.5377 15.7091 13.5204C15.7309 13.5051 15.7498 13.4862 15.7651 13.4644C15.7824 13.4399 15.7932 13.4106 15.8149 13.3521L16.3445 11.9209ZM14.4901 22.7601L15.5312 21.7191C15.8967 21.3536 16.0794 21.1709 16.2901 21.1024C16.4755 21.0422 16.6751 21.0422 16.8605 21.1024C17.0712 21.1709 17.2539 21.3536 17.6194 21.7191L18.6604 22.7601C18.9843 23.084 19.1462 23.2459 19.2163 23.4356C19.2781 23.6028 19.2901 23.7843 19.251 23.9581C19.2066 24.1554 19.0675 24.3373 18.7893 24.7012L17.7482 26.0626C17.3494 26.5841 17.15 26.8449 16.9066 26.9385C16.6933 27.0205 16.4572 27.0205 16.244 26.9385C16.0006 26.8449 15.8012 26.5841 15.4024 26.0626L14.3613 24.7012C14.0831 24.3373 13.944 24.1554 13.8996 23.9581C13.8604 23.7843 13.8725 23.6028 13.9343 23.4356C14.0043 23.2459 14.1663 23.084 14.4901 22.7601Z" fill="url(#paint1_linear_1664_8415)"/>
<path d="M141.914 22.8588V12.347H143.474V13.9347H143.584C143.775 13.4146 144.122 12.9926 144.624 12.6686C145.126 12.3447 145.691 12.1827 146.321 12.1827C146.44 12.1827 146.588 12.185 146.766 12.1896C146.944 12.1941 147.078 12.201 147.17 12.2101V13.8526C147.115 13.8389 146.989 13.8184 146.793 13.791C146.602 13.7591 146.399 13.7431 146.184 13.7431C145.673 13.7431 145.217 13.8503 144.816 14.0647C144.419 14.2746 144.104 14.5666 143.871 14.9407C143.643 15.3103 143.529 15.7323 143.529 16.2068V22.8588H141.914Z" fill="#020617"/>
<path d="M135.104 23.0777C134.092 23.0777 133.218 22.8542 132.483 22.4071C131.753 21.9554 131.19 21.3258 130.793 20.5182C130.401 19.7061 130.204 18.7617 130.204 17.685C130.204 16.6082 130.401 15.6593 130.793 14.838C131.19 14.0122 131.742 13.3689 132.449 12.9081C133.161 12.4428 133.991 12.2101 134.94 12.2101C135.488 12.2101 136.028 12.3013 136.562 12.4838C137.096 12.6663 137.582 12.9629 138.02 13.3735C138.458 13.7796 138.807 14.3179 139.067 14.9886C139.327 15.6593 139.457 16.4851 139.457 17.466V18.1503H131.354V16.7542H137.814C137.814 16.1611 137.696 15.6319 137.459 15.1665C137.226 14.7012 136.893 14.3339 136.459 14.0647C136.031 13.7955 135.524 13.6609 134.94 13.6609C134.297 13.6609 133.74 13.8206 133.27 14.14C132.805 14.4548 132.447 14.8654 132.196 15.3718C131.945 15.8783 131.819 16.4212 131.819 17.0006V17.9313C131.819 18.7252 131.956 19.3982 132.23 19.9502C132.508 20.4977 132.894 20.9152 133.387 21.2026C133.879 21.4855 134.452 21.6269 135.104 21.6269C135.529 21.6269 135.912 21.5676 136.254 21.449C136.601 21.3258 136.9 21.1433 137.151 20.9015C137.402 20.6551 137.595 20.3494 137.732 19.9844L139.293 20.4224C139.128 20.9517 138.852 21.417 138.465 21.8185C138.077 22.2154 137.598 22.5257 137.027 22.7492C136.457 22.9682 135.816 23.0777 135.104 23.0777Z" fill="#020617"/>
<path d="M128.381 12.3469V13.7157H122.933V12.3469H128.381ZM124.521 9.82849H126.136V19.8475C126.136 20.3038 126.202 20.646 126.334 20.8741C126.471 21.0976 126.645 21.2482 126.854 21.3258C127.069 21.3988 127.295 21.4353 127.532 21.4353C127.71 21.4353 127.856 21.4261 127.97 21.4079C128.084 21.3851 128.175 21.3668 128.244 21.3531L128.572 22.804C128.463 22.845 128.31 22.8861 128.114 22.9272C127.918 22.9728 127.669 22.9956 127.368 22.9956C126.912 22.9956 126.464 22.8975 126.026 22.7013C125.593 22.5051 125.233 22.2063 124.945 21.8048C124.662 21.4033 124.521 20.8969 124.521 20.2855V9.82849Z" fill="#020617"/>
<path d="M115.98 22.8588V12.347H117.54V13.9347H117.65C117.841 13.4146 118.188 12.9926 118.69 12.6686C119.192 12.3447 119.758 12.1827 120.387 12.1827C120.506 12.1827 120.654 12.185 120.832 12.1896C121.01 12.1941 121.145 12.201 121.236 12.2101V13.8526C121.181 13.8389 121.056 13.8184 120.859 13.791C120.668 13.7591 120.465 13.7431 120.25 13.7431C119.739 13.7431 119.283 13.8503 118.882 14.0647C118.485 14.2746 118.17 14.5666 117.937 14.9407C117.709 15.3103 117.595 15.7323 117.595 16.2068V22.8588H115.98Z" fill="#020617"/>
<path d="M108.214 23.1051C107.548 23.1051 106.944 22.9796 106.401 22.7287C105.858 22.4732 105.427 22.1059 105.107 21.6269C104.788 21.1433 104.628 20.5593 104.628 19.8749C104.628 19.2727 104.747 18.7845 104.984 18.4104C105.221 18.0317 105.538 17.7352 105.935 17.5207C106.332 17.3063 106.77 17.1466 107.249 17.0417C107.733 16.9322 108.219 16.8455 108.707 16.7816C109.346 16.6995 109.864 16.6379 110.26 16.5968C110.662 16.5512 110.954 16.4759 111.136 16.371C111.324 16.2661 111.417 16.0836 111.417 15.8235V15.7688C111.417 15.0935 111.232 14.5688 110.863 14.1947C110.498 13.8206 109.943 13.6336 109.2 13.6336C108.429 13.6336 107.824 13.8024 107.386 14.14C106.948 14.4776 106.64 14.838 106.462 15.2213L104.929 14.6738C105.203 14.035 105.568 13.5377 106.024 13.1819C106.485 12.8214 106.987 12.5705 107.53 12.4291C108.077 12.2831 108.616 12.2101 109.145 12.2101C109.483 12.2101 109.87 12.2511 110.308 12.3333C110.751 12.4108 111.178 12.5728 111.588 12.8192C112.003 13.0655 112.348 13.4374 112.622 13.9347C112.895 14.432 113.032 15.0981 113.032 15.933V22.8587H111.417V21.4353H111.335C111.225 21.6634 111.043 21.9075 110.787 22.1675C110.532 22.4276 110.192 22.6489 109.768 22.8314C109.343 23.0139 108.826 23.1051 108.214 23.1051ZM108.461 21.6543C109.099 21.6543 109.638 21.5288 110.076 21.2779C110.518 21.0269 110.851 20.703 111.075 20.3061C111.303 19.9091 111.417 19.4917 111.417 19.0537V17.5755C111.349 17.6576 111.198 17.7329 110.965 17.8013C110.737 17.8652 110.473 17.9222 110.171 17.9724C109.875 18.018 109.585 18.0591 109.302 18.0956C109.024 18.1275 108.798 18.1549 108.625 18.1777C108.205 18.2325 107.813 18.3214 107.448 18.4446C107.087 18.5632 106.795 18.7434 106.572 18.9853C106.353 19.2225 106.243 19.5464 106.243 19.957C106.243 20.5182 106.451 20.9425 106.866 21.23C107.286 21.5128 107.817 21.6543 108.461 21.6543Z" fill="#020617"/>
<path d="M102.691 12.3469V13.7157H97.2439V12.3469H102.691ZM98.8316 9.82849H100.447V19.8475C100.447 20.3038 100.513 20.646 100.645 20.8741C100.782 21.0976 100.955 21.2482 101.165 21.3258C101.38 21.3988 101.606 21.4353 101.843 21.4353C102.021 21.4353 102.167 21.4261 102.281 21.4079C102.395 21.3851 102.486 21.3668 102.555 21.3531L102.883 22.804C102.774 22.845 102.621 22.8861 102.425 22.9272C102.228 22.9728 101.98 22.9956 101.679 22.9956C101.222 22.9956 100.775 22.8975 100.337 22.7013C99.9038 22.5051 99.5433 22.2063 99.2559 21.8048C98.973 21.4033 98.8316 20.8969 98.8316 20.2855V9.82849Z" fill="#020617"/>
<path d="M93.7143 12.347C93.6322 11.6535 93.2992 11.1151 92.7152 10.7319C92.1312 10.3486 91.4149 10.157 90.5663 10.157C89.9458 10.157 89.4029 10.2574 88.9375 10.4581C88.4767 10.6589 88.1163 10.9349 87.8562 11.2862C87.6007 11.6375 87.473 12.0367 87.473 12.4838C87.473 12.858 87.5619 13.1796 87.7399 13.4488C87.9224 13.7134 88.1551 13.9347 88.4379 14.1126C88.7208 14.286 89.0173 14.4297 89.3276 14.5438C89.6378 14.6533 89.923 14.7422 90.183 14.8107L91.6065 15.1939C91.9715 15.2897 92.3776 15.422 92.8247 15.5908C93.2764 15.7597 93.7075 15.9901 94.1181 16.2821C94.5333 16.5695 94.8755 16.939 95.1447 17.3907C95.4138 17.8424 95.5484 18.3967 95.5484 19.0537C95.5484 19.8111 95.35 20.4954 94.953 21.1068C94.5607 21.7182 93.9858 22.2041 93.2285 22.5645C92.4757 22.9249 91.5609 23.1051 90.4842 23.1051C89.4804 23.1051 88.6113 22.9432 87.8767 22.6192C87.1468 22.2953 86.5719 21.8436 86.1522 21.2642C85.737 20.6848 85.502 20.0118 85.4473 19.2453H87.1992C87.2449 19.7746 87.4228 20.2126 87.733 20.5593C88.0478 20.9015 88.4448 21.157 88.9238 21.3258C89.4074 21.49 89.9275 21.5722 90.4842 21.5722C91.132 21.5722 91.7137 21.4672 92.2293 21.2574C92.7448 21.0429 93.1532 20.7464 93.4543 20.3677C93.7554 19.9844 93.906 19.5373 93.906 19.0263C93.906 18.561 93.7759 18.1823 93.5159 17.8903C93.2558 17.5983 92.9136 17.3611 92.4893 17.1786C92.065 16.9961 91.6065 16.8364 91.1138 16.6995L89.3892 16.2068C88.2942 15.892 87.4274 15.4426 86.7886 14.8586C86.1499 14.2746 85.8305 13.5104 85.8305 12.566C85.8305 11.7812 86.0427 11.0969 86.467 10.5129C86.8958 9.92434 87.4707 9.4681 88.1916 9.14417C88.917 8.81567 89.7268 8.65143 90.621 8.65143C91.5244 8.65143 92.3274 8.81339 93.03 9.13732C93.7326 9.45669 94.2892 9.89468 94.6998 10.4513C95.115 11.0079 95.334 11.6398 95.3568 12.347H93.7143Z" fill="#020617"/>
<path d="M83.6165 12.3469V14.5369H77.2861V12.3469H83.6165ZM78.7233 9.82849H81.6387V19.6285C81.6387 19.8977 81.6797 20.1076 81.7619 20.2582C81.844 20.4041 81.958 20.5068 82.104 20.5661C82.2546 20.6254 82.428 20.6551 82.6241 20.6551C82.761 20.6551 82.8979 20.6437 83.0348 20.6209C83.1716 20.5935 83.2766 20.573 83.3496 20.5593L83.8081 22.7287C83.6621 22.7743 83.4568 22.8268 83.1922 22.8861C82.9275 22.95 82.6059 22.9888 82.2272 23.0024C81.5246 23.0298 80.9087 22.9363 80.3794 22.7219C79.8548 22.5074 79.4464 22.1744 79.1544 21.7227C78.8624 21.271 78.7187 20.7007 78.7233 20.0118V9.82849Z" fill="#020617"/>
<path d="M69.3956 12.347L71.3255 16.022L73.3033 12.347H76.2939L73.2485 17.6029L76.3761 22.8588H73.3991L71.3255 19.2248L69.2861 22.8588H66.2749L69.3956 17.6029L66.3844 12.347H69.3956Z" fill="#020617"/>
<path d="M60.4202 23.064C59.3389 23.064 58.4081 22.8451 57.628 22.4071C56.8524 21.9645 56.2547 21.3395 55.8349 20.5319C55.4152 19.7198 55.2053 18.7594 55.2053 17.6508C55.2053 16.5695 55.4152 15.6205 55.8349 14.8038C56.2547 13.9871 56.8455 13.3507 57.6074 12.8944C58.3739 12.4382 59.2727 12.2101 60.3038 12.2101C60.9973 12.2101 61.6429 12.3219 62.2406 12.5454C62.8428 12.7644 63.3675 13.0952 63.8146 13.5377C64.2663 13.9803 64.6176 14.5369 64.8685 15.2076C65.1194 15.8737 65.2449 16.6539 65.2449 17.5481V18.3488H56.3687V16.5421H62.5006C62.5006 16.1223 62.4094 15.7505 62.2269 15.4266C62.0444 15.1026 61.7912 14.8494 61.4672 14.6669C61.1479 14.4799 60.776 14.3864 60.3517 14.3864C59.9092 14.3864 59.5168 14.489 59.1746 14.6943C58.837 14.8951 58.5724 15.1665 58.3808 15.5087C58.1891 15.8463 58.091 16.2227 58.0865 16.6379V18.3556C58.0865 18.8758 58.1823 19.3252 58.3739 19.7038C58.5701 20.0825 58.8461 20.3745 59.202 20.5798C59.5579 20.7851 59.9799 20.8878 60.4681 20.8878C60.792 20.8878 61.0885 20.8422 61.3577 20.7509C61.6269 20.6597 61.8573 20.5228 62.0489 20.3403C62.2406 20.1578 62.3866 19.9342 62.4869 19.6696L65.1833 19.8476C65.0464 20.4954 64.7658 21.0612 64.3415 21.5448C63.9218 22.0238 63.3789 22.3979 62.7128 22.6671C62.0512 22.9317 61.287 23.064 60.4202 23.064Z" fill="#020617"/>
<path d="M53.236 8.84302V22.8587H50.6765L44.5789 14.0373H44.4762V22.8587H41.5129V8.84302H44.1135L50.1633 17.6576H50.2864V8.84302H53.236Z" fill="#020617"/>
<path d="M165.628 8.08972V22.4487H163.577V8.08972H165.628Z" fill="url(#paint2_linear_1664_8415)"/>
<path d="M151.591 22.4487H149.423L154.295 8.08972H156.654L161.526 22.4487H159.358L155.531 10.6979H155.425L151.591 22.4487ZM151.955 16.8257H158.987V18.6486H151.955V16.8257Z" fill="url(#paint3_linear_1664_8415)"/>
<defs>
<linearGradient id="paint0_linear_1664_8415" x1="0.5" y1="0.5" x2="32.4977" y2="32.8832" gradientUnits="userSpaceOnUse">
<stop stop-color="#3E00FA"/>
<stop offset="1" stop-color="#6FA0FF"/>
</linearGradient>
<linearGradient id="paint1_linear_1664_8415" x1="10" y1="7" x2="28.3598" y2="19.0721" gradientUnits="userSpaceOnUse">
<stop offset="0.578125" stop-color="white"/>
<stop offset="1" stop-color="white" stop-opacity="0.5"/>
</linearGradient>
<linearGradient id="paint2_linear_1664_8415" x1="163.577" y1="8.08972" x2="167.597" y2="8.66408" gradientUnits="userSpaceOnUse">
<stop stop-color="#3E00FA"/>
<stop offset="1" stop-color="#6FA0FF"/>
</linearGradient>
<linearGradient id="paint3_linear_1664_8415" x1="149.423" y1="8.08972" x2="163.575" y2="20.0176" gradientUnits="userSpaceOnUse">
<stop stop-color="#3E00FA"/>
<stop offset="1" stop-color="#6FA0FF"/>
</linearGradient>
</defs>
</svg>
