<svg width="170" height="32" viewBox="0 0 170 32" fill="none" xmlns="http://www.w3.org/2000/svg">
<path d="M0.5 16C0.5 8.45753 0.5 4.68629 2.84315 2.34315C5.18629 0 8.95753 0 16.5 0C24.0425 0 27.8137 0 30.1569 2.34315C32.5 4.68629 32.5 8.45753 32.5 16C32.5 23.5425 32.5 27.3137 30.1569 29.6569C27.8137 32 24.0425 32 16.5 32C8.95753 32 5.18629 32 2.84315 29.6569C0.5 27.3137 0.5 23.5425 0.5 16Z" fill="url(#paint0_linear_19_2974)"/>
<path fill-rule="evenodd" clip-rule="evenodd" d="M17.0025 8.32L18.5025 9L17.8225 7.5L18.5025 6L17.0025 6.68L15.5025 6L16.1825 7.5L15.5025 9L17.0025 8.32ZM23.3825 8.96L25.5025 8L24.5425 10.12L25.5025 12.24L23.3825 11.28L21.2625 12.24L22.2225 10.12L21.2625 8L23.3825 8.96ZM15.6725 11.83C16.7725 10.72 18.5625 10.72 19.6725 11.83C20.7825 12.93 20.7825 14.72 19.6725 15.83L12.3325 23.17C11.2325 24.28 9.4425 24.28 8.3325 23.17C7.2225 22.07 7.2225 20.28 8.3325 19.17L15.6725 11.83ZM16.2725 17.11L18.6225 14.76C19.1425 14.24 19.1425 13.4 18.6225 12.88C18.1025 12.36 17.2625 12.36 16.7425 12.88L14.3925 15.23C13.8725 15.75 13.8725 16.59 14.3925 17.11C14.9125 17.63 15.7525 17.63 16.2725 17.11ZM19.5025 18L22.5025 19.36L25.5025 18L24.1425 21L25.5025 24L22.5025 22.64L19.5025 24L20.8625 21L19.5025 18Z" fill="url(#paint1_linear_19_2974)"/>
<path d="M167.011 21.9765V11.8118H168.573V21.9765H167.011ZM167.805 10.1176C167.5 10.1176 167.238 10.014 167.017 9.80662C166.801 9.59926 166.693 9.35 166.693 9.05882C166.693 8.76765 166.801 8.51838 167.017 8.31103C167.238 8.10368 167.5 8 167.805 8C168.109 8 168.37 8.10368 168.586 8.31103C168.806 8.51838 168.917 8.76765 168.917 9.05882C168.917 9.35 168.806 9.59926 168.586 9.80662C168.37 10.014 168.109 10.1176 167.805 10.1176Z" fill="#020617"/>
<path d="M159.315 22.2147C158.671 22.2147 158.086 22.0934 157.561 21.8507C157.036 21.6036 156.619 21.2485 156.311 20.7853C156.002 20.3176 155.847 19.7529 155.847 19.0911C155.847 18.5088 155.962 18.0367 156.192 17.675C156.421 17.3088 156.728 17.022 157.111 16.8147C157.495 16.6073 157.919 16.4529 158.382 16.3514C158.85 16.2456 159.319 16.1617 159.792 16.1C160.409 16.0206 160.91 15.961 161.294 15.9213C161.682 15.8772 161.964 15.8044 162.141 15.7029C162.322 15.6014 162.412 15.425 162.412 15.1735V15.1206C162.412 14.4676 162.233 13.9603 161.876 13.5985C161.523 13.2367 160.987 13.0559 160.268 13.0559C159.522 13.0559 158.938 13.2191 158.514 13.5456C158.091 13.872 157.793 14.2206 157.621 14.5911L156.139 14.0617C156.403 13.4441 156.756 12.9632 157.197 12.6191C157.643 12.2706 158.128 12.0279 158.653 11.8911C159.183 11.75 159.703 11.6794 160.215 11.6794C160.542 11.6794 160.917 11.7191 161.34 11.7985C161.768 11.8735 162.18 12.0301 162.578 12.2684C162.979 12.5066 163.312 12.8661 163.577 13.347C163.842 13.8279 163.974 14.472 163.974 15.2794V21.9764H162.412V20.6H162.333C162.227 20.8206 162.05 21.0566 161.803 21.3081C161.556 21.5595 161.228 21.7735 160.817 21.95C160.407 22.1264 159.906 22.2147 159.315 22.2147ZM159.553 20.8117C160.171 20.8117 160.692 20.6904 161.115 20.4478C161.543 20.2051 161.865 19.8919 162.081 19.5081C162.302 19.1242 162.412 18.7206 162.412 18.297V16.8676C162.346 16.947 162.2 17.0198 161.975 17.086C161.755 17.1478 161.499 17.2029 161.208 17.2514C160.921 17.2956 160.641 17.3353 160.367 17.3706C160.098 17.4014 159.88 17.4279 159.712 17.45C159.306 17.5029 158.927 17.5889 158.574 17.7081C158.225 17.8228 157.943 17.997 157.727 18.2309C157.515 18.4603 157.409 18.7735 157.409 19.1706C157.409 19.7132 157.61 20.1235 158.011 20.4014C158.417 20.675 158.931 20.8117 159.553 20.8117Z" fill="#020617"/>
<path d="M152.144 22.0823C151.817 22.0823 151.537 21.9654 151.303 21.7316C151.07 21.4977 150.953 21.2176 150.953 20.8911C150.953 20.5647 151.07 20.2845 151.303 20.0507C151.537 19.8169 151.817 19.7 152.144 19.7C152.47 19.7 152.75 19.8169 152.984 20.0507C153.218 20.2845 153.335 20.5647 153.335 20.8911C153.335 21.1073 153.28 21.3058 153.17 21.4867C153.064 21.6676 152.92 21.8132 152.739 21.9235C152.563 22.0294 152.364 22.0823 152.144 22.0823Z" fill="#020617"/>
<path d="M143.773 22.1816C142.82 22.1816 141.989 21.9632 141.278 21.5264C140.568 21.0897 140.017 20.4786 139.624 19.6934C139.231 18.9081 139.035 17.9904 139.035 16.9404C139.035 15.886 139.231 14.9639 139.624 14.1742C140.017 13.3845 140.568 12.7713 141.278 12.3345C141.989 11.8978 142.82 11.6794 143.773 11.6794C144.726 11.6794 145.558 11.8978 146.268 12.3345C146.978 12.7713 147.53 13.3845 147.922 14.1742C148.315 14.9639 148.511 15.886 148.511 16.9404C148.511 17.9904 148.315 18.9081 147.922 19.6934C147.53 20.4786 146.978 21.0897 146.268 21.5264C145.558 21.9632 144.726 22.1816 143.773 22.1816ZM143.78 20.5206C144.397 20.5206 144.909 20.3573 145.315 20.0309C145.721 19.7044 146.021 19.2698 146.215 18.7272C146.414 18.1845 146.513 17.5867 146.513 16.9338C146.513 16.2853 146.414 15.6897 146.215 15.147C146.021 14.6 145.721 14.161 145.315 13.8301C144.909 13.4992 144.397 13.3338 143.78 13.3338C143.158 13.3338 142.642 13.4992 142.231 13.8301C141.825 14.161 141.523 14.6 141.325 15.147C141.131 15.6897 141.033 16.2853 141.033 16.9338C141.033 17.5867 141.131 18.1845 141.325 18.7272C141.523 19.2698 141.825 19.7044 142.231 20.0309C142.642 20.3573 143.158 20.5206 143.78 20.5206Z" fill="#020617"/>
<path d="M132.065 26C131.258 26 130.563 25.8941 129.981 25.6823C129.403 25.4706 128.931 25.1904 128.565 24.8419C128.198 24.4934 127.925 24.1117 127.744 23.697L129.445 22.9956C129.564 23.1897 129.723 23.3948 129.921 23.611C130.124 23.8316 130.398 24.0191 130.742 24.1735C131.09 24.3279 131.538 24.4051 132.085 24.4051C132.835 24.4051 133.455 24.222 133.945 23.8559C134.434 23.4941 134.679 22.9161 134.679 22.122V20.1235H134.553C134.434 20.3397 134.262 20.5801 134.037 20.8448C133.817 21.1095 133.512 21.3389 133.124 21.5331C132.736 21.7272 132.231 21.8242 131.609 21.8242C130.806 21.8242 130.082 21.6367 129.438 21.2617C128.798 20.8823 128.291 20.3242 127.916 19.5875C127.545 18.8463 127.36 17.9353 127.36 16.8544C127.36 15.7735 127.543 14.847 127.909 14.075C128.28 13.3029 128.787 12.7117 129.431 12.3014C130.076 11.8867 130.806 11.6794 131.622 11.6794C132.253 11.6794 132.762 11.7853 133.151 11.997C133.539 12.2044 133.841 12.447 134.057 12.725C134.278 13.0029 134.448 13.2478 134.567 13.4595H134.712V11.8117H136.651V22.2014C136.651 23.075 136.448 23.7919 136.042 24.3522C135.637 24.9125 135.087 25.3272 134.395 25.5963C133.706 25.8654 132.93 26 132.065 26ZM132.045 20.1831C132.615 20.1831 133.095 20.0507 133.488 19.786C133.885 19.5169 134.185 19.1331 134.388 18.6345C134.595 18.1316 134.699 17.5294 134.699 16.8279C134.699 16.1441 134.598 15.5419 134.395 15.0213C134.192 14.5007 133.894 14.0948 133.501 13.8036C133.109 13.5081 132.623 13.3603 132.045 13.3603C131.45 13.3603 130.953 13.5147 130.556 13.8235C130.159 14.1279 129.859 14.5426 129.656 15.0676C129.458 15.5926 129.359 16.1794 129.359 16.8279C129.359 17.4941 129.46 18.0786 129.663 18.5816C129.866 19.0845 130.166 19.4772 130.563 19.7595C130.965 20.0419 131.459 20.1831 132.045 20.1831Z" fill="#020617"/>
<path d="M120.67 22.1816C119.717 22.1816 118.886 21.9632 118.176 21.5264C117.465 21.0897 116.914 20.4786 116.521 19.6934C116.128 18.9081 115.932 17.9904 115.932 16.9404C115.932 15.886 116.128 14.9639 116.521 14.1742C116.914 13.3845 117.465 12.7713 118.176 12.3345C118.886 11.8978 119.717 11.6794 120.67 11.6794C121.623 11.6794 122.455 11.8978 123.165 12.3345C123.876 12.7713 124.427 13.3845 124.82 14.1742C125.212 14.9639 125.409 15.886 125.409 16.9404C125.409 17.9904 125.212 18.9081 124.82 19.6934C124.427 20.4786 123.876 21.0897 123.165 21.5264C122.455 21.9632 121.623 22.1816 120.67 22.1816ZM120.677 20.5206C121.295 20.5206 121.806 20.3573 122.212 20.0309C122.618 19.7044 122.918 19.2698 123.112 18.7272C123.311 18.1845 123.41 17.5867 123.41 16.9338C123.41 16.2853 123.311 15.6897 123.112 15.147C122.918 14.6 122.618 14.161 122.212 13.8301C121.806 13.4992 121.295 13.3338 120.677 13.3338C120.055 13.3338 119.539 13.4992 119.128 13.8301C118.723 14.161 118.42 14.6 118.222 15.147C118.028 15.6897 117.931 16.2853 117.931 16.9338C117.931 17.5867 118.028 18.1845 118.222 18.7272C118.42 19.2698 118.723 19.7044 119.128 20.0309C119.539 20.3573 120.055 20.5206 120.677 20.5206Z" fill="#020617"/>
<path d="M105.842 21.9765V8.42352H107.887V20.2162H114.028V21.9765H105.842Z" fill="#020617"/>
<path d="M96.4824 16.1V21.9765H93.6633V8.42352H96.403V13.6051H96.5222C96.7516 13.0051 97.1222 12.5353 97.6339 12.1956C98.1457 11.8515 98.7876 11.6794 99.5597 11.6794C100.266 11.6794 100.881 11.8338 101.406 12.1426C101.935 12.4471 102.346 12.886 102.637 13.4596C102.932 14.0287 103.078 14.7103 103.074 15.5044V21.9765H100.255V16.0073C100.259 15.3809 100.1 14.8934 99.778 14.5448C99.4604 14.1963 99.0148 14.0221 98.4413 14.0221C98.0574 14.0221 97.7177 14.1037 97.4222 14.2669C97.131 14.4301 96.9016 14.6684 96.7339 14.9816C96.5707 15.2904 96.4869 15.6632 96.4824 16.1Z" fill="#020617"/>
<path d="M87.1321 22.175C86.0909 22.175 85.1953 21.9544 84.4453 21.5132C83.6997 21.0676 83.1262 20.45 82.7247 19.6603C82.3277 18.8706 82.1292 17.9617 82.1292 16.9338C82.1292 15.8926 82.3299 14.9794 82.7314 14.1941C83.1372 13.4044 83.713 12.7889 84.4586 12.3478C85.2042 11.9022 86.0909 11.6794 87.1189 11.6794C88.0056 11.6794 88.7821 11.8404 89.4483 12.1625C90.1144 12.4845 90.6417 12.9367 91.0299 13.5191C91.4181 14.1014 91.6321 14.7853 91.6718 15.5706H89.0115C88.9365 15.0632 88.738 14.6551 88.4159 14.3463C88.0983 14.0331 87.6814 13.8764 87.1652 13.8764C86.7284 13.8764 86.3468 13.9956 86.0203 14.2338C85.6983 14.4676 85.4468 14.8095 85.2659 15.2595C85.085 15.7095 84.9946 16.2544 84.9946 16.8941C84.9946 17.5426 85.0828 18.0941 85.2593 18.5485C85.4402 19.0029 85.6939 19.3492 86.0203 19.5875C86.3468 19.8257 86.7284 19.9448 87.1652 19.9448C87.4872 19.9448 87.7762 19.8786 88.0321 19.7463C88.2924 19.6139 88.5064 19.422 88.674 19.1706C88.8461 18.9147 88.9586 18.6081 89.0115 18.2507H91.6718C91.6277 19.0272 91.4159 19.711 91.0365 20.3022C90.6615 20.8889 90.1431 21.3478 89.4814 21.6786C88.8196 22.0095 88.0365 22.175 87.1321 22.175Z" fill="#020617"/>
<path d="M80.626 11.8117V13.9293H74.5046V11.8117H80.626ZM75.8943 9.3764H78.7135V18.8529C78.7135 19.1132 78.7532 19.3161 78.8326 19.4617C78.912 19.6029 79.0223 19.7021 79.1635 19.7595C79.3091 19.8168 79.4767 19.8455 79.6664 19.8455C79.7988 19.8455 79.9311 19.8345 80.0635 19.8124C80.1958 19.786 80.2973 19.7661 80.3679 19.7529L80.8113 21.8507C80.6701 21.8948 80.4715 21.9455 80.2157 22.0029C79.9598 22.0646 79.6488 22.1021 79.2826 22.1154C78.6032 22.1418 78.0076 22.0514 77.4958 21.8441C76.9885 21.6367 76.5936 21.3146 76.3113 20.8779C76.0289 20.4411 75.8899 19.8896 75.8943 19.2235V9.3764Z" fill="#020617"/>
<path d="M68.528 22.175C67.4824 22.175 66.5824 21.9632 65.828 21.5397C65.078 21.1117 64.5001 20.5073 64.0942 19.7264C63.6883 18.9411 63.4854 18.0125 63.4854 16.9404C63.4854 15.8948 63.6883 14.9772 64.0942 14.1875C64.5001 13.3978 65.0714 12.7823 65.8081 12.3411C66.5493 11.9 67.4184 11.6794 68.4155 11.6794C69.0861 11.6794 69.7104 11.7875 70.2883 12.0036C70.8706 12.2154 71.378 12.5353 71.8104 12.9632C72.2471 13.3911 72.5868 13.9294 72.8295 14.5779C73.0721 15.222 73.1934 15.9764 73.1934 16.8411V17.6154H64.6104V15.8684H70.5398C70.5398 15.4625 70.4515 15.1029 70.2751 14.7897C70.0986 14.4764 69.8537 14.2316 69.5405 14.0551C69.2317 13.8742 68.8721 13.7838 68.4618 13.7838C68.0339 13.7838 67.6545 13.8831 67.3236 14.0816C66.9971 14.2757 66.7412 14.5382 66.5559 14.8691C66.3706 15.1956 66.2758 15.5595 66.2714 15.961V17.622C66.2714 18.125 66.364 18.5595 66.5493 18.9257C66.739 19.2919 67.0059 19.5742 67.3501 19.7728C67.6942 19.9713 68.1023 20.0706 68.5743 20.0706C68.8876 20.0706 69.1743 20.0264 69.4346 19.9382C69.6949 19.85 69.9177 19.7176 70.103 19.5411C70.2883 19.3647 70.4295 19.1485 70.5265 18.8926L73.1339 19.0647C73.0015 19.6911 72.7302 20.2382 72.3199 20.7059C71.914 21.1691 71.389 21.5309 70.7449 21.7911C70.1052 22.047 69.3662 22.175 68.528 22.175Z" fill="#020617"/>
<path d="M55.8357 19.0515L55.8423 15.6698H56.2526L59.5085 11.8118H62.7445L58.3702 16.9206H57.7018L55.8357 19.0515ZM53.2812 21.9765V8.42352H56.1004V21.9765H53.2812ZM59.6342 21.9765L56.643 17.5493L58.5224 15.5573L62.9364 21.9765H59.6342Z" fill="#020617"/>
<path d="M48.289 12.3214C48.236 11.7875 48.0088 11.3728 47.6074 11.0773C47.2059 10.7817 46.661 10.6339 45.9728 10.6339C45.5051 10.6339 45.1103 10.7 44.7882 10.8324C44.4662 10.9603 44.2191 11.139 44.0471 11.3684C43.8794 11.5978 43.7956 11.8581 43.7956 12.1493C43.7868 12.392 43.8375 12.6037 43.9478 12.7846C44.0625 12.9655 44.2191 13.1221 44.4176 13.2545C44.6162 13.3824 44.8456 13.4949 45.1059 13.592C45.3662 13.6846 45.6441 13.764 45.9397 13.8302L47.1574 14.1214C47.7485 14.2537 48.2912 14.4302 48.7853 14.6508C49.2794 14.8714 49.7074 15.1427 50.0691 15.4648C50.4309 15.7868 50.711 16.1662 50.9096 16.603C51.1125 17.0398 51.2162 17.5405 51.2206 18.1052C51.2162 18.9346 51.0044 19.6537 50.5853 20.2625C50.1706 20.867 49.5706 21.3368 48.7853 21.6721C48.0044 22.003 47.0625 22.1684 45.9596 22.1684C44.8654 22.1684 43.9125 22.0008 43.1007 21.6655C42.2934 21.3302 41.6625 20.8339 41.2081 20.1765C40.7581 19.5148 40.5221 18.6964 40.5 17.7214H43.2728C43.3037 18.1758 43.4338 18.5552 43.6632 18.8596C43.8971 19.1596 44.2081 19.3868 44.5963 19.5412C44.989 19.6912 45.4324 19.7662 45.9265 19.7662C46.4118 19.7662 46.8331 19.6956 47.1904 19.5545C47.5522 19.4133 47.8324 19.217 48.0309 18.9655C48.2294 18.714 48.3287 18.425 48.3287 18.0986C48.3287 17.7942 48.2382 17.5383 48.0574 17.3309C47.8809 17.1236 47.6206 16.9471 47.2765 16.8015C46.9368 16.6559 46.5199 16.5236 46.0257 16.4045L44.55 16.0339C43.4074 15.7559 42.5051 15.3214 41.8434 14.7302C41.1816 14.139 40.8529 13.3427 40.8574 12.3412C40.8529 11.5206 41.0713 10.8037 41.5125 10.1905C41.9581 9.57725 42.5691 9.09858 43.3456 8.75446C44.1221 8.41034 45.0044 8.23828 45.9926 8.23828C46.9985 8.23828 47.8765 8.41034 48.6265 8.75446C49.3809 9.09858 49.9676 9.57725 50.3868 10.1905C50.8059 10.8037 51.0221 11.514 51.0353 12.3214H48.289Z" fill="#020617"/>
<defs>
<linearGradient id="paint0_linear_19_2974" x1="0.5" y1="0" x2="32.5" y2="32" gradientUnits="userSpaceOnUse">
<stop stop-color="#3E00FA"/>
<stop offset="1" stop-color="#6FA0FF"/>
</linearGradient>
<linearGradient id="paint1_linear_19_2974" x1="7.5" y1="6" x2="25.5" y2="24" gradientUnits="userSpaceOnUse">
<stop offset="0.578125" stop-color="white"/>
<stop offset="1" stop-color="white" stop-opacity="0.5"/>
</linearGradient>
</defs>
</svg>
