<svg width="20" height="20" viewBox="0 0 20 20" fill="none" xmlns="http://www.w3.org/2000/svg">
<g clip-path="url(#clip0_1557_2272)">
<g clip-path="url(#clip1_1557_2272)">
<path fill-rule="evenodd" clip-rule="evenodd" d="M14.7177 0.952998C14.7897 0.678067 15.0381 0.486328 15.3224 0.486328C15.6065 0.486328 15.8549 0.678067 15.9269 0.952998C16.2023 2.0042 16.5043 2.64991 16.9562 3.12817C17.4104 3.60884 18.0759 3.98371 19.2102 4.36438C19.4648 4.44983 19.6363 4.68835 19.6363 4.95689C19.6363 5.22544 19.4648 5.46397 19.2102 5.54941C18.0759 5.93009 17.4104 6.30495 16.9562 6.78563C16.5043 7.26388 16.2023 7.90958 15.9269 8.96084C15.8549 9.23575 15.6065 9.42742 15.3224 9.42742C15.0381 9.42742 14.7897 9.23575 14.7177 8.96084C14.4424 7.90958 14.1404 7.26388 13.6884 6.78563C13.2343 6.30495 12.5687 5.93009 11.4345 5.54941C11.1799 5.46397 11.0084 5.22544 11.0084 4.95689C11.0084 4.68835 11.1799 4.44983 11.4345 4.36438C12.5687 3.98371 13.2343 3.60884 13.6884 3.12817C14.1404 2.64991 14.4424 2.0042 14.7177 0.952998ZM6.71045 4.43422C6.78225 4.159 7.0308 3.96696 7.31522 3.96696C7.59965 3.96696 7.8482 4.159 7.91999 4.43422C8.41619 6.3367 8.97827 7.57887 9.86152 8.51733C10.7469 9.45808 12.0147 10.1569 14.0546 10.8444C14.3089 10.93 14.48 11.1684 14.48 11.4366C14.48 11.7049 14.3089 11.9433 14.0546 12.0289C12.0147 12.7163 10.7469 13.4152 9.86152 14.3559C8.97827 15.2944 8.41619 16.5366 7.91999 18.439C7.8482 18.7143 7.59965 18.9063 7.31522 18.9063C7.0308 18.9063 6.78225 18.7143 6.71045 18.439C6.21422 16.5366 5.65221 15.2944 4.7689 14.3559C3.88354 13.4152 2.61572 12.7163 0.575812 12.0289C0.32159 11.9433 0.150391 11.7049 0.150391 11.4366C0.150391 11.1684 0.32159 10.93 0.575812 10.8444C2.61572 10.1569 3.88354 9.45808 4.7689 8.51733C5.65221 7.57887 6.21422 6.3367 6.71045 4.43422ZM16.5856 12.8904C16.3026 12.8904 16.0549 13.0804 15.9818 13.3539C15.7814 14.1031 15.5679 14.5377 15.2628 14.8538C14.9541 15.1735 14.4909 15.4351 13.6599 15.7082C13.4034 15.7924 13.2301 16.0319 13.2301 16.3019C13.2301 16.5719 13.4034 16.8114 13.6599 16.8957C14.4909 17.1687 14.9541 17.4304 15.2628 17.7501C15.5679 18.0662 15.7814 18.5007 15.9818 19.25C16.0549 19.5234 16.3026 19.7135 16.5856 19.7135C16.8685 19.7135 17.1162 19.5234 17.1894 19.25C17.3898 18.5007 17.6033 18.0662 17.9084 17.7501C18.217 17.4304 18.6803 17.1687 19.5112 16.8957C19.7677 16.8114 19.9411 16.5719 19.9411 16.3019C19.9411 16.0319 19.7677 15.7924 19.5112 15.7082C18.6803 15.4351 18.217 15.1735 17.9084 14.8538C17.6033 14.5377 17.3898 14.1031 17.1894 13.3539C17.1162 13.0804 16.8685 12.8904 16.5856 12.8904Z" fill="white"/>
</g>
</g>
<defs>
<clipPath id="clip0_1557_2272">
<rect width="20" height="20" fill="white"/>
</clipPath>
<clipPath id="clip1_1557_2272">
<rect width="20" height="20" fill="white"/>
</clipPath>
</defs>
</svg>
