
<svg viewBox="0 0 1022 480" fill="none" xmlns="http://www.w3.org/2000/svg">
<g clip-path="url(#clip0_945_12630)">
<path d="M0 0H1022V432C1022 458.51 1000.51 480 974 480H48C21.4903 480 0 458.51 0 432V0Z" fill="#3E00FA"/>
<g filter="url(#filter0_f_945_12630)">
<circle cx="511" cy="-795" r="1275" fill="white"/>
</g>
<g opacity="0.24" clip-path="url(#clip1_945_12630)">
<circle cx="43" cy="6" r="2" fill="#F1F5F9"/>
<circle cx="95" cy="6" r="2" fill="#F1F5F9"/>
<circle cx="147" cy="6" r="2" fill="#F1F5F9"/>
<circle cx="199" cy="6" r="2" fill="#F1F5F9"/>
<circle cx="251" cy="6" r="2" fill="#F1F5F9"/>
<circle cx="303" cy="6" r="2" fill="#F1F5F9"/>
<circle cx="355" cy="6" r="2" fill="#F1F5F9"/>
<circle cx="407" cy="6" r="2" fill="#F1F5F9"/>
<circle cx="459" cy="6" r="2" fill="#F1F5F9"/>
<circle cx="511" cy="6" r="2" fill="#F1F5F9"/>
<circle cx="563" cy="6" r="2" fill="#F1F5F9"/>
<circle cx="615" cy="6" r="2" fill="#F1F5F9"/>
<circle cx="667" cy="6" r="2" fill="#F1F5F9"/>
<circle cx="719" cy="6" r="2" fill="#F1F5F9"/>
<circle cx="771" cy="6" r="2" fill="#F1F5F9"/>
<circle cx="823" cy="6" r="2" fill="#F1F5F9"/>
<circle cx="875" cy="6" r="2" fill="#F1F5F9"/>
<circle cx="927" cy="6" r="2" fill="#F1F5F9"/>
<circle cx="979" cy="6" r="2" fill="#F1F5F9"/>
<circle cx="43" cy="58" r="2" fill="#F1F5F9"/>
<circle cx="95" cy="58" r="2" fill="#F1F5F9"/>
<circle cx="147" cy="58" r="2" fill="#F1F5F9"/>
<circle cx="199" cy="58" r="2" fill="#F1F5F9"/>
<circle cx="251" cy="58" r="2" fill="#F1F5F9"/>
<circle cx="303" cy="58" r="2" fill="#F1F5F9"/>
<circle cx="355" cy="58" r="2" fill="#F1F5F9"/>
<circle cx="407" cy="58" r="2" fill="#F1F5F9"/>
<circle cx="459" cy="58" r="2" fill="#F1F5F9"/>
<circle cx="511" cy="58" r="2" fill="#F1F5F9"/>
<circle cx="563" cy="58" r="2" fill="#F1F5F9"/>
<circle cx="615" cy="58" r="2" fill="#F1F5F9"/>
<circle cx="667" cy="58" r="2" fill="#F1F5F9"/>
<circle cx="719" cy="58" r="2" fill="#F1F5F9"/>
<circle cx="771" cy="58" r="2" fill="#F1F5F9"/>
<circle cx="823" cy="58" r="2" fill="#F1F5F9"/>
<circle cx="875" cy="58" r="2" fill="#F1F5F9"/>
<circle cx="927" cy="58" r="2" fill="#F1F5F9"/>
<circle cx="979" cy="58" r="2" fill="#F1F5F9"/>
<circle cx="43" cy="110" r="2" fill="#F1F5F9"/>
<circle cx="95" cy="110" r="2" fill="#F1F5F9"/>
<circle cx="147" cy="110" r="2" fill="#F1F5F9"/>
<circle cx="199" cy="110" r="2" fill="#F1F5F9"/>
<circle cx="251" cy="110" r="2" fill="#F1F5F9"/>
<circle cx="303" cy="110" r="2" fill="#F1F5F9"/>
<circle cx="355" cy="110" r="2" fill="#F1F5F9"/>
<circle cx="407" cy="110" r="2" fill="#F1F5F9"/>
<circle cx="459" cy="110" r="2" fill="#F1F5F9"/>
<circle cx="511" cy="110" r="2" fill="#F1F5F9"/>
<circle cx="563" cy="110" r="2" fill="#F1F5F9"/>
<circle cx="615" cy="110" r="2" fill="#F1F5F9"/>
<circle cx="667" cy="110" r="2" fill="#F1F5F9"/>
<circle cx="719" cy="110" r="2" fill="#F1F5F9"/>
<circle cx="771" cy="110" r="2" fill="#F1F5F9"/>
<circle cx="823" cy="110" r="2" fill="#F1F5F9"/>
<circle cx="875" cy="110" r="2" fill="#F1F5F9"/>
<circle cx="927" cy="110" r="2" fill="#F1F5F9"/>
<circle cx="979" cy="110" r="2" fill="#F1F5F9"/>
<circle cx="43" cy="162" r="2" fill="#F1F5F9"/>
<circle cx="95" cy="162" r="2" fill="#F1F5F9"/>
<circle cx="147" cy="162" r="2" fill="#F1F5F9"/>
<circle cx="199" cy="162" r="2" fill="#F1F5F9"/>
<circle cx="251" cy="162" r="2" fill="#F1F5F9"/>
<circle cx="303" cy="162" r="2" fill="#F1F5F9"/>
<circle cx="355" cy="162" r="2" fill="#F1F5F9"/>
<circle cx="407" cy="162" r="2" fill="#F1F5F9"/>
<circle cx="459" cy="162" r="2" fill="#F1F5F9"/>
<circle cx="511" cy="162" r="2" fill="#F1F5F9"/>
<circle cx="563" cy="162" r="2" fill="#F1F5F9"/>
<circle cx="615" cy="162" r="2" fill="#F1F5F9"/>
<circle cx="667" cy="162" r="2" fill="#F1F5F9"/>
<circle cx="719" cy="162" r="2" fill="#F1F5F9"/>
<circle cx="771" cy="162" r="2" fill="#F1F5F9"/>
<circle cx="823" cy="162" r="2" fill="#F1F5F9"/>
<circle cx="875" cy="162" r="2" fill="#F1F5F9"/>
<circle cx="927" cy="162" r="2" fill="#F1F5F9"/>
<circle cx="979" cy="162" r="2" fill="#F1F5F9"/>
<circle cx="43" cy="214" r="2" fill="#F1F5F9"/>
<circle cx="95" cy="214" r="2" fill="#F1F5F9"/>
<circle cx="147" cy="214" r="2" fill="#F1F5F9"/>
<circle cx="199" cy="214" r="2" fill="#F1F5F9"/>
<circle cx="251" cy="214" r="2" fill="#F1F5F9"/>
<circle cx="303" cy="214" r="2" fill="#F1F5F9"/>
<circle cx="355" cy="214" r="2" fill="#F1F5F9"/>
<circle cx="407" cy="214" r="2" fill="#F1F5F9"/>
<circle cx="459" cy="214" r="2" fill="#F1F5F9"/>
<circle cx="511" cy="214" r="2" fill="#F1F5F9"/>
<circle cx="563" cy="214" r="2" fill="#F1F5F9"/>
<circle cx="615" cy="214" r="2" fill="#F1F5F9"/>
<circle cx="667" cy="214" r="2" fill="#F1F5F9"/>
<circle cx="719" cy="214" r="2" fill="#F1F5F9"/>
<circle cx="771" cy="214" r="2" fill="#F1F5F9"/>
<circle cx="823" cy="214" r="2" fill="#F1F5F9"/>
<circle cx="875" cy="214" r="2" fill="#F1F5F9"/>
<circle cx="927" cy="214" r="2" fill="#F1F5F9"/>
<circle cx="979" cy="214" r="2" fill="#F1F5F9"/>
<circle cx="43" cy="266" r="2" fill="#F1F5F9"/>
<circle cx="95" cy="266" r="2" fill="#F1F5F9"/>
<circle cx="147" cy="266" r="2" fill="#F1F5F9"/>
<circle cx="199" cy="266" r="2" fill="#F1F5F9"/>
<circle cx="251" cy="266" r="2" fill="#F1F5F9"/>
<circle cx="303" cy="266" r="2" fill="#F1F5F9"/>
<circle cx="355" cy="266" r="2" fill="#F1F5F9"/>
<circle cx="407" cy="266" r="2" fill="#F1F5F9"/>
<circle cx="459" cy="266" r="2" fill="#F1F5F9"/>
<circle cx="511" cy="266" r="2" fill="#F1F5F9"/>
<circle cx="563" cy="266" r="2" fill="#F1F5F9"/>
<circle cx="615" cy="266" r="2" fill="#F1F5F9"/>
<circle cx="667" cy="266" r="2" fill="#F1F5F9"/>
<circle cx="719" cy="266" r="2" fill="#F1F5F9"/>
<circle cx="771" cy="266" r="2" fill="#F1F5F9"/>
<circle cx="823" cy="266" r="2" fill="#F1F5F9"/>
<circle cx="875" cy="266" r="2" fill="#F1F5F9"/>
<circle cx="927" cy="266" r="2" fill="#F1F5F9"/>
<circle cx="979" cy="266" r="2" fill="#F1F5F9"/>
<circle cx="43" cy="318" r="2" fill="#F1F5F9"/>
<circle cx="95" cy="318" r="2" fill="#F1F5F9"/>
<circle cx="147" cy="318" r="2" fill="#F1F5F9"/>
<circle cx="199" cy="318" r="2" fill="#F1F5F9"/>
<circle cx="251" cy="318" r="2" fill="#F1F5F9"/>
<circle cx="303" cy="318" r="2" fill="#F1F5F9"/>
<circle cx="355" cy="318" r="2" fill="#F1F5F9"/>
<circle cx="407" cy="318" r="2" fill="#F1F5F9"/>
<circle cx="459" cy="318" r="2" fill="#F1F5F9"/>
<circle cx="511" cy="318" r="2" fill="#F1F5F9"/>
<circle cx="563" cy="318" r="2" fill="#F1F5F9"/>
<circle cx="615" cy="318" r="2" fill="#F1F5F9"/>
<circle cx="667" cy="318" r="2" fill="#F1F5F9"/>
<circle cx="719" cy="318" r="2" fill="#F1F5F9"/>
<circle cx="771" cy="318" r="2" fill="#F1F5F9"/>
<circle cx="823" cy="318" r="2" fill="#F1F5F9"/>
<circle cx="875" cy="318" r="2" fill="#F1F5F9"/>
<circle cx="927" cy="318" r="2" fill="#F1F5F9"/>
<circle cx="979" cy="318" r="2" fill="#F1F5F9"/>
<circle cx="43" cy="370" r="2" fill="#F1F5F9"/>
<circle cx="95" cy="370" r="2" fill="#F1F5F9"/>
<circle cx="147" cy="370" r="2" fill="#F1F5F9"/>
<circle cx="199" cy="370" r="2" fill="#F1F5F9"/>
<circle cx="251" cy="370" r="2" fill="#F1F5F9"/>
<circle cx="303" cy="370" r="2" fill="#F1F5F9"/>
<circle cx="355" cy="370" r="2" fill="#F1F5F9"/>
<circle cx="407" cy="370" r="2" fill="#F1F5F9"/>
<circle cx="459" cy="370" r="2" fill="#F1F5F9"/>
<circle cx="511" cy="370" r="2" fill="#F1F5F9"/>
<circle cx="563" cy="370" r="2" fill="#F1F5F9"/>
<circle cx="615" cy="370" r="2" fill="#F1F5F9"/>
<circle cx="667" cy="370" r="2" fill="#F1F5F9"/>
<circle cx="719" cy="370" r="2" fill="#F1F5F9"/>
<circle cx="771" cy="370" r="2" fill="#F1F5F9"/>
<circle cx="823" cy="370" r="2" fill="#F1F5F9"/>
<circle cx="875" cy="370" r="2" fill="#F1F5F9"/>
<circle cx="927" cy="370" r="2" fill="#F1F5F9"/>
<circle cx="979" cy="370" r="2" fill="#F1F5F9"/>
<circle cx="43" cy="422" r="2" fill="#F1F5F9"/>
<circle cx="95" cy="422" r="2" fill="#F1F5F9"/>
<circle cx="147" cy="422" r="2" fill="#F1F5F9"/>
<circle cx="199" cy="422" r="2" fill="#F1F5F9"/>
<circle cx="251" cy="422" r="2" fill="#F1F5F9"/>
<circle cx="303" cy="422" r="2" fill="#F1F5F9"/>
<circle cx="355" cy="422" r="2" fill="#F1F5F9"/>
<circle cx="407" cy="422" r="2" fill="#F1F5F9"/>
<circle cx="459" cy="422" r="2" fill="#F1F5F9"/>
<circle cx="511" cy="422" r="2" fill="#F1F5F9"/>
<circle cx="563" cy="422" r="2" fill="#F1F5F9"/>
<circle cx="615" cy="422" r="2" fill="#F1F5F9"/>
<circle cx="667" cy="422" r="2" fill="#F1F5F9"/>
<circle cx="719" cy="422" r="2" fill="#F1F5F9"/>
<circle cx="771" cy="422" r="2" fill="#F1F5F9"/>
<circle cx="823" cy="422" r="2" fill="#F1F5F9"/>
<circle cx="875" cy="422" r="2" fill="#F1F5F9"/>
<circle cx="927" cy="422" r="2" fill="#F1F5F9"/>
<circle cx="979" cy="422" r="2" fill="#F1F5F9"/>
<circle cx="43" cy="474" r="2" fill="#F1F5F9"/>
<circle cx="95" cy="474" r="2" fill="#F1F5F9"/>
<circle cx="147" cy="474" r="2" fill="#F1F5F9"/>
<circle cx="199" cy="474" r="2" fill="#F1F5F9"/>
<circle cx="251" cy="474" r="2" fill="#F1F5F9"/>
<circle cx="303" cy="474" r="2" fill="#F1F5F9"/>
<circle cx="355" cy="474" r="2" fill="#F1F5F9"/>
<circle cx="407" cy="474" r="2" fill="#F1F5F9"/>
<circle cx="459" cy="474" r="2" fill="#F1F5F9"/>
<circle cx="511" cy="474" r="2" fill="#F1F5F9"/>
<circle cx="563" cy="474" r="2" fill="#F1F5F9"/>
<circle cx="615" cy="474" r="2" fill="#F1F5F9"/>
<circle cx="667" cy="474" r="2" fill="#F1F5F9"/>
<circle cx="719" cy="474" r="2" fill="#F1F5F9"/>
<circle cx="771" cy="474" r="2" fill="#F1F5F9"/>
<circle cx="823" cy="474" r="2" fill="#F1F5F9"/>
<circle cx="875" cy="474" r="2" fill="#F1F5F9"/>
<circle cx="927" cy="474" r="2" fill="#F1F5F9"/>
<circle cx="979" cy="474" r="2" fill="#F1F5F9"/>
</g>
</g>
<defs>
<filter id="filter0_f_945_12630" x="-964" y="-2270" width="2950" height="2950" filterUnits="userSpaceOnUse" color-interpolation-filters="sRGB">
<feFlood flood-opacity="0" result="BackgroundImageFix"/>
<feBlend mode="normal" in="SourceGraphic" in2="BackgroundImageFix" result="shape"/>
<feGaussianBlur stdDeviation="100" result="effect1_foregroundBlur_945_12630"/>
</filter>
<clipPath id="clip0_945_12630">
<path d="M0 0H1022V432C1022 458.51 1000.51 480 974 480H48C21.4903 480 0 458.51 0 432V0Z" fill="white"/>
</clipPath>
<clipPath id="clip1_945_12630">
<rect width="1504" height="600" fill="white" transform="translate(-241 -60)"/>
</clipPath>
</defs>
</svg>