
<svg viewBox="0 0 1504 600" fill="none" xmlns="http://www.w3.org/2000/svg">
<g clip-path="url(#clip0_945_24218)">
<path d="M0 0H1504V552C1504 578.51 1482.51 600 1456 600H48C21.4903 600 0 578.51 0 552V0Z" fill="#3E00FA"/>
<g filter="url(#filter0_f_945_24218)">
<circle cx="752" cy="-675" r="1275" fill="white"/>
</g>
<g opacity="0.24" clip-path="url(#clip1_945_24218)">
<circle cx="24" cy="14" r="2" fill="#F1F5F9"/>
<circle cx="76" cy="14" r="2" fill="#F1F5F9"/>
<circle cx="128" cy="14" r="2" fill="#F1F5F9"/>
<circle cx="180" cy="14" r="2" fill="#F1F5F9"/>
<circle cx="232" cy="14" r="2" fill="#F1F5F9"/>
<circle cx="284" cy="14" r="2" fill="#F1F5F9"/>
<circle cx="336" cy="14" r="2" fill="#F1F5F9"/>
<circle cx="388" cy="14" r="2" fill="#F1F5F9"/>
<circle cx="440" cy="14" r="2" fill="#F1F5F9"/>
<circle cx="492" cy="14" r="2" fill="#F1F5F9"/>
<circle cx="544" cy="14" r="2" fill="#F1F5F9"/>
<circle cx="596" cy="14" r="2" fill="#F1F5F9"/>
<circle cx="648" cy="14" r="2" fill="#F1F5F9"/>
<circle cx="700" cy="14" r="2" fill="#F1F5F9"/>
<circle cx="752" cy="14" r="2" fill="#F1F5F9"/>
<circle cx="804" cy="14" r="2" fill="#F1F5F9"/>
<circle cx="856" cy="14" r="2" fill="#F1F5F9"/>
<circle cx="908" cy="14" r="2" fill="#F1F5F9"/>
<circle cx="960" cy="14" r="2" fill="#F1F5F9"/>
<circle cx="1012" cy="14" r="2" fill="#F1F5F9"/>
<circle cx="1064" cy="14" r="2" fill="#F1F5F9"/>
<circle cx="1116" cy="14" r="2" fill="#F1F5F9"/>
<circle cx="1168" cy="14" r="2" fill="#F1F5F9"/>
<circle cx="1220" cy="14" r="2" fill="#F1F5F9"/>
<circle cx="1272" cy="14" r="2" fill="#F1F5F9"/>
<circle cx="1324" cy="14" r="2" fill="#F1F5F9"/>
<circle cx="1376" cy="14" r="2" fill="#F1F5F9"/>
<circle cx="1428" cy="14" r="2" fill="#F1F5F9"/>
<circle cx="1480" cy="14" r="2" fill="#F1F5F9"/>
<circle cx="24" cy="66" r="2" fill="#F1F5F9"/>
<circle cx="76" cy="66" r="2" fill="#F1F5F9"/>
<circle cx="128" cy="66" r="2" fill="#F1F5F9"/>
<circle cx="180" cy="66" r="2" fill="#F1F5F9"/>
<circle cx="232" cy="66" r="2" fill="#F1F5F9"/>
<circle cx="284" cy="66" r="2" fill="#F1F5F9"/>
<circle cx="336" cy="66" r="2" fill="#F1F5F9"/>
<circle cx="388" cy="66" r="2" fill="#F1F5F9"/>
<circle cx="440" cy="66" r="2" fill="#F1F5F9"/>
<circle cx="492" cy="66" r="2" fill="#F1F5F9"/>
<circle cx="544" cy="66" r="2" fill="#F1F5F9"/>
<circle cx="596" cy="66" r="2" fill="#F1F5F9"/>
<circle cx="648" cy="66" r="2" fill="#F1F5F9"/>
<circle cx="700" cy="66" r="2" fill="#F1F5F9"/>
<circle cx="752" cy="66" r="2" fill="#F1F5F9"/>
<circle cx="804" cy="66" r="2" fill="#F1F5F9"/>
<circle cx="856" cy="66" r="2" fill="#F1F5F9"/>
<circle cx="908" cy="66" r="2" fill="#F1F5F9"/>
<circle cx="960" cy="66" r="2" fill="#F1F5F9"/>
<circle cx="1012" cy="66" r="2" fill="#F1F5F9"/>
<circle cx="1064" cy="66" r="2" fill="#F1F5F9"/>
<circle cx="1116" cy="66" r="2" fill="#F1F5F9"/>
<circle cx="1168" cy="66" r="2" fill="#F1F5F9"/>
<circle cx="1220" cy="66" r="2" fill="#F1F5F9"/>
<circle cx="1272" cy="66" r="2" fill="#F1F5F9"/>
<circle cx="1324" cy="66" r="2" fill="#F1F5F9"/>
<circle cx="1376" cy="66" r="2" fill="#F1F5F9"/>
<circle cx="1428" cy="66" r="2" fill="#F1F5F9"/>
<circle cx="1480" cy="66" r="2" fill="#F1F5F9"/>
<circle cx="24" cy="118" r="2" fill="#F1F5F9"/>
<circle cx="76" cy="118" r="2" fill="#F1F5F9"/>
<circle cx="128" cy="118" r="2" fill="#F1F5F9"/>
<circle cx="180" cy="118" r="2" fill="#F1F5F9"/>
<circle cx="232" cy="118" r="2" fill="#F1F5F9"/>
<circle cx="284" cy="118" r="2" fill="#F1F5F9"/>
<circle cx="336" cy="118" r="2" fill="#F1F5F9"/>
<circle cx="388" cy="118" r="2" fill="#F1F5F9"/>
<circle cx="440" cy="118" r="2" fill="#F1F5F9"/>
<circle cx="492" cy="118" r="2" fill="#F1F5F9"/>
<circle cx="544" cy="118" r="2" fill="#F1F5F9"/>
<circle cx="596" cy="118" r="2" fill="#F1F5F9"/>
<circle cx="648" cy="118" r="2" fill="#F1F5F9"/>
<circle cx="700" cy="118" r="2" fill="#F1F5F9"/>
<circle cx="752" cy="118" r="2" fill="#F1F5F9"/>
<circle cx="804" cy="118" r="2" fill="#F1F5F9"/>
<circle cx="856" cy="118" r="2" fill="#F1F5F9"/>
<circle cx="908" cy="118" r="2" fill="#F1F5F9"/>
<circle cx="960" cy="118" r="2" fill="#F1F5F9"/>
<circle cx="1012" cy="118" r="2" fill="#F1F5F9"/>
<circle cx="1064" cy="118" r="2" fill="#F1F5F9"/>
<circle cx="1116" cy="118" r="2" fill="#F1F5F9"/>
<circle cx="1168" cy="118" r="2" fill="#F1F5F9"/>
<circle cx="1220" cy="118" r="2" fill="#F1F5F9"/>
<circle cx="1272" cy="118" r="2" fill="#F1F5F9"/>
<circle cx="1324" cy="118" r="2" fill="#F1F5F9"/>
<circle cx="1376" cy="118" r="2" fill="#F1F5F9"/>
<circle cx="1428" cy="118" r="2" fill="#F1F5F9"/>
<circle cx="1480" cy="118" r="2" fill="#F1F5F9"/>
<circle cx="24" cy="170" r="2" fill="#F1F5F9"/>
<circle cx="76" cy="170" r="2" fill="#F1F5F9"/>
<circle cx="128" cy="170" r="2" fill="#F1F5F9"/>
<circle cx="180" cy="170" r="2" fill="#F1F5F9"/>
<circle cx="232" cy="170" r="2" fill="#F1F5F9"/>
<circle cx="284" cy="170" r="2" fill="#F1F5F9"/>
<circle cx="336" cy="170" r="2" fill="#F1F5F9"/>
<circle cx="388" cy="170" r="2" fill="#F1F5F9"/>
<circle cx="440" cy="170" r="2" fill="#F1F5F9"/>
<circle cx="492" cy="170" r="2" fill="#F1F5F9"/>
<circle cx="544" cy="170" r="2" fill="#F1F5F9"/>
<circle cx="596" cy="170" r="2" fill="#F1F5F9"/>
<circle cx="648" cy="170" r="2" fill="#F1F5F9"/>
<circle cx="700" cy="170" r="2" fill="#F1F5F9"/>
<circle cx="752" cy="170" r="2" fill="#F1F5F9"/>
<circle cx="804" cy="170" r="2" fill="#F1F5F9"/>
<circle cx="856" cy="170" r="2" fill="#F1F5F9"/>
<circle cx="908" cy="170" r="2" fill="#F1F5F9"/>
<circle cx="960" cy="170" r="2" fill="#F1F5F9"/>
<circle cx="1012" cy="170" r="2" fill="#F1F5F9"/>
<circle cx="1064" cy="170" r="2" fill="#F1F5F9"/>
<circle cx="1116" cy="170" r="2" fill="#F1F5F9"/>
<circle cx="1168" cy="170" r="2" fill="#F1F5F9"/>
<circle cx="1220" cy="170" r="2" fill="#F1F5F9"/>
<circle cx="1272" cy="170" r="2" fill="#F1F5F9"/>
<circle cx="1324" cy="170" r="2" fill="#F1F5F9"/>
<circle cx="1376" cy="170" r="2" fill="#F1F5F9"/>
<circle cx="1428" cy="170" r="2" fill="#F1F5F9"/>
<circle cx="1480" cy="170" r="2" fill="#F1F5F9"/>
<circle cx="24" cy="222" r="2" fill="#F1F5F9"/>
<circle cx="76" cy="222" r="2" fill="#F1F5F9"/>
<circle cx="128" cy="222" r="2" fill="#F1F5F9"/>
<circle cx="180" cy="222" r="2" fill="#F1F5F9"/>
<circle cx="232" cy="222" r="2" fill="#F1F5F9"/>
<circle cx="284" cy="222" r="2" fill="#F1F5F9"/>
<circle cx="336" cy="222" r="2" fill="#F1F5F9"/>
<circle cx="388" cy="222" r="2" fill="#F1F5F9"/>
<circle cx="440" cy="222" r="2" fill="#F1F5F9"/>
<circle cx="492" cy="222" r="2" fill="#F1F5F9"/>
<circle cx="544" cy="222" r="2" fill="#F1F5F9"/>
<circle cx="596" cy="222" r="2" fill="#F1F5F9"/>
<circle cx="648" cy="222" r="2" fill="#F1F5F9"/>
<circle cx="700" cy="222" r="2" fill="#F1F5F9"/>
<circle cx="752" cy="222" r="2" fill="#F1F5F9"/>
<circle cx="804" cy="222" r="2" fill="#F1F5F9"/>
<circle cx="856" cy="222" r="2" fill="#F1F5F9"/>
<circle cx="908" cy="222" r="2" fill="#F1F5F9"/>
<circle cx="960" cy="222" r="2" fill="#F1F5F9"/>
<circle cx="1012" cy="222" r="2" fill="#F1F5F9"/>
<circle cx="1064" cy="222" r="2" fill="#F1F5F9"/>
<circle cx="1116" cy="222" r="2" fill="#F1F5F9"/>
<circle cx="1168" cy="222" r="2" fill="#F1F5F9"/>
<circle cx="1220" cy="222" r="2" fill="#F1F5F9"/>
<circle cx="1272" cy="222" r="2" fill="#F1F5F9"/>
<circle cx="1324" cy="222" r="2" fill="#F1F5F9"/>
<circle cx="1376" cy="222" r="2" fill="#F1F5F9"/>
<circle cx="1428" cy="222" r="2" fill="#F1F5F9"/>
<circle cx="1480" cy="222" r="2" fill="#F1F5F9"/>
<circle cx="24" cy="274" r="2" fill="#F1F5F9"/>
<circle cx="76" cy="274" r="2" fill="#F1F5F9"/>
<circle cx="128" cy="274" r="2" fill="#F1F5F9"/>
<circle cx="180" cy="274" r="2" fill="#F1F5F9"/>
<circle cx="232" cy="274" r="2" fill="#F1F5F9"/>
<circle cx="284" cy="274" r="2" fill="#F1F5F9"/>
<circle cx="336" cy="274" r="2" fill="#F1F5F9"/>
<circle cx="388" cy="274" r="2" fill="#F1F5F9"/>
<circle cx="440" cy="274" r="2" fill="#F1F5F9"/>
<circle cx="492" cy="274" r="2" fill="#F1F5F9"/>
<circle cx="544" cy="274" r="2" fill="#F1F5F9"/>
<circle cx="596" cy="274" r="2" fill="#F1F5F9"/>
<circle cx="648" cy="274" r="2" fill="#F1F5F9"/>
<circle cx="700" cy="274" r="2" fill="#F1F5F9"/>
<circle cx="752" cy="274" r="2" fill="#F1F5F9"/>
<circle cx="804" cy="274" r="2" fill="#F1F5F9"/>
<circle cx="856" cy="274" r="2" fill="#F1F5F9"/>
<circle cx="908" cy="274" r="2" fill="#F1F5F9"/>
<circle cx="960" cy="274" r="2" fill="#F1F5F9"/>
<circle cx="1012" cy="274" r="2" fill="#F1F5F9"/>
<circle cx="1064" cy="274" r="2" fill="#F1F5F9"/>
<circle cx="1116" cy="274" r="2" fill="#F1F5F9"/>
<circle cx="1168" cy="274" r="2" fill="#F1F5F9"/>
<circle cx="1220" cy="274" r="2" fill="#F1F5F9"/>
<circle cx="1272" cy="274" r="2" fill="#F1F5F9"/>
<circle cx="1324" cy="274" r="2" fill="#F1F5F9"/>
<circle cx="1376" cy="274" r="2" fill="#F1F5F9"/>
<circle cx="1428" cy="274" r="2" fill="#F1F5F9"/>
<circle cx="1480" cy="274" r="2" fill="#F1F5F9"/>
<circle cx="24" cy="326" r="2" fill="#F1F5F9"/>
<circle cx="76" cy="326" r="2" fill="#F1F5F9"/>
<circle cx="128" cy="326" r="2" fill="#F1F5F9"/>
<circle cx="180" cy="326" r="2" fill="#F1F5F9"/>
<circle cx="232" cy="326" r="2" fill="#F1F5F9"/>
<circle cx="284" cy="326" r="2" fill="#F1F5F9"/>
<circle cx="336" cy="326" r="2" fill="#F1F5F9"/>
<circle cx="388" cy="326" r="2" fill="#F1F5F9"/>
<circle cx="440" cy="326" r="2" fill="#F1F5F9"/>
<circle cx="492" cy="326" r="2" fill="#F1F5F9"/>
<circle cx="544" cy="326" r="2" fill="#F1F5F9"/>
<circle cx="596" cy="326" r="2" fill="#F1F5F9"/>
<circle cx="648" cy="326" r="2" fill="#F1F5F9"/>
<circle cx="700" cy="326" r="2" fill="#F1F5F9"/>
<circle cx="752" cy="326" r="2" fill="#F1F5F9"/>
<circle cx="804" cy="326" r="2" fill="#F1F5F9"/>
<circle cx="856" cy="326" r="2" fill="#F1F5F9"/>
<circle cx="908" cy="326" r="2" fill="#F1F5F9"/>
<circle cx="960" cy="326" r="2" fill="#F1F5F9"/>
<circle cx="1012" cy="326" r="2" fill="#F1F5F9"/>
<circle cx="1064" cy="326" r="2" fill="#F1F5F9"/>
<circle cx="1116" cy="326" r="2" fill="#F1F5F9"/>
<circle cx="1168" cy="326" r="2" fill="#F1F5F9"/>
<circle cx="1220" cy="326" r="2" fill="#F1F5F9"/>
<circle cx="1272" cy="326" r="2" fill="#F1F5F9"/>
<circle cx="1324" cy="326" r="2" fill="#F1F5F9"/>
<circle cx="1376" cy="326" r="2" fill="#F1F5F9"/>
<circle cx="1428" cy="326" r="2" fill="#F1F5F9"/>
<circle cx="1480" cy="326" r="2" fill="#F1F5F9"/>
<circle cx="24" cy="378" r="2" fill="#F1F5F9"/>
<circle cx="76" cy="378" r="2" fill="#F1F5F9"/>
<circle cx="128" cy="378" r="2" fill="#F1F5F9"/>
<circle cx="180" cy="378" r="2" fill="#F1F5F9"/>
<circle cx="232" cy="378" r="2" fill="#F1F5F9"/>
<circle cx="284" cy="378" r="2" fill="#F1F5F9"/>
<circle cx="336" cy="378" r="2" fill="#F1F5F9"/>
<circle cx="388" cy="378" r="2" fill="#F1F5F9"/>
<circle cx="440" cy="378" r="2" fill="#F1F5F9"/>
<circle cx="492" cy="378" r="2" fill="#F1F5F9"/>
<circle cx="544" cy="378" r="2" fill="#F1F5F9"/>
<circle cx="596" cy="378" r="2" fill="#F1F5F9"/>
<circle cx="648" cy="378" r="2" fill="#F1F5F9"/>
<circle cx="700" cy="378" r="2" fill="#F1F5F9"/>
<circle cx="752" cy="378" r="2" fill="#F1F5F9"/>
<circle cx="804" cy="378" r="2" fill="#F1F5F9"/>
<circle cx="856" cy="378" r="2" fill="#F1F5F9"/>
<circle cx="908" cy="378" r="2" fill="#F1F5F9"/>
<circle cx="960" cy="378" r="2" fill="#F1F5F9"/>
<circle cx="1012" cy="378" r="2" fill="#F1F5F9"/>
<circle cx="1064" cy="378" r="2" fill="#F1F5F9"/>
<circle cx="1116" cy="378" r="2" fill="#F1F5F9"/>
<circle cx="1168" cy="378" r="2" fill="#F1F5F9"/>
<circle cx="1220" cy="378" r="2" fill="#F1F5F9"/>
<circle cx="1272" cy="378" r="2" fill="#F1F5F9"/>
<circle cx="1324" cy="378" r="2" fill="#F1F5F9"/>
<circle cx="1376" cy="378" r="2" fill="#F1F5F9"/>
<circle cx="1428" cy="378" r="2" fill="#F1F5F9"/>
<circle cx="1480" cy="378" r="2" fill="#F1F5F9"/>
<circle cx="24" cy="430" r="2" fill="#F1F5F9"/>
<circle cx="76" cy="430" r="2" fill="#F1F5F9"/>
<circle cx="128" cy="430" r="2" fill="#F1F5F9"/>
<circle cx="180" cy="430" r="2" fill="#F1F5F9"/>
<circle cx="232" cy="430" r="2" fill="#F1F5F9"/>
<circle cx="284" cy="430" r="2" fill="#F1F5F9"/>
<circle cx="336" cy="430" r="2" fill="#F1F5F9"/>
<circle cx="388" cy="430" r="2" fill="#F1F5F9"/>
<circle cx="440" cy="430" r="2" fill="#F1F5F9"/>
<circle cx="492" cy="430" r="2" fill="#F1F5F9"/>
<circle cx="544" cy="430" r="2" fill="#F1F5F9"/>
<circle cx="596" cy="430" r="2" fill="#F1F5F9"/>
<circle cx="648" cy="430" r="2" fill="#F1F5F9"/>
<circle cx="700" cy="430" r="2" fill="#F1F5F9"/>
<circle cx="752" cy="430" r="2" fill="#F1F5F9"/>
<circle cx="804" cy="430" r="2" fill="#F1F5F9"/>
<circle cx="856" cy="430" r="2" fill="#F1F5F9"/>
<circle cx="908" cy="430" r="2" fill="#F1F5F9"/>
<circle cx="960" cy="430" r="2" fill="#F1F5F9"/>
<circle cx="1012" cy="430" r="2" fill="#F1F5F9"/>
<circle cx="1064" cy="430" r="2" fill="#F1F5F9"/>
<circle cx="1116" cy="430" r="2" fill="#F1F5F9"/>
<circle cx="1168" cy="430" r="2" fill="#F1F5F9"/>
<circle cx="1220" cy="430" r="2" fill="#F1F5F9"/>
<circle cx="1272" cy="430" r="2" fill="#F1F5F9"/>
<circle cx="1324" cy="430" r="2" fill="#F1F5F9"/>
<circle cx="1376" cy="430" r="2" fill="#F1F5F9"/>
<circle cx="1428" cy="430" r="2" fill="#F1F5F9"/>
<circle cx="1480" cy="430" r="2" fill="#F1F5F9"/>
<circle cx="24" cy="482" r="2" fill="#F1F5F9"/>
<circle cx="76" cy="482" r="2" fill="#F1F5F9"/>
<circle cx="128" cy="482" r="2" fill="#F1F5F9"/>
<circle cx="180" cy="482" r="2" fill="#F1F5F9"/>
<circle cx="232" cy="482" r="2" fill="#F1F5F9"/>
<circle cx="284" cy="482" r="2" fill="#F1F5F9"/>
<circle cx="336" cy="482" r="2" fill="#F1F5F9"/>
<circle cx="388" cy="482" r="2" fill="#F1F5F9"/>
<circle cx="440" cy="482" r="2" fill="#F1F5F9"/>
<circle cx="492" cy="482" r="2" fill="#F1F5F9"/>
<circle cx="544" cy="482" r="2" fill="#F1F5F9"/>
<circle cx="596" cy="482" r="2" fill="#F1F5F9"/>
<circle cx="648" cy="482" r="2" fill="#F1F5F9"/>
<circle cx="700" cy="482" r="2" fill="#F1F5F9"/>
<circle cx="752" cy="482" r="2" fill="#F1F5F9"/>
<circle cx="804" cy="482" r="2" fill="#F1F5F9"/>
<circle cx="856" cy="482" r="2" fill="#F1F5F9"/>
<circle cx="908" cy="482" r="2" fill="#F1F5F9"/>
<circle cx="960" cy="482" r="2" fill="#F1F5F9"/>
<circle cx="1012" cy="482" r="2" fill="#F1F5F9"/>
<circle cx="1064" cy="482" r="2" fill="#F1F5F9"/>
<circle cx="1116" cy="482" r="2" fill="#F1F5F9"/>
<circle cx="1168" cy="482" r="2" fill="#F1F5F9"/>
<circle cx="1220" cy="482" r="2" fill="#F1F5F9"/>
<circle cx="1272" cy="482" r="2" fill="#F1F5F9"/>
<circle cx="1324" cy="482" r="2" fill="#F1F5F9"/>
<circle cx="1376" cy="482" r="2" fill="#F1F5F9"/>
<circle cx="1428" cy="482" r="2" fill="#F1F5F9"/>
<circle cx="1480" cy="482" r="2" fill="#F1F5F9"/>
<circle cx="24" cy="534" r="2" fill="#F1F5F9"/>
<circle cx="76" cy="534" r="2" fill="#F1F5F9"/>
<circle cx="128" cy="534" r="2" fill="#F1F5F9"/>
<circle cx="180" cy="534" r="2" fill="#F1F5F9"/>
<circle cx="232" cy="534" r="2" fill="#F1F5F9"/>
<circle cx="284" cy="534" r="2" fill="#F1F5F9"/>
<circle cx="336" cy="534" r="2" fill="#F1F5F9"/>
<circle cx="388" cy="534" r="2" fill="#F1F5F9"/>
<circle cx="440" cy="534" r="2" fill="#F1F5F9"/>
<circle cx="492" cy="534" r="2" fill="#F1F5F9"/>
<circle cx="544" cy="534" r="2" fill="#F1F5F9"/>
<circle cx="596" cy="534" r="2" fill="#F1F5F9"/>
<circle cx="648" cy="534" r="2" fill="#F1F5F9"/>
<circle cx="700" cy="534" r="2" fill="#F1F5F9"/>
<circle cx="752" cy="534" r="2" fill="#F1F5F9"/>
<circle cx="804" cy="534" r="2" fill="#F1F5F9"/>
<circle cx="856" cy="534" r="2" fill="#F1F5F9"/>
<circle cx="908" cy="534" r="2" fill="#F1F5F9"/>
<circle cx="960" cy="534" r="2" fill="#F1F5F9"/>
<circle cx="1012" cy="534" r="2" fill="#F1F5F9"/>
<circle cx="1064" cy="534" r="2" fill="#F1F5F9"/>
<circle cx="1116" cy="534" r="2" fill="#F1F5F9"/>
<circle cx="1168" cy="534" r="2" fill="#F1F5F9"/>
<circle cx="1220" cy="534" r="2" fill="#F1F5F9"/>
<circle cx="1272" cy="534" r="2" fill="#F1F5F9"/>
<circle cx="1324" cy="534" r="2" fill="#F1F5F9"/>
<circle cx="1376" cy="534" r="2" fill="#F1F5F9"/>
<circle cx="1428" cy="534" r="2" fill="#F1F5F9"/>
<circle cx="1480" cy="534" r="2" fill="#F1F5F9"/>
<circle cx="24" cy="586" r="2" fill="#F1F5F9"/>
<circle cx="76" cy="586" r="2" fill="#F1F5F9"/>
<circle cx="128" cy="586" r="2" fill="#F1F5F9"/>
<circle cx="180" cy="586" r="2" fill="#F1F5F9"/>
<circle cx="232" cy="586" r="2" fill="#F1F5F9"/>
<circle cx="284" cy="586" r="2" fill="#F1F5F9"/>
<circle cx="336" cy="586" r="2" fill="#F1F5F9"/>
<circle cx="388" cy="586" r="2" fill="#F1F5F9"/>
<circle cx="440" cy="586" r="2" fill="#F1F5F9"/>
<circle cx="492" cy="586" r="2" fill="#F1F5F9"/>
<circle cx="544" cy="586" r="2" fill="#F1F5F9"/>
<circle cx="596" cy="586" r="2" fill="#F1F5F9"/>
<circle cx="648" cy="586" r="2" fill="#F1F5F9"/>
<circle cx="700" cy="586" r="2" fill="#F1F5F9"/>
<circle cx="752" cy="586" r="2" fill="#F1F5F9"/>
<circle cx="804" cy="586" r="2" fill="#F1F5F9"/>
<circle cx="856" cy="586" r="2" fill="#F1F5F9"/>
<circle cx="908" cy="586" r="2" fill="#F1F5F9"/>
<circle cx="960" cy="586" r="2" fill="#F1F5F9"/>
<circle cx="1012" cy="586" r="2" fill="#F1F5F9"/>
<circle cx="1064" cy="586" r="2" fill="#F1F5F9"/>
<circle cx="1116" cy="586" r="2" fill="#F1F5F9"/>
<circle cx="1168" cy="586" r="2" fill="#F1F5F9"/>
<circle cx="1220" cy="586" r="2" fill="#F1F5F9"/>
<circle cx="1272" cy="586" r="2" fill="#F1F5F9"/>
<circle cx="1324" cy="586" r="2" fill="#F1F5F9"/>
<circle cx="1376" cy="586" r="2" fill="#F1F5F9"/>
<circle cx="1428" cy="586" r="2" fill="#F1F5F9"/>
<circle cx="1480" cy="586" r="2" fill="#F1F5F9"/>
</g>
</g>
<defs>
<filter id="filter0_f_945_24218" x="-723" y="-2150" width="2950" height="2950" filterUnits="userSpaceOnUse" color-interpolation-filters="sRGB">
<feFlood flood-opacity="0" result="BackgroundImageFix"/>
<feBlend mode="normal" in="SourceGraphic" in2="BackgroundImageFix" result="shape"/>
<feGaussianBlur stdDeviation="100" result="effect1_foregroundBlur_945_24218"/>
</filter>
<clipPath id="clip0_945_24218">
<path d="M0 0H1504V552C1504 578.51 1482.51 600 1456 600H48C21.4903 600 0 578.51 0 552V0Z" fill="white"/>
</clipPath>
<clipPath id="clip1_945_24218">
<rect width="1504" height="600" fill="white"/>
</clipPath>
</defs>
</svg>