<svg width="40" height="40" viewBox="0 0 40 40" fill="none" xmlns="http://www.w3.org/2000/svg">
<g clip-path="url(#clip0_394_5622)">
<path d="M28.6958 1.98453C26.0664 0.713125 23.1165 0 20.0001 0C16.8837 0 13.9339 0.713125 11.3045 1.98453L9.56537 20L11.3045 38.0155C13.9339 39.2869 16.8837 40 20.0001 40C23.1165 40 26.0664 39.2869 28.6958 38.0155L30.4349 20L28.6958 1.98453Z" fill="#D80027"/>
<path d="M11.3042 1.98529C4.61435 5.22021 -0.000183105 12.0709 -0.000183105 20.0001C-0.000183105 27.9292 4.61435 34.7799 11.3042 38.0148V1.98529Z" fill="black"/>
<path d="M28.6955 1.98529V38.0148C35.3853 34.7799 39.9999 27.9292 39.9999 20.0001C39.9999 12.0709 35.3853 5.22021 28.6955 1.98529Z" fill="#496E2D"/>
<path d="M19.9997 13.0436C16.1577 13.0436 13.0432 16.1581 13.0432 20.0001C13.0432 23.842 16.1577 26.9565 19.9997 26.9565C23.8417 26.9565 26.9562 23.842 26.9562 20.0001C26.9562 16.1581 23.8417 13.0436 19.9997 13.0436ZM19.9997 24.3479C17.5984 24.3479 15.6519 22.4012 15.6519 20.0001C15.6519 17.5989 17.5985 15.6523 19.9997 15.6523C22.4009 15.6523 24.3475 17.5989 24.3475 20.0001C24.3475 22.4012 22.4009 24.3479 19.9997 24.3479Z" fill="#FFDA44"/>
<path d="M20.0002 17.3915C19.0396 17.3915 18.261 18.1701 18.261 19.1306V21.7393H21.7393V19.1306C21.7393 18.1701 20.9607 17.3915 20.0002 17.3915Z" fill="#FFDA44"/>
</g>
<defs>
<clipPath id="clip0_394_5622">
<rect width="40" height="40" fill="white"/>
</clipPath>
</defs>
</svg>
