<svg width="40" height="40" viewBox="0 0 40 40" fill="none" xmlns="http://www.w3.org/2000/svg">
<g clip-path="url(#clip0_394_5619)">
<path d="M19.9999 40.0001C31.0456 40.0001 39.9999 31.0458 39.9999 20.0001C39.9999 8.95437 31.0456 6.10352e-05 19.9999 6.10352e-05C8.95418 6.10352e-05 -0.00012207 8.95437 -0.00012207 20.0001C-0.00012207 31.0458 8.95418 40.0001 19.9999 40.0001Z" fill="#D80027"/>
<path d="M31.3043 14.8445H24.0601C24.5073 14.3762 24.7825 13.7422 24.7825 13.0435C24.7825 11.6028 23.6145 10.4349 22.1738 10.4349C21.2662 10.4349 20.4672 10.8986 19.9999 11.6018C19.5327 10.8986 18.7336 10.4349 17.826 10.4349C16.3853 10.4349 15.2173 11.6028 15.2173 13.0435C15.2173 13.7422 15.4926 14.3763 15.9398 14.8445H8.69562C8.69562 16.7655 10.3688 18.3227 12.2897 18.3227H12.1737C12.1737 20.2438 13.731 21.801 15.6521 21.801C15.6521 22.4232 15.8161 23.0065 16.1023 23.5115L13.2172 26.3968L15.4308 28.6102L18.5708 25.4703C18.6937 25.5153 18.821 25.5515 18.9524 25.5761L17.055 29.8601L19.9999 33.0435L22.9448 29.86L21.0474 25.576C21.1789 25.5514 21.3061 25.5153 21.4291 25.4701L24.5691 28.61L26.7827 26.3965L23.8974 23.5113C24.1837 23.0064 24.3477 22.423 24.3477 21.8008C26.2687 21.8008 27.826 20.2436 27.826 18.3225H27.7102C29.631 18.3226 31.3043 16.7655 31.3043 14.8445Z" fill="black"/>
</g>
<defs>
<clipPath id="clip0_394_5619">
<rect width="40" height="40" fill="white"/>
</clipPath>
</defs>
</svg>
