<svg width="40" height="40" viewBox="0 0 40 40" fill="none" xmlns="http://www.w3.org/2000/svg">
<g clip-path="url(#clip0_394_5613)">
<path d="M20 0C31.0457 0 40 8.95438 40 20C40 31.0456 31.0457 40 20 40C20 39.1305 17.3914 20 17.3914 20L20 0Z" fill="#F0F0F0"/>
<path d="M20.0004 40.0001C8.95477 40.0001 0.000396729 31.0457 0.000396729 20.0001C0.000396729 8.95444 8.95477 6.10352e-05 20.0004 6.10352e-05" fill="#496E2D"/>
<path d="M24.2973 16.1638L22.6563 18.4251L19.9987 17.5632L21.6423 19.8226L20.0016 22.0839L22.6581 21.219L24.3017 23.4783L24.3 20.6845L26.9566 19.8195L24.2991 18.9577L24.2973 16.1638Z" fill="#D80027"/>
<path d="M21.6593 25.6522C18.5377 25.6522 16.0071 23.1216 16.0071 20C16.0071 16.8785 18.5377 14.3478 21.6593 14.3478C22.6325 14.3478 23.5484 14.5939 24.3479 15.0272C23.0936 13.8006 21.3782 13.0435 19.4854 13.0435C15.6433 13.0435 12.5289 16.158 12.5289 19.9999C12.5289 23.8419 15.6434 26.9564 19.4854 26.9564C21.3783 26.9564 23.0936 26.1993 24.3479 24.9727C23.5484 25.4061 22.6325 25.6522 21.6593 25.6522Z" fill="#D80027"/>
</g>
<defs>
<clipPath id="clip0_394_5613">
<rect width="40" height="40" fill="white"/>
</clipPath>
</defs>
</svg>
