<svg width="40" height="40" viewBox="0 0 40 40" fill="none" xmlns="http://www.w3.org/2000/svg">
<g clip-path="url(#clip0_394_5598)">
<path d="M0 20C0 8.95437 8.95438 0 20 0C31.0456 0 40 8.95437 40 20C39.1305 20 20 22.6087 20 22.6087L0 20Z" fill="#D80027"/>
<path d="M40 20.0001C40 31.0457 31.0456 40.0001 20 40.0001C8.95437 40.0001 0 31.0457 0 20.0001" fill="black"/>
<path d="M17.2576 15.9072L18.9531 17.1377L18.307 19.1305L20.0012 17.898L21.6968 19.1285L21.0483 17.1363L22.7423 15.9039L20.6474 15.9052L19.9987 13.9131L19.3526 15.9059L17.2576 15.9072Z" fill="#FFDA44"/>
<path d="M24.9999 11.3398C23.4239 10.4299 21.7007 10.0005 19.9999 10.0034V12.6116C21.257 12.6093 22.5306 12.9265 23.6955 13.5991C27.2251 15.6369 28.4387 20.1663 26.4008 23.6959C24.3631 27.2254 19.8338 28.4391 16.3042 26.4012C15.2759 25.8076 14.4458 25.0015 13.834 24.0712L11.6562 25.5091C12.484 26.7676 13.6087 27.8572 14.9999 28.6603C19.7752 31.4173 25.9031 29.7754 28.6601 25.0001C31.4171 20.2248 29.7752 14.0969 24.9999 11.3398Z" fill="#FFDA44"/>
<path d="M14.2335 18.2609C13.5421 19.5249 14.0063 21.1101 15.2702 21.8015L23.7428 26.4312C23.1667 27.4844 23.4727 28.7664 24.5259 29.3426L26.8145 30.5945C27.8677 31.1708 29.1889 30.7839 29.7651 29.7306L31.017 27.442L14.2335 18.2609Z" fill="#FFDA44"/>
</g>
<defs>
<clipPath id="clip0_394_5598">
<rect width="40" height="40" fill="white"/>
</clipPath>
</defs>
</svg>
