<svg width="40" height="40" viewBox="0 0 40 40" fill="none" xmlns="http://www.w3.org/2000/svg">
<g clip-path="url(#clip0_394_5572)">
<path d="M39.9997 20.0001C39.9997 31.0457 31.0453 40.0001 19.9997 40.0001C8.95409 40.0001 -0.000289917 31.0457 -0.000289917 20.0001C-0.000289917 20.0047 19.9997 0.00232666 19.9997 6.10352e-05C31.0453 6.10352e-05 39.9997 8.95444 39.9997 20.0001Z" fill="#0052B4"/>
<path d="M20.0001 6.10352e-05C19.9989 6.10352e-05 19.9977 0.000143156 19.9966 0.000143156L20.0001 6.10352e-05Z" fill="#F0F0F0"/>
<path d="M19.9464 20H20C20 19.9819 20 19.9646 20 19.9465C19.9821 19.9644 19.9643 19.9822 19.9464 20Z" fill="#F0F0F0"/>
<path d="M20 10.4349C20 6.91575 20 4.60973 20 0.00012207H19.9966C8.95247 0.00191895 -3.05176e-05 8.95543 -3.05176e-05 20H10.4347V14.1241L16.3107 20H19.9465C19.9644 19.9822 19.9822 19.9644 20.0001 19.9465C20.0001 18.5991 20.0001 17.3968 20.0001 16.3109L14.124 10.4349H20Z" fill="#F0F0F0"/>
<path d="M10.1183 2.6087C6.99027 4.38988 4.3898 6.99034 2.60863 10.1184V20H7.82605V7.8262V7.82613H20C20 6.18058 20 4.61292 20 2.6087H10.1183Z" fill="#D80027"/>
<path d="M19.9999 17.5406L12.8942 10.435H10.4348C10.4348 10.4349 10.4348 10.435 10.4348 10.435L19.9999 20H19.9999C19.9999 20 19.9999 18.3043 19.9999 17.5406Z" fill="#D80027"/>
<path d="M12.0622 23.4783L13.1598 25.7734L15.6385 25.2005L14.5285 27.4898L16.5218 29.0705L14.04 29.6298L14.0469 32.1739L12.0622 30.5823L10.0775 32.1739L10.0844 29.6298L7.60255 29.0705L9.59591 27.4898L8.48576 25.2005L10.9646 25.7734L12.0622 23.4783Z" fill="#F0F0F0"/>
<path d="M29.9441 27.8261L30.4929 28.9737L31.7323 28.6872L31.1772 29.8318L32.1739 30.6222L30.933 30.9019L30.9364 32.1739L29.9441 31.3781L28.9518 32.1739L28.9552 30.9019L27.7143 30.6222L28.711 29.8318L28.156 28.6872L29.3953 28.9737L29.9441 27.8261Z" fill="#F0F0F0"/>
<path d="M24.8386 15.6522L25.3874 16.7998L26.6267 16.5133L26.0717 17.6579L27.0684 18.4483L25.8275 18.7279L25.8309 20L24.8386 19.2041L23.8463 20L23.8496 18.7279L22.6088 18.4483L23.6054 17.6579L23.0504 16.5133L24.2898 16.7998L24.8386 15.6522Z" fill="#F0F0F0"/>
<path d="M29.9441 8.69562L30.4929 9.84327L31.7323 9.55679L31.1773 10.7014L32.1739 11.4917L30.933 11.7715L30.9364 13.0435L29.9441 12.2476L28.9518 13.0435L28.9552 11.7715L27.7143 11.4917L28.7109 10.7014L28.156 9.55679L29.3953 9.84327L29.9441 8.69562Z" fill="#F0F0F0"/>
<path d="M34.4037 13.9131L34.9525 15.0607L36.1919 14.7742L35.6369 15.9188L36.6335 16.7092L35.3926 16.9889L35.396 18.2609L34.4037 17.4651L33.4114 18.2609L33.4148 16.9889L32.1739 16.7092L33.1705 15.9188L32.6155 14.7742L33.8548 15.0607L34.4037 13.9131Z" fill="#F0F0F0"/>
<path d="M31.2149 20L31.6465 21.3286H33.0435L31.9133 22.1498L32.3451 23.4783L31.2149 22.6572L30.0847 23.4783L30.5163 22.1498L29.3862 21.3286H30.7831L31.2149 20Z" fill="#F0F0F0"/>
</g>
<defs>
<clipPath id="clip0_394_5572">
<rect width="40" height="40" fill="white"/>
</clipPath>
</defs>
</svg>
