<svg width="40" height="40" viewBox="0 0 40 40" fill="none" xmlns="http://www.w3.org/2000/svg">
<g clip-path="url(#clip0_394_5560)">
<path d="M40 20C40 17.5536 39.56 15.2101 38.756 13.0436L20 12.174L1.24398 13.0435C0.440078 15.2101 0 17.5536 0 20C0 22.4465 0.440078 24.79 1.24398 26.9565L20 27.8261L38.756 26.9566C39.56 24.79 40 22.4465 40 20Z" fill="#D80027"/>
<path d="M20 40C28.5993 40 35.9301 34.5725 38.756 26.9565H1.24396C4.06982 34.5725 11.4007 40 20 40Z" fill="#6DA544"/>
<path d="M1.24396 13.0436H38.7561C35.9301 5.42756 28.5993 6.10352e-05 20 6.10352e-05C11.4007 6.10352e-05 4.06982 5.42756 1.24396 13.0436Z" fill="#338AF3"/>
<path d="M20.4348 25.6522C17.3132 25.6522 14.7826 23.1216 14.7826 20C14.7826 16.8785 17.3132 14.3478 20.4348 14.3478C21.4081 14.3478 22.3239 14.5939 23.1234 15.0272C21.8691 13.8006 20.1538 13.0435 18.2609 13.0435C14.4188 13.0435 11.3044 16.158 11.3044 19.9999C11.3044 23.8419 14.4189 26.9564 18.2609 26.9564C20.1538 26.9564 21.8691 26.1993 23.1234 24.9727C22.3239 25.4061 21.4081 25.6522 20.4348 25.6522Z" fill="#F0F0F0"/>
<path d="M24.7826 16.087L25.5313 18.1925L27.5496 17.233L26.5901 19.2513L28.6957 20L26.5901 20.7488L27.5496 22.7671L25.5313 21.8075L24.7826 23.9131L24.034 21.8075L22.0157 22.7671L22.9752 20.7488L20.8696 20L22.9752 19.2513L22.0157 17.233L24.034 18.1925L24.7826 16.087Z" fill="#F0F0F0"/>
</g>
<defs>
<clipPath id="clip0_394_5560">
<rect width="40" height="40" fill="white"/>
</clipPath>
</defs>
</svg>
