<svg width="40" height="40" viewBox="0 0 40 40" fill="none" xmlns="http://www.w3.org/2000/svg">
<g clip-path="url(#clip0_394_5551)">
<path d="M19.9998 40.0001C31.0455 40.0001 39.9998 31.0458 39.9998 20.0001C39.9998 8.95437 31.0455 6.10352e-05 19.9998 6.10352e-05C8.95412 6.10352e-05 -0.000183105 8.95437 -0.000183105 20.0001C-0.000183105 31.0458 8.95412 40.0001 19.9998 40.0001Z" fill="#F0F0F0"/>
<path d="M19.9999 6.10352e-05C15.9861 6.10352e-05 12.2493 1.18326 9.11708 3.21865L14.2608 6.66623L7.82599 9.99951L14.2608 13.3328L7.82599 16.6661L14.2608 19.999L7.82599 23.3322L14.2608 26.6654L7.82599 29.999L14.2608 33.3322L9.11646 36.7809C12.2488 38.8167 15.9859 40.0001 19.9999 40.0001C31.0455 40.0001 39.9999 31.0457 39.9999 20.0001C39.9999 8.95444 31.0455 6.10352e-05 19.9999 6.10352e-05V6.10352e-05Z" fill="#D80027"/>
</g>
<defs>
<clipPath id="clip0_394_5551">
<rect width="40" height="40" fill="white"/>
</clipPath>
</defs>
</svg>
