<svg width="40" height="40" viewBox="0 0 40 40" fill="none" xmlns="http://www.w3.org/2000/svg">
<g clip-path="url(#clip0_394_5542)">
<path d="M28.6956 1.98447C26.0662 0.713064 23.1164 -6.10352e-05 20 -6.10352e-05C16.8835 -6.10352e-05 13.9337 0.713064 11.3043 1.98447L9.56519 19.9999L11.3043 38.0154C13.9337 39.2868 16.8835 39.9999 20 39.9999C23.1164 39.9999 26.0662 39.2868 28.6956 38.0154L30.4347 19.9999L28.6956 1.98447Z" fill="#FFDA44"/>
<path d="M11.3042 1.98517C4.61435 5.22001 -0.000183105 12.0707 -0.000183105 19.9999C-0.000183105 27.9292 4.61435 34.7799 11.3042 38.0147V1.98517Z" fill="#0052B4"/>
<path d="M28.6954 1.98517V38.0147C35.3852 34.7799 39.9997 27.9291 39.9997 19.9999C39.9997 12.0708 35.3852 5.22001 28.6954 1.98517Z" fill="#0052B4"/>
<path d="M26.0869 12.1739L27.2535 12.7572L26.0869 12.1739L24.9202 11.5906C24.8499 11.7313 23.3265 14.8308 23.0777 19.5652H21.3043V12.1739L19.9999 10.4348L18.6956 12.1739V19.5652H16.9222C16.6733 14.8308 15.15 11.7313 15.0796 11.5906L12.7463 12.7573C12.7624 12.7893 14.3478 16.0162 14.3478 20.8696V22.174H18.6956V29.5653H21.3043V22.174H25.6521V20.8695C25.6521 18.3603 26.0863 16.2912 26.4506 14.9973C26.8477 13.5864 27.251 12.7624 27.255 12.7542L26.0869 12.1739Z" fill="black"/>
</g>
<defs>
<clipPath id="clip0_394_5542">
<rect width="40" height="40" fill="white"/>
</clipPath>
</defs>
</svg>
