<svg width="40" height="40" viewBox="0 0 40 40" fill="none" xmlns="http://www.w3.org/2000/svg">
<g clip-path="url(#clip0_394_5531)">
<path d="M19.9997 39.9999C31.0454 39.9999 39.9997 31.0456 39.9997 19.9999C39.9997 8.95424 31.0454 -6.10352e-05 19.9997 -6.10352e-05C8.954 -6.10352e-05 -0.000305176 8.95424 -0.000305176 19.9999C-0.000305176 31.0456 8.954 39.9999 19.9997 39.9999Z" fill="#FCFCFC"/>
<path d="M8.26079 18.5506L6.08688 14.6067L8.26079 10.7245L10.4347 14.6067L8.26079 18.5506Z" fill="#A2001D"/>
<path d="M3.91295 18.5506L1.73904 14.6067L3.91295 10.7245L6.08686 14.6067L3.91295 18.5506Z" fill="#A2001D"/>
<path d="M8.26079 29.2753L6.08688 25.3313L8.26079 21.4492L10.4347 25.3313L8.26079 29.2753Z" fill="#A2001D"/>
<path d="M3.91295 29.2753L1.73904 25.3313L3.91295 21.4492L6.08686 25.3313L3.91295 29.2753Z" fill="#A2001D"/>
<path d="M10.4347 3.88214L9.8192 2.78308C8.7153 3.43714 7.67991 4.19441 6.72592 5.0416L8.26076 7.82605L10.4347 3.88214Z" fill="#A2001D"/>
<path d="M8.26081 32.1738L6.70972 34.9438C7.66284 35.7921 8.69753 36.5505 9.80096 37.2059L10.4348 36.056L8.26081 32.1738Z" fill="#A2001D"/>
<path d="M12.1738 25.2174V38.4098C14.5777 39.433 17.2224 40 19.9999 40C28.5992 40 35.9301 34.5725 38.7559 26.9565L12.1738 25.2174Z" fill="#6DA544"/>
<path d="M38.7559 26.9564C39.5599 24.7898 39.9999 22.4463 39.9999 19.9999C39.9999 8.95431 31.0455 -6.10352e-05 19.9999 -6.10352e-05C17.2227 -6.10352e-05 14.5777 0.56658 12.1738 1.58963V26.9565H38.7559V26.9564Z" fill="#A2001D"/>
</g>
<defs>
<clipPath id="clip0_394_5531">
<rect width="40" height="40" fill="white"/>
</clipPath>
</defs>
</svg>
