<svg width="40" height="40" viewBox="0 0 40 40" fill="none" xmlns="http://www.w3.org/2000/svg">
<g clip-path="url(#clip0_394_5527)">
<path d="M26.9566 1.24392C24.7899 0.440017 22.4465 -6.10352e-05 20.0001 -6.10352e-05C17.5537 -6.10352e-05 15.2102 0.440017 13.0436 1.24392L11.3044 19.9999L13.0436 38.756C15.2102 39.5599 17.5537 39.9999 20.0001 39.9999C22.4465 39.9999 24.7899 39.5599 26.9566 38.756L28.6957 19.9999L26.9566 1.24392Z" fill="#FFDA44"/>
<path d="M40 20C40 11.4007 34.5725 4.0698 26.9565 1.24402V38.7561C34.5725 35.9301 40 28.5993 40 20Z" fill="#D80027"/>
<path d="M6.10352e-05 20C6.10352e-05 28.5993 5.42756 35.9301 13.0436 38.7561V1.24402C5.42756 4.0698 6.10352e-05 11.4007 6.10352e-05 20Z" fill="black"/>
</g>
<defs>
<clipPath id="clip0_394_5527">
<rect width="40" height="40" fill="white"/>
</clipPath>
</defs>
</svg>
