<svg width="40" height="40" viewBox="0 0 40 40" fill="none" xmlns="http://www.w3.org/2000/svg">
<g clip-path="url(#clip0_394_5513)">
<path d="M13.0434 18.2608L14.7826 39.311C16.4461 39.7593 18.1947 39.9999 19.9999 39.9999C31.0455 39.9999 39.9999 31.0456 39.9999 19.9999L13.0434 18.2608Z" fill="#D80027"/>
<path d="M13.0434 19.9999L14.7825 0.688923C16.4461 0.240564 18.1947 -6.10352e-05 19.9999 -6.10352e-05C31.0455 -6.10352e-05 39.9999 8.95431 39.9999 19.9999H13.0434Z" fill="#FFDA44"/>
<path d="M-3.05176e-05 20C-3.05176e-05 29.2405 6.26723 37.016 14.7825 39.311V0.688965C6.26723 2.98396 -3.05176e-05 10.7594 -3.05176e-05 20Z" fill="#6DA544"/>
</g>
<defs>
<clipPath id="clip0_394_5513">
<rect width="40" height="40" fill="white"/>
</clipPath>
</defs>
</svg>
