<svg width="40" height="40" viewBox="0 0 40 40" fill="none" xmlns="http://www.w3.org/2000/svg">
<g clip-path="url(#clip0_394_5504)">
<path d="M40 20C40 17.5536 39.56 15.2101 38.756 13.0436L20 12.174L1.24401 13.0435C0.440023 15.2101 2.28882e-05 17.5536 2.28882e-05 20C2.28882e-05 22.4465 0.440023 24.79 1.24401 26.9565L20 27.8261L38.756 26.9566C39.56 24.79 40 22.4465 40 20Z" fill="#FFDA44"/>
<path d="M20 40.0001C28.5993 40.0001 35.9302 34.5726 38.7561 26.9565H1.24403C4.06989 34.5726 11.4008 40.0001 20 40.0001Z" fill="#6DA544"/>
<path d="M1.24403 13.0436H38.7561C35.9302 5.42756 28.5993 6.10352e-05 20 6.10352e-05C11.4008 6.10352e-05 4.06989 5.42756 1.24403 13.0436Z" fill="#D80027"/>
</g>
<defs>
<clipPath id="clip0_394_5504">
<rect width="40" height="40" fill="white"/>
</clipPath>
</defs>
</svg>
