<svg width="40" height="40" viewBox="0 0 40 40" fill="none" xmlns="http://www.w3.org/2000/svg">
<g clip-path="url(#clip0_394_5498)">
<path d="M0.944436 13.9129C0.33178 15.8324 -1.70761e-05 17.8771 6.10489e-05 19.9999C-1.70761e-05 22.1225 0.33178 24.1673 0.944514 26.0868L20.0001 26.9565L39.0555 26.0868C39.6681 24.1673 40 22.1224 40 20C40 17.8773 39.6682 15.8324 39.0555 13.9129L20 13.0434L0.944436 13.9129Z" fill="#F0F0F0"/>
<path d="M40 20C40 18.8135 39.8961 17.6513 39.6979 16.5216H0.302187C0.103906 17.6513 0 18.8133 0 19.9999C0 21.1864 0.103984 22.3485 0.302187 23.4782H39.6979C39.896 22.3484 40 21.1864 40 20Z" fill="black"/>
<path d="M20 39.9999C28.9231 39.9999 36.4802 34.1559 39.0555 26.0868H0.944458C3.51985 34.1559 11.077 39.9998 20 39.9999Z" fill="#338AF3"/>
<path d="M20 3.13307e-09C11.077 3.13307e-09 3.51994 5.84398 0.944397 13.9129L39.0553 13.913C36.4801 5.84398 28.923 -0.000156247 20 3.13307e-09Z" fill="#338AF3"/>
</g>
<defs>
<clipPath id="clip0_394_5498">
<rect width="40" height="40" fill="white"/>
</clipPath>
</defs>
</svg>
