<svg width="40" height="40" viewBox="0 0 40 40" fill="none" xmlns="http://www.w3.org/2000/svg">
<g clip-path="url(#clip0_394_5491)">
<path d="M19.9997 40C31.0454 40 39.9997 31.0457 39.9997 20C39.9997 8.9543 31.0454 0 19.9997 0C8.954 0 -0.000305176 8.9543 -0.000305176 20C-0.000305176 31.0457 8.954 40 19.9997 40Z" fill="#6DA544"/>
<path d="M19.9999 7.82611L36.5216 20L19.9999 32.1739L3.47815 20L19.9999 7.82611Z" fill="#FFDA44"/>
<path d="M19.9999 26.9565C23.8419 26.9565 26.9564 23.842 26.9564 20C26.9564 16.158 23.8419 13.0435 19.9999 13.0435C16.158 13.0435 13.0435 16.158 13.0435 20C13.0435 23.842 16.158 26.9565 19.9999 26.9565Z" fill="#F0F0F0"/>
<path d="M16.5216 19.5652C15.3119 19.5652 14.1445 19.7492 13.0456 20.0906C13.0943 23.8906 16.1883 26.9566 19.9999 26.9566C22.3568 26.9566 24.4383 25.7834 25.6967 23.9903C23.5438 21.2952 20.2312 19.5652 16.5216 19.5652Z" fill="#0052B4"/>
<path d="M26.8275 21.3328C26.9112 20.9013 26.9564 20.456 26.9564 20C26.9564 16.158 23.8419 13.0435 20 13.0435C17.1332 13.0435 14.6723 14.778 13.6073 17.2544C14.5487 17.0593 15.5234 16.9566 16.5218 16.9566C20.5621 16.9565 24.2173 18.636 26.8275 21.3328Z" fill="#0052B4"/>
</g>
<defs>
<clipPath id="clip0_394_5491">
<rect width="40" height="40" fill="white"/>
</clipPath>
</defs>
</svg>
