<svg width="40" height="40" viewBox="0 0 40 40" fill="none" xmlns="http://www.w3.org/2000/svg">
<g clip-path="url(#clip0_394_5478)">
<path d="M20.0002 39.9972C31.0443 39.9972 39.9973 31.0442 39.9973 20.0001C39.9973 8.95605 31.0443 0.00305176 20.0002 0.00305176C8.95617 0.00305176 0.00317383 8.95605 0.00317383 20.0001C0.00317383 31.0442 8.95617 39.9972 20.0002 39.9972Z" fill="#F0F0F0"/>
<path d="M2.68211 10.0015C1.77951 11.5646 1.11372 13.1989 0.670349 14.8635L34.1131 34.1718C35.333 32.9555 36.4156 31.5616 37.3179 29.9985L2.68211 10.0015Z" fill="black"/>
<path d="M29.9987 2.68201C21.9972 -1.93755 12.1314 -0.397903 5.88696 5.82817L39.3297 25.1363C41.5995 16.6157 37.9999 7.30164 29.9987 2.68201Z" fill="#FFDA44"/>
<path d="M10.0015 37.318C18.0028 41.9375 27.8689 40.3979 34.1132 34.1719L0.670327 14.8635C-1.59933 23.3844 2.00012 32.6984 10.0015 37.318Z" fill="#FFDA44"/>
<path d="M25.6514 17.8263C25.6514 20.9474 23.1212 23.4777 20 23.4777C16.8789 23.4777 14.3487 20.9475 14.3487 17.8263C14.3487 16.8532 14.5947 15.9375 15.028 15.138C13.8016 16.3922 13.0445 18.1072 13.0445 19.9999C13.0445 23.8413 16.1585 26.9554 20 26.9554C23.8415 26.9554 26.9556 23.8414 26.9556 19.9999C26.9556 18.1072 26.1985 16.3922 24.9721 15.138C25.4054 15.9376 25.6514 16.8532 25.6514 17.8263Z" fill="#D80027"/>
<path d="M18.6959 11.3057H21.3043V24.3473H18.6959V11.3057Z" fill="#D80027"/>
<path d="M24.3472 13.914H15.6528C15.6528 14.5142 16.1757 15.0008 16.7759 15.0008H16.7397C16.7397 15.6011 17.2263 16.0876 17.8265 16.0876C17.8265 16.6879 18.3131 17.1745 18.9133 17.1745H21.0869C21.6871 17.1745 22.1737 16.6879 22.1737 16.0876C22.7739 16.0876 23.2605 15.6011 23.2605 15.0008H23.2243C23.8243 15.0007 24.3472 14.5143 24.3472 13.914Z" fill="#D80027"/>
<path d="M13.9141 25.2167H26.0863V27.825H13.9141V25.2167Z" fill="#D80027"/>
<path d="M22.6084 26.0862H27.825V28.6945H22.6084V26.0862Z" fill="#D80027"/>
<path d="M12.1752 26.0862H17.3918V28.6945H12.1752V26.0862Z" fill="#D80027"/>
</g>
<defs>
<clipPath id="clip0_394_5478">
<rect width="40" height="40" fill="white"/>
</clipPath>
</defs>
</svg>
