<svg width="40" height="40" viewBox="0 0 40 40" fill="none" xmlns="http://www.w3.org/2000/svg">
<g clip-path="url(#clip0_394_5474)">
<path d="M40 20C40 17.5536 39.56 15.2101 38.756 13.0436L20 12.174L1.24398 13.0435C0.440078 15.2101 0 17.5536 0 20C0 22.4465 0.440078 24.79 1.24398 26.9565L20 27.8261L38.756 26.9566C39.56 24.79 40 22.4465 40 20Z" fill="#496E2D"/>
<path d="M20 40C28.5993 40 35.9302 34.5725 38.7561 26.9565H1.24402C4.06988 34.5725 11.4007 40 20 40Z" fill="#D80027"/>
<path d="M1.24402 13.0435H38.7561C35.9302 5.4275 28.5993 0 20 0C11.4007 0 4.06988 5.4275 1.24402 13.0435Z" fill="#F0F0F0"/>
</g>
<defs>
<clipPath id="clip0_394_5474">
<rect width="40" height="40" fill="white"/>
</clipPath>
</defs>
</svg>
