<svg width="40" height="40" viewBox="0 0 40 40" fill="none" xmlns="http://www.w3.org/2000/svg">
<g clip-path="url(#clip0_394_5470)">
<path d="M0 20C0 8.95437 8.95438 0 20 0C31.0456 0 40 8.95437 40 20C39.1305 20 20 22.6087 20 22.6087L0 20Z" fill="#D80027"/>
<path d="M40 20C40 31.0456 31.0456 40 20 40C8.95437 40 0 31.0456 0 20" fill="#6DA544"/>
<path d="M20 13.0435L21.5107 17.6934H26.4003L22.4447 20.5673L23.9554 25.2174L20 22.3436L16.0444 25.2174L17.5554 20.5673L13.5997 17.6934H18.4891L20 13.0435Z" fill="#FFDA44"/>
</g>
<defs>
<clipPath id="clip0_394_5470">
<rect width="40" height="40" fill="white"/>
</clipPath>
</defs>
</svg>
