<svg width="40" height="40" viewBox="0 0 40 40" fill="none" xmlns="http://www.w3.org/2000/svg">
<g clip-path="url(#clip0_394_5451)">
<path d="M-3.05176e-05 20C-3.05176e-05 23.4648 0.881454 26.7237 2.43177 29.5652L20 31.3044L37.5682 29.5652C39.1185 26.7237 40 23.4648 40 20C40 16.5351 39.1185 13.2762 37.5682 10.4348L20 8.69562L2.43177 10.4348C0.881454 13.2762 -3.05176e-05 16.5351 -3.05176e-05 20H-3.05176e-05Z" fill="#D80027"/>
<path d="M2.43167 10.4348H37.568C34.176 4.21789 27.5807 0 19.9999 0C12.419 0 5.82378 4.21789 2.43167 10.4348Z" fill="#0052B4"/>
<path d="M19.9999 40C27.5807 40 34.176 35.7821 37.5681 29.5652H2.43167C5.82378 35.7821 12.419 40 19.9999 40Z" fill="#0052B4"/>
<path d="M26.9564 23.913V21.3043H25.2173V17.8261L23.4782 16.0869L21.7391 17.8261V14.3478L19.9999 12.6086L18.2608 14.3478V17.8261L16.5216 16.0869L14.7825 17.8261V21.3043H13.0434V23.913H11.3043V26.5217H28.6955V23.913H26.9564Z" fill="#F0F0F0"/>
</g>
<defs>
<clipPath id="clip0_394_5451">
<rect width="40" height="40" fill="white"/>
</clipPath>
</defs>
</svg>
