<svg width="40" height="40" viewBox="0 0 40 40" fill="none" xmlns="http://www.w3.org/2000/svg">
<g clip-path="url(#clip0_394_5440)">
<path d="M19.9997 40C31.0454 40 39.9997 31.0457 39.9997 20C39.9997 8.95431 31.0454 0 19.9997 0C8.954 0 -0.000305176 8.95431 -0.000305176 20C-0.000305176 31.0457 8.954 40 19.9997 40Z" fill="#F0F0F0"/>
<path d="M39.9999 20C39.9999 12.0707 35.3854 5.2195 28.6955 1.9845V38.0154C35.3854 34.7804 39.9999 27.9292 39.9999 20Z" fill="#D80027"/>
<path d="M-3.05176e-05 20C-3.05176e-05 27.9292 4.61442 34.7804 11.3043 38.0154V1.9845C4.61442 5.2195 -3.05176e-05 12.0707 -3.05176e-05 20Z" fill="#D80027"/>
<path d="M23.4782 22.6086L26.9564 20.8695L25.2173 20V18.2608L21.739 20L23.4782 16.5217H21.739L19.9999 13.913L18.2607 16.5217H16.5216L18.2607 20L14.7825 18.2608V20L13.0434 20.8695L16.5216 22.6086L15.6521 24.3478H19.1303V26.9565H20.8694V24.3478H24.3477L23.4782 22.6086Z" fill="#D80027"/>
</g>
<defs>
<clipPath id="clip0_394_5440">
<rect width="40" height="40" fill="white"/>
</clipPath>
</defs>
</svg>
