<svg width="40" height="40" viewBox="0 0 40 40" fill="none" xmlns="http://www.w3.org/2000/svg">
<g clip-path="url(#clip0_394_5423)">
<path d="M20.0003 39.9999C31.046 39.9999 40.0003 31.0456 40.0003 19.9999C40.0003 8.95418 31.046 -0.00012207 20.0003 -0.00012207C8.95458 -0.00012207 0.000274658 8.95418 0.000274658 19.9999C0.000274658 31.0456 8.95458 39.9999 20.0003 39.9999Z" fill="#F0F0F0"/>
<path d="M20.0001 40C26.0619 40 31.4934 37.3028 35.1611 33.0435H4.83905C8.50678 37.3028 13.9383 40 20.0001 40Z" fill="#0052B4"/>
<path d="M40 20C40 8.95437 31.0457 0 20 0C8.9544 0 3.05176e-05 8.95437 3.05176e-05 20C3.05176e-05 21.8052 0.240656 23.5538 0.689015 25.2174H39.3111C39.7594 23.5538 40 21.8052 40 20Z" fill="#0052B4"/>
<path d="M1.58969 27.826C1.97524 28.732 2.42594 29.6032 2.93555 30.4347H37.0646C37.5741 29.6032 38.0248 28.7319 38.4105 27.826H1.58969Z" fill="#D80027"/>
<path d="M14.2963 21.3044L14.6201 22.3008H15.6678L14.8202 22.9166L15.144 23.913L14.2963 23.2972L13.4486 23.913L13.7725 22.9166L12.9249 22.3008H13.9726L14.2963 21.3044Z" fill="#FFDA44"/>
<path d="M14.2963 34.3478L14.6201 35.3443H15.6678L14.8202 35.9601L15.144 36.9565L14.2963 36.3407L13.4486 36.9565L13.7725 35.9601L12.9249 35.3443H13.9726L14.2963 34.3478Z" fill="#FFDA44"/>
<path d="M8.22468 29.9366L8.54843 30.933H9.59616L8.74858 31.5488L9.07233 32.5453L8.22468 31.9295L7.37702 32.5453L7.70093 31.5488L6.85327 30.933H7.90093L8.22468 29.9366Z" fill="#FFDA44"/>
<path d="M10.5438 22.6087L10.8675 23.6052H11.9152L11.0677 24.221L11.3914 25.2175L10.5438 24.6016L9.69613 25.2175L10.02 24.221L9.1723 23.6052H10.22L10.5438 22.6087Z" fill="#FFDA44"/>
<path d="M6.85327 26.7121L7.90077 26.7122L8.2246 25.7155L8.54843 26.7121L9.59616 26.712L8.7485 27.3279L9.07233 28.3243L8.2246 27.7085L7.37702 28.3241L7.70077 27.3278L6.85327 26.7121Z" fill="#FFDA44"/>
<path d="M9.69629 35.4618L10.02 34.4656L9.1723 33.8498H10.22L10.5439 32.8533L10.8677 33.8497H11.9153L11.0677 34.4655L11.3914 35.4621L10.5438 34.8461L9.69629 35.4618Z" fill="#FFDA44"/>
<path d="M20.3656 29.9366L20.0419 30.933H18.9942L19.8417 31.5488L19.5179 32.5453L20.3656 31.9295L21.2132 32.5453L20.8894 31.5488L21.7371 30.933H20.6893L20.3656 29.9366Z" fill="#FFDA44"/>
<path d="M18.0464 22.6087L17.7227 23.6052H16.675L17.5225 24.221L17.1988 25.2175L18.0464 24.6016L18.8941 25.2175L18.5702 24.221L19.4179 23.6052H18.3702L18.0464 22.6087Z" fill="#FFDA44"/>
<path d="M21.7371 26.7121L20.6895 26.7122L20.3657 25.7155L20.0419 26.7121L18.9942 26.712L19.8418 27.3279L19.5179 28.3243L20.3657 27.7085L21.2132 28.3241L20.8895 27.3278L21.7371 26.7121Z" fill="#FFDA44"/>
<path d="M18.8939 35.4618L18.5703 34.4656L19.4179 33.8498H18.3702L18.0464 32.8533L17.7226 33.8497H16.6749L17.5225 34.4655L17.1988 35.4621L18.0464 34.8461L18.8939 35.4618Z" fill="#FFDA44"/>
</g>
<defs>
<clipPath id="clip0_394_5423">
<rect width="40" height="40" fill="white"/>
</clipPath>
</defs>
</svg>
