<svg width="40" height="40" viewBox="0 0 40 40" fill="none" xmlns="http://www.w3.org/2000/svg">
<g clip-path="url(#clip0_394_5419)">
<path d="M20 0C17.5536 0 15.2101 0.440078 13.0435 1.24398L12.1739 20L13.0434 38.756C15.2101 39.56 17.5536 40 20 40C22.4464 40 24.7899 39.56 26.9565 38.756L27.8261 20L26.9566 1.24398C24.7899 0.440078 22.4464 0 20 0V0Z" fill="#FFDA44"/>
<path d="M40 20C40 11.4007 34.5725 4.06982 26.9565 1.24396V38.7561C34.5725 35.9301 40 28.5993 40 20Z" fill="#D80027"/>
<path d="M13.0435 38.756V1.24396C5.42752 4.06982 1.52588e-05 11.4007 1.52588e-05 20C1.52588e-05 28.5993 5.42752 35.9301 13.0435 38.756Z" fill="#0052B4"/>
</g>
<defs>
<clipPath id="clip0_394_5419">
<rect width="40" height="40" fill="white"/>
</clipPath>
</defs>
</svg>
