<svg width="40" height="40" viewBox="0 0 40 40" fill="none" xmlns="http://www.w3.org/2000/svg">
<g clip-path="url(#clip0_394_5414)">
<path d="M20 40.0001C31.0457 40.0001 40 31.0458 40 20.0001C40 8.95443 31.0457 0.00012207 20 0.00012207C8.9543 0.00012207 0 8.95443 0 20.0001C0 31.0458 8.9543 40.0001 20 40.0001Z" fill="#F0F0F0"/>
<path d="M40 20C40 31.0456 31.0456 40 20 40C8.95437 40 0 31.0456 0 20C0 8.95436 20 20 20 20C20 20 35.1376 20 40 20Z" fill="#D80027"/>
<path d="M0 20.0001C0 8.9545 8.95437 0.00012207 20 0.00012207V20.0001C20 20.0001 6.95648 20.0001 0 20.0001Z" fill="#0052B4"/>
<path d="M11.9054 6.95648L13.2004 10.9423H17.3913L14.0008 13.4055L15.2958 17.3913L11.9054 14.928L8.51489 17.3913L9.80989 13.4055L6.41942 10.9423H10.6103L11.9054 6.95648Z" fill="#F0F0F0"/>
</g>
<defs>
<clipPath id="clip0_394_5414">
<rect width="40" height="40" fill="white"/>
</clipPath>
</defs>
</svg>
