<svg width="40" height="40" viewBox="0 0 40 40" fill="none" xmlns="http://www.w3.org/2000/svg">
<g clip-path="url(#clip0_394_5406)">
<path d="M19.9998 40.0001C31.0454 40.0001 39.9998 31.0458 39.9998 20.0001C39.9998 8.95436 31.0454 6.10352e-05 19.9998 6.10352e-05C8.95406 6.10352e-05 -0.000244141 8.95436 -0.000244141 20.0001C-0.000244141 31.0458 8.95406 40.0001 19.9998 40.0001Z" fill="#D80027"/>
<path d="M10.9454 12.1719L12.6719 17.4844H18.2579L13.7422 20.7735L15.4688 26.086L10.9454 22.8047L6.42194 26.086L8.15631 20.7735L3.63287 17.4844H9.21881L10.9454 12.1719Z" fill="#FFDA44"/>
<path d="M23.711 30.9767L22.3907 29.3517L20.4376 30.1095L21.5704 28.3517L20.2501 26.7188L22.2735 27.2579L23.4141 25.5001L23.5235 27.5938L25.5547 28.1329L23.5938 28.8829L23.711 30.9767Z" fill="#FFDA44"/>
<path d="M26.336 26.211L26.961 24.211L25.2501 23.0001L27.3438 22.9688L27.961 20.9688L28.6407 22.9532L30.7344 22.9297L29.0547 24.1797L29.7266 26.1641L28.0157 24.9532L26.336 26.211Z" fill="#FFDA44"/>
<path d="M29.8751 14.6797L28.9532 16.5626L30.4532 18.0235L28.3829 17.7266L27.4611 19.6016L27.1017 17.5391L25.0236 17.2422L26.8829 16.2657L26.5236 14.1954L28.0236 15.6563L29.8751 14.6797Z" fill="#FFDA44"/>
<path d="M23.7658 8.97662L23.6095 11.0626L25.5548 11.8516L23.5158 12.3516L23.3673 14.4454L22.2657 12.6641L20.2267 13.1641L21.5782 11.5626L20.4689 9.78912L22.4142 10.5782L23.7658 8.97662Z" fill="#FFDA44"/>
</g>
<defs>
<clipPath id="clip0_394_5406">
<rect width="40" height="40" fill="white"/>
</clipPath>
</defs>
</svg>
