<svg width="40" height="40" viewBox="0 0 40 40" fill="none" xmlns="http://www.w3.org/2000/svg">
<g clip-path="url(#clip0_394_5390)">
<path d="M20.0001 40.0001C31.0458 40.0001 40.0001 31.0458 40.0001 20.0001C40.0001 8.95443 31.0458 0.00012207 20.0001 0.00012207C8.95437 0.00012207 6.10352e-05 8.95443 6.10352e-05 20.0001C6.10352e-05 31.0458 8.95437 40.0001 20.0001 40.0001Z" fill="#F0F0F0"/>
<path d="M39.9993 19.9421H18.3188C14.0144 24.2467 11.4114 27.5699 8.7536 30.2277L20.058 31.2464L37.5997 29.5073C39.1306 26.6796 40 23.4414 40 20C40 19.9807 39.9993 19.9615 39.9993 19.9421Z" fill="#D80027"/>
<path d="M8.75368 10.3769H37.5359C34.1345 4.19191 27.5571 3.05176e-05 20 3.05176e-05C14.4918 3.05176e-05 9.50461 2.22745 5.88782 5.83003L8.75368 10.3769Z" fill="#FFDA44"/>
<path d="M9.62326 29.5073C7.82529 31.3053 7.13045 32.8117 5.82959 34.1124C9.45107 37.7489 14.4624 40 20.0001 40C27.6044 40 34.2172 35.7559 37.5998 29.5073H9.62326Z" fill="#0052B4"/>
<path d="M5.85785 5.79993C-1.95262 13.6104 -1.95262 26.2738 5.85785 34.0843C9.08543 30.8567 12.1896 27.7526 20 19.9421L5.85785 5.79993Z" fill="#6DA544"/>
<path d="M5.27544 19.9421C5.27544 17.0282 7.32333 14.5939 10.058 13.9968C9.6377 13.905 9.20161 13.8552 8.75364 13.8552C5.39184 13.8552 2.66669 16.5804 2.66669 19.9421C2.66669 23.3039 5.39184 26.0291 8.75364 26.0291C9.20153 26.0291 9.63762 25.9793 10.058 25.8875C7.32333 25.2903 5.27544 22.8561 5.27544 19.9421Z" fill="#F0F0F0"/>
<path d="M9.99087 14.7247L10.3147 15.7211H11.3624L10.5147 16.337L10.8385 17.3334L9.99087 16.7176L9.14321 17.3334L9.46704 16.337L8.61938 15.7211H9.66704L9.99087 14.7247Z" fill="#F0F0F0"/>
<path d="M9.99087 17.3334L10.3147 18.3299H11.3624L10.5147 18.9457L10.8385 19.9422L9.99087 19.3263L9.14321 19.9422L9.46704 18.9457L8.61938 18.3299H9.66704L9.99087 17.3334Z" fill="#F0F0F0"/>
<path d="M9.99087 19.9422L10.3147 20.9386H11.3624L10.5147 21.5545L10.8385 22.5509L9.99087 21.935L9.14321 22.5509L9.46704 21.5545L8.61938 20.9386H9.66704L9.99087 19.9422Z" fill="#F0F0F0"/>
<path d="M9.99087 22.5508L10.3147 23.5472H11.3624L10.5147 24.1631L10.8385 25.1595L9.99087 24.5437L9.14321 25.1595L9.46704 24.1631L8.61938 23.5472H9.66704L9.99087 22.5508Z" fill="#F0F0F0"/>
</g>
<defs>
<clipPath id="clip0_394_5390">
<rect width="40" height="40" fill="white"/>
</clipPath>
</defs>
</svg>
