<svg width="40" height="40" viewBox="0 0 40 40" fill="none" xmlns="http://www.w3.org/2000/svg">
<g clip-path="url(#clip0_394_5384)">
<path d="M20.0003 40.0001C31.046 40.0001 40.0003 31.0458 40.0003 20.0001C40.0003 8.95436 31.046 6.10352e-05 20.0003 6.10352e-05C8.95461 6.10352e-05 0.000305176 8.95436 0.000305176 20.0001C0.000305176 31.0458 8.95461 40.0001 20.0003 40.0001Z" fill="#F0F0F0"/>
<path d="M38.7561 13.0435H1.24405C0.440139 15.2101 6.10352e-05 17.5536 6.10352e-05 20C6.10352e-05 22.4464 0.440139 24.7898 1.24405 26.9565H38.7562C39.5601 24.7898 40.0001 22.4464 40.0001 20C40.0001 17.5536 39.5601 15.2101 38.7561 13.0435Z" fill="#D80027"/>
<path d="M20.0001 3.05176e-05C13.9383 3.05176e-05 8.50678 2.69722 4.83905 6.95651H35.161C31.4933 2.69722 26.0619 3.05176e-05 20.0001 3.05176e-05Z" fill="#0052B4"/>
<path d="M35.1611 33.0435H4.83905C8.50678 37.3028 13.9383 40 20.0001 40C26.0619 40 31.4933 37.3028 35.1611 33.0435Z" fill="#0052B4"/>
</g>
<defs>
<clipPath id="clip0_394_5384">
<rect width="40" height="40" fill="white"/>
</clipPath>
</defs>
</svg>
