<svg width="40" height="40" viewBox="0 0 40 40" fill="none" xmlns="http://www.w3.org/2000/svg">
<g clip-path="url(#clip0_394_5359)">
<path d="M40 20C40 17.5536 39.5599 15.2101 38.756 13.0435L20 12.1739L1.24398 13.0435C0.440078 15.2101 0 17.5536 0 20C0 22.4464 0.440078 24.7899 1.24398 26.9565L20 27.8261L38.756 26.9566C39.5599 24.7899 40 22.4464 40 20Z" fill="#F0F0F0"/>
<path d="M19.9999 40C28.5992 40 35.9301 34.5725 38.7559 26.9565H1.2439C4.06976 34.5725 11.4006 40 19.9999 40Z" fill="#0052B4"/>
<path d="M1.2439 13.0435H38.756C35.9301 5.4275 28.5992 0 19.9999 0C11.4006 0 4.06976 5.4275 1.2439 13.0435Z" fill="#D80027"/>
<path d="M25.2173 13.9132H21.739L22.3188 9.56528L24.6375 7.82614L26.9564 9.56528V13.0436L25.2173 13.9132Z" fill="#338AF3"/>
<path d="M14.7824 13.9132H18.2607L17.6809 9.56528L15.3621 7.82614L13.0433 9.56528V13.0436L14.7824 13.9132Z" fill="#338AF3"/>
<path d="M22.3189 13.9131H17.6811V9.56525L20 7.82611L22.3189 9.56525V13.9131Z" fill="#0052B4"/>
<path d="M13.0434 13.0436V22.6088C13.0434 24.8863 14.1436 26.9118 15.8404 28.1816L17.0578 27.877L18.5941 29.4224C19.0484 29.516 19.5185 29.5653 20 29.5653C20.4789 29.5653 20.9466 29.5167 21.3985 29.424L23.1521 27.9638L24.1593 28.1788C25.8555 26.9091 26.9564 24.8857 26.9564 22.6088V13.0436H13.0434Z" fill="#F0F0F0"/>
<path d="M13.0433 13.0435H15.8259V15.8261H13.0433V13.0435Z" fill="#D80027"/>
<path d="M18.6085 13.0435H21.391V15.8261H18.6085V13.0435Z" fill="#D80027"/>
<path d="M24.1737 13.0435H26.9563V15.8261H24.1737V13.0435Z" fill="#D80027"/>
<path d="M15.8259 15.8261H18.6085V18.6087H15.8259V15.8261Z" fill="#D80027"/>
<path d="M21.3912 15.8261H24.1738V18.6087H21.3912V15.8261Z" fill="#D80027"/>
<path d="M13.0433 18.6079H15.8259V21.3905H13.0433V18.6079Z" fill="#D80027"/>
<path d="M15.8259 21.3905H18.6085V24.1731H15.8259V21.3905Z" fill="#D80027"/>
<path d="M18.6085 18.6079H21.391V21.3905H18.6085V18.6079Z" fill="#D80027"/>
<path d="M24.1737 18.6079H26.9563V21.3905H24.1737V18.6079Z" fill="#D80027"/>
<path d="M21.3912 21.3905H24.1738V24.1731H21.3912V21.3905Z" fill="#D80027"/>
<path d="M18.6085 24.1731H21.391V26.9557H18.6085V24.1731Z" fill="#D80027"/>
<path d="M15.8259 24.1733H13.2228C13.4616 25.2077 13.931 26.1542 14.5746 26.9559H15.8259V24.1733Z" fill="#D80027"/>
<path d="M24.1737 26.9559H25.425C26.0687 26.1542 26.5379 25.2077 26.7767 24.1734H24.1737V26.9559Z" fill="#D80027"/>
<path d="M15.8259 26.956V28.1701C16.6352 28.7791 17.581 29.2158 18.6085 29.4253V26.956H15.8259Z" fill="#D80027"/>
<path d="M21.3912 26.956V29.4253C22.4188 29.2159 23.3645 28.7791 24.1738 28.1701V26.956H21.3912Z" fill="#D80027"/>
</g>
<defs>
<clipPath id="clip0_394_5359">
<rect width="40" height="40" fill="white"/>
</clipPath>
</defs>
</svg>
