<svg width="40" height="40" viewBox="0 0 40 40" fill="none" xmlns="http://www.w3.org/2000/svg">
<g clip-path="url(#clip0_394_5350)">
<path d="M7.8125e-05 3.4783H0V36.5217H7.8125e-05V20.0001V3.4783Z" fill="#FF9811"/>
<path d="M19.9999 39.9999C31.0456 39.9999 39.9998 31.0457 39.9998 20C39.9998 8.95436 31.0456 9.15527e-05 19.9999 9.15527e-05C8.95427 9.15527e-05 0 8.95436 0 20C0 31.0457 8.95427 39.9999 19.9999 39.9999Z" fill="#F0F0F0"/>
<path d="M20.0001 0.00012207C13.4569 0.00012207 7.64803 3.14254 3.99921 8.00012H36.0008C32.3521 3.14247 26.5431 0.00012207 20.0001 0.00012207Z" fill="#0052B4"/>
<path d="M20.0001 39.9999C26.5432 39.9999 32.3521 36.8575 36.0009 31.9999H3.99921C7.64796 36.8576 13.4569 39.9999 20.0001 39.9999Z" fill="#0052B4"/>
<path d="M6.10352e-05 20.0001C6.10352e-05 21.37 0.138186 22.7076 0.400608 24.0001H39.5996C39.862 22.7076 40.0001 21.37 40.0001 20.0001C40.0001 18.6301 39.8619 17.2925 39.5996 16.0001H0.400608C0.138186 17.2925 6.10352e-05 18.6301 6.10352e-05 20.0001Z" fill="#0052B4"/>
<path d="M5.85785 5.85797C-1.95254 13.6684 -1.95254 26.3317 5.85785 34.1423C9.08543 30.9147 12.1895 27.8106 20 20.0002L5.85785 5.85797Z" fill="#D80027"/>
<path d="M8.09456 14.7827L9.38941 18.7683H13.5805L10.1901 21.2317L11.485 25.2174L8.09456 22.7541L4.70402 25.2174L5.99917 21.2317L2.6087 18.7683H6.79949L8.09456 14.7827Z" fill="#F0F0F0"/>
</g>
<defs>
<clipPath id="clip0_394_5350">
<rect width="40" height="40" fill="white"/>
</clipPath>
</defs>
</svg>
