<svg width="40" height="40" viewBox="0 0 40 40" fill="none" xmlns="http://www.w3.org/2000/svg">
<g clip-path="url(#clip0_394_5342)">
<path d="M19.9997 40.0001C31.0454 40.0001 39.9997 31.0458 39.9997 20.0001C39.9997 8.95437 31.0454 6.10352e-05 19.9997 6.10352e-05C8.954 6.10352e-05 -0.000305176 8.95437 -0.000305176 20.0001C-0.000305176 31.0458 8.954 40.0001 19.9997 40.0001Z" fill="#F0F0F0"/>
<path d="M18.2608 20C18.2608 20 5.86951 34.1449 5.85779 34.1421C9.47701 37.7614 14.4771 40 20 40C31.0456 40 40 31.0456 40 20H18.2608Z" fill="#D80027"/>
<path d="M5.85782 5.85785C-1.95265 13.6683 -1.95265 26.3317 5.85782 34.1422C9.0854 30.9146 12.1895 27.8105 20 20L5.85782 5.85785Z" fill="#0052B4"/>
</g>
<defs>
<clipPath id="clip0_394_5342">
<rect width="40" height="40" fill="white"/>
</clipPath>
</defs>
</svg>
