<svg width="40" height="40" viewBox="0 0 40 40" fill="none" xmlns="http://www.w3.org/2000/svg">
<g clip-path="url(#clip0_394_5335)">
<path d="M20 40C31.0457 40 40 31.0457 40 20C40 8.9543 31.0457 0 20 0C8.9543 0 0 8.9543 0 20C0 31.0457 8.9543 40 20 40Z" fill="#F0F0F0"/>
<path d="M15.6523 17.3914H39.8308C38.5524 7.57834 30.1615 6.10352e-05 20.0001 6.10352e-05C18.5067 6.10352e-05 17.0523 0.165139 15.6523 0.475452V17.3914H15.6523Z" fill="#D80027"/>
<path d="M10.4348 17.3912V2.43179C4.9432 5.4282 1.01179 10.9244 0.169373 17.3913H10.4348V17.3912Z" fill="#D80027"/>
<path d="M10.4348 22.6087H0.169373C1.01179 29.0757 4.9432 34.5719 10.4348 37.5682L10.4348 22.6087Z" fill="#D80027"/>
<path d="M15.6523 22.6088V39.5247C17.0523 39.835 18.5067 40.0001 20.0001 40.0001C30.1615 40.0001 38.5524 32.4218 39.8308 22.6087H15.6523V22.6088Z" fill="#D80027"/>
</g>
<defs>
<clipPath id="clip0_394_5335">
<rect width="40" height="40" fill="white"/>
</clipPath>
</defs>
</svg>
