<svg width="40" height="40" viewBox="0 0 40 40" fill="none" xmlns="http://www.w3.org/2000/svg">
<g clip-path="url(#clip0_394_5291)">
<path d="M19.9998 40.0001C31.0455 40.0001 39.9998 31.0458 39.9998 20.0001C39.9998 8.95437 31.0455 6.10352e-05 19.9998 6.10352e-05C8.95411 6.10352e-05 -0.000198364 8.95437 -0.000198364 20.0001C-0.000198364 31.0458 8.95411 40.0001 19.9998 40.0001Z" fill="#F0F0F0"/>
<path d="M0.688843 25.2174C2.53556 32.0692 7.93064 37.4644 14.7825 39.3111V25.2174H0.688843Z" fill="#D80027"/>
<path d="M14.7824 0.688995C7.93064 2.53564 2.53548 7.93079 0.688843 14.7826H14.7825V0.688995H14.7824Z" fill="#0052B4"/>
<path d="M39.311 14.7826C37.4644 7.93079 32.0692 2.53564 25.2174 0.688995V14.7827H39.311V14.7826Z" fill="#D80027"/>
<path d="M25.2174 39.311C32.0692 37.4643 37.4644 32.0693 39.3111 25.2174H25.2174V39.311Z" fill="#0052B4"/>
<path d="M25.2174 20C25.2174 22.8816 22.8815 25.2174 19.9999 25.2174C17.1185 25.2174 14.7825 22.8816 14.7825 20C14.7825 17.1185 19.9999 14.7826 19.9999 14.7826C19.9999 14.7826 25.2174 17.1185 25.2174 20Z" fill="#496E2D"/>
<path d="M14.7825 20C14.7825 17.1185 17.1185 14.7826 19.9999 14.7826C22.8815 14.7826 25.2174 17.1185 25.2174 20" fill="#0052B4"/>
<path d="M17.0652 17.3913V20.6522C17.0652 22.273 18.3791 23.587 19.9999 23.587C21.6208 23.587 22.9347 22.273 22.9347 20.6522V17.3913H17.0652Z" fill="#D80027"/>
</g>
<defs>
<clipPath id="clip0_394_5291">
<rect width="40" height="40" fill="white"/>
</clipPath>
</defs>
</svg>
