<svg width="40" height="40" viewBox="0 0 40 40" fill="none" xmlns="http://www.w3.org/2000/svg">
<g clip-path="url(#clip0_394_5300)">
<path d="M20 39.9999C31.0457 39.9999 40 31.0456 40 19.9999C40 8.95424 31.0457 -6.10352e-05 20 -6.10352e-05C8.9543 -6.10352e-05 0 8.95424 0 19.9999C0 31.0456 8.9543 39.9999 20 39.9999Z" fill="#F0F0F0"/>
<path d="M23.913 39.6161C31.8195 38.0477 38.0477 31.8194 39.6161 23.913H23.913V39.6161Z" fill="#496E2D"/>
<path d="M0.383759 23.913C1.95212 31.8194 8.1804 38.0477 16.0869 39.6161V23.913H0.383759Z" fill="#496E2D"/>
<path d="M39.6161 16.0869C38.0477 8.18048 31.8195 1.9522 23.913 0.383759V16.0869H39.6161Z" fill="#496E2D"/>
<path d="M16.0869 0.383789C8.18043 1.95223 1.95215 8.18051 0.383789 16.0869H16.0869V0.383789Z" fill="#496E2D"/>
<path d="M18.6958 23.913H16.0871V39.6161C16.9384 39.7849 17.8093 39.8993 18.6958 39.9564V23.913Z" fill="#FFDA44"/>
<path d="M18.6958 16.0869V0.043457C17.8093 0.100488 16.9383 0.214941 16.0871 0.383769V16.0869H18.6958Z" fill="#FFDA44"/>
<path d="M21.3044 0.0434851C20.873 0.0155945 20.4384 -3.05176e-05 20 -3.05176e-05C19.5616 -3.05176e-05 19.127 0.0155945 18.6956 0.0434851V16.087H21.3043V0.0434851H21.3044Z" fill="black"/>
<path d="M18.6956 39.9565C19.127 39.9844 19.5616 40 20 40C20.4384 40 20.873 39.9844 21.3044 39.9565V23.913H18.6957V39.9565H18.6956Z" fill="black"/>
<path d="M16.087 18.6956V16.0869H0.383846C0.21494 16.9383 0.100565 17.8091 0.0435333 18.6956H16.087Z" fill="#FFDA44"/>
<path d="M23.913 18.6956H39.9565C39.8995 17.8091 39.785 16.9383 39.6162 16.0869H23.9131V18.6956H23.913Z" fill="#FFDA44"/>
<path d="M23.9131 21.3043H39.9566C39.9844 20.873 40 20.4383 40 19.9999C40 19.5616 39.9844 19.1269 39.9565 18.6956H23.9131V21.3043Z" fill="black"/>
<path d="M0.0435309 18.6956C0.0157184 19.1269 1.52588e-05 19.5616 1.52588e-05 19.9999C1.52588e-05 20.4383 0.0157184 20.873 0.0435309 21.3043H16.087V18.6956H0.0435309V18.6956Z" fill="black"/>
<path d="M20 29.5652C25.2827 29.5652 29.5652 25.2827 29.5652 20C29.5652 14.7172 25.2827 10.4347 20 10.4347C14.7173 10.4347 10.4348 14.7172 10.4348 20C10.4348 25.2827 14.7173 29.5652 20 29.5652Z" fill="#D80027"/>
<path d="M22.1793 21.0672C21.4678 19.6443 20.5431 18.2021 20.5431 18.2021C20.5431 18.2021 20.566 17.5455 20.566 17.1542C20.566 16.5648 20.0882 16.087 19.4988 16.087C18.9405 16.087 18.483 16.516 18.4363 17.0622C17.9973 17.0909 17.6499 17.4551 17.6499 17.9013C17.6499 18.2258 17.8337 18.507 18.1027 18.6475C18.2365 18.3347 18.4984 18.0905 18.8223 17.9791C18.8751 18.0223 18.9318 18.0609 18.9924 18.0937L19.1291 18.1591C19.1291 18.1591 18.6221 19.5881 18.6221 20.3558C18.6221 22.5139 20.0451 23.1795 20.0451 23.1795V23.2017L19.3336 23.9131H20.7565V22.4902L21.468 23.2016C21.4742 23.1883 22.8156 22.3399 22.1793 21.0672Z" fill="#496E2D"/>
<path d="M20 12.1739L20.3238 13.1703H21.3714L20.5238 13.7861L20.8477 14.7825L20 14.1667L19.1524 14.7825L19.4762 13.7861L18.6286 13.1703H19.6763L20 12.1739Z" fill="#496E2D"/>
<path d="M15.4 13.6686L16.2475 14.2844L17.0952 13.6685L16.7714 14.665L17.6191 15.2808L16.5714 15.2808L16.2476 16.2772L15.9238 15.2808L14.8761 15.2808L15.7237 14.6649L15.4 13.6686Z" fill="#496E2D"/>
<path d="M12.557 17.5816H13.6046L13.9284 16.5852L14.2521 17.5816L15.2999 17.5816L14.4523 18.1975L14.7761 19.1939L13.9284 18.578L13.0808 19.1938L13.4045 18.1974L12.557 17.5816Z" fill="#496E2D"/>
<path d="M12.557 22.4183L13.4045 21.8026L13.0807 20.8061L13.9284 21.422L14.776 20.8061L14.4523 21.8025L15.2999 22.4184L14.2521 22.4185L13.9284 23.4148L13.6046 22.4183H12.557Z" fill="#496E2D"/>
<path d="M15.4 26.3314L15.7237 25.3352L14.876 24.7193H15.9237L16.2476 23.7228L16.5713 24.7192H17.6191L16.7714 25.3352L17.0951 26.3315L16.2475 25.7156L15.4 26.3314Z" fill="#496E2D"/>
<path d="M20 27.8261L19.6763 26.8298H18.6286L19.4762 26.2139L19.1524 25.2175L20 25.8332L20.8476 25.2174L20.5238 26.2139L21.3714 26.8298L20.3238 26.8298L20 27.8261Z" fill="#496E2D"/>
<path d="M24.6 26.3314L23.7525 25.7156L22.9049 26.3316L23.2286 25.3352L22.3809 24.7193L23.4287 24.7192L23.7523 23.7228L24.0762 24.7193H25.1239L24.2763 25.3352L24.6 26.3314Z" fill="#496E2D"/>
<path d="M27.4431 22.4184H26.3955L26.0717 23.4149L25.7479 22.4185H24.7001L25.5477 21.8026L25.2239 20.8063L26.0717 21.4221L26.9192 20.8063L26.5956 21.8027L27.4431 22.4184Z" fill="#496E2D"/>
<path d="M27.4431 17.5816L26.5956 18.1974L26.9192 19.1938L26.0717 18.578L25.224 19.194L25.5477 18.1975L24.7001 17.5817L25.7479 17.5815L26.0716 16.5853L26.3955 17.5816H27.4431Z" fill="#496E2D"/>
<path d="M24.6 13.6685L24.2763 14.6649L25.1239 15.2807H24.0762L23.7525 16.2772L23.4287 15.2808L22.3809 15.2809L23.2286 14.6649L22.9048 13.6686L23.7525 14.2843L24.6 13.6685Z" fill="#496E2D"/>
</g>
<defs>
<clipPath id="clip0_394_5300">
<rect width="40" height="40" fill="white"/>
</clipPath>
</defs>
</svg>
