<svg width="40" height="40" viewBox="0 0 40 40" fill="none" xmlns="http://www.w3.org/2000/svg">
<g clip-path="url(#clip0_394_5279)">
<path d="M19.9998 39.9999C31.0454 39.9999 39.9998 31.0456 39.9998 19.9999C39.9998 8.95418 31.0454 -0.00012207 19.9998 -0.00012207C8.95406 -0.00012207 -0.000244141 8.95418 -0.000244141 19.9999C-0.000244141 31.0456 8.95406 39.9999 19.9998 39.9999Z" fill="#F0F0F0"/>
<path d="M19.9999 -3.05176e-05C11.4006 -3.05176e-05 4.06976 5.42747 1.2439 13.0435H38.756C35.9301 5.42747 28.5992 -3.05176e-05 19.9999 -3.05176e-05Z" fill="#D80027"/>
<path d="M19.9999 39.9999C28.5992 39.9999 35.9301 34.5724 38.7559 26.9564H1.2439C4.06976 34.5724 11.4006 39.9999 19.9999 39.9999Z" fill="black"/>
<path d="M26.9564 17.826H21.739C21.739 16.8655 20.9603 16.0869 19.9998 16.0869C19.0394 16.0869 18.2607 16.8655 18.2607 17.826H13.0433C13.0433 18.7865 13.8799 19.5651 14.8404 19.5651H14.7824C14.7824 20.5257 15.561 21.3043 16.5216 21.3043C16.5216 22.2648 17.3001 23.0434 18.2607 23.0434H21.739C22.6995 23.0434 23.4781 22.2648 23.4781 21.3043C24.4387 21.3043 25.2173 20.5257 25.2173 19.5651H25.1594C26.1198 19.5651 26.9564 18.7865 26.9564 17.826Z" fill="#FF9811"/>
</g>
<defs>
<clipPath id="clip0_394_5279">
<rect width="40" height="40" fill="white"/>
</clipPath>
</defs>
</svg>
