<svg width="40" height="40" viewBox="0 0 40 40" fill="none" xmlns="http://www.w3.org/2000/svg">
<g clip-path="url(#clip0_394_5271)">
<path d="M20 39.9999C31.0457 39.9999 40 31.0456 40 19.9999C40 8.95418 31.0457 -0.00012207 20 -0.00012207C8.9543 -0.00012207 0 8.95418 0 19.9999C0 31.0456 8.9543 39.9999 20 39.9999Z" fill="#F0F0F0"/>
<path d="M20 -9.15527e-05C12.0708 -9.15527e-05 5.21956 4.61436 1.98456 11.3043H38.0154C34.7805 4.61436 27.9292 -9.15527e-05 20 -9.15527e-05Z" fill="#0052B4"/>
<path d="M20 39.9998C27.9292 39.9998 34.7805 35.3854 38.0155 28.6955H1.98456C5.21956 35.3854 12.0708 39.9998 20 39.9998Z" fill="#0052B4"/>
<path d="M15.9836 20.8694L20 13.9129L24.0165 20.8694H15.9836Z" fill="#FFDA44"/>
<path d="M25.2174 23.1664L20 25.7751L14.7826 23.1664V19.6882H25.2174V23.1664Z" fill="#6DA544"/>
<path d="M24.919 14.2114L23.0744 16.056C23.8612 16.8428 24.3479 17.9298 24.3479 19.1304C24.3479 21.5316 22.4013 23.4782 20.0001 23.4782C17.599 23.4782 15.6523 21.5316 15.6523 19.1304C15.6523 17.9298 16.139 16.8428 16.9258 16.056L15.0812 14.2114C13.8222 15.4701 13.0436 17.2093 13.0436 19.1304C13.0436 22.9724 16.1582 26.0869 20.0001 26.0869C23.8421 26.0869 26.9566 22.9723 26.9566 19.1304C26.9565 17.2093 26.1779 15.4701 24.919 14.2114Z" fill="#FFDA44"/>
</g>
<defs>
<clipPath id="clip0_394_5271">
<rect width="40" height="40" fill="white"/>
</clipPath>
</defs>
</svg>
