<svg width="40" height="40" viewBox="0 0 40 40" fill="none" xmlns="http://www.w3.org/2000/svg">
<g clip-path="url(#clip0_394_5263)">
<path d="M20.0004 39.9999C31.0461 39.9999 40.0004 31.0456 40.0004 19.9999C40.0004 8.95418 31.0461 -0.00012207 20.0004 -0.00012207C8.95473 -0.00012207 0.000427246 8.95418 0.000427246 19.9999C0.000427246 31.0456 8.95473 39.9999 20.0004 39.9999Z" fill="#F0F0F0"/>
<path d="M12.1739 13.0435H38.7559C35.9302 5.42747 28.5992 -3.05176e-05 20 -3.05176e-05C14.477 -3.05176e-05 9.47758 2.23895 5.85852 5.85848L12.1739 13.0435Z" fill="#6DA544"/>
<path d="M12.1739 26.9564H38.7559C35.9302 34.5724 28.5992 39.9999 20 39.9999C14.477 39.9999 9.47758 37.761 5.85852 34.1414L12.1739 26.9564Z" fill="#D80027"/>
<path d="M5.85791 5.85776C-1.95256 13.6682 -1.95256 26.3316 5.85791 34.1421C9.08549 30.9146 12.1896 27.8104 20.0001 19.9999L5.85791 5.85776Z" fill="#0052B4"/>
<path d="M23.4783 16.5216V20.8694C23.4783 23.5319 26.9566 24.3478 26.9566 24.3478C26.9566 24.3478 30.4348 23.5319 30.4348 20.8694V16.5216H23.4783Z" fill="#DEDDE0"/>
<path d="M26.087 20.0869H27.8262V22.6086H26.087V20.0869Z" fill="#786145"/>
<path d="M28.6957 19.1304C28.6957 18.1699 27.9171 17.3913 26.9566 17.3913C25.996 17.3913 25.2174 18.1699 25.2174 19.1304C24.7372 19.1304 24.3479 19.5197 24.3479 19.9999C24.3479 20.4802 24.7372 20.8695 25.2174 20.8695H28.6957C29.1759 20.8695 29.5652 20.4802 29.5652 19.9999C29.5652 19.5197 29.176 19.1304 28.6957 19.1304Z" fill="#6DA544"/>
</g>
<defs>
<clipPath id="clip0_394_5263">
<rect width="40" height="40" fill="white"/>
</clipPath>
</defs>
</svg>
