<svg width="40" height="40" viewBox="0 0 40 40" fill="none" xmlns="http://www.w3.org/2000/svg">
<g clip-path="url(#clip0_394_5258)">
<path d="M18.2609 18.2607C18.2609 18.2607 5.86957 34.1449 5.85785 34.142C9.47707 37.7613 14.4771 39.9999 20 39.9999C31.0457 39.9999 40 31.0455 40 19.9999L18.2609 18.2607Z" fill="#338AF3"/>
<path d="M18.2609 20C18.2609 20 5.86957 5.85505 5.85785 5.85786C9.47707 2.23856 14.4771 -3.05176e-05 20 -3.05176e-05C31.0457 -3.05176e-05 40 8.95434 40 20H18.2609Z" fill="#6DA544"/>
<path d="M5.85785 5.85776C-1.95262 13.6682 -1.95262 26.3316 5.85785 34.1421C5.8573 34.1453 40 19.9999 40 19.9999L5.85785 5.85776Z" fill="#D80027"/>
<path d="M10.4348 11.7391C6.59896 11.7391 3.47833 14.8598 3.47833 18.6956V21.3043C3.47833 25.1402 6.59904 28.2608 10.4348 28.2608C14.2706 28.2608 17.3913 25.1401 17.3913 21.3043V18.6956C17.3914 14.8598 14.2707 11.7391 10.4348 11.7391ZM14.7826 21.3044C14.7826 23.2475 13.5012 24.8966 11.7391 25.452V22.6087L13.5847 20.7631L11.7401 18.9185L11.7391 18.262V17.3914H9.13052V20L7.28615 21.8443L9.13052 23.6886V25.4521C7.36841 24.8967 6.087 23.2476 6.087 21.3044V18.6958C6.087 16.2984 8.03747 14.348 10.4348 14.348C12.8322 14.348 14.7826 16.2984 14.7826 18.6958V21.3044Z" fill="#FFDA44"/>
</g>
<defs>
<clipPath id="clip0_394_5258">
<rect width="40" height="40" fill="white"/>
</clipPath>
</defs>
</svg>
