<svg width="40" height="40" viewBox="0 0 40 40" fill="none" xmlns="http://www.w3.org/2000/svg">
<g clip-path="url(#clip0_394_5246)">
<path d="M0 20C0 22.4466 0.440078 24.79 1.24406 26.9568L20 28.6957L38.7559 26.9567C39.56 24.79 40 22.4465 40 20C40 17.5871 39.5726 15.2741 38.7895 13.1325L20 11.3044L1.21047 13.1325C0.427422 15.2741 0 17.5871 0 20H0Z" fill="#FFDA44"/>
<path d="M20 40C28.5993 40 35.9302 34.5725 38.756 26.9565H1.24399C4.06985 34.5725 11.4007 40 20 40Z" fill="#D80027"/>
<path d="M20 6.10352e-05C11.4007 6.10352e-05 4.06985 5.42756 1.24399 13.0436H38.7561C35.9302 5.42756 28.5993 6.10352e-05 20 6.10352e-05Z" fill="#6DA544"/>
<path d="M20 29.5653C25.2828 29.5653 29.5653 25.2828 29.5653 20C29.5653 14.7173 25.2828 10.4348 20 10.4348C14.7173 10.4348 10.4348 14.7173 10.4348 20C10.4348 25.2828 14.7173 29.5653 20 29.5653Z" fill="#0052B4"/>
<path d="M19.998 12.5929L21.7248 17.9071H27.3214L22.7919 21.1916L24.5322 26.5216L19.998 23.2215L15.4709 26.5155L17.2041 21.1916L12.6787 17.9071H18.2713L19.998 12.5929Z" fill="#FFDA44"/>
<path d="M26.8848 21.3226L21.4069 19.5426L24.7923 14.8832L23.3855 13.8608L19.9999 18.5205L16.6147 13.8609L15.2077 14.8831L18.593 19.5429L13.1154 21.3225L13.6527 22.9766L19.1305 21.1969V26.9564H20.8696V21.1968L26.3472 22.9766L26.8848 21.3226Z" fill="#FFDA44"/>
</g>
<defs>
<clipPath id="clip0_394_5246">
<rect width="40" height="40" fill="white"/>
</clipPath>
</defs>
</svg>
