<svg width="40" height="40" viewBox="0 0 40 40" fill="none" xmlns="http://www.w3.org/2000/svg">
<g clip-path="url(#clip0_394_5232)">
<path d="M39.9998 20.0001C39.9998 31.0457 31.0454 40.0001 19.9998 40.0001C8.95413 40.0001 -0.000244141 31.0457 -0.000244141 20.0001C-0.000244141 20.0049 19.9998 0.00230957 19.9998 0.00012207C31.0454 0.00012207 39.9998 8.9545 39.9998 20.0001Z" fill="#338AF3"/>
<path d="M19.9998 9.5654V16.3109L13.0433 9.5654H19.9998Z" fill="#0052B4"/>
<path d="M10.4347 20.0002H16.3106L10.4347 12.1741L9.56512 18.2611L10.4347 20.0002Z" fill="#0052B4"/>
<path d="M19.9463 20.0001H19.9998C19.9998 19.9821 19.9998 19.9646 19.9998 19.9466C19.982 19.9645 19.9642 19.9823 19.9463 20.0001Z" fill="#F0F0F0"/>
<path d="M19.9998 10.4349C19.9998 6.91572 19.9998 4.60986 19.9998 9.15527e-05H19.9965C8.95232 0.00196655 -0.000183105 8.95548 -0.000183105 20.0001H10.4346V14.1242L16.3105 20.0001H19.9465C19.9643 19.9823 19.9821 19.9645 20 19.9466C20 18.5992 20 17.3969 20 16.3109L14.1239 10.4349H19.9998Z" fill="#F0F0F0"/>
<path d="M10.1183 2.6087C6.99025 4.38988 4.38978 6.99034 2.60861 10.1184V20H7.82603V7.82628V7.82613H19.9999C19.9999 6.18058 19.9999 4.61292 19.9999 2.6087H10.1183Z" fill="#D80027"/>
<path d="M19.9999 17.5406L12.8942 10.4349H10.4348V10.435L19.9998 20H19.9999C19.9999 20 19.9999 18.3042 19.9999 17.5406Z" fill="#D80027"/>
<path d="M22.6085 13.0436V20C22.6085 24.6593 28.6955 26.087 28.6955 26.087C28.6955 26.087 34.7824 24.6593 34.7824 20V13.0436L28.6955 11.3044L22.6085 13.0436Z" fill="#F3F3F3"/>
<path d="M34.7824 13.0436V10.4349H22.6085V13.0436H27.8258V18.2611H22.6085V20.0001V20.0003L27.8258 20.0003V25.8204C28.3506 26.006 28.6955 26.0871 28.6955 26.0871C28.6955 26.0871 29.0402 26.0062 29.5649 25.8204V20.0003H34.7824V20.0001V18.261H29.5649V13.0435H34.7824V13.0436Z" fill="#D80027"/>
</g>
<defs>
<clipPath id="clip0_394_5232">
<rect width="40" height="40" fill="white"/>
</clipPath>
</defs>
</svg>
