<svg width="40" height="40" viewBox="0 0 40 40" fill="none" xmlns="http://www.w3.org/2000/svg">
<g clip-path="url(#clip0_394_5225)">
<path d="M19.9997 40.0001C31.0454 40.0001 39.9997 31.0458 39.9997 20.0001C39.9997 8.95443 31.0454 0.00012207 19.9997 0.00012207C8.95402 0.00012207 -0.000289917 8.95443 -0.000289917 20.0001C-0.000289917 31.0458 8.95402 40.0001 19.9997 40.0001Z" fill="#F0F0F0"/>
<path d="M39.9999 20C39.9999 11.4007 34.5724 4.06988 26.9564 1.24402V38.7561C34.5724 35.9302 39.9999 28.5993 39.9999 20Z" fill="#D80027"/>
<path d="M-3.05176e-05 20C-3.05176e-05 28.5993 5.42755 35.9302 13.0435 38.7561V1.24402C5.42755 4.06988 -3.05176e-05 11.4007 -3.05176e-05 20Z" fill="#0052B4"/>
</g>
<defs>
<clipPath id="clip0_394_5225">
<rect width="40" height="40" fill="white"/>
</clipPath>
</defs>
</svg>
