<svg width="40" height="40" viewBox="0 0 40 40" fill="none" xmlns="http://www.w3.org/2000/svg">
<g clip-path="url(#clip0_394_5221)">
<path d="M38.756 26.9565C39.56 24.79 40 22.4464 40 20C40 17.5536 39.56 15.2103 38.756 13.0436L20 11.3044L1.244 13.0436C0.440093 15.2103 1.52588e-05 17.5536 1.52588e-05 20C1.52588e-05 22.4464 0.440093 24.79 1.244 26.9565L20 28.6957L38.756 26.9565Z" fill="#FFDA44"/>
<path d="M20.0001 40C28.5993 40 35.9302 34.5725 38.756 26.9565H1.24399C4.06993 34.5725 11.4007 40 20.0001 40Z" fill="#0052B4"/>
<path d="M20.0001 3.05176e-05C11.4007 3.05176e-05 4.06993 5.42753 1.24399 13.0435H38.7561C35.9302 5.42753 28.5993 3.05176e-05 20.0001 3.05176e-05Z" fill="#6DA544"/>
</g>
<defs>
<clipPath id="clip0_394_5221">
<rect width="40" height="40" fill="white"/>
</clipPath>
</defs>
</svg>
