<svg width="40" height="40" viewBox="0 0 40 40" fill="none" xmlns="http://www.w3.org/2000/svg">
<g clip-path="url(#clip0_394_5216)">
<path d="M20 40C31.0457 40 40 31.0457 40 20C40 8.95434 31.0457 3.05176e-05 20 3.05176e-05C8.95434 3.05176e-05 3.8147e-05 8.95434 3.8147e-05 20C3.8147e-05 31.0457 8.95434 40 20 40Z" fill="#F0F0F0"/>
<path d="M20 0C11.7316 0 4.63571 5.01766 1.58969 12.1739H38.4104C35.3644 5.01766 28.2684 0 20 0Z" fill="#A2001D"/>
<path d="M20 40C28.2684 40 35.3644 34.9823 38.4103 27.8261H1.58969C4.63571 34.9823 11.7316 40 20 40Z" fill="#496E2D"/>
<path d="M39.311 14.7826H0.689C0.24064 16.4461 1.52588e-05 18.1948 1.52588e-05 20C1.52588e-05 21.8052 0.24064 23.5539 0.689 25.2174H39.3111C39.7594 23.5539 40 21.8052 40 20C40 18.1948 39.7594 16.4461 39.311 14.7826Z" fill="#0052B4"/>
</g>
<defs>
<clipPath id="clip0_394_5216">
<rect width="40" height="40" fill="white"/>
</clipPath>
</defs>
</svg>
