<svg width="40" height="40" viewBox="0 0 40 40" fill="none" xmlns="http://www.w3.org/2000/svg">
<g clip-path="url(#clip0_394_5208)">
<path d="M19.9998 40.0001C31.0455 40.0001 39.9998 31.0458 39.9998 20.0001C39.9998 8.95443 31.0455 0.00012207 19.9998 0.00012207C8.95412 0.00012207 -0.000183105 8.95443 -0.000183105 20.0001C-0.000183105 31.0458 8.95412 40.0001 19.9998 40.0001Z" fill="#F0F0F0"/>
<path d="M39.8306 17.3914H22.6088H22.6087V0.169388C21.7547 0.0582166 20.8841 9.15527e-05 19.9999 9.15527e-05C19.1158 9.15527e-05 18.2452 0.0582166 17.3913 0.169388V17.3913V17.3913H0.169236C0.058064 18.2453 -6.10352e-05 19.1159 -6.10352e-05 20.0001C-6.10352e-05 20.8844 0.058064 21.7549 0.169236 22.6088H17.3911H17.3912V39.8308C18.2452 39.942 19.1158 40.0001 19.9999 40.0001C20.8841 40.0001 21.7547 39.942 22.6086 39.8308V22.6089V22.6088H39.8306C39.9418 21.7549 39.9999 20.8844 39.9999 20.0001C39.9999 19.1159 39.9418 18.2453 39.8306 17.3914Z" fill="#D80027"/>
<path d="M12.1737 9.56538V6.95663H9.56499V9.56538H6.95624V12.1741H9.56499V14.7827H12.1737V12.1741H14.7823V9.56538H12.1737Z" fill="#D80027"/>
<path d="M30.4346 9.56538V6.95663H27.826V9.56538H25.2173V12.1741H27.826V14.7827H30.4346V12.1741H33.0434V9.56538H30.4346Z" fill="#D80027"/>
<path d="M12.1737 27.8263V25.2176H9.56499V27.8263H6.95624V30.4349H9.56499V33.0437H12.1737V30.4349H14.7823V27.8263H12.1737Z" fill="#D80027"/>
<path d="M30.4346 27.8263V25.2176H27.826V27.8263H25.2173V30.4349H27.826V33.0437H30.4346V30.4349H33.0434V27.8263H30.4346Z" fill="#D80027"/>
</g>
<defs>
<clipPath id="clip0_394_5208">
<rect width="40" height="40" fill="white"/>
</clipPath>
</defs>
</svg>
