<svg width="40" height="40" viewBox="0 0 40 40" fill="none" xmlns="http://www.w3.org/2000/svg">
<g clip-path="url(#clip0_394_5199)">
<path d="M0 19.9999C0 22.4463 0.440078 24.7898 1.24398 26.9564L20 27.826L38.756 26.9565C39.56 24.7898 40 22.4463 40 19.9999C40 17.5535 39.56 15.2101 38.756 13.0434L20 12.1738L1.24398 13.0434C0.440078 15.2101 0 17.5535 0 19.9999H0Z" fill="#FFDA44"/>
<path d="M20 -3.05176e-05C11.4007 -3.05176e-05 4.06982 5.42747 1.24396 13.0435H38.7561C35.9301 5.42747 28.5993 -3.05176e-05 20 -3.05176e-05Z" fill="#D80027"/>
<path d="M38.756 26.9564H1.24396C4.06982 34.5724 11.4007 39.9999 20 39.9999C28.5993 39.9999 35.9301 34.5724 38.756 26.9564Z" fill="#496E2D"/>
<path d="M19.9999 13.0434L21.7264 18.3575H27.3145L22.794 21.6421L24.5206 26.9564L19.9999 23.672L15.4792 26.9564L17.206 21.6421L12.6855 18.3575H18.2733L19.9999 13.0434Z" fill="black"/>
</g>
<defs>
<clipPath id="clip0_394_5199">
<rect width="40" height="40" fill="white"/>
</clipPath>
</defs>
</svg>
