<svg width="40" height="40" viewBox="0 0 40 40" fill="none" xmlns="http://www.w3.org/2000/svg">
<g clip-path="url(#clip0_394_5161)">
<path d="M19.9998 40C31.0455 40 39.9998 31.0457 39.9998 20C39.9998 8.95427 31.0455 -3.05176e-05 19.9998 -3.05176e-05C8.95412 -3.05176e-05 -0.000183105 8.95427 -0.000183105 20C-0.000183105 31.0457 8.95412 40 19.9998 40Z" fill="#F0F0F0"/>
<path d="M39.9999 19.9998C39.9999 12.0706 35.3854 5.21938 28.6955 1.98438V38.0152C35.3854 34.7803 39.9999 27.929 39.9999 19.9998Z" fill="#338AF3"/>
<path d="M-6.10352e-05 19.9998C-6.10352e-05 27.929 4.61439 34.7803 11.3043 38.0153V1.98438C4.61439 5.21937 -6.10352e-05 12.0706 -6.10352e-05 19.9998Z" fill="#338AF3"/>
<path d="M25.2264 23.3818L21.8447 20.0001L25.0637 16.7809L24.9178 15.0808L23.9962 14.1591L20 18.1553L16.0037 14.1591L15.0822 15.0808L14.9363 16.7809L18.1553 20.0001L14.7735 23.3818L16.6182 25.2263L20 21.8447L23.3818 25.2263L25.2264 23.3818Z" fill="#ACABB1"/>
<path d="M24.9189 15.081L23.0743 16.9256C23.8611 17.7124 24.3478 18.7994 24.3478 20C24.3478 22.4012 22.4011 24.3478 20 24.3478C17.5988 24.3478 15.6521 22.4012 15.6521 20C15.6521 18.7994 16.1388 17.7124 16.9256 16.9256L15.081 15.081C13.822 16.3397 13.0434 18.0789 13.0434 20C13.0434 23.842 16.1579 26.9565 19.9999 26.9565C23.8418 26.9565 26.9564 23.8419 26.9564 20C26.9564 18.079 26.1778 16.3398 24.9189 15.081Z" fill="#6DA544"/>
</g>
<defs>
<clipPath id="clip0_394_5161">
<rect width="40" height="40" fill="white"/>
</clipPath>
</defs>
</svg>
