<svg width="40" height="40" viewBox="0 0 40 40" fill="none" xmlns="http://www.w3.org/2000/svg">
<g clip-path="url(#clip0_394_5157)">
<path d="M26.9569 1.24403C24.7901 0.440048 22.4466 -3.05176e-05 20.0001 -3.05176e-05C17.5538 -3.05176e-05 15.2104 0.440048 13.0438 1.24388L12.1742 20L13.0437 38.7561C15.2104 39.56 17.5538 40 20.0001 40C22.4467 40 24.7901 39.56 26.9569 38.7559L27.8264 20L26.9569 1.24403Z" fill="#FFDA44"/>
<path d="M3.05176e-05 19.9999C3.05176e-05 28.5991 5.42753 35.9301 13.0435 38.7558V1.2438C5.42753 4.06974 3.05176e-05 11.4005 3.05176e-05 19.9999Z" fill="#D80027"/>
<path d="M40 19.9999C40 11.4005 34.5725 4.06974 26.9565 1.2438V38.7559C34.5725 35.9301 40 28.5991 40 19.9999Z" fill="#6DA544"/>
</g>
<defs>
<clipPath id="clip0_394_5157">
<rect width="40" height="40" fill="white"/>
</clipPath>
</defs>
</svg>
