<svg width="40" height="40" viewBox="0 0 40 40" fill="none" xmlns="http://www.w3.org/2000/svg">
<g clip-path="url(#clip0_394_5150)">
<path d="M19.9999 -3.05176e-05C18.1947 -3.05176e-05 16.446 0.240595 14.7825 0.688954L13.0434 20L14.7825 39.311C16.446 39.7593 18.1947 40 19.9999 40C31.0455 40 39.9999 31.0456 39.9999 20C39.9999 8.95434 31.0455 -3.05176e-05 19.9999 -3.05176e-05Z" fill="#FFDA44"/>
<path d="M13.0434 20L14.7825 39.311C16.446 39.7594 18.1947 40 19.9999 40C31.0455 40 39.9999 31.0456 39.9999 20H13.0434Z" fill="#6DA544"/>
<path d="M-6.10352e-05 19.9999C-6.10352e-05 27.5808 4.21791 34.1761 10.4347 37.5681V2.4317C4.21791 5.82373 -6.10352e-05 12.419 -6.10352e-05 19.9999Z" fill="#D80027"/>
<path d="M-6.10352e-05 19.9999C-6.10352e-05 29.2405 6.2672 37.016 14.7825 39.311V0.688934C6.2672 2.98393 -6.10352e-05 10.7594 -6.10352e-05 19.9999Z" fill="#D80027"/>
<path d="M7.55736 14.7825L8.85228 18.7682H13.0434L9.65291 21.2316L10.9478 25.2174L7.55736 22.754L4.16682 25.2174L5.46197 21.2316L2.0715 18.7682H6.26236L7.55736 14.7825Z" fill="black"/>
</g>
<defs>
<clipPath id="clip0_394_5150">
<rect width="40" height="40" fill="white"/>
</clipPath>
</defs>
</svg>
