<svg width="40" height="40" viewBox="0 0 40 40" fill="none" xmlns="http://www.w3.org/2000/svg">
<g clip-path="url(#clip0_394_5143)">
<path d="M20 39.9999C31.0457 39.9999 40 31.0456 40 19.9999C40 8.95421 31.0457 -9.15527e-05 20 -9.15527e-05C8.9543 -9.15527e-05 0 8.95421 0 19.9999C0 31.0456 8.9543 39.9999 20 39.9999Z" fill="#F0F0F0"/>
<path d="M20 -9.15527e-05C16.464 -9.15527e-05 13.1431 0.918815 10.2609 2.52897V37.4708C13.1431 39.081 16.464 39.9999 20 39.9999C31.0456 39.9999 40 31.0455 40 19.9999C40 8.95428 31.0456 -9.15527e-05 20 -9.15527e-05Z" fill="#6DA544"/>
<path d="M10.3196 2.49612C9.06142 3.19339 7.88658 4.02214 6.81322 4.96433C6.92173 4.86917 7.03134 4.77511 7.14181 4.6823L22.4594 20L7.14173 35.3176C7.03119 35.2248 6.92166 35.1307 6.81314 35.0356C7.8865 35.9778 9.06142 36.8064 10.3195 37.5038L39.9999 20L10.3196 2.49612Z" fill="#F0F0F0"/>
<path d="M8.63045 3.54538C8.02053 3.96772 7.43475 4.42218 6.87654 4.90788L20 19.9999L6.87646 35.0919C7.43467 35.5776 8.02045 36.0322 8.63037 36.4544L36.5764 19.9999L8.63045 3.54538Z" fill="#FFDA44"/>
<path d="M7.1418 4.68231C6.69719 5.05591 6.26813 5.44755 5.85782 5.85778L18.2609 20L5.85782 34.1422C6.26813 34.5525 6.69712 34.9442 7.1418 35.3176L22.4595 20L7.1418 4.68231Z" fill="black"/>
<path d="M5.85785 5.85773C-1.95262 13.6682 -1.95262 26.3316 5.85785 34.1421C9.08543 30.9145 12.1896 27.8104 20 19.9999L5.85785 5.85773Z" fill="#D80027"/>
</g>
<defs>
<clipPath id="clip0_394_5143">
<rect width="40" height="40" fill="white"/>
</clipPath>
</defs>
</svg>
