<svg width="40" height="40" viewBox="0 0 40 40" fill="none" xmlns="http://www.w3.org/2000/svg">
<g clip-path="url(#clip0_394_5124)">
<path d="M20 39.9999C31.0457 39.9999 40 31.0456 40 19.9999C40 8.95421 31.0457 -9.15527e-05 20 -9.15527e-05C8.95428 -9.15527e-05 -3.05176e-05 8.95421 -3.05176e-05 19.9999C-3.05176e-05 31.0456 8.95428 39.9999 20 39.9999Z" fill="#F0F0F0"/>
<path d="M19.9999 39.9999C27.9291 39.9999 34.7804 35.3854 38.0154 28.6955H1.98447C5.21947 35.3854 12.0707 39.9999 19.9999 39.9999Z" fill="#338AF3"/>
<path d="M19.9999 -0.000152588C12.0707 -0.000152588 5.21947 4.6143 1.98447 11.3042H38.0153C34.7804 4.6143 27.9291 -0.000152588 19.9999 -0.000152588Z" fill="#338AF3"/>
<path d="M12.3081 13.0433L12.9556 15.0362H15.051L13.3559 16.2678L14.0034 18.2607L12.3081 17.029L10.6128 18.2607L11.2604 16.2678L9.56516 15.0362H11.6605L12.3081 13.0433Z" fill="#338AF3"/>
<path d="M12.3081 21.739L12.9556 23.732H15.051L13.3559 24.9635L14.0034 26.9563L12.3081 25.7247L10.6128 26.9563L11.2604 24.9635L9.56516 23.732H11.6605L12.3081 21.739Z" fill="#338AF3"/>
<path d="M27.6917 13.0433L28.3393 15.0362H30.4347L28.7394 16.2678L29.387 18.2607L27.6917 17.029L25.9964 18.2607L26.644 16.2678L24.9487 15.0362H27.0442L27.6917 13.0433Z" fill="#338AF3"/>
<path d="M27.6917 21.739L28.3393 23.732H30.4347L28.7394 24.9635L29.387 26.9563L27.6917 25.7247L25.9964 26.9563L26.644 24.9635L24.9487 23.732H27.0442L27.6917 21.739Z" fill="#338AF3"/>
<path d="M19.9999 17.3911L20.6475 19.3841H22.7429L21.0477 20.6157L21.6952 22.6085L19.9999 21.3768L18.3046 22.6085L18.9522 20.6157L17.2569 19.3841H19.3523L19.9999 17.3911Z" fill="#338AF3"/>
</g>
<defs>
<clipPath id="clip0_394_5124">
<rect width="40" height="40" fill="white"/>
</clipPath>
</defs>
</svg>
