<svg width="40" height="40" viewBox="0 0 40 40" fill="none" xmlns="http://www.w3.org/2000/svg">
<g clip-path="url(#clip0_394_5120)">
<path d="M1.24399 13.0434C0.440086 15.2102 7.62939e-06 17.5535 7.62939e-06 19.9999C7.62939e-06 22.4463 0.440086 24.7898 1.24399 26.9564L20 28.6955L38.756 26.9564C39.5599 24.7898 40 22.4463 40 19.9999C40 17.5535 39.5599 15.2102 38.756 13.0434L20 11.3043L1.24399 13.0434Z" fill="#F0F0F0"/>
<path d="M20 -9.15527e-05C11.4008 -9.15527e-05 4.0699 5.42741 1.24412 13.0434H38.7562C35.9302 5.42741 28.5994 -9.15527e-05 20 -9.15527e-05Z" fill="#D80027"/>
<path d="M20 39.9999C28.5994 39.9999 35.9302 34.5724 38.7561 26.9564H1.24412C4.0699 34.5724 11.4008 39.9999 20 39.9999Z" fill="#6DA544"/>
</g>
<defs>
<clipPath id="clip0_394_5120">
<rect width="40" height="40" fill="white"/>
</clipPath>
</defs>
</svg>
