<svg width="40" height="40" viewBox="0 0 40 40" fill="none" xmlns="http://www.w3.org/2000/svg">
<g clip-path="url(#clip0_394_5112)">
<path d="M20 39.9999C31.0457 39.9999 40 31.0456 40 19.9999C40 8.95423 31.0457 -7.62939e-05 20 -7.62939e-05C8.95431 -7.62939e-05 0 8.95423 0 19.9999C0 31.0456 8.95431 39.9999 20 39.9999Z" fill="#F0F0F0"/>
<path d="M0.688965 25.2173C1.84615 29.511 4.39654 33.2324 7.82607 35.8675V25.2173H0.688965Z" fill="#0052B4"/>
<path d="M18.2609 39.9238C18.8341 39.9732 19.4139 39.9999 20 39.9999C29.2406 39.9999 37.016 33.7326 39.311 25.2173H18.2609V39.9238Z" fill="#0052B4"/>
<path d="M39.311 14.7824C37.016 6.2671 29.2406 -0.000167847 20 -0.000167847C19.4139 -0.000167847 18.8341 0.0265509 18.2609 0.0759259V14.7824H39.311Z" fill="#0052B4"/>
<path d="M7.82607 4.13228C4.39654 6.76743 1.84615 10.4888 0.688965 14.7824H7.82607V4.13228Z" fill="#0052B4"/>
<path d="M39.8307 17.3912H15.6523H15.6522V0.475296C13.8039 0.88514 12.0516 1.54944 10.4348 2.4317V17.3912H0.169297C0.0579688 18.2451 0 19.1158 0 19.9999C0 20.884 0.0579688 21.7547 0.169297 22.6086H10.4347H10.4348V37.568C12.0516 38.4502 13.8039 39.1147 15.6522 39.5244V22.6088V22.6087H39.8307C39.9419 21.7547 40 20.884 40 19.9999C40 19.1158 39.9419 18.2451 39.8307 17.3912Z" fill="#D80027"/>
</g>
<defs>
<clipPath id="clip0_394_5112">
<rect width="40" height="40" fill="white"/>
</clipPath>
</defs>
</svg>
