<svg width="40" height="40" viewBox="0 0 40 40" fill="none" xmlns="http://www.w3.org/2000/svg">
<g clip-path="url(#clip0_394_5105)">
<path d="M20.0001 40C31.0458 40 40.0001 31.0457 40.0001 20C40.0001 8.95434 31.0458 3.05176e-05 20.0001 3.05176e-05C8.95437 3.05176e-05 6.10352e-05 8.95434 6.10352e-05 20C6.10352e-05 31.0457 8.95437 40 20.0001 40Z" fill="#F0F0F0"/>
<path d="M20.0001 1.52588e-05C12.0709 1.52588e-05 5.21962 4.61447 1.98462 11.3044H38.0155C34.7806 4.61447 27.9292 1.52588e-05 20.0001 1.52588e-05Z" fill="#FF9811"/>
<path d="M20.0001 40.0001C27.9292 40.0001 34.7806 35.3856 38.0156 28.6957H1.98462C5.21962 35.3856 12.0709 40.0001 20.0001 40.0001Z" fill="#6DA544"/>
<path d="M20 26.9565C23.842 26.9565 26.9565 23.8419 26.9565 20C26.9565 16.158 23.842 13.0435 20 13.0435C16.158 13.0435 13.0435 16.158 13.0435 20C13.0435 23.8419 16.158 26.9565 20 26.9565Z" fill="#0052B4"/>
<path d="M20 24.3478C22.4013 24.3478 24.3478 22.4013 24.3478 20C24.3478 17.5988 22.4013 15.6522 20 15.6522C17.5988 15.6522 15.6522 17.5988 15.6522 20C15.6522 22.4013 17.5988 24.3478 20 24.3478Z" fill="#F0F0F0"/>
<path d="M20 14.6349L21.3413 17.6769L24.6463 17.3174L22.6825 20L24.6463 22.6826L21.3413 22.3232L20 25.3652L18.6586 22.3232L15.3536 22.6825L17.3174 20L15.3536 17.3174L18.6586 17.6769L20 14.6349Z" fill="#0052B4"/>
</g>
<defs>
<clipPath id="clip0_394_5105">
<rect width="40" height="40" fill="white"/>
</clipPath>
</defs>
</svg>
