<svg width="40" height="40" viewBox="0 0 40 40" fill="none" xmlns="http://www.w3.org/2000/svg">
<g clip-path="url(#clip0_394_5097)">
<path d="M20.0002 40.0001C31.0459 40.0001 40.0002 31.0458 40.0002 20.0001C40.0002 8.95444 31.0459 0.000137329 20.0002 0.000137329C8.95449 0.000137329 0.000183105 8.95444 0.000183105 20.0001C0.000183105 31.0458 8.95449 40.0001 20.0002 40.0001Z" fill="#F0F0F0"/>
<path d="M26.4959 14.7826H23.8792C23.9009 15.0702 23.9131 15.3603 23.9131 15.6521C23.9131 17.5868 23.4295 19.462 22.5865 20.7969C22.3264 21.2086 21.8894 21.79 21.3044 22.1822V14.7825H18.6957V22.1822C18.1108 21.79 17.6737 21.2087 17.4136 20.7969C16.5705 19.462 16.087 17.5868 16.087 15.6521C16.087 15.3603 16.0993 15.0701 16.1209 14.7826H13.5041C13.4874 15.0688 13.4782 15.3586 13.4782 15.6521C13.4782 21.0159 16.3429 25.2173 19.9999 25.2173C23.657 25.2173 26.5216 21.0159 26.5216 15.6521C26.5218 15.3586 26.5127 15.0688 26.4959 14.7826Z" fill="#D80027"/>
<path d="M8.26095 9.56528H10.8696V11.3044H13.4783V9.56528H16.087V11.3044H18.6956V9.56528H21.3043V11.3044H23.913V9.56528H26.5217V11.3044H29.1303V9.56528H31.739V11.3044H38.0153C34.7806 4.6145 27.9292 4.57764e-05 20.0001 4.57764e-05C12.0709 4.57764e-05 5.21962 4.6145 1.98462 11.3044H8.26095V9.56528Z" fill="#6DA544"/>
<path d="M31.7392 28.6957V30.4349H29.1306V28.6957H26.5219V30.4349H23.9132V28.6957H21.3045V30.4349H18.6959V28.6957H16.0872V30.4349H13.4785V28.6957H10.8696V30.4349H8.26095V28.6957H1.98462C5.21962 35.3857 12.0709 40.0001 20.0001 40.0001C27.9293 40.0001 34.7806 35.3857 38.0156 28.6957H31.7392Z" fill="#D80027"/>
</g>
<defs>
<clipPath id="clip0_394_5097">
<rect width="40" height="40" fill="white"/>
</clipPath>
</defs>
</svg>
