<svg width="40" height="40" viewBox="0 0 40 40" fill="none" xmlns="http://www.w3.org/2000/svg">
<g clip-path="url(#clip0_394_5089)">
<path d="M20 40C31.0457 40 40 31.0457 40 20C40 8.9543 31.0457 0 20 0C8.9543 0 0 8.9543 0 20C0 31.0457 8.9543 40 20 40Z" fill="#F0F0F0"/>
<path d="M20 0C11.4007 0 4.06982 5.4275 1.24396 13.0435H38.7561C35.9301 5.4275 28.5993 0 20 0Z" fill="#A2001D"/>
<path d="M20 40C28.5993 40 35.9301 34.5725 38.756 26.9565H1.24396C4.06982 34.5725 11.4007 40 20 40Z" fill="black"/>
<path d="M15.2174 18.6956C15.2064 18.6956 15.1957 18.6963 15.1848 18.6965V18.6956H11.3616C11.5554 17.9467 12.2349 17.3913 13.0435 17.3913V14.7826C10.646 14.7826 8.69564 16.7331 8.69564 19.1304V21.2609V21.3044H15.1848H15.2174C15.4571 21.3044 15.6521 21.4995 15.6521 21.7392V22.6087H6.95642V25.2174H18.2608V21.7391C18.2608 20.061 16.8955 18.6956 15.2174 18.6956Z" fill="#496E2D"/>
<path d="M21.7391 22.6087V14.7826H19.1304V25.2175H23.4782V22.6087H21.7391Z" fill="#496E2D"/>
<path d="M30.4347 22.6088V14.7826H27.826V22.6088H26.9564V20.0001H24.3477V25.2175H32.1738V22.6088H30.4347Z" fill="#496E2D"/>
</g>
<defs>
<clipPath id="clip0_394_5089">
<rect width="40" height="40" fill="white"/>
</clipPath>
</defs>
</svg>
