<svg width="40" height="40" viewBox="0 0 40 40" fill="none" xmlns="http://www.w3.org/2000/svg">
<g clip-path="url(#clip0_394_5085)">
<path d="M19.9998 40C31.0454 40 39.9998 31.0457 39.9998 20C39.9998 8.95432 31.0454 1.52588e-05 19.9998 1.52588e-05C8.95406 1.52588e-05 -0.000244141 8.95432 -0.000244141 20C-0.000244141 31.0457 8.95406 40 19.9998 40Z" fill="#F0F0F0"/>
<path d="M39.9999 20C39.9999 11.4008 34.5724 4.06989 26.9564 1.24411V38.7562C34.5724 35.9302 39.9999 28.5994 39.9999 20Z" fill="#FF9811"/>
<path d="M-6.10352e-05 20C-6.10352e-05 28.5994 5.42744 35.9302 13.0435 38.7561V1.24411C5.42744 4.06989 -6.10352e-05 11.4008 -6.10352e-05 20Z" fill="#6DA544"/>
</g>
<defs>
<clipPath id="clip0_394_5085">
<rect width="40" height="40" fill="white"/>
</clipPath>
</defs>
</svg>
