<svg width="40" height="40" viewBox="0 0 40 40" fill="none" xmlns="http://www.w3.org/2000/svg">
<g clip-path="url(#clip0_394_5079)">
<path d="M19.9997 40C31.0454 40 39.9997 31.0457 39.9997 20C39.9997 8.95432 31.0454 1.52588e-05 19.9997 1.52588e-05C8.954 1.52588e-05 -0.000305176 8.95432 -0.000305176 20C-0.000305176 31.0457 8.954 40 19.9997 40Z" fill="#F0F0F0"/>
<path d="M27.5306 15.6523H22.5101L19.9999 11.3044L17.4899 15.6523H12.4692L14.9797 20.0001L12.4692 24.3479H17.4899L19.9999 28.6957L22.5101 24.3479H27.5306L25.0202 20.0001L27.5306 15.6523ZM23.0839 20.0001L21.5421 22.671H18.4581L16.916 20.0001L18.458 17.3291H21.542L23.0839 20.0001ZM19.9999 14.6581L20.5738 15.6522H19.4262L19.9999 14.6581ZM15.3738 17.3291H16.5217L15.9478 18.3232L15.3738 17.3291ZM15.3738 22.671L15.9478 21.6769L16.5217 22.671H15.3738ZM19.9999 25.3419L19.4261 24.3479H20.5738L19.9999 25.3419ZM24.626 22.671H23.4782L24.0522 21.6769L24.626 22.671ZM23.4782 17.3291H24.626L24.0521 18.3232L23.4782 17.3291Z" fill="#0052B4"/>
<path d="M32.4497 4.3479H7.55013C5.72489 5.80165 4.15958 7.56743 2.93536 9.56532H37.0644C35.8401 7.56751 34.2748 5.80165 32.4497 4.3479Z" fill="#0052B4"/>
<path d="M7.55013 35.6523H32.4496C34.2748 34.1985 35.8401 32.4328 37.0643 30.4349H2.93536C4.15966 32.4327 5.72497 34.1985 7.55013 35.6523Z" fill="#0052B4"/>
</g>
<defs>
<clipPath id="clip0_394_5079">
<rect width="40" height="40" fill="white"/>
</clipPath>
</defs>
</svg>
