<svg width="40" height="40" viewBox="0 0 40 40" fill="none" xmlns="http://www.w3.org/2000/svg">
<g clip-path="url(#clip0_394_5075)">
<path d="M20.0004 40C31.0461 40 40.0004 31.0457 40.0004 20C40.0004 8.95432 31.0461 1.52588e-05 20.0004 1.52588e-05C8.9547 1.52588e-05 0.000396729 8.95432 0.000396729 20C0.000396729 31.0457 8.9547 40 20.0004 40Z" fill="#F0F0F0"/>
<path d="M40 20C40 11.4007 34.5725 4.06985 26.9565 1.24399V38.7561C34.5725 35.9301 40 28.5993 40 20Z" fill="#D80027"/>
<path d="M6.10352e-05 20C6.10352e-05 28.5993 5.42756 35.9302 13.0436 38.756V1.24399C5.42756 4.06985 6.10352e-05 11.4007 6.10352e-05 20Z" fill="#6DA544"/>
</g>
<defs>
<clipPath id="clip0_394_5075">
<rect width="40" height="40" fill="white"/>
</clipPath>
</defs>
</svg>
