<svg width="40" height="40" viewBox="0 0 40 40" fill="none" xmlns="http://www.w3.org/2000/svg">
<g clip-path="url(#clip0_394_5071)">
<path d="M20 40C22.4464 40 24.7899 39.56 26.9564 38.756L27.826 20L26.9565 1.24398C24.7899 0.440078 22.4464 0 20 0C17.5535 0 15.21 0.440078 13.0435 1.24398L12.1739 20L13.0434 38.756C15.21 39.56 17.5535 40 20 40Z" fill="#F0F0F0"/>
<path d="M0 20C0 28.5993 5.4275 35.9302 13.0435 38.756V1.24399C5.4275 4.06985 0 11.4007 0 20Z" fill="#FF9811"/>
<path d="M26.9565 1.24399V38.7561C34.5725 35.9301 40 28.5993 40 20C40 11.4007 34.5725 4.06985 26.9565 1.24399Z" fill="#6DA544"/>
</g>
<defs>
<clipPath id="clip0_394_5071">
<rect width="40" height="40" fill="white"/>
</clipPath>
</defs>
</svg>
