<svg width="40" height="40" viewBox="0 0 40 40" fill="none" xmlns="http://www.w3.org/2000/svg">
<g clip-path="url(#clip0_394_5065)">
<path d="M19.9998 39.9999C31.0455 39.9999 39.9998 31.0456 39.9998 19.9999C39.9998 8.95423 31.0455 -7.62939e-05 19.9998 -7.62939e-05C8.95412 -7.62939e-05 -0.000183105 8.95423 -0.000183105 19.9999C-0.000183105 31.0456 8.95412 39.9999 19.9998 39.9999Z" fill="#FFDA44"/>
<path d="M32.1762 4.13437C28.8038 1.54211 24.5823 0 19.9999 0C15.4176 0 11.196 1.54219 7.82361 4.13437L19.9999 16.3106L32.1762 4.13437Z" fill="#6DA544"/>
<path d="M4.13427 7.82382C1.54216 11.1962 -3.05176e-05 15.4177 -3.05176e-05 20.0001C-3.05176e-05 24.5824 1.54216 28.804 4.13435 32.1765L16.3107 20.0001L4.13427 7.82382Z" fill="black"/>
<path d="M7.82361 35.8657C11.1961 38.4579 15.4176 40.0001 19.9999 40.0001C24.5823 40.0001 28.8038 38.4579 32.1763 35.8657L19.9999 23.6894L7.82361 35.8657Z" fill="#6DA544"/>
<path d="M35.8656 32.1763C38.4579 28.8039 40 24.5824 40 20.0001C40 15.4177 38.4579 11.1962 35.8656 7.82382L23.6894 20.0001L35.8656 32.1763Z" fill="black"/>
</g>
<defs>
<clipPath id="clip0_394_5065">
<rect width="40" height="40" fill="white"/>
</clipPath>
</defs>
</svg>
