<svg width="40" height="40" viewBox="0 0 40 40" fill="none" xmlns="http://www.w3.org/2000/svg">
<g clip-path="url(#clip0_394_5062)">
<path d="M20 39.9999C31.0457 39.9999 40 31.0456 40 19.9999C40 8.95423 31.0457 -7.62939e-05 20 -7.62939e-05C8.95432 -7.62939e-05 1.52588e-05 8.95423 1.52588e-05 19.9999C1.52588e-05 31.0456 8.95432 39.9999 20 39.9999Z" fill="#F0F0F0"/>
<path d="M20 28.6956C24.8025 28.6956 28.6956 24.8024 28.6956 19.9999C28.6956 15.1975 24.8025 11.3043 20 11.3043C15.1975 11.3043 11.3044 15.1975 11.3044 19.9999C11.3044 24.8024 15.1975 28.6956 20 28.6956Z" fill="#D80027"/>
</g>
<defs>
<clipPath id="clip0_394_5062">
<rect width="40" height="40" fill="white"/>
</clipPath>
</defs>
</svg>
