<svg width="40" height="40" viewBox="0 0 40 40" fill="none" xmlns="http://www.w3.org/2000/svg">
<g clip-path="url(#clip0_394_5056)">
<path d="M20.0002 39.9999C31.0459 39.9999 40.0002 31.0456 40.0002 19.9999C40.0002 8.9542 31.0459 -0.000106812 20.0002 -0.000106812C8.95448 -0.000106812 0.000175476 8.9542 0.000175476 19.9999C0.000175476 31.0456 8.95448 39.9999 20.0002 39.9999Z" fill="#F0F0F0"/>
<path d="M12.1739 13.0435H38.756C35.9302 5.42745 28.5992 -4.57764e-05 20 -4.57764e-05C14.4771 -4.57764e-05 9.4776 2.23894 5.85854 5.85847L12.1739 13.0435Z" fill="black"/>
<path d="M12.1739 26.9564H38.756C35.9302 34.5724 28.5992 39.9999 20 39.9999C14.4771 39.9999 9.4776 37.7609 5.85854 34.1414L12.1739 26.9564Z" fill="#6DA544"/>
<path d="M5.85787 5.85777C-1.95259 13.6682 -1.95259 26.3316 5.85787 34.1421C9.08545 30.9146 12.1896 27.8104 20.0001 20L5.85787 5.85777Z" fill="#D80027"/>
<path d="M7.93801 15.6522L9.03559 17.9474L11.5144 17.3745L10.4043 19.6636L12.3976 21.2444L9.91583 21.8037L9.9227 24.3478L7.93801 22.7561L5.95325 24.3478L5.9602 21.8037L3.4784 21.2444L5.47168 19.6636L4.36168 17.3745L6.84036 17.9474L7.93801 15.6522Z" fill="#F0F0F0"/>
</g>
<defs>
<clipPath id="clip0_394_5056">
<rect width="40" height="40" fill="white"/>
</clipPath>
</defs>
</svg>
