<svg width="40" height="40" viewBox="0 0 40 40" fill="none" xmlns="http://www.w3.org/2000/svg">
<g clip-path="url(#clip0_394_5051)">
<path d="M20 39.9999C31.0457 39.9999 40 31.0456 40 19.9999C40 8.95423 31.0457 -7.62939e-05 20 -7.62939e-05C8.9543 -7.62939e-05 0 8.95423 0 19.9999C0 31.0456 8.9543 39.9999 20 39.9999Z" fill="#338AF3"/>
<path d="M31.3044 20.2173H8.69568C8.69568 21.7781 10.0551 23.0434 11.6158 23.0434H11.5218C11.5218 24.6042 12.787 25.8695 14.3479 25.8695C14.3479 27.4303 15.6131 28.6956 17.174 28.6956H22.8261C24.387 28.6956 25.6522 27.4303 25.6522 25.8695C27.2131 25.8695 28.4783 24.6042 28.4783 23.0434H28.3843C29.9448 23.0434 31.3044 21.7781 31.3044 20.2173Z" fill="#FFDA44"/>
<path d="M27.8261 16.5216C27.8261 20.8438 24.3222 24.3477 20 24.3477C15.6777 24.3477 12.1739 20.8438 12.1739 16.5216" fill="#338AF3"/>
<path d="M25.9777 16.5216L23.5351 17.6706L24.8358 20.0362L22.1835 19.5288L21.8474 22.2081L20 20.2374L18.1525 22.2081L17.8164 19.5288L15.1641 20.036L16.4647 17.6705L14.0222 16.5216L16.4648 15.3727L15.1641 13.0071L17.8164 13.5145L18.1525 10.8351L20 12.8058L21.8475 10.8351L22.1835 13.5145L24.8359 13.0071L23.5352 15.3727L25.9777 16.5216Z" fill="#FFDA44"/>
</g>
<defs>
<clipPath id="clip0_394_5051">
<rect width="40" height="40" fill="white"/>
</clipPath>
</defs>
</svg>
