<svg width="40" height="40" viewBox="0 0 40 40" fill="none" xmlns="http://www.w3.org/2000/svg">
<g clip-path="url(#clip0_394_5038)">
<path d="M19.9999 39.9999C31.0456 39.9999 39.9999 31.0456 39.9999 19.9999C39.9999 8.95423 31.0456 -7.62939e-05 19.9999 -7.62939e-05C8.95424 -7.62939e-05 -6.10352e-05 8.95423 -6.10352e-05 19.9999C-6.10352e-05 31.0456 8.95424 39.9999 19.9999 39.9999Z" fill="#F0F0F0"/>
<path d="M20 -7.62939e-05C12.0707 -7.62939e-05 5.2195 4.61438 1.9845 11.3043H38.0153C34.7804 4.61438 27.9291 -7.62939e-05 20 -7.62939e-05Z" fill="black"/>
<path d="M20 40C12.0707 40 5.2195 35.3855 1.9845 28.6956H38.0153C34.7804 35.3855 27.9291 40 20 40Z" fill="#496E2D"/>
<path d="M39.0555 13.9129H0.944392C0.331736 15.8323 -6.10352e-05 17.8773 -6.10352e-05 19.9998C-6.10352e-05 22.1224 0.331736 24.1673 0.944392 26.0868H39.0554C39.6681 24.1673 39.9999 22.1224 39.9999 19.9998C39.9999 17.8773 39.6681 15.8323 39.0555 13.9129Z" fill="#A2001D"/>
<path d="M26.2277 9.24216L23.8592 8.14896L19.9999 16.8873L16.1407 8.14896L13.7722 9.24216L18.5635 19.9999L13.7722 30.7576L16.1407 31.8508L19.9999 23.1125L23.8592 31.8508L26.2277 30.7576L21.4364 19.9999L26.2277 9.24216Z" fill="#F0F0F0"/>
<path d="M21.6086 10.2725C20.6918 9.27114 20 8.69551 20 8.69551C20 8.69551 19.3082 9.27106 18.3913 10.2725V29.7271C19.3082 30.7286 20 31.3043 20 31.3043C20 31.3043 20.6918 30.7287 21.6086 29.7272V10.2725Z" fill="#F0F0F0"/>
<path d="M15.6521 14.0031V25.9963C16.621 27.7131 17.8069 29.1203 18.6956 30.0532V9.94627C17.8069 10.8792 16.6209 12.2864 15.6521 14.0031Z" fill="#A2001D"/>
<path d="M24.3477 14.0031C23.3787 12.2864 22.1929 10.8792 21.3042 9.94627V30.0532C22.1929 29.1203 23.3787 27.7131 24.3477 25.9963V14.0031Z" fill="#A2001D"/>
<path d="M24.3478 14.0033V25.9964C25.3286 24.2582 26.0869 22.2028 26.0869 20C26.0869 17.7971 25.3286 15.7416 24.3478 14.0033Z" fill="black"/>
<path d="M15.6522 14.0033V25.9964C14.6713 24.2582 13.913 22.2028 13.913 20C13.913 17.7971 14.6713 15.7416 15.6522 14.0033Z" fill="black"/>
</g>
<defs>
<clipPath id="clip0_394_5038">
<rect width="40" height="40" fill="white"/>
</clipPath>
</defs>
</svg>
