<svg width="40" height="40" viewBox="0 0 40 40" fill="none" xmlns="http://www.w3.org/2000/svg">
<g clip-path="url(#clip0_394_5027)">
<path d="M0 19.9999C0 8.9543 8.95437 -7.62939e-05 20 -7.62939e-05C31.0456 -7.62939e-05 40 8.9543 40 19.9999" fill="#D80027"/>
<path d="M26.9565 18.5996L24.1139 19.9366L25.6277 22.6896L22.541 22.0991L22.1499 25.2172L20 22.9238L17.85 25.2172L17.459 22.0991L14.3723 22.6894L15.886 19.9366L13.0435 18.5996L15.886 17.2624L14.3723 14.5097L17.4589 15.1L17.8501 11.982L20 14.2752L22.15 11.982L22.541 15.1L25.6277 14.5097L24.1141 17.2627L26.9565 18.5996Z" fill="#FFDA44"/>
<path d="M25.2174 6.52154H21.3044C21.3044 5.8013 20.7203 5.21716 20 5.21716C19.2797 5.21716 18.6956 5.80123 18.6956 6.52154H14.7826C14.7826 7.24185 15.4101 7.82591 16.1304 7.82591H16.0869C16.0869 8.54622 16.6708 9.13029 17.3913 9.13029C17.3913 9.8506 17.9752 10.4347 18.6956 10.4347H21.3043C22.0246 10.4347 22.6087 9.85068 22.6087 9.13029C23.3289 9.13029 23.9131 8.5463 23.9131 7.82591H23.8696C24.5899 7.82591 25.2174 7.24193 25.2174 6.52154Z" fill="#FFDA44"/>
<path d="M40 20C40 31.0456 31.0456 40 20 40C8.95437 40 0 31.0456 0 20H40Z" fill="#F0F0F0"/>
<path d="M20 39.9999C26.2517 39.9999 31.8325 37.1308 35.5002 32.6383C34.8405 32.1885 34.4843 31.4615 33.3331 31.4615C31.6664 31.4615 31.6664 32.9854 29.9999 32.9854C28.3333 32.9854 28.3332 31.4615 26.6667 31.4615C25 31.4615 25 32.9854 23.3333 32.9854C21.6666 32.9854 21.6665 31.4615 19.9997 31.4615C18.3331 31.4615 18.3331 32.9854 16.6665 32.9854C15.0001 32.9854 15.0001 31.4615 13.3335 31.4615C11.6667 31.4615 11.6667 32.9854 9.99987 32.9854C8.33307 32.9854 8.33307 31.4615 6.66627 31.4615C5.51518 31.4615 5.15901 32.1884 4.49963 32.6382C8.16713 37.1308 13.7482 39.9999 20 39.9999Z" fill="#0052B4"/>
<path d="M36.6664 22.5507C34.9998 22.5507 34.9998 21.0268 33.3331 21.0268C31.6664 21.0268 31.6664 22.5507 29.9999 22.5507C28.3333 22.5507 28.3332 21.0268 26.6667 21.0268C25 21.0268 25 22.5507 23.3333 22.5507C21.6666 22.5507 21.6665 21.0268 19.9997 21.0268C18.3331 21.0268 18.3331 22.5507 16.6665 22.5507C15.0001 22.5507 15.0001 21.0268 13.3335 21.0268C11.6667 21.0268 11.6667 22.5507 9.99989 22.5507C8.33309 22.5507 8.33309 21.0268 6.66629 21.0268C4.99989 21.0268 4.99989 22.5507 3.33325 22.5507C1.67559 22.5507 1.66598 21.0436 0.026062 21.0275C0.0722339 21.9423 0.181453 22.8404 0.346609 23.7187C1.67505 23.9139 1.79137 25.2173 3.33333 25.2173C4.99997 25.2173 4.99997 23.6936 6.66637 23.6936C8.33317 23.6936 8.33317 25.2173 9.99997 25.2173C11.6668 25.2173 11.6668 23.6936 13.3336 23.6936C15.0002 23.6936 15.0002 25.2173 16.6666 25.2173C18.3332 25.2173 18.3332 23.6936 19.9998 23.6936C21.6666 23.6936 21.6666 25.2173 23.3334 25.2173C25.0002 25.2173 25.0002 23.6936 26.6668 23.6936C28.3334 23.6936 28.3334 25.2173 30 25.2173C31.6665 25.2173 31.6666 23.6936 33.3332 23.6936C35 23.6936 35 25.2173 36.6665 25.2173C38.2086 25.2173 38.325 23.914 39.6535 23.7188C39.8187 22.8404 39.9278 21.9424 39.9742 21.0275C38.3339 21.0437 38.3242 22.5507 36.6664 22.5507Z" fill="#0052B4"/>
<path d="M33.3331 26.2442C31.6665 26.2442 31.6665 27.7681 29.9999 27.7681C28.3333 27.7681 28.3333 26.2442 26.6667 26.2442C25.0001 26.2442 25.0001 27.7681 23.3333 27.7681C21.6665 27.7681 21.6665 26.2442 19.9997 26.2442C18.3331 26.2442 18.3331 27.7681 16.6665 27.7681C15.0001 27.7681 15.0001 26.2442 13.3335 26.2442C11.6667 26.2442 11.6667 27.7681 9.9999 27.7681C8.33311 27.7681 8.33311 26.2442 6.66631 26.2442C4.9999 26.2442 4.9999 27.7681 3.33326 27.7681C2.1424 27.7681 1.80225 26.9903 1.09717 26.5459C1.56654 27.9021 2.17717 29.1922 2.91256 30.3981C3.04045 30.4217 3.17967 30.4347 3.33326 30.4347C4.9999 30.4347 4.9999 28.911 6.66631 28.911C8.33311 28.911 8.33311 30.4347 9.9999 30.4347C11.6667 30.4347 11.6667 28.911 13.3335 28.911C15.0001 28.911 15.0001 30.4347 16.6665 30.4347C18.3332 30.4347 18.3332 28.911 19.9997 28.911C21.6665 28.911 21.6665 30.4347 23.3333 30.4347C25.0001 30.4347 25.0001 28.911 26.6667 28.911C28.3333 28.911 28.3333 30.4347 29.9999 30.4347C31.6665 30.4347 31.6665 28.911 33.3331 28.911C34.9999 28.911 34.9999 30.4347 36.6665 30.4347C36.8202 30.4347 36.9594 30.4217 37.0873 30.398C37.8227 29.1922 38.4333 27.9021 38.9029 26.546C38.1977 26.9901 37.8575 27.7681 36.6665 27.7681C34.9999 27.7681 34.9999 26.2442 33.3331 26.2442Z" fill="#0052B4"/>
<path d="M39.938 18.4198C38.3341 18.4577 38.3119 19.942 36.6664 19.942C34.9998 19.942 34.9998 18.4181 33.333 18.4181C31.6664 18.4181 31.6664 19.942 29.9998 19.942C28.3333 19.942 28.3332 18.4181 26.6666 18.4181C25 18.4181 25 19.942 23.3333 19.942C21.6666 19.942 21.6665 18.4181 19.9997 18.4181C18.333 18.4181 18.333 19.942 16.6665 19.942C15.0001 19.942 15.0001 18.4181 13.3334 18.4181C11.6666 18.4181 11.6666 19.942 9.99984 19.942C8.33305 19.942 8.33305 18.4181 6.66625 18.4181C4.99984 18.4181 4.99984 19.942 3.3332 19.942C1.68797 19.942 1.6657 18.4579 0.0619531 18.4198C0.02125 18.9412 0 19.4681 0 19.9999C0 20.3642 0.0103125 20.7262 0.0297656 21.0856C1.66594 21.104 1.6768 22.6086 3.33328 22.6086C4.99992 22.6086 4.99992 21.0848 6.66633 21.0848C8.33312 21.0848 8.33312 22.6086 9.99992 22.6086C11.6667 22.6086 11.6667 21.0848 13.3335 21.0848C15.0002 21.0848 15.0002 22.6086 16.6666 22.6086C18.3332 22.6086 18.3332 21.0848 19.9998 21.0848C21.6666 21.0848 21.6666 22.6086 23.3334 22.6086C25.0002 22.6086 25.0002 21.0848 26.6667 21.0848C28.3334 21.0848 28.3334 22.6086 29.9999 22.6086C31.6665 22.6086 31.6666 21.0848 33.3331 21.0848C34.9999 21.0848 34.9999 22.6086 36.6665 22.6086C38.3231 22.6086 38.334 21.104 39.9705 21.0856C39.9897 20.7261 40 20.3642 40 19.9999C40 19.4681 39.9787 18.9412 39.938 18.4198Z" fill="#F0F0F0"/>
</g>
<defs>
<clipPath id="clip0_394_5027">
<rect width="40" height="40" fill="white"/>
</clipPath>
</defs>
</svg>
