<svg width="40" height="40" viewBox="0 0 40 40" fill="none" xmlns="http://www.w3.org/2000/svg">
<g clip-path="url(#clip0_394_5022)">
<path d="M38.7561 26.9564C39.56 24.7898 40.0001 22.4463 40.0001 19.9999C40.0001 17.5535 39.56 15.2101 38.7561 13.0434L20.0001 11.3043L1.24405 13.0434C0.440139 15.2101 6.10352e-05 17.5535 6.10352e-05 19.9999C6.10352e-05 22.4463 0.440139 24.7898 1.24405 26.9564L20.0001 28.6955L38.7561 26.9564Z" fill="#F0F0F0"/>
<path d="M20.0001 39.9999C28.5993 39.9999 35.9303 34.5724 38.7561 26.9564H1.24402C4.06996 34.5724 11.4007 39.9999 20.0001 39.9999Z" fill="#D80027"/>
<path d="M20.0001 -7.62939e-05C11.4007 -7.62939e-05 4.06996 5.42742 1.24402 13.0434H38.7561C35.9303 5.42742 28.5993 -7.62939e-05 20.0001 -7.62939e-05Z" fill="#6DA544"/>
<path d="M5.85791 5.85774C-1.95256 13.6682 -1.95256 26.3316 5.85791 34.1421C7.89658 32.1034 9.88643 30.1136 13.0435 26.9565V13.0434L5.85791 5.85774Z" fill="black"/>
</g>
<defs>
<clipPath id="clip0_394_5022">
<rect width="40" height="40" fill="white"/>
</clipPath>
</defs>
</svg>
