<svg width="40" height="40" viewBox="0 0 40 40" fill="none" xmlns="http://www.w3.org/2000/svg">
<g clip-path="url(#clip0_394_5013)">
<path d="M20 39.9999C31.0457 39.9999 40 31.0456 40 19.9999C40 8.95423 31.0457 -7.62939e-05 20 -7.62939e-05C8.95431 -7.62939e-05 0 8.95423 0 19.9999C0 31.0456 8.95431 39.9999 20 39.9999Z" fill="#D80027"/>
<path d="M29.781 19.9998L25.7845 21.8797L27.9127 25.7505L23.5727 24.9202L23.023 29.3042L19.9999 26.08L16.9771 29.3042L16.4272 24.9202L12.0875 25.7504L14.2156 21.8795L10.219 19.9998L14.2156 18.1201L12.0875 14.2491L16.427 15.0796L16.9773 10.6955L19.9999 13.9198L23.0231 10.6955L23.5727 15.0796L27.9129 14.2491L25.7846 18.1203L29.781 19.9998Z" fill="#FFDA44"/>
<path d="M20 26.0868C23.3618 26.0868 26.087 23.3616 26.087 19.9998C26.087 16.6381 23.3618 13.9129 20 13.9129C16.6383 13.9129 13.9131 16.6381 13.9131 19.9998C13.9131 23.3616 16.6383 26.0868 20 26.0868Z" fill="#D80027"/>
<path d="M16.9566 19.9999C16.8099 19.9999 16.6652 20.0074 16.5223 20.0216C16.5275 20.8647 16.8325 21.6363 17.3363 22.2358C17.605 21.5126 18.0063 20.8531 18.5123 20.2887C18.029 20.1029 17.5047 19.9999 16.9566 19.9999Z" fill="#FFDA44"/>
<path d="M18.8302 23.2758C19.1958 23.4065 19.5895 23.4781 20.0001 23.4781C20.4107 23.4781 20.8044 23.4065 21.17 23.2758C20.9707 22.4937 20.5593 21.7954 20.0001 21.2466C19.441 21.7953 19.0295 22.4937 18.8302 23.2758Z" fill="#FFDA44"/>
<path d="M23.0122 18.2612C22.4108 17.2217 21.2876 16.5216 20.0001 16.5216C18.7126 16.5216 17.5894 17.2216 16.988 18.2612C18.0844 18.2668 19.1125 18.5649 20.0001 19.0797C20.8877 18.5649 21.9156 18.2668 23.0122 18.2612Z" fill="#FFDA44"/>
<path d="M21.4877 20.2887C21.9937 20.853 22.395 21.5125 22.6637 22.2358C23.1675 21.6363 23.4725 20.8647 23.4777 20.0216C23.3348 20.0073 23.19 19.9999 23.0434 19.9999C22.4955 19.9998 21.9712 20.1028 21.4877 20.2887Z" fill="#FFDA44"/>
</g>
<defs>
<clipPath id="clip0_394_5013">
<rect width="40" height="40" fill="white"/>
</clipPath>
</defs>
</svg>
