<svg width="40" height="40" viewBox="0 0 40 40" fill="none" xmlns="http://www.w3.org/2000/svg">
<g clip-path="url(#clip0_394_5007)">
<path d="M38.0155 11.3042C34.7805 4.6143 27.9292 -0.000152588 20 -0.000152588C12.0708 -0.000152588 5.21956 4.6143 1.98456 11.3042L20 13.0434L38.0155 11.3042Z" fill="#D80027"/>
<path d="M1.98456 28.6954C5.21956 35.3854 12.0708 39.9998 20 39.9998C27.9292 39.9998 34.7805 35.3854 38.0155 28.6954L20 26.9563L1.98456 28.6954Z" fill="#D80027"/>
<path d="M38.0155 11.3043H1.98453C0.713125 13.9336 0 16.8834 0 19.9999C0 23.1164 0.713125 26.0662 1.98453 28.6955H38.0154C39.287 26.0662 40 23.1164 40 19.9999C40 16.8834 39.287 13.9336 38.0155 11.3043Z" fill="#0052B4"/>
<path d="M19.9999 26.9564C23.8418 26.9564 26.9564 23.8418 26.9564 19.9999C26.9564 16.1579 23.8418 13.0434 19.9999 13.0434C16.1579 13.0434 13.0434 16.1579 13.0434 19.9999C13.0434 23.8418 16.1579 26.9564 19.9999 26.9564Z" fill="#F0F0F0"/>
</g>
<defs>
<clipPath id="clip0_394_5007">
<rect width="40" height="40" fill="white"/>
</clipPath>
</defs>
</svg>
