<svg width="40" height="40" viewBox="0 0 40 40" fill="none" xmlns="http://www.w3.org/2000/svg">
<g clip-path="url(#clip0_394_5002)">
<path d="M20 40.0001C31.0457 40.0001 40 31.0458 40 20.0001C40 8.95438 31.0457 7.62939e-05 20 7.62939e-05C8.9543 7.62939e-05 0 8.95438 0 20.0001C0 31.0458 8.9543 40.0001 20 40.0001Z" fill="#F0F0F0"/>
<path d="M19.9999 0.00012207C10.7593 0.00012207 2.98387 6.26739 0.688873 14.7827H39.311C37.0159 6.26739 29.2404 0.00012207 19.9999 0.00012207Z" fill="#A2001D"/>
<path d="M19.9999 40.0002C29.2404 40.0002 37.0159 33.7329 39.3109 25.2176H0.688873C2.98387 33.7328 10.7593 40.0002 19.9999 40.0002Z" fill="#A2001D"/>
</g>
<defs>
<clipPath id="clip0_394_5002">
<rect width="40" height="40" fill="white"/>
</clipPath>
</defs>
</svg>
