<svg width="40" height="40" viewBox="0 0 40 40" fill="none" xmlns="http://www.w3.org/2000/svg">
<g clip-path="url(#clip0_394_4996)">
<path d="M20 39.9999C31.0457 39.9999 40 31.0456 40 19.9999C40 8.95423 31.0457 -7.62939e-05 20 -7.62939e-05C8.95427 -7.62939e-05 -3.05176e-05 8.95423 -3.05176e-05 19.9999C-3.05176e-05 31.0456 8.95427 39.9999 20 39.9999Z" fill="#F0F0F0"/>
<path d="M20.0001 -0.000152588C12.0708 -0.000152588 5.21959 4.6143 1.98459 11.3042H38.0154C34.7805 4.6143 27.9292 -0.000152588 20.0001 -0.000152588Z" fill="#D80027"/>
<path d="M20.0001 39.9999C27.9292 39.9999 34.7805 35.3854 38.0155 28.6955H1.98459C5.21959 35.3854 12.0708 39.9999 20.0001 39.9999Z" fill="#D80027"/>
<path d="M25.2173 23.4781L19.9999 13.9129L14.7825 23.4781H18.6955V26.0868H21.3043V23.4781H25.2173Z" fill="#6DA544"/>
</g>
<defs>
<clipPath id="clip0_394_4996">
<rect width="40" height="40" fill="white"/>
</clipPath>
</defs>
</svg>
