<svg width="40" height="40" viewBox="0 0 40 40" fill="none" xmlns="http://www.w3.org/2000/svg">
<g clip-path="url(#clip0_394_4991)">
<path d="M3.05176e-05 19.9999C3.05176e-05 23.1163 0.713077 26.0662 1.98456 28.6955L20 29.5651L38.0155 28.6956C39.287 26.0662 40 23.1163 40 19.9999C40 16.8835 39.287 13.9337 38.0155 11.3043L20 10.4347L1.98456 11.3042C0.713077 13.9337 3.05176e-05 16.8835 3.05176e-05 19.9999H3.05176e-05Z" fill="#F0F0F0"/>
<path d="M20.0001 40C27.9293 40 34.7806 35.3855 38.0156 28.6956H1.98465C5.21965 35.3855 12.0709 40 20.0001 40Z" fill="#6DA544"/>
<path d="M20.0001 -7.62939e-05C12.0709 -7.62939e-05 5.21965 4.61438 1.98465 11.3043H38.0155C34.7806 4.61438 27.9293 -7.62939e-05 20.0001 -7.62939e-05Z" fill="#0052B4"/>
<path d="M21.3044 19.5651V14.7825H18.6958V19.5651L15.545 22.7159C16.4613 24.2159 18.1137 25.2173 20.0001 25.2173C21.8865 25.2173 23.5389 24.2159 24.4553 22.7159L21.3044 19.5651Z" fill="black"/>
</g>
<defs>
<clipPath id="clip0_394_4991">
<rect width="40" height="40" fill="white"/>
</clipPath>
</defs>
</svg>
