<svg width="40" height="40" viewBox="0 0 40 40" fill="none" xmlns="http://www.w3.org/2000/svg">
<g clip-path="url(#clip0_394_4974)">
<path d="M19.9998 40.0001C31.0455 40.0001 39.9998 31.0458 39.9998 20.0001C39.9998 8.95438 31.0455 7.62939e-05 19.9998 7.62939e-05C8.95412 7.62939e-05 -0.000183105 8.95438 -0.000183105 20.0001C-0.000183105 31.0458 8.95412 40.0001 19.9998 40.0001Z" fill="#F0F0F0"/>
<path d="M4.57153 7.27285H35.4284C34.2887 5.89277 32.9668 4.66894 31.5005 3.63652H8.49942C7.0331 4.66879 5.7113 5.89269 4.57153 7.27285Z" fill="#F0F0F0"/>
<path d="M-0.000167847 20.0001C-0.000167847 20.6131 0.0289728 21.2192 0.0829572 21.8183H39.9167C39.9707 21.2192 39.9998 20.6131 39.9998 20.0001C39.9998 19.387 39.9707 18.7809 39.9167 18.1819H0.0829572C0.0289728 18.7809 -0.000167847 19.387 -0.000167847 20.0001H-0.000167847Z" fill="#F0F0F0"/>
<path d="M2.18093 29.0909H37.819C38.408 27.9389 38.8883 26.7224 39.2469 25.4547H0.753113C1.11163 26.7224 1.5921 27.939 2.18093 29.0909Z" fill="#F0F0F0"/>
<path d="M8.49942 36.3637H31.5004C32.9668 35.3313 34.2886 34.1074 35.4283 32.7274H4.57153C5.7113 34.1073 7.0331 35.3313 8.49942 36.3637Z" fill="#F0F0F0"/>
<path d="M0.752991 14.5455H39.2469C38.8883 13.2777 38.4079 12.0612 37.819 10.9092H2.18088C1.59205 12.0612 1.11158 13.2777 0.752991 14.5455Z" fill="#F0F0F0"/>
<path d="M9.56512 3.63639H31.5004C28.2473 1.34592 24.2809 6.10352e-05 19.9999 6.10352e-05C17.3912 6.10352e-05 12.8182 1.34592 9.56512 3.63639Z" fill="#D80027"/>
<path d="M19.1304 10.9092H37.819C37.1539 9.60818 36.3506 8.38951 35.4284 7.27287H19.1304V10.9092Z" fill="#D80027"/>
<path d="M19.1304 18.1819H39.9168C39.8043 16.9333 39.5782 15.7174 39.2469 14.5456H19.1304V18.1819Z" fill="#D80027"/>
<path d="M0.753069 25.4547H39.2468C39.5782 24.283 39.8043 23.067 39.9168 21.8184H0.0830688C0.195569 23.067 0.421663 24.2829 0.753069 25.4547Z" fill="#D80027"/>
<path d="M4.57146 32.7272H35.4283C36.3506 31.6104 37.1539 30.3918 37.819 29.0909H2.18083C2.84591 30.3919 3.64919 31.6106 4.57146 32.7272Z" fill="#D80027"/>
<path d="M19.9999 40C24.2809 40 28.2473 38.6542 31.5004 36.3637H8.49936C11.7525 38.6542 15.7189 40 19.9999 40Z" fill="#D80027"/>
<path d="M0.752991 14.5455C0.421584 15.7174 0.195569 16.9332 0.0830688 18.1818H19.9999V3.05176e-05C10.8453 3.05176e-05 3.12737 6.15097 0.752991 14.5455Z" fill="#0052B4"/>
<path d="M11.9052 5.21747L13.2002 9.20301H17.3913L14.0008 11.6665L15.2956 15.6522L11.9052 13.189L8.5147 15.6522L9.80986 11.6665L6.41939 9.20301H10.6102L11.9052 5.21747Z" fill="#F0F0F0"/>
</g>
<defs>
<clipPath id="clip0_394_4974">
<rect width="40" height="40" fill="white"/>
</clipPath>
</defs>
</svg>
