<svg width="40" height="40" viewBox="0 0 40 40" fill="none" xmlns="http://www.w3.org/2000/svg">
<g clip-path="url(#clip0_394_4967)">
<path d="M1.98456 11.3044C0.713155 13.9338 3.05176e-05 16.8836 3.05176e-05 20.0001C3.05176e-05 23.1166 0.713155 26.0663 1.98456 28.6957L20 30.4348L38.0155 28.6957C39.2869 26.0663 40 23.1166 40 20.0001C40 16.8836 39.2869 13.9338 38.0155 11.3044L20 9.56531L1.98456 11.3044Z" fill="black"/>
<path d="M1.98529 28.6956C5.22013 35.3856 12.0708 40 20.0001 40C27.9292 40 34.78 35.3856 38.0148 28.6956H1.98529Z" fill="#496E2D"/>
<path d="M1.98529 11.3044H38.0148C34.78 4.61448 27.9292 3.05176e-05 20.0001 3.05176e-05C12.0708 3.05176e-05 5.22013 4.61448 1.98529 11.3044Z" fill="#D80027"/>
<path d="M24.655 16.3426L26.296 18.604L28.9536 17.7422L27.31 20.0016L28.9507 22.2629L26.2942 21.3979L24.6506 23.6572L24.6523 20.8634L21.9956 19.9984L24.6532 19.1367L24.655 16.3426Z" fill="#F0F0F0"/>
<path d="M20.1766 25.6522C17.055 25.6522 14.5244 23.1216 14.5244 20C14.5244 16.8784 17.055 14.3478 20.1766 14.3478C21.1499 14.3478 22.0657 14.5939 22.8653 15.0272C21.6109 13.8005 19.8956 13.0434 18.0027 13.0434C14.1607 13.0434 11.0462 16.158 11.0462 19.9999C11.0462 23.8419 14.1607 26.9564 18.0027 26.9564C19.8957 26.9564 21.611 26.1993 22.8653 24.9726C22.0657 25.4061 21.15 25.6522 20.1766 25.6522Z" fill="#F0F0F0"/>
</g>
<defs>
<clipPath id="clip0_394_4967">
<rect width="40" height="40" fill="white"/>
</clipPath>
</defs>
</svg>
