<svg width="40" height="40" viewBox="0 0 40 40" fill="none" xmlns="http://www.w3.org/2000/svg">
<g clip-path="url(#clip0_394_4963)">
<path d="M40 20C40 31.0456 31.0456 40 20 40C8.9544 40 2.28882e-05 31.0456 2.28882e-05 20C0.869554 20 20 17.3913 20 17.3913L40 20Z" fill="#D80027"/>
<path d="M0.000343323 20C0.000343323 8.95439 8.95472 1.52588e-05 20.0003 1.52588e-05C31.046 1.52588e-05 40.0003 8.95439 40.0003 20" fill="#0052B4"/>
<path d="M14.7826 13.9131C14.7826 12.4724 13.6147 11.3044 12.1739 11.3044C11.5056 11.3044 10.8964 11.556 10.4348 11.9692V10.4348H11.3043V8.69566H10.4348V7.82613H8.69567V8.69566H7.82614V10.4348H8.69567V11.9692C8.23403 11.556 7.62489 11.3044 6.95653 11.3044C5.51582 11.3044 4.34785 12.4724 4.34785 13.9131C4.34785 14.6855 4.68387 15.3793 5.21739 15.857V17.3914H13.913V15.857C14.4467 15.3793 14.7826 14.6855 14.7826 13.9131Z" fill="#FFDA44"/>
</g>
<defs>
<clipPath id="clip0_394_4963">
<rect width="40" height="40" fill="white"/>
</clipPath>
</defs>
</svg>
