<svg width="40" height="40" viewBox="0 0 40 40" fill="none" xmlns="http://www.w3.org/2000/svg">
<g clip-path="url(#clip0_394_4959)">
<path d="M38.756 26.9565C39.56 24.79 40 22.4464 40 20C40 17.5536 39.56 15.2101 38.756 13.0435L20 11.3044L1.24398 13.0435C0.44 15.2101 0 17.5536 0 20C0 22.4464 0.44 24.79 1.24398 26.9565L20 28.6957L38.756 26.9565Z" fill="#6DA544"/>
<path d="M38.7558 13.0435C35.9299 5.42753 28.5991 3.05176e-05 19.9998 3.05176e-05C11.4005 3.05176e-05 4.06963 5.42753 1.24377 13.0435H38.7558Z" fill="#FFDA44"/>
<path d="M19.9998 40.0001C28.5991 40.0001 35.9299 34.5726 38.7558 26.9565H1.24377C4.06963 34.5726 11.4005 40.0001 19.9998 40.0001Z" fill="#D80027"/>
</g>
<defs>
<clipPath id="clip0_394_4959">
<rect width="40" height="40" fill="white"/>
</clipPath>
</defs>
</svg>
