<svg width="40" height="40" viewBox="0 0 40 40" fill="none" xmlns="http://www.w3.org/2000/svg">
<g clip-path="url(#clip0_394_4955)">
<path d="M20.0001 40C31.0458 40 40.0001 31.0457 40.0001 20C40.0001 8.95433 31.0458 2.28882e-05 20.0001 2.28882e-05C8.95437 2.28882e-05 6.10352e-05 8.95433 6.10352e-05 20C6.10352e-05 31.0457 8.95437 40 20.0001 40Z" fill="#F0F0F0"/>
<path d="M19.9999 3.05176e-05C11.4006 3.05176e-05 4.06976 5.42753 1.2439 13.0435H38.756C35.9301 5.42753 28.5992 3.05176e-05 19.9999 3.05176e-05Z" fill="#D80027"/>
<path d="M19.9999 40.0001C28.5992 40.0001 35.9301 34.5726 38.7559 26.9565H1.2439C4.06976 34.5726 11.4006 40.0001 19.9999 40.0001Z" fill="#338AF3"/>
</g>
<defs>
<clipPath id="clip0_394_4955">
<rect width="40" height="40" fill="white"/>
</clipPath>
</defs>
</svg>
