<svg width="40" height="40" viewBox="0 0 40 40" fill="none" xmlns="http://www.w3.org/2000/svg">
<g clip-path="url(#clip0_394_4938)">
<path d="M20.0002 40.0001C31.0459 40.0001 40.0003 31.0458 40.0003 20.0001C40.0003 8.95439 31.0459 8.39233e-05 20.0002 8.39233e-05C8.95455 8.39233e-05 0.000244141 8.95439 0.000244141 20.0001C0.000244141 31.0458 8.95455 40.0001 20.0002 40.0001Z" fill="#F0F0F0"/>
<path d="M13.0435 20V38.756C15.2101 39.56 17.5536 40 20 40C31.0456 40 40 31.0456 40 20C40 8.95437 13.0435 20 13.0435 20Z" fill="#6DA544"/>
<path d="M20 3.05176e-05C17.5536 3.05176e-05 15.2101 0.440109 13.0435 1.24401V20H40C40 8.95441 31.0456 3.05176e-05 20 3.05176e-05Z" fill="#D80027"/>
</g>
<defs>
<clipPath id="clip0_394_4938">
<rect width="40" height="40" fill="white"/>
</clipPath>
</defs>
</svg>
