<svg width="40" height="40" viewBox="0 0 40 40" fill="none" xmlns="http://www.w3.org/2000/svg">
<g clip-path="url(#clip0_394_4933)">
<path d="M6.10352e-05 20.0001C6.10352e-05 22.4465 0.440139 24.7899 1.24405 26.9565L20.0001 27.8261L38.7561 26.9566C39.5601 24.7899 40.0001 22.4465 40.0001 20.0001C40.0001 17.5536 39.5601 15.2102 38.7561 13.0436L20.0001 12.174L1.24405 13.0435C0.440139 15.2102 6.10352e-05 17.5536 6.10352e-05 20.0001H6.10352e-05Z" fill="#D80027"/>
<path d="M19.9999 3.05176e-05C11.4006 3.05176e-05 4.06976 5.42753 1.2439 13.0435H38.756C35.9301 5.42753 28.5992 3.05176e-05 19.9999 3.05176e-05Z" fill="black"/>
<path d="M38.7559 26.9565H1.2439C4.06976 34.5725 11.4006 40.0001 19.9999 40.0001C28.5992 40.0001 35.9301 34.5725 38.7559 26.9565Z" fill="#496E2D"/>
<path d="M25.9778 9.56526L23.5353 8.41636L24.836 6.05081L22.1836 6.55823L21.8475 3.8787L20 5.8494L18.1526 3.8787L17.8164 6.55823L15.1642 6.05081L16.4649 8.41636L14.0223 9.56526H25.9778Z" fill="#D80027"/>
</g>
<defs>
<clipPath id="clip0_394_4933">
<rect width="40" height="40" fill="white"/>
</clipPath>
</defs>
</svg>
