<svg width="40" height="40" viewBox="0 0 40 40" fill="none" xmlns="http://www.w3.org/2000/svg">
<g clip-path="url(#clip0_394_4918)">
<path d="M19.9998 40.0001C31.0455 40.0001 39.9998 31.0458 39.9998 20.0001C39.9998 8.95439 31.0455 8.39233e-05 19.9998 8.39233e-05C8.95412 8.39233e-05 -0.000183105 8.95439 -0.000183105 20.0001C-0.000183105 31.0458 8.95412 40.0001 19.9998 40.0001Z" fill="#D80027"/>
<path d="M6.95639 10.4348H33.0433V29.5653H6.95639V10.4348Z" fill="#6DA544"/>
<path d="M23.2207 25.6522C20.0992 25.6522 17.5686 23.1216 17.5686 20C17.5686 16.8785 20.0992 14.3478 23.2207 14.3478C24.194 14.3478 25.1099 14.5939 25.9094 15.0272C24.6551 13.8006 22.9399 13.0434 21.0468 13.0434C17.205 13.0434 14.0904 16.158 14.0904 19.9999C14.0904 23.8419 17.205 26.9564 21.0468 26.9564C22.9399 26.9564 24.6552 26.1993 25.9094 24.9727C25.1099 25.4061 24.194 25.6522 23.2207 25.6522Z" fill="#F0F0F0"/>
</g>
<defs>
<clipPath id="clip0_394_4918">
<rect width="40" height="40" fill="white"/>
</clipPath>
</defs>
</svg>
