<svg width="40" height="40" viewBox="0 0 40 40" fill="none" xmlns="http://www.w3.org/2000/svg">
<g clip-path="url(#clip0_394_4914)">
<path d="M26.9566 1.24401C24.7899 0.440109 22.4465 3.05176e-05 20.0001 3.05176e-05C17.5537 3.05176e-05 15.2102 0.440109 13.0436 1.24401L11.3044 20L13.0436 38.756C15.2102 39.56 17.5537 40 20.0001 40C22.4465 40 24.7899 39.56 26.9566 38.756L28.6957 20L26.9566 1.24401Z" fill="#FFDA44"/>
<path d="M40 20C40 11.4008 34.5725 4.06985 26.9565 1.24407V38.7562C34.5725 35.9302 40 28.5994 40 20Z" fill="#D80027"/>
<path d="M3.05176e-05 20C3.05176e-05 28.5994 5.42753 35.9302 13.0435 38.7561V1.24407C5.42753 4.06985 3.05176e-05 11.4008 3.05176e-05 20Z" fill="#6DA544"/>
</g>
<defs>
<clipPath id="clip0_394_4914">
<rect width="40" height="40" fill="white"/>
</clipPath>
</defs>
</svg>
