<svg width="40" height="40" viewBox="0 0 40 40" fill="none" xmlns="http://www.w3.org/2000/svg">
<g clip-path="url(#clip0_394_4905)">
<path d="M19.9998 40.0001C31.0455 40.0001 39.9998 31.0457 39.9998 20.0001C39.9998 16.6436 39.1717 13.4809 37.7106 10.7032L19.9763 20.0235L29.2967 2.2893C26.5191 0.828209 23.3563 8.39233e-05 19.9998 8.39233e-05C8.95421 8.39233e-05 -0.000167847 8.95446 -0.000167847 20.0001C-0.000167847 25.523 2.23843 30.523 5.85765 34.1423C9.47694 37.7616 14.4769 40.0001 19.9998 40.0001Z" fill="#0052B4"/>
<path d="M37.6897 10.7249C36.7742 8.98244 35.584 7.34642 34.1188 5.88127C32.6536 4.41611 31.0178 3.22588 29.2752 2.31049L5.83446 34.1656L37.6897 10.7249Z" fill="#F0F0F0"/>
<path d="M5.83446 34.1656L37.6897 10.7249C36.7742 8.98244 35.584 7.34643 34.1188 5.88127L5.83446 34.1656Z" fill="#FF9811"/>
<path d="M17.3678 11.7283L14.9253 12.8772L16.226 15.2428L13.5737 14.7354L13.2376 17.4148L11.3901 15.4441L9.54259 17.4148L9.20665 14.7354L6.55431 15.2427L7.85485 12.8771L5.41235 11.7283L7.85493 10.5793L6.55431 8.21387L9.20649 8.72113L9.54267 6.04176L11.3901 8.01246L13.2376 6.04176L13.5737 8.72113L16.2261 8.21387L14.9254 10.5794L17.3678 11.7283Z" fill="#F0F0F0"/>
</g>
<defs>
<clipPath id="clip0_394_4905">
<rect width="40" height="40" fill="white"/>
</clipPath>
</defs>
</svg>
