<svg width="40" height="40" viewBox="0 0 40 40" fill="none" xmlns="http://www.w3.org/2000/svg">
<g clip-path="url(#clip0_394_4900)">
<path d="M19.9998 40.0001C31.0455 40.0001 39.9998 31.0458 39.9998 20.0001C39.9998 8.95439 31.0455 8.39233e-05 19.9998 8.39233e-05C8.95414 8.39233e-05 -0.000167847 8.95439 -0.000167847 20.0001C-0.000167847 31.0458 8.95414 40.0001 19.9998 40.0001Z" fill="#496E2D"/>
<path d="M19.9999 23.1055C16.6697 23.1055 13.8877 20.7651 13.2051 17.6397C13.1003 18.1201 13.0434 18.6183 13.0434 19.1304C13.0434 22.9725 16.1578 26.0869 19.9999 26.0869C23.8419 26.0869 26.9564 22.9724 26.9564 19.1304C26.9564 18.6183 26.8995 18.1201 26.7946 17.6396C26.1121 20.7651 23.33 23.1055 19.9999 23.1055Z" fill="#FFDA44"/>
<path d="M19.9999 13.913L20.6474 15.9059H22.7429L21.0477 17.1376L21.6952 19.1305L19.9999 17.8987L18.3046 19.1305L18.9522 17.1376L17.257 15.9059H19.3524L19.9999 13.913Z" fill="#FFDA44"/>
</g>
<defs>
<clipPath id="clip0_394_4900">
<rect width="40" height="40" fill="white"/>
</clipPath>
</defs>
</svg>
