<svg width="40" height="40" viewBox="0 0 40 40" fill="none" xmlns="http://www.w3.org/2000/svg">
<g clip-path="url(#clip0_394_4895)">
<path d="M2.43172 10.4348L19.9999 12.1739L37.5681 10.4348C34.176 4.21792 27.5808 3.05176e-05 19.9999 3.05176e-05C12.4191 3.05176e-05 5.82383 4.21792 2.43172 10.4348Z" fill="#D80027"/>
<path d="M2.43183 29.5653L20 31.3044L37.5682 29.5653C39.1186 26.7238 40 23.4649 40 20L20 18.2609L3.05176e-05 20C3.05176e-05 23.4649 0.881515 26.7238 2.43183 29.5653Z" fill="#FFDA44"/>
<path d="M2.43183 10.4348C0.881515 13.2763 3.05176e-05 16.5352 3.05176e-05 20H40C40 16.5352 39.1186 13.2763 37.5682 10.4348H20H2.43183Z" fill="#0052B4"/>
<path d="M19.9999 40C27.5808 40 34.176 35.7821 37.5681 29.5653H2.43172C5.82383 35.7821 12.4191 40 19.9999 40Z" fill="#6DA544"/>
</g>
<defs>
<clipPath id="clip0_394_4895">
<rect width="40" height="40" fill="white"/>
</clipPath>
</defs>
</svg>
