<svg width="40" height="40" viewBox="0 0 40 40" fill="none" xmlns="http://www.w3.org/2000/svg">
<g clip-path="url(#clip0_394_4858)">
<path d="M20 40C22.4464 40 24.7899 39.56 26.9565 38.756L27.8261 20L26.9565 1.24395C24.7899 0.440045 22.4464 -3.29018e-05 20 -3.29018e-05C17.5536 -3.29018e-05 15.2101 0.440045 13.0435 1.24395L12.1739 20L13.0434 38.756C15.2101 39.56 17.5536 40 20 40Z" fill="#0052B4"/>
<path d="M0 20C0 28.5993 5.4275 35.9301 13.0435 38.756V1.24394C5.4275 4.0698 0 11.4007 0 20Z" fill="#A2001D"/>
<path d="M26.9566 1.24392V38.756C34.5726 35.9301 40.0001 28.5992 40.0001 19.9999C40.0001 11.4006 34.5726 4.06978 26.9566 1.24392Z" fill="#A2001D"/>
<path d="M9.56512 19.9999H11.3043V26.9564H9.56512V19.9999Z" fill="#FFDA44"/>
<path d="M2.60858 19.9999H4.34772V26.9564H2.60858V19.9999Z" fill="#FFDA44"/>
<path d="M6.9563 24.3478C7.91681 24.3478 8.69544 23.5691 8.69544 22.6086C8.69544 21.6481 7.91681 20.8695 6.9563 20.8695C5.9958 20.8695 5.21716 21.6481 5.21716 22.6086C5.21716 23.5691 5.9958 24.3478 6.9563 24.3478Z" fill="#FFDA44"/>
<path d="M6.95645 17.3912C7.43667 17.3912 7.82598 17.0019 7.82598 16.5217C7.82598 16.0415 7.43667 15.6522 6.95645 15.6522C6.47622 15.6522 6.08691 16.0415 6.08691 16.5217C6.08691 17.0019 6.47622 17.3912 6.95645 17.3912Z" fill="#FFDA44"/>
<path d="M5.21729 25.2174H8.69557V26.9565H5.21729V25.2174Z" fill="#FFDA44"/>
<path d="M5.21729 18.2608H8.69557V20H5.21729V18.2608Z" fill="#FFDA44"/>
<path d="M6.95633 10.4347L7.57227 12.3301H9.56508L7.95297 13.5015L8.56844 15.3968L6.95633 14.2254L5.3443 15.3968L5.95977 13.5015L4.34766 12.3301H6.34047L6.95633 10.4347Z" fill="#FFDA44"/>
</g>
<defs>
<clipPath id="clip0_394_4858">
<rect width="40" height="40" fill="white"/>
</clipPath>
</defs>
</svg>
