<svg width="40" height="40" viewBox="0 0 40 40" fill="none" xmlns="http://www.w3.org/2000/svg">
<g clip-path="url(#clip0_394_4847)">
<path d="M19.9998 40C31.0455 40 39.9998 31.0456 39.9998 20C39.9998 8.95426 31.0455 -4.29153e-05 19.9998 -4.29153e-05C8.95409 -4.29153e-05 -0.000213623 8.95426 -0.000213623 20C-0.000213623 31.0456 8.95409 40 19.9998 40Z" fill="#D80027"/>
<path d="M31.8193 16.4133H22.7901L19.9999 7.82607L17.2098 16.4133H8.18057L15.4853 21.7204L12.6951 30.3079L19.9999 25.0006L27.3048 30.3079L24.5146 21.7205L31.8193 16.4133ZM17.5298 21.0561L18.4733 18.1523H21.5265L22.4701 21.0561V21.0562L19.9999 22.8508L17.5299 21.0562L17.5298 21.0561ZM20.9615 16.4133H19.0385L19.9999 13.4539L20.9615 16.4133ZM23.9494 19.9814L23.3551 18.1524H26.4667L23.9494 19.9814ZM16.6447 18.1524L16.0504 19.9814L13.533 18.1524H16.6447ZM16.0032 25.7547L16.9647 22.7954L18.5206 23.9258L16.0032 25.7547ZM21.4793 23.9258L23.0352 22.7955L23.9967 25.7548L21.4793 23.9258Z" fill="#FFDA44"/>
</g>
<defs>
<clipPath id="clip0_394_4847">
<rect width="40" height="40" fill="white"/>
</clipPath>
</defs>
</svg>
