<svg width="40" height="40" viewBox="0 0 40 40" fill="none" xmlns="http://www.w3.org/2000/svg">
<g clip-path="url(#clip0_394_4838)">
<path d="M20.0002 39.9999C31.0459 39.9999 40.0003 31.0456 40.0003 19.9999C40.0003 8.95421 31.0459 -9.05991e-05 20.0002 -9.05991e-05C8.95455 -9.05991e-05 0.000244141 8.95421 0.000244141 19.9999C0.000244141 31.0456 8.95455 39.9999 20.0002 39.9999Z" fill="#F0F0F0"/>
<path d="M10.8104 27.826L5.85864 34.1414C9.4777 37.761 14.4772 39.9999 20.0001 39.9999C28.2681 39.9999 35.3629 34.982 38.4088 27.826H10.8104Z" fill="#FFDA44"/>
<path d="M38.4399 12.2463C35.4111 5.05169 28.2961 -3.29018e-05 20.0001 -3.29018e-05C14.4772 -3.29018e-05 9.47771 2.23895 5.85864 5.85848L10.8672 12.2463H38.4399Z" fill="#496E2D"/>
<path d="M4.34787 14.7101V25.2173H39.3111C39.7597 23.554 40 21.8052 40 20C40 18.1686 39.7533 16.3951 39.2922 14.7101H4.34787Z" fill="black"/>
<path d="M5.85788 5.85778C-1.95259 13.6683 -1.95259 26.3316 5.85788 34.1422C9.08546 30.9146 12.1896 27.8104 20.0001 20L5.85788 5.85778Z" fill="#A2001D"/>
<path d="M8.09447 14.7826L9.38939 18.7682H13.5805L10.19 21.2316L11.4849 25.2174L8.09447 22.754L4.70392 25.2174L5.99908 21.2316L2.60861 18.7682H6.79939L8.09447 14.7826Z" fill="#FFDA44"/>
<path d="M4.30521 19.9999H11.8852V23.4782H4.30521V19.9999Z" fill="#F0F0F0"/>
<path d="M13.3204 16.0124L12.0907 14.7826L8.09472 18.7785L4.09878 14.7826L2.86902 16.0124L6.86847 20.0047L2.86902 24.0043L4.09878 25.2174L8.09472 21.2286L12.0907 25.2174L13.3204 24.0043L9.32097 20.0047L13.3204 16.0124Z" fill="black"/>
</g>
<defs>
<clipPath id="clip0_394_4838">
<rect width="40" height="40" fill="white"/>
</clipPath>
</defs>
</svg>
