<svg width="40" height="40" viewBox="0 0 40 40" fill="none" xmlns="http://www.w3.org/2000/svg">
<g clip-path="url(#clip0_394_4833)">
<path d="M38.7561 26.9565C39.56 24.7899 40 22.4464 40 20C40 17.5536 39.56 15.21 38.7561 13.0435L20 11.3043L1.24402 13.0435C0.440109 15.21 3.05176e-05 17.5536 3.05176e-05 20C3.05176e-05 22.4464 0.440109 24.7899 1.24402 26.9565L20 28.6956L38.7561 26.9565Z" fill="#6DA544"/>
<path d="M38.7563 13.0435C35.9304 5.42747 28.5995 -3.29018e-05 20.0002 -3.29018e-05C11.4009 -3.29018e-05 4.07009 5.42747 1.24423 13.0435H38.7563Z" fill="#FFDA44"/>
<path d="M20.0002 39.9999C28.5995 39.9999 35.9304 34.5724 38.7563 26.9564H1.24423C4.07009 34.5724 11.4009 39.9999 20.0002 39.9999Z" fill="#D80027"/>
<path d="M33.7148 16.9207H23.2377L20 6.95645L16.7624 16.9207H6.28528L14.7614 23.079L11.5238 33.0435L20 26.9565L28.4763 33.0434L25.2387 23.079L33.7148 16.9207Z" fill="#F0F0F0"/>
</g>
<defs>
<clipPath id="clip0_394_4833">
<rect width="40" height="40" fill="white"/>
</clipPath>
</defs>
</svg>
