<svg width="40" height="40" viewBox="0 0 40 40" fill="none" xmlns="http://www.w3.org/2000/svg">
<g clip-path="url(#clip0_394_4827)">
<path d="M20.0003 39.9999C31.046 39.9999 40.0003 31.0456 40.0003 19.9999C40.0003 8.95421 31.046 -9.05991e-05 20.0003 -9.05991e-05C8.95457 -9.05991e-05 0.000259399 8.95421 0.000259399 19.9999C0.000259399 31.0456 8.95457 39.9999 20.0003 39.9999Z" fill="#F0F0F0"/>
<path d="M5.85783 34.1422C6.69681 34.9812 7.59197 35.7294 8.53095 36.3881L36.3879 8.53108C35.7292 7.5921 34.981 6.69694 34.142 5.85796C33.303 5.01897 32.4078 4.27085 31.4688 3.6121L3.61197 31.4691C4.27064 32.408 5.01884 33.3032 5.85783 34.1422Z" fill="#A2001D"/>
<path d="M5.85796 5.85776C-0.451729 12.1674 -1.66298 21.6434 2.22163 29.1701L29.1702 2.22159C21.6435 -1.66302 12.1675 -0.451613 5.85796 5.85776Z" fill="#0052B4"/>
<path d="M34.1421 34.1422C40.4516 27.8326 41.6629 18.3566 37.7784 10.8298L10.8298 37.7784C18.3565 41.663 27.8325 40.4518 34.1421 34.1422Z" fill="#496E2D"/>
<path d="M16.5217 11.3043L14.2806 12.3585L15.474 14.5289L13.0405 14.0635L12.7321 16.5217L11.0371 14.7136L9.34198 16.5217L9.0337 14.0635L6.6001 14.5289L7.79346 12.3584L5.55244 11.3043L7.79354 10.2501L6.6001 8.07979L9.03362 8.54526L9.34205 6.0869L11.0371 7.89502L12.7321 6.0869L13.0405 8.54526L15.474 8.07979L14.2807 10.2502L16.5217 11.3043Z" fill="#FFDA44"/>
</g>
<defs>
<clipPath id="clip0_394_4827">
<rect width="40" height="40" fill="white"/>
</clipPath>
</defs>
</svg>
