<svg width="40" height="40" viewBox="0 0 40 40" fill="none" xmlns="http://www.w3.org/2000/svg">
<g clip-path="url(#clip0_394_4820)">
<path d="M19.9998 39.9999C31.0455 39.9999 39.9998 31.0456 39.9998 19.9999C39.9998 8.95423 31.0455 -7.10487e-05 19.9998 -7.10487e-05C8.95409 -7.10487e-05 -0.000213623 8.95423 -0.000213623 19.9999C-0.000213623 31.0456 8.95409 39.9999 19.9998 39.9999Z" fill="#0052B4"/>
<path d="M19.9998 39.9999C31.0455 39.9999 39.9998 31.0456 39.9998 19.9999C39.9998 8.95423 31.0455 -7.10487e-05 19.9998 -7.10487e-05C8.95409 -7.10487e-05 -0.000213623 8.95423 -0.000213623 19.9999C-0.000213623 31.0456 8.95409 39.9999 19.9998 39.9999Z" fill="#FFDA44"/>
<path d="M20 -1.71661e-05C9.5403 -1.71661e-05 0.957641 8.02975 0.0761566 18.2608H39.9239C39.0423 8.02975 30.4597 -1.71661e-05 20 -1.71661e-05Z" fill="#0052B4"/>
<path d="M20 40C30.4597 40 39.0423 31.9702 39.9239 21.7391H0.0761566C0.957641 31.9702 9.5403 40 20 40Z" fill="#0052B4"/>
<path d="M16.5216 26.9565L14.2806 28.0107L15.4739 30.1811L13.0404 29.7155L12.732 32.1739L11.037 30.3658L9.34196 32.1739L9.0336 29.7155L6.60001 30.181L7.79345 28.0106L5.55235 26.9565L7.79352 25.9023L6.60001 23.732L9.03352 24.1975L9.34204 21.7391L11.037 23.5472L12.7321 21.7391L13.0404 24.1975L15.474 23.732L14.2806 25.9024L16.5216 26.9565Z" fill="#F0F0F0"/>
</g>
<defs>
<clipPath id="clip0_394_4820">
<rect width="40" height="40" fill="white"/>
</clipPath>
</defs>
</svg>
