<svg width="40" height="40" viewBox="0 0 40 40" fill="none" xmlns="http://www.w3.org/2000/svg">
<g clip-path="url(#clip0_394_4810)">
<path d="M20 40C31.0457 40 40 31.0457 40 20C40 8.9543 31.0457 0 20 0C8.9543 0 0 8.9543 0 20C0 31.0457 8.9543 40 20 40Z" fill="#F0F0F0"/>
<path d="M39.8825 22.1745L39.8822 22.1733L39.8821 22.1745H39.8825Z" fill="#0052B4"/>
<path d="M39.8821 22.1739C39.8821 22.1738 39.8821 22.1736 39.8821 22.1733L17.9489 0.104016C16.9595 0.204875 15.9913 0.377844 15.0498 0.61761C6.39831 2.82034 3.05176e-05 20 3.05176e-05 20C3.05176e-05 20 27.9999 38.7371 31.1942 36.5753C31.8333 36.1428 32.4461 35.6743 33.0296 35.1728L20.0309 22.1739H39.8821Z" fill="#0052B4"/>
<path d="M34.7826 20L15.3317 0.549162C6.53816 2.65205 3.05176e-05 10.5619 3.05176e-05 20C3.05176e-05 31.0456 8.95441 40 20 40C24.1898 40 28.0779 38.7108 31.2914 36.5087L14.7826 20H34.7826Z" fill="#D80027"/>
<path d="M19.0213 29.5307L16.5787 28.3818L17.8794 26.0162L15.227 26.5236L14.8909 23.8441L13.0435 25.8148L11.1961 23.8441L10.8599 26.5236L8.20766 26.0161L9.50836 28.3818L7.0657 29.5307L9.50836 30.6795L8.20766 33.0451L10.8601 32.5378L11.196 35.2172L13.0435 33.2465L14.8909 35.2172L15.227 32.5378L17.8793 33.0452L16.5786 30.6797L19.0213 29.5307Z" fill="#F0F0F0"/>
<path d="M17.3913 11.0924L15.6147 10.2568L16.5607 8.53629L14.6316 8.90535L14.3871 6.95645L13.0434 8.38981L11.6998 6.95645L11.4552 8.90535L9.5261 8.53629L10.4722 10.2568L8.69555 11.0924L13.0434 11.9621L17.3913 11.0924Z" fill="#F0F0F0"/>
<path d="M18.2609 11.0924C18.2609 13.9738 15.925 16.3098 13.0435 16.3098C10.162 16.3098 7.82607 13.9738 7.82607 11.0924" fill="#F0F0F0"/>
</g>
<defs>
<clipPath id="clip0_394_4810">
<rect width="40" height="40" fill="white"/>
</clipPath>
</defs>
</svg>
