<svg width="40" height="40" viewBox="0 0 40 40" fill="none" xmlns="http://www.w3.org/2000/svg">
<g clip-path="url(#clip0_394_4806)">
<path d="M19.9998 40C31.0455 40 39.9998 31.0457 39.9998 20C39.9998 8.95428 31.0455 -2.28882e-05 19.9998 -2.28882e-05C8.95412 -2.28882e-05 -0.000183105 8.95428 -0.000183105 20C-0.000183105 31.0457 8.95412 40 19.9998 40Z" fill="#F0F0F0"/>
<path d="M19.9999 -7.62939e-06C11.4006 -7.62939e-06 4.06975 5.42749 1.2439 13.0435H38.756C35.9301 5.42749 28.5992 -7.62939e-06 19.9999 -7.62939e-06Z" fill="#A2001D"/>
<path d="M19.9999 40C28.5992 40 35.9301 34.5725 38.7559 26.9565H1.2439C4.06976 34.5725 11.4006 40 19.9999 40Z" fill="#0052B4"/>
</g>
<defs>
<clipPath id="clip0_394_4806">
<rect width="40" height="40" fill="white"/>
</clipPath>
</defs>
</svg>
