<svg width="40" height="40" viewBox="0 0 40 40" fill="none" xmlns="http://www.w3.org/2000/svg">
<g clip-path="url(#clip0_394_4784)">
<path d="M20.0004 39.9999C31.0461 39.9999 40.0004 31.0456 40.0004 19.9999C40.0004 8.95424 31.0461 -6.86646e-05 20.0004 -6.86646e-05C8.95473 -6.86646e-05 0.000427246 8.95424 0.000427246 19.9999C0.000427246 31.0456 8.95473 39.9999 20.0004 39.9999Z" fill="#F0F0F0"/>
<path d="M20 -1.52588e-05C12.0708 -1.52588e-05 5.21956 4.61444 1.98456 11.3044H38.0154C34.7805 4.61444 27.9292 -1.52588e-05 20 -1.52588e-05Z" fill="#338AF3"/>
<path d="M20 40C27.9292 40 34.7805 35.3855 38.0155 28.6956H1.98456C5.21956 35.3855 12.0708 40 20 40Z" fill="#338AF3"/>
<path d="M20.0001 13.913C16.6384 13.913 13.9131 16.6383 13.9131 20C13.9131 23.3617 16.6384 26.0869 20.0001 26.0869C23.3618 26.0869 26.0871 23.3617 26.0871 20C26.0871 16.6383 23.3618 13.913 20.0001 13.913ZM20.0001 23.4783C18.0792 23.4783 16.5218 21.9211 16.5218 20C16.5218 18.0789 18.0791 16.5217 20.0001 16.5217C21.9211 16.5217 23.4784 18.0789 23.4784 20C23.4784 21.9211 21.921 23.4783 20.0001 23.4783Z" fill="#FFDA44"/>
<path d="M23.0125 20.8696L20.0001 20L16.9878 20.8696L15.9837 22.6087H24.0164L23.0125 20.8696Z" fill="#0052B4"/>
<path d="M20.0001 15.6522L17.9919 19.1305L20.0001 20L22.0084 19.1305L20.0001 15.6522Z" fill="#338AF3"/>
<path d="M16.9878 20.8695H23.0125L22.0083 19.1305H17.9919L16.9878 20.8695Z" fill="#6DA544"/>
</g>
<defs>
<clipPath id="clip0_394_4784">
<rect width="40" height="40" fill="white"/>
</clipPath>
</defs>
</svg>
