<svg width="40" height="40" viewBox="0 0 40 40" fill="none" xmlns="http://www.w3.org/2000/svg">
<g clip-path="url(#clip0_394_4778)">
<path d="M1.98447 11.3043C0.713064 13.9337 -6.10352e-05 16.8835 -6.10352e-05 20C-6.10352e-05 23.1165 0.713064 26.0662 1.98447 28.6956L19.9999 30.4347L38.0154 28.6956C39.2868 26.0662 39.9999 23.1165 39.9999 20C39.9999 16.8835 39.2868 13.9337 38.0154 11.3043L19.9999 9.5652L1.98447 11.3043Z" fill="#F0F0F0"/>
<path d="M1.98517 28.6956C5.22001 35.3855 12.0707 40 19.9999 40C27.9291 40 34.7799 35.3855 38.0147 28.6956H1.98517Z" fill="#6DA544"/>
<path d="M1.98523 11.3044H38.0148C34.7799 4.61444 27.9291 -1.52588e-05 20 -1.52588e-05C12.0709 -1.52588e-05 5.22007 4.61444 1.98523 11.3044Z" fill="#FF9811"/>
<path d="M19.9999 26.9565C23.8419 26.9565 26.9564 23.842 26.9564 20C26.9564 16.1581 23.8419 13.0435 19.9999 13.0435C16.158 13.0435 13.0435 16.1581 13.0435 20C13.0435 23.842 16.158 26.9565 19.9999 26.9565Z" fill="#FF9811"/>
</g>
<defs>
<clipPath id="clip0_394_4778">
<rect width="40" height="40" fill="white"/>
</clipPath>
</defs>
</svg>
