<svg width="40" height="40" viewBox="0 0 40 40" fill="none" xmlns="http://www.w3.org/2000/svg">
<g clip-path="url(#clip0_394_4773)">
<path d="M20.0003 40C31.046 40 40.0003 31.0457 40.0003 20C40.0003 8.95428 31.046 -2.28882e-05 20.0003 -2.28882e-05C8.95461 -2.28882e-05 0.000305176 8.95428 0.000305176 20C0.000305176 31.0457 8.95461 40 20.0003 40Z" fill="#F0F0F0"/>
<path d="M0 19.9999C0 28.5993 5.4275 35.9301 13.0435 38.756V1.24401C5.4275 4.06979 0 11.4007 0 19.9999Z" fill="#6DA544"/>
<path d="M40.0001 19.9999C40.0001 11.4007 34.5726 4.06979 26.9566 1.24401V38.7561C34.5726 35.9301 40.0001 28.5993 40.0001 19.9999Z" fill="#6DA544"/>
</g>
<defs>
<clipPath id="clip0_394_4773">
<rect width="40" height="40" fill="white"/>
</clipPath>
</defs>
</svg>
