<svg width="40" height="40" viewBox="0 0 40 40" fill="none" xmlns="http://www.w3.org/2000/svg">
<g clip-path="url(#clip0_394_4757)">
<path d="M20.0003 39.9999C31.046 39.9999 40.0003 31.0456 40.0003 19.9999C40.0003 8.9542 31.046 -0.000106812 20.0003 -0.000106812C8.95464 -0.000106812 0.000335693 8.9542 0.000335693 19.9999C0.000335693 31.0456 8.95464 39.9999 20.0003 39.9999Z" fill="#F0F0F0"/>
<path d="M0.689148 25.2174C1.84634 29.5111 4.39673 33.2325 7.82626 35.8675V25.2174H0.689148Z" fill="#D80027"/>
<path d="M18.261 39.9239C18.8343 39.9733 19.4141 40 20.0002 40C29.2407 40 37.0162 33.7327 39.3112 25.2174H18.261V39.9239Z" fill="#D80027"/>
<path d="M39.3112 14.7826C37.0162 6.26725 29.2407 -1.52588e-05 20.0002 -1.52588e-05C19.4141 -1.52588e-05 18.8343 0.0267035 18.261 0.0760785V14.7826H39.3112Z" fill="#D80027"/>
<path d="M7.82626 4.13244C4.39673 6.76759 1.84634 10.4889 0.689148 14.7826H7.82626V4.13244Z" fill="#D80027"/>
<path d="M39.8307 17.3913H15.6523H15.6522V0.475365C13.8039 0.885208 12.0517 1.54951 10.4348 2.43177V17.3911V17.3912H0.169327C0.0579993 18.2452 3.05176e-05 19.1158 3.05176e-05 20C3.05176e-05 20.8841 0.0579993 21.7547 0.169327 22.6086H10.4347H10.4348V37.5681C12.0517 38.4503 13.8039 39.1147 15.6522 39.5245V22.6089V22.6087H39.8307C39.9419 21.7547 40 20.8841 40 20C40 19.1158 39.9419 18.2452 39.8307 17.3913Z" fill="#0052B4"/>
</g>
<defs>
<clipPath id="clip0_394_4757">
<rect width="40" height="40" fill="white"/>
</clipPath>
</defs>
</svg>
