<svg width="40" height="40" viewBox="0 0 40 40" fill="none" xmlns="http://www.w3.org/2000/svg">
<g clip-path="url(#clip0_394_4749)">
<path d="M19.9998 40C31.0455 40 39.9998 31.0457 39.9998 20C39.9998 8.95429 31.0455 -1.52588e-05 19.9998 -1.52588e-05C8.95412 -1.52588e-05 -0.000183105 8.95429 -0.000183105 20C-0.000183105 31.0457 8.95412 40 19.9998 40Z" fill="#F0F0F0"/>
<path d="M-3.05176e-05 20C-3.05176e-05 27.5809 4.21794 34.1762 10.4347 37.5682V2.43183C4.21794 5.82386 -3.05176e-05 12.4192 -3.05176e-05 20Z" fill="#D80027"/>
<path d="M38.7561 26.9565C39.56 24.7899 40 22.4465 40 20C40 17.5536 39.56 15.2101 38.7561 13.0436H1.24403C0.440048 15.2101 -3.05176e-05 17.5536 -3.05176e-05 20C-3.05176e-05 22.4465 0.440048 24.7899 1.24403 26.9565L20 28.6957L38.7561 26.9565Z" fill="#D80027"/>
<path d="M20 40C28.5994 40 35.9301 34.5725 38.7561 26.9564H1.24405C4.06983 34.5725 11.4008 40 20 40Z" fill="#6DA544"/>
<path d="M-3.05176e-05 20C-3.05176e-05 29.2405 6.26723 37.016 14.7825 39.311V0.688972C6.26723 2.98397 -3.05176e-05 10.7594 -3.05176e-05 20Z" fill="#D80027"/>
<path d="M12.2358 8.80108L10.3911 6.95647L9.16146 8.18632L7.93177 6.95647L6.08716 8.80108L7.31693 10.0308L6.08701 11.2607L7.93162 13.1053L9.16138 11.8755L10.3911 13.1053L12.2358 11.2607L11.006 10.0308L12.2358 8.80108Z" fill="#F0F0F0"/>
</g>
<defs>
<clipPath id="clip0_394_4749">
<rect width="40" height="40" fill="white"/>
</clipPath>
</defs>
</svg>
