<svg width="40" height="40" viewBox="0 0 40 40" fill="none" xmlns="http://www.w3.org/2000/svg">
<g clip-path="url(#clip0_394_4732)">
<path d="M20.0003 40C31.046 40 40.0003 31.0457 40.0003 20C40.0003 8.95429 31.046 -1.52588e-05 20.0003 -1.52588e-05C8.95459 -1.52588e-05 0.000289917 8.95429 0.000289917 20C0.000289917 31.0457 8.95459 40 20.0003 40Z" fill="#F0F0F0"/>
<path d="M3.05176e-05 20C3.05176e-05 31.0456 8.9544 40 20 40C20 32.3942 20 20 20 20C20 20 6.95651 20 3.05176e-05 20Z" fill="#0052B4"/>
<path d="M19.9999 -7.62939e-06C31.0456 -7.62939e-06 39.9999 8.95437 39.9999 20C32.3941 20 19.9999 20 19.9999 20C19.9999 20 19.9999 6.95648 19.9999 -7.62939e-06Z" fill="#D80027"/>
<path d="M11.9054 6.95647L13.2005 10.9423H17.3913L14.0009 13.4055L15.2959 17.3913L11.9054 14.928L8.51492 17.3913L9.80992 13.4055L6.41945 10.9423H10.6103L11.9054 6.95647Z" fill="#0052B4"/>
<path d="M28.0947 22.6087L29.3898 26.5945H33.5807L30.1901 29.0577L31.4852 33.0435L28.0947 30.5802L24.7043 33.0435L25.9993 29.0577L22.6088 26.5945H26.7997L28.0947 22.6087Z" fill="#D80027"/>
</g>
<defs>
<clipPath id="clip0_394_4732">
<rect width="40" height="40" fill="white"/>
</clipPath>
</defs>
</svg>
