<svg width="40" height="40" viewBox="0 0 40 40" fill="none" xmlns="http://www.w3.org/2000/svg">
<g clip-path="url(#clip0_394_4722)">
<path d="M34.1422 34.1421C26.3317 41.9526 13.6684 41.9526 5.85781 34.1421C-1.95266 26.3317 -1.95266 13.6683 5.85789 5.85775C13.6684 -1.95272 25.1019 -0.722957 32.9123 7.08759C40.7227 14.8981 41.9526 26.3317 34.1422 34.1421Z" fill="black"/>
<path d="M5.85792 5.8578C13.6684 -1.95267 26.3316 -1.95251 34.1422 5.85788C41.9527 13.6683 41.9527 26.3316 34.1422 34.1422" fill="#A2001D"/>
<path d="M15.2844 26.9566L15.6081 27.9531H16.6559L15.8082 28.5689L16.1321 29.5654L15.2844 28.9495L14.4367 29.5654L14.7605 28.5689L13.9129 27.9531H14.9606L15.2844 26.9566Z" fill="#F0F0F0"/>
<path d="M12.6086 17.3913L13.1484 19.0521H14.8945L13.4817 20.0785L14.0213 21.7392L12.6086 20.7127L11.196 21.7392L11.7356 20.0785L10.3228 19.0521H12.0691L12.6086 17.3913Z" fill="#F0F0F0"/>
<path d="M12.6086 29.5653L13.1482 31.2261H14.8945L13.4816 32.2524L14.0213 33.9132L12.6086 32.8867L11.196 33.9132L11.7355 32.2524L10.3228 31.2261H12.0688L12.6086 29.5653Z" fill="#F0F0F0"/>
<path d="M17.7141 21.7392L18.2539 23.4H20L18.5872 24.4263L19.1268 26.0871L17.7141 25.0606L16.3014 26.0871L16.8411 24.4263L15.4284 23.4H17.1746L17.7141 21.7392Z" fill="#F0F0F0"/>
<path d="M7.50304 21.7392L8.04281 23.4H9.78882L8.37617 24.4263L8.9157 26.0871L7.50304 25.0606L6.09031 26.0871L6.63007 24.4263L5.21726 23.4H6.96343L7.50304 21.7392Z" fill="#F0F0F0"/>
<path d="M33.4803 14.8095C32.5865 13.9157 31.4251 13.3876 30.177 13.2969L33.913 10.3912C32.4251 8.90332 30.4309 8.23136 28.4849 8.37347C28.252 7.53628 27.8078 6.7455 27.1495 6.08714L25.6738 9.03855C25.577 8.86214 25.4544 8.69613 25.3048 8.54667C24.4558 7.69769 23.0794 7.69769 22.2305 8.54667C21.3816 9.39566 21.3814 10.7721 22.2305 11.621C22.3799 11.7705 22.546 11.8931 22.7224 11.99L19.771 13.4657C20.4295 14.1243 21.2209 14.5687 22.0585 14.8015C21.9159 16.7475 22.5872 18.7414 24.0752 20.2293L27.3392 16.0326C27.5848 15.7908 27.9091 15.6573 28.2541 15.6573C28.6025 15.6573 28.93 15.7929 29.1763 16.0394C29.4227 16.2857 29.5584 16.6133 29.5584 16.9617C29.5584 17.3101 29.4227 17.6376 29.1763 17.884L30.4062 19.1139C30.9809 18.539 31.2976 17.7747 31.2976 16.9618C31.2976 16.2966 31.0854 15.6643 30.6937 15.1414C31.2645 15.2939 31.8039 15.5925 32.2508 16.0394C33.607 17.3956 33.607 19.6023 32.2508 20.9584L33.4806 22.1882C34.466 21.2028 35.0088 19.8926 35.0088 18.4989C35.0085 17.1051 34.4657 15.795 33.4803 14.8095Z" fill="#FFDA44"/>
</g>
<defs>
<clipPath id="clip0_394_4722">
<rect width="40" height="40" fill="white"/>
</clipPath>
</defs>
</svg>
