<svg width="40" height="40" viewBox="0 0 40 40" fill="none" xmlns="http://www.w3.org/2000/svg">
<g clip-path="url(#clip0_394_4711)">
<path d="M20.0004 40C31.0461 40 40.0004 31.0457 40.0004 20C40.0004 8.95435 31.0461 4.57764e-05 20.0004 4.57764e-05C8.95467 4.57764e-05 0.000366211 8.95435 0.000366211 20C0.000366211 31.0457 8.95467 40 20.0004 40Z" fill="#F0F0F0"/>
<path d="M40.0002 20C40.0002 11.4008 34.5727 4.06985 26.9567 1.24406V38.7562C34.5727 35.9302 40.0002 28.5994 40.0002 20Z" fill="#D80027"/>
<path d="M6.10352e-05 20C6.10352e-05 28.5994 5.42756 35.9302 13.0436 38.7561V1.24406C5.42756 4.06985 6.10352e-05 11.4008 6.10352e-05 20Z" fill="#D80027"/>
</g>
<defs>
<clipPath id="clip0_394_4711">
<rect width="40" height="40" fill="white"/>
</clipPath>
</defs>
</svg>
