<svg width="40" height="40" viewBox="0 0 40 40" fill="none" xmlns="http://www.w3.org/2000/svg">
<g clip-path="url(#clip0_394_4690)">
<path d="M20.0002 40.0001C31.0459 40.0001 40.0002 31.0458 40.0002 20.0001C40.0002 8.95441 31.0459 0.000106812 20.0002 0.000106812C8.95455 0.000106812 0.000244141 8.95441 0.000244141 20.0001C0.000244141 31.0458 8.95455 40.0001 20.0002 40.0001Z" fill="#F0F0F0"/>
<path d="M40 20C40 8.95439 31.0456 1.52588e-05 20 1.52588e-05C16.0875 1.52588e-05 12.438 1.12462 9.35533 3.0665L13.7392 4.92908L7.82611 7.44142L13.7392 9.95369L7.82611 12.4659L13.7392 14.978L7.82611 17.4898L13.7392 20.0014L7.82611 22.5136L13.7392 25.0256L7.82611 27.5374L13.7392 30.0495L7.82611 32.5617L13.7392 35.0734L9.35728 36.935C12.4395 38.8759 16.0883 40 20 40C31.0456 40 40 31.0456 40 20Z" fill="#751A46"/>
</g>
<defs>
<clipPath id="clip0_394_4690">
<rect width="40" height="40" fill="white"/>
</clipPath>
</defs>
</svg>
