<svg width="40" height="40" viewBox="0 0 40 40" fill="none" xmlns="http://www.w3.org/2000/svg">
<g clip-path="url(#clip0_394_4682)">
<path d="M19.9998 40C31.0455 40 39.9998 31.0457 39.9998 20C39.9998 8.95435 31.0455 4.57764e-05 19.9998 4.57764e-05C8.95412 4.57764e-05 -0.000183105 8.95435 -0.000183105 20C-0.000183105 31.0457 8.95412 40 19.9998 40Z" fill="#F0F0F0"/>
<path d="M38.756 26.9565C39.56 24.7898 40 22.4464 40 20C40 17.5536 39.56 15.2101 38.756 13.0435H1.24395C0.440048 15.2101 -3.05176e-05 17.5536 -3.05176e-05 20C-3.05176e-05 22.4464 0.440048 24.7898 1.24395 26.9565L20 28.6956L38.756 26.9565Z" fill="#0052B4"/>
<path d="M19.9998 40C28.5991 40 35.9299 34.5725 38.7558 26.9565H1.24377C4.06963 34.5725 11.4005 40 19.9998 40Z" fill="#D80027"/>
</g>
<defs>
<clipPath id="clip0_394_4682">
<rect width="40" height="40" fill="white"/>
</clipPath>
</defs>
</svg>
