<svg width="40" height="40" viewBox="0 0 40 40" fill="none" xmlns="http://www.w3.org/2000/svg">
<g clip-path="url(#clip0_394_4643)">
<path d="M40.0002 20C40.0002 31.0457 31.0459 40 20.0002 40C8.95462 40 0.000244141 31.0457 0.000244141 20C6.86978 13.1305 12.6959 7.30442 20.0002 4.57764e-05C31.0459 4.57764e-05 40.0002 8.95442 40.0002 20Z" fill="#D80027"/>
<path d="M20.0002 20C20.0002 8.95442 20.0002 7.65223 20.0002 4.57764e-05C8.95462 4.57764e-05 0.000244141 8.95442 0.000244141 20H20.0002Z" fill="#0052B4"/>
<path d="M16.0199 13.0435L16.3437 14.04H17.3914L16.5437 14.6557L16.8676 15.6522L16.0199 15.0363L15.1723 15.6522L15.4961 14.6557L14.6484 14.04H15.6961L16.0199 13.0435Z" fill="#F0F0F0"/>
<path d="M10.7576 5.21739L11.2973 6.87825H13.0435L11.6307 7.90442L12.1705 9.5652L10.7576 8.53872L9.34491 9.5652L9.8846 7.90442L8.47186 6.87825H10.218L10.7576 5.21739Z" fill="#F0F0F0"/>
<path d="M15.9751 6.95644L16.5147 8.61737H18.2609L16.8482 9.64355L17.3878 11.3043L15.9751 10.2778L14.5624 11.3043L15.1021 9.64355L13.6893 8.61737H15.4354L15.9751 6.95644Z" fill="#F0F0F0"/>
<path d="M11.851 13.913L12.3907 15.5738H14.1368L12.7241 16.6L13.2638 18.2608L11.851 17.2344L10.4383 18.2608L10.978 16.6L9.56525 15.5738H11.3114L11.851 13.913Z" fill="#F0F0F0"/>
<path d="M7.27936 9.56522L7.81904 11.2261H9.56521L8.1524 12.2522L8.69209 13.913L7.27936 12.8866L5.8667 13.913L6.40631 12.2522L4.99365 11.2261H6.73975L7.27936 9.56522Z" fill="#F0F0F0"/>
</g>
<defs>
<clipPath id="clip0_394_4643">
<rect width="40" height="40" fill="white"/>
</clipPath>
</defs>
</svg>
