<svg width="40" height="40" viewBox="0 0 40 40" fill="none" xmlns="http://www.w3.org/2000/svg">
<g clip-path="url(#clip0_394_4635)">
<path d="M40.0001 20C40.0001 31.0456 31.0457 40 20.0001 40C8.95444 40 6.10352e-05 31.0456 6.10352e-05 20C0.869592 20 20.0001 17.3913 20.0001 17.3913L40.0001 20Z" fill="#338AF3"/>
<path d="M0.000305176 20C0.000305176 8.95442 8.95468 4.57764e-05 20.0003 4.57764e-05C31.0459 4.57764e-05 40.0003 8.95442 40.0003 20" fill="#F0F0F0"/>
<path d="M27.9388 13.8003L20.0001 21.7391L12.0613 13.8003C11.0347 15.3243 10.4349 17.1586 10.4349 19.1304V21.7391C10.4349 25.9278 13.1416 29.496 16.8976 30.7875C16.3963 31.77 16.4808 32.9962 17.2154 33.913C18.191 33.131 19.2011 32.3216 20.058 31.635C20.9149 32.3216 21.925 33.1311 22.9006 33.913C23.6438 32.9855 23.7222 31.7409 23.2011 30.7527C26.9058 29.4331 29.5652 25.8911 29.5652 21.7391V19.1305C29.5653 17.1586 28.9655 15.3244 27.9388 13.8003Z" fill="#6DA544"/>
<path d="M20 28.6956C16.1641 28.6956 13.0435 25.5749 13.0435 21.7392V19.1305C13.0435 15.2946 16.1642 12.174 20 12.174C23.8358 12.174 26.9565 15.2947 26.9565 19.1305V21.7392C26.9565 25.5749 23.8359 28.6956 20 28.6956Z" fill="#FFDA44"/>
<path d="M24.3477 21.7392V19.1305C24.3477 16.7331 22.3973 14.7827 19.9999 14.7827C17.6026 14.7827 15.6521 16.7331 15.6521 19.1305V21.7392L19.9999 22.6087L24.3477 21.7392Z" fill="#338AF3"/>
<path d="M15.6521 21.7392C15.6521 24.1366 17.6026 26.087 19.9999 26.087C22.3973 26.087 24.3477 24.1365 24.3477 21.7392H15.6521Z" fill="#6DA544"/>
<path d="M25.2175 12.1739C25.2175 10.7332 24.0496 9.56523 22.6089 9.56523C21.9405 9.56523 21.3314 9.81679 20.8697 10.23V8.69562H21.7393V6.95648H20.8697V6.08694H19.1306V6.95648H18.2611V8.69562H19.1306V10.23C18.6689 9.81679 18.0597 9.56523 17.3914 9.56523C15.9507 9.56523 14.7828 10.7332 14.7828 12.1739C14.7828 12.9463 15.1188 13.6401 15.6523 14.1178V15.6522H24.3479V14.1178C24.8815 13.6401 25.2175 12.9463 25.2175 12.1739Z" fill="#FFDA44"/>
</g>
<defs>
<clipPath id="clip0_394_4635">
<rect width="40" height="40" fill="white"/>
</clipPath>
</defs>
</svg>
