<svg width="40" height="40" viewBox="0 0 40 40" fill="none" xmlns="http://www.w3.org/2000/svg">
<g clip-path="url(#clip0_394_4627)">
<path d="M19.9998 39.9999C31.0455 39.9999 39.9998 31.0456 39.9998 19.9999C39.9998 8.95418 31.0455 -0.00012207 19.9998 -0.00012207C8.95412 -0.00012207 -0.000183105 8.95418 -0.000183105 19.9999C-0.000183105 31.0456 8.95412 39.9999 19.9998 39.9999Z" fill="#FFDA44"/>
<path d="M12.1739 13.0434H38.7559C35.9301 5.42741 28.5992 -9.15527e-05 19.9999 -9.15527e-05C14.477 -9.15527e-05 9.47752 2.23889 5.85846 5.85842L12.1739 13.0434Z" fill="#6DA544"/>
<path d="M12.1739 26.9564H38.7559C35.9301 34.5724 28.5992 39.9999 19.9999 39.9999C14.477 39.9999 9.47752 37.7609 5.85846 34.1414L12.1739 26.9564Z" fill="#6DA544"/>
<path d="M5.85785 5.85777C-1.95262 13.6682 -1.95262 26.3316 5.85785 34.1421C9.08543 30.9146 12.1896 27.8104 20 20L5.85785 5.85777Z" fill="#D80027"/>
<path d="M25.3964 16.5217L26.2598 19.1788H29.0537L26.7934 20.821L27.6567 23.4782L25.3964 21.8359L23.1361 23.4782L23.9994 20.821L21.7391 19.1788H24.533L25.3964 16.5217Z" fill="black"/>
<path d="M34.0921 16.5217L34.9554 19.1788H37.7493L35.489 20.821L36.3523 23.4782L34.0921 21.8359L31.8317 23.4782L32.6951 20.821L30.4348 19.1788H33.2287L34.0921 16.5217Z" fill="black"/>
</g>
<defs>
<clipPath id="clip0_394_4627">
<rect width="40" height="40" fill="white"/>
</clipPath>
</defs>
</svg>
