<svg width="40" height="40" viewBox="0 0 40 40" fill="none" xmlns="http://www.w3.org/2000/svg">
<g clip-path="url(#clip0_394_4596)">
<path d="M20.0002 39.9999C31.0459 39.9999 40.0003 31.0456 40.0003 19.9999C40.0003 8.95418 31.0459 -0.00012207 20.0002 -0.00012207C8.95455 -0.00012207 0.000244141 8.95418 0.000244141 19.9999C0.000244141 31.0456 8.95455 39.9999 20.0002 39.9999Z" fill="#F0F0F0"/>
<path d="M33.5006 5.24503C29.9428 1.98784 25.2037 -4.57764e-05 19.9999 -4.57764e-05C19.148 -4.57764e-05 18.3086 0.0536261 17.4847 0.156985L7.82602 11.3043L0.632812 25.0102C1.0975 26.8118 1.80797 28.5145 2.72461 30.0818L19.9999 20L33.5006 5.24503Z" fill="#FFDA44"/>
<path d="M36.6509 31.081L8.66901 36.481C11.89 38.6998 15.793 39.9999 20 39.9999C26.947 39.9999 33.0657 36.4575 36.6509 31.081Z" fill="#6DA544"/>
<path d="M33.5035 5.24762L2.73608 30.1011C3.54085 31.4736 4.50437 32.7417 5.60179 33.8799L40 19.9999C40 14.1593 37.496 8.90403 33.5035 5.24762Z" fill="#D80027"/>
<path d="M3.05176e-05 19.9999C3.05176e-05 21.7302 0.219874 23.409 0.632921 25.0102L17.4848 0.156967C7.62644 1.394 3.05176e-05 9.80619 3.05176e-05 19.9999Z" fill="#0052B4"/>
</g>
<defs>
<clipPath id="clip0_394_4596">
<rect width="40" height="40" fill="white"/>
</clipPath>
</defs>
</svg>
