<svg width="40" height="40" viewBox="0 0 40 40" fill="none" xmlns="http://www.w3.org/2000/svg">
<g clip-path="url(#clip0_394_4592)">
<path d="M38.7561 26.9565C39.56 24.7898 40 22.4464 40 20C40 17.5536 39.56 15.2101 38.7561 13.0435L20 11.3043L1.24402 13.0435C0.440031 15.2101 3.05176e-05 17.5536 3.05176e-05 20C3.05176e-05 22.4464 0.440031 24.7898 1.24402 26.9565L20 28.6956L38.7561 26.9565Z" fill="#F0F0F0"/>
<path d="M20 39.9999C28.5993 39.9999 35.9302 34.5724 38.756 26.9564H1.24396C4.06989 34.5724 11.4007 39.9999 20 39.9999Z" fill="#338AF3"/>
<path d="M20 -4.57764e-05C11.4007 -4.57764e-05 4.06989 5.42745 1.24396 13.0435H38.7561C35.9302 5.42745 28.5993 -4.57764e-05 20 -4.57764e-05Z" fill="#6DA544"/>
</g>
<defs>
<clipPath id="clip0_394_4592">
<rect width="40" height="40" fill="white"/>
</clipPath>
</defs>
</svg>
