<svg width="40" height="40" viewBox="0 0 40 40" fill="none" xmlns="http://www.w3.org/2000/svg">
<g clip-path="url(#clip0_394_4564)">
<path d="M34.1427 34.1427C41.6435 26.6418 41.9397 14.6664 35.0343 6.81029L20 19.9999L6.81032 35.0343C14.6665 41.9397 26.6418 41.6435 34.1427 34.1427Z" fill="#496E2D"/>
<path d="M5.85713 5.85746C13.358 -1.64339 25.3333 -1.93956 33.1895 4.96582L19.9998 20.0003L4.96557 33.1898C-1.93989 25.3337 -1.64364 13.3583 5.85713 5.85746Z" fill="#0052B4"/>
<path d="M33.1895 4.96573L4.96562 33.1897C5.25093 33.5143 5.54718 33.8328 5.85726 34.1427C6.16726 34.4527 6.48578 34.7489 6.81046 35.0344L35.0342 6.81041C34.7489 6.48573 34.4526 6.16729 34.1425 5.85721C33.8327 5.54737 33.5142 5.25104 33.1895 4.96573Z" fill="#FFDA44"/>
<path d="M8.42657 6.95598L8.85837 8.28465H10.2553L9.12516 9.10566L9.5568 10.4343L8.42657 9.61316L7.29634 10.4343L7.72813 9.10566L6.5979 8.28465H7.99493L8.42657 6.95598Z" fill="#F0F0F0"/>
<path d="M15.5625 6.95598L15.9943 8.28465H17.3912L16.261 9.10566L16.6927 10.4343L15.5625 9.61316L14.4323 10.4343L14.8641 9.10566L13.7338 8.28465H15.1308L15.5625 6.95598Z" fill="#F0F0F0"/>
<path d="M8.42657 13.9128L8.85837 15.2415H10.2553L9.12516 16.0625L9.5568 17.3912L8.42657 16.57L7.29634 17.3912L7.72813 16.0625L6.5979 15.2415H7.99493L8.42657 13.9128Z" fill="#F0F0F0"/>
<path d="M15.5625 13.9128L15.9943 15.2415H17.3912L16.261 16.0625L16.6927 17.3912L15.5625 16.57L14.4323 17.3912L14.8641 16.0625L13.7338 15.2415H15.1308L15.5625 13.9128Z" fill="#F0F0F0"/>
<path d="M11.9946 10.4343L12.4264 11.763H13.8233L12.6931 12.5841L13.1248 13.9127L11.9946 13.0916L10.8644 13.9127L11.2961 12.5841L10.1659 11.763H11.5629L11.9946 10.4343Z" fill="#F0F0F0"/>
</g>
<defs>
<clipPath id="clip0_394_4564">
<rect width="40" height="40" fill="white"/>
</clipPath>
</defs>
</svg>
