<svg width="40" height="40" viewBox="0 0 40 40" fill="none" xmlns="http://www.w3.org/2000/svg">
<g clip-path="url(#clip0_394_4554)">
<path d="M20.0002 40.0001C31.0459 40.0001 40.0003 31.0458 40.0003 20.0001C40.0003 8.95443 31.0459 0.00012207 20.0002 0.00012207C8.95455 0.00012207 0.000244141 8.95443 0.000244141 20.0001C0.000244141 31.0458 8.95455 40.0001 20.0002 40.0001Z" fill="#F0F0F0"/>
<path d="M5.85791 34.1422C-1.95256 26.3317 -1.95256 13.6684 5.85791 5.85785C5.85736 5.85871 17.3914 20 17.3914 20L5.85791 34.1422Z" fill="black"/>
<path d="M17.3913 20.0001L2.65258 10.0402C2.19563 10.8345 1.79266 11.6635 1.44641 12.5216L8.90805 20.0002L1.44665 27.4791C1.79258 28.3366 2.19516 29.1651 2.6518 29.9588L17.3913 20.0001Z" fill="#FFDA44"/>
<path d="M39.8307 17.3913H17.3908L5.85765 5.85812C4.61484 7.10094 3.53508 8.50648 2.65258 10.0402L12.5931 20L2.65179 29.9586C3.53429 31.4927 4.61453 32.8987 5.85765 34.1418L17.3908 22.6087H39.8307C39.9419 21.7548 40 20.8841 40 20C40 19.1159 39.9419 18.2452 39.8307 17.3913Z" fill="#6DA544"/>
<path d="M7.82318 35.8655C11.1958 38.4578 15.4174 40.0001 19.9999 40.0001C29.2404 40.0001 37.0159 33.7328 39.3109 25.2175H18.4712L7.82318 35.8655Z" fill="#0052B4"/>
<path d="M39.3109 14.7826C37.0159 6.2673 29.2404 3.05176e-05 19.9999 3.05176e-05C15.4174 3.05176e-05 11.1958 1.5423 7.82318 4.13464L18.4711 14.7826H39.3109Z" fill="#D80027"/>
</g>
<defs>
<clipPath id="clip0_394_4554">
<rect width="40" height="40" fill="white"/>
</clipPath>
</defs>
</svg>
