<svg width="40" height="40" viewBox="0 0 40 40" fill="none" xmlns="http://www.w3.org/2000/svg">
<mask id="mask0_394_4665" style="mask-type:alpha" maskUnits="userSpaceOnUse" x="0" y="0" width="40" height="40">
<path d="M20 40C31.0457 40 40 31.0457 40 20C40 8.9543 31.0457 0 20 0C8.9543 0 0 8.9543 0 20C0 31.0457 8.9543 40 20 40Z" fill="#D80027"/>
</mask>
<g mask="url(#mask0_394_4665)">
<rect x="-9.7998" y="-0.600067" width="59.5" height="42.5" rx="21.25" fill="white"/>
<mask id="mask1_394_4665" style="mask-type:luminance" maskUnits="userSpaceOnUse" x="-10" y="-1" width="60" height="43">
<rect x="-9.7998" y="-0.600067" width="59.5" height="42.5" rx="21.25" fill="white"/>
</mask>
<g mask="url(#mask1_394_4665)">
<path fill-rule="evenodd" clip-rule="evenodd" d="M-9.7998 27.7333L49.7002 -0.600067H-9.7998V27.7333Z" fill="#1EC160"/>
<path fill-rule="evenodd" clip-rule="evenodd" d="M-9.7998 41.899H49.7002V13.5656L-9.7998 41.899Z" fill="#DF2A40"/>
<path fill-rule="evenodd" clip-rule="evenodd" d="M-8.13397 53.2343L61.5473 9.69261L48.0344 -11.9326L-21.6469 31.6091L-8.13397 53.2343Z" fill="#FFD956"/>
<path fill-rule="evenodd" clip-rule="evenodd" d="M-11.1361 48.4277L58.5452 4.88596L51.038 -7.12805L-18.6433 36.4136L-11.1361 48.4277Z" fill="#262626"/>
<path fill-rule="evenodd" clip-rule="evenodd" d="M33.3582 15.9673L31.3492 19.1492L30.0456 15.6191L26.3987 14.6917L29.3531 12.3611L29.1082 8.60608L32.2377 10.6957L35.7332 9.3024L34.7129 12.9245L37.1182 15.8184L33.3582 15.9673Z" fill="white"/>
<path fill-rule="evenodd" clip-rule="evenodd" d="M10.69 29.7114L8.68096 32.8933L7.37742 29.3633L3.73045 28.4359L6.68491 26.1053L6.43996 22.3502L9.56945 24.4399L13.065 23.0465L12.0447 26.6686L14.45 29.5625L10.69 29.7114Z" fill="white"/>
</g>
</g>
</svg>
