<svg width="40" height="40" viewBox="0 0 40 40" fill="none" xmlns="http://www.w3.org/2000/svg">
<g clip-path="url(#clip0_394_4508)">
<path d="M1.98447 11.3044C0.713064 13.9337 -6.10352e-05 16.8835 -6.10352e-05 20C-6.10352e-05 23.1165 0.713064 26.0662 1.98447 28.6956L19.9999 30.4347L38.0154 28.6956C39.2868 26.0662 39.9999 23.1165 39.9999 20C39.9999 16.8835 39.2868 13.9337 38.0154 11.3044L19.9999 9.56522L1.98447 11.3044Z" fill="#F0F0F0"/>
<path d="M1.98517 28.6955C5.22001 35.3854 12.0707 39.9999 19.9999 39.9999C27.9292 39.9999 34.7799 35.3854 38.0147 28.6955H1.98517Z" fill="black"/>
<path d="M1.98517 11.3043H38.0147C34.7799 4.61442 27.9292 -3.05176e-05 19.9999 -3.05176e-05C12.0707 -3.05176e-05 5.22001 4.61442 1.98517 11.3043Z" fill="#D80027"/>
<path d="M5.85779 5.85779C-1.95268 13.6683 -1.95268 26.3316 5.85779 34.1422C9.08537 30.9146 12.1895 27.8104 20 20L5.85779 5.85779Z" fill="#496E2D"/>
</g>
<defs>
<clipPath id="clip0_394_4508">
<rect width="40" height="40" fill="white"/>
</clipPath>
</defs>
</svg>
