<svg width="40" height="40" viewBox="0 0 40 40" fill="none" xmlns="http://www.w3.org/2000/svg">
<g clip-path="url(#clip0_394_4501)">
<path d="M20.0004 39.9999C31.0461 39.9999 40.0004 31.0456 40.0004 19.9999C40.0004 8.95418 31.0461 -0.00012207 20.0004 -0.00012207C8.9547 -0.00012207 0.000396729 8.95418 0.000396729 19.9999C0.000396729 31.0456 8.9547 39.9999 20.0004 39.9999Z" fill="#F0F0F0"/>
<path d="M38.756 13.0434H1.24397C0.440139 15.2101 6.10352e-05 17.5535 6.10352e-05 19.9999C6.10352e-05 22.4463 0.440139 24.7898 1.24397 26.9564H38.7561C39.5601 24.7898 40.0001 22.4463 40.0001 19.9999C40.0001 17.5535 39.5601 15.2101 38.756 13.0434Z" fill="#A2001D"/>
<path d="M20.058 39.9998C26.9082 39.9998 32.9532 36.5551 36.5577 31.3041H3.55841C7.16294 36.5551 13.2078 39.9998 20.058 39.9998Z" fill="#6DA544"/>
<path d="M20.058 0C26.9082 0 32.9532 3.44469 36.5577 8.69562H3.55841C7.16294 3.44469 13.2078 0 20.058 0Z" fill="#6DA544"/>
<path d="M20.0001 13.0434L21.7267 18.3575H27.3146L22.794 21.6422L24.5208 26.9564L20.0001 23.6721L15.4794 26.9564L17.2063 21.6422L12.6855 18.3575H18.2734L20.0001 13.0434Z" fill="#FFDA44"/>
</g>
<defs>
<clipPath id="clip0_394_4501">
<rect width="40" height="40" fill="white"/>
</clipPath>
</defs>
</svg>
