<svg width="40" height="40" viewBox="0 0 40 40" fill="none" xmlns="http://www.w3.org/2000/svg">
<g clip-path="url(#clip0_394_4486)">
<path d="M38.0154 28.6956C39.2868 26.0663 40 23.1164 40 20C40 16.8836 39.2868 13.9336 38.0154 11.3043L20 10.4347L1.9845 11.3043C0.713094 13.9336 -3.05176e-05 16.8836 -3.05176e-05 20C-3.05176e-05 23.1164 0.713094 26.0663 1.9845 28.6956L20 29.5652L38.0154 28.6956Z" fill="#FFDA44"/>
<path d="M19.9999 -3.05176e-05C12.0707 -3.05176e-05 5.21941 4.61442 1.98441 11.3043H38.0153C34.7803 4.61442 27.929 -3.05176e-05 19.9999 -3.05176e-05Z" fill="black"/>
<path d="M19.9999 39.9999C12.0707 39.9999 5.21941 35.3854 1.98441 28.6955H38.0153C34.7803 35.3854 27.929 39.9999 19.9999 39.9999Z" fill="#0052B4"/>
<path d="M39.0555 13.9129H0.944422C0.331766 15.8324 -3.05176e-05 17.8773 -3.05176e-05 19.9999C-3.05176e-05 22.1225 0.331766 24.1674 0.944422 26.0868H39.0554C39.6682 24.1674 40 22.1225 40 19.9999C40 17.8773 39.6682 15.8324 39.0555 13.9129Z" fill="#A2001D"/>
<path d="M6.95636 19.1306H33.0433V20.8697H6.95636V19.1306Z" fill="#FFDA44"/>
<path d="M10.4346 15.6522H29.565V17.3914H10.4346V15.6522Z" fill="#FFDA44"/>
<path d="M29.6893 20C29.6893 20 25.2172 25.2174 19.9998 25.2174C14.7825 25.2174 14.7824 20 14.7824 20C14.7824 20 14.7824 14.7825 19.9998 14.7825C25.2173 14.7825 29.6893 20 29.6893 20Z" fill="#F0F0F0"/>
<path d="M20 25.2174C14.7826 25.2174 10.3105 20 10.3105 20C10.3105 20 14.7826 14.7825 20 14.7825" fill="black"/>
<path d="M16.5217 18.2607H18.2608V21.739H16.5217V18.2607Z" fill="#F0F0F0"/>
<path d="M21.7391 18.2607H23.4782V21.739H21.7391V18.2607Z" fill="black"/>
<path d="M6.95649 21.739C7.91699 21.739 8.69563 20.9604 8.69563 19.9999C8.69563 19.0394 7.91699 18.2607 6.95649 18.2607C5.99599 18.2607 5.21735 19.0394 5.21735 19.9999C5.21735 20.9604 5.99599 21.739 6.95649 21.739Z" fill="#0052B4"/>
<path d="M33.0435 21.739C34.004 21.739 34.7826 20.9604 34.7826 19.9999C34.7826 19.0394 34.004 18.2607 33.0435 18.2607C32.083 18.2607 31.3043 19.0394 31.3043 19.9999C31.3043 20.9604 32.083 21.739 33.0435 21.739Z" fill="#0052B4"/>
</g>
<defs>
<clipPath id="clip0_394_4486">
<rect width="40" height="40" fill="white"/>
</clipPath>
</defs>
</svg>
