<svg width="40" height="40" viewBox="0 0 40 40" fill="none" xmlns="http://www.w3.org/2000/svg">
<g clip-path="url(#clip0_394_4463)">
<path d="M40 19.9999C40 31.0455 31.0456 39.9999 20 39.9999C8.95435 39.9999 -2.28882e-05 31.0455 -2.28882e-05 19.9999C6.86951 13.1304 12.6956 7.30428 20 -9.15527e-05C31.0456 -9.15527e-05 40 8.95428 40 19.9999Z" fill="#D80027"/>
<path d="M20 19.9999C20 8.95428 20 7.6521 20 -9.15527e-05C8.95435 -9.15527e-05 -2.28882e-05 8.95428 -2.28882e-05 19.9999H20Z" fill="#0052B4"/>
<path d="M17.3913 11.7047L14.9487 12.8537L16.2493 15.2193L13.5971 14.7118L13.2609 17.3912L11.4135 15.4206L9.56604 17.3912L9.23003 14.7118L6.57768 15.2191L7.87831 12.8536L5.43581 11.7047L7.87838 10.5559L6.57768 8.19023L9.22995 8.69765L9.56612 6.01828L11.4135 7.9889L13.261 6.01828L13.5971 8.69765L16.2494 8.19023L14.9487 10.5559L17.3913 11.7047Z" fill="#F0F0F0"/>
<path d="M11.4139 15.4272C13.47 15.4272 15.1368 13.7604 15.1368 11.7043C15.1368 9.64821 13.47 7.98141 11.4139 7.98141C9.35777 7.98141 7.69098 9.64821 7.69098 11.7043C7.69098 13.7604 9.35777 15.4272 11.4139 15.4272Z" fill="#0052B4"/>
<path d="M11.4136 13.6884C10.3198 13.6884 9.42995 12.7985 9.42995 11.7046C9.42995 10.6108 10.3199 9.72089 11.4136 9.72089C12.5074 9.72089 13.3974 10.6108 13.3974 11.7046C13.3973 12.7985 12.5073 13.6884 11.4136 13.6884Z" fill="#F0F0F0"/>
</g>
<defs>
<clipPath id="clip0_394_4463">
<rect width="40" height="40" fill="white"/>
</clipPath>
</defs>
</svg>
