<svg width="40" height="40" viewBox="0 0 40 40" fill="none" xmlns="http://www.w3.org/2000/svg">
<g clip-path="url(#clip0_394_4450)">
<path d="M1.98453 11.3044C0.713125 13.9337 0 16.8836 0 20C0 23.1164 0.713125 26.0662 1.98453 28.6956L20 30.4347L38.0155 28.6956C39.2869 26.0662 40 23.1164 40 20C40 16.8836 39.2869 13.9337 38.0155 11.3044L20 9.56522L1.98453 11.3044Z" fill="#F0F0F0"/>
<path d="M1.98529 28.6956C5.22021 35.3855 12.0709 40 20.0001 40C27.9292 40 34.78 35.3855 38.0148 28.6956H1.98529Z" fill="#6DA544"/>
<path d="M1.98529 11.3043H38.0148C34.78 4.61447 27.9292 -6.10352e-05 20.0001 -6.10352e-05C12.0709 -6.10352e-05 5.22021 4.61447 1.98529 11.3043Z" fill="#D80027"/>
<path d="M16.5218 25.2173H23.4783V22.2607L22.087 22.9563L20.0001 20.8694L17.9131 22.9563L16.5218 22.2607V25.2173Z" fill="#FFDA44"/>
<path d="M12.5416 21.739L12.8654 22.7354H13.9131L13.0654 23.3513L13.3892 24.3477L12.5416 23.7319L11.6939 24.3477L12.0178 23.3513L11.1701 22.7354H12.2178L12.5416 21.739Z" fill="#FFDA44"/>
<path d="M13.5454 18.2608L13.8693 19.2572H14.9169L14.0693 19.8731L14.393 20.8695L13.5454 20.2537L12.6978 20.8695L13.0216 19.8731L12.174 19.2572H13.2216L13.5454 18.2608Z" fill="#FFDA44"/>
<path d="M16.4151 15.6521L16.7389 16.6485H17.7865L16.939 17.2643L17.2626 18.2607L16.4151 17.645L15.5675 18.2607L15.8912 17.2643L15.0436 16.6485H16.0913L16.4151 15.6521Z" fill="#FFDA44"/>
<path d="M27.4584 21.739L27.1346 22.7354H26.0869L26.9346 23.3513L26.6107 24.3477L27.4584 23.7319L28.306 24.3477L27.9822 23.3513L28.8299 22.7354H27.7822L27.4584 21.739Z" fill="#FFDA44"/>
<path d="M26.4547 18.2608L26.1308 19.2572H25.0832L25.9308 19.8731L25.607 20.8695L26.4547 20.2537L27.3023 20.8695L26.9785 19.8731L27.8262 19.2572H26.7785L26.4547 18.2608Z" fill="#FFDA44"/>
<path d="M23.585 15.6521L23.2611 16.6485H22.2136L23.0611 17.2643L22.7373 18.2607L23.585 17.645L24.4325 18.2607L24.1088 17.2643L24.9564 16.6485H23.9087L23.585 15.6521Z" fill="#FFDA44"/>
<path d="M20 14.3477L20.3238 15.3441H21.3714L20.5238 15.9599L20.8476 16.9563L20 16.3405L19.1523 16.9563L19.4761 15.9599L18.6285 15.3441H19.6761L20 14.3477Z" fill="#FFDA44"/>
</g>
<defs>
<clipPath id="clip0_394_4450">
<rect width="40" height="40" fill="white"/>
</clipPath>
</defs>
</svg>
