<svg width="40" height="40" viewBox="0 0 40 40" fill="none" xmlns="http://www.w3.org/2000/svg">
<g clip-path="url(#clip0_394_4445)">
<path d="M20 39.9999C31.0457 39.9999 40 31.0456 40 19.9999C40 8.95421 31.0457 -9.15527e-05 20 -9.15527e-05C8.9543 -9.15527e-05 0 8.95421 0 19.9999C0 31.0456 8.9543 39.9999 20 39.9999Z" fill="#FFDA44"/>
<path d="M5.8579 34.1422C6.69689 34.9811 7.59204 35.7293 8.53103 36.3881L36.3881 8.53098C35.7295 7.592 34.9812 6.69684 34.1422 5.85786C33.3031 5.01887 32.4081 4.27075 31.4691 3.612L3.61212 31.4691C4.27072 32.4079 5.019 33.3031 5.8579 34.1422Z" fill="black"/>
<path d="M5.85783 5.85777C-0.451698 12.1675 -1.66303 21.6433 2.22158 29.1701L29.1702 2.2216C21.6434 -1.66301 12.1674 -0.451607 5.85783 5.85777Z" fill="#6DA544"/>
<path d="M34.1421 34.1421C40.4516 27.8325 41.6629 18.3565 37.7784 10.8297L10.8298 37.7783C18.3565 41.6629 27.8325 40.4516 34.1421 34.1421Z" fill="#338AF3"/>
</g>
<defs>
<clipPath id="clip0_394_4445">
<rect width="40" height="40" fill="white"/>
</clipPath>
</defs>
</svg>
