<svg width="40" height="40" viewBox="0 0 40 40" fill="none" xmlns="http://www.w3.org/2000/svg">
<g clip-path="url(#clip0_394_4439)">
<path d="M19.9998 40.0001C31.0455 40.0001 39.9998 31.0458 39.9998 20.0001C39.9998 8.95443 31.0455 0.00012207 19.9998 0.00012207C8.95412 0.00012207 -0.000183105 8.95443 -0.000183105 20.0001C-0.000183105 31.0458 8.95412 40.0001 19.9998 40.0001Z" fill="#F0F0F0"/>
<path d="M38.756 13.0435H1.24398C0.44 15.2102 0 17.5536 0 20C0 22.4464 0.44 24.7898 1.24398 26.9565H38.7561C39.56 24.7898 40 22.4464 40 20C40 17.5536 39.56 15.2102 38.756 13.0435Z" fill="#0052B4"/>
<path d="M20 9.15527e-05C13.9382 9.15527e-05 8.50672 2.69728 4.83899 6.95658H35.1609C31.4933 2.69728 26.0618 9.15527e-05 20 9.15527e-05Z" fill="#D80027"/>
<path d="M35.161 33.0436H4.83899C8.50672 37.3029 13.9382 40.0001 20 40.0001C26.0618 40.0001 31.4933 37.3029 35.161 33.0436Z" fill="#D80027"/>
</g>
<defs>
<clipPath id="clip0_394_4439">
<rect width="40" height="40" fill="white"/>
</clipPath>
</defs>
</svg>
