<svg width="40" height="40" viewBox="0 0 40 40" fill="none" xmlns="http://www.w3.org/2000/svg">
<g clip-path="url(#clip0_394_4431)">
<path d="M20 39.9999C31.0457 39.9999 40 31.0456 40 19.9999C40 8.95421 31.0457 -9.15527e-05 20 -9.15527e-05C8.9543 -9.15527e-05 0 8.95421 0 19.9999C0 31.0456 8.9543 39.9999 20 39.9999Z" fill="#FFDA44"/>
<path d="M20.0001 -0.000152588C19.9856 3.66213e-06 19.1306 7.99985 19.1306 7.99985H36.001C32.3522 3.14227 26.5432 -0.000152588 20.0001 -0.000152588Z" fill="#496E2D"/>
<path d="M20.0001 39.9998C26.5432 39.9998 32.3522 36.8574 36.001 31.9998H3.99927C7.64802 36.8574 13.457 39.9998 20.0001 39.9998Z" fill="#496E2D"/>
<path d="M39.5996 15.9998H19.1306L20.0001 23.9998H39.5996C39.8621 22.7074 40.0001 21.3698 40.0001 19.9998C40.0001 18.6299 39.862 17.2923 39.5996 15.9998Z" fill="#496E2D"/>
<path d="M20 23.9999C20 19.826 20 4.69553 20 -9.15527e-05C8.95437 -9.15527e-05 0 8.95428 0 19.9999C0 21.3698 0.138125 22.7075 0.400469 23.9999H20Z" fill="#D80027"/>
<path d="M11.0355 9.56519L12.3305 13.5507H16.5215L13.1312 16.0142L14.426 20L11.0355 17.5367L7.64506 20L8.94013 16.0142L5.54974 13.5507H9.7406L11.0355 9.56519Z" fill="#F0F0F0"/>
</g>
<defs>
<clipPath id="clip0_394_4431">
<rect width="40" height="40" fill="white"/>
</clipPath>
</defs>
</svg>
