<svg width="40" height="40" viewBox="0 0 40 40" fill="none" xmlns="http://www.w3.org/2000/svg">
<g clip-path="url(#clip0_394_4420)">
<path d="M10.8293 2.22067C9.03887 3.14481 7.35817 4.35614 5.85723 5.85708C4.35622 7.35809 3.14489 9.0388 2.22083 10.8293L15.0807 24.919L29.1705 37.779C30.9611 36.8548 32.6418 35.6435 34.1427 34.1426C35.6437 32.6416 36.855 30.9609 37.7791 29.1704L24.9192 15.0806L10.8293 2.22067Z" fill="#F0F0F0"/>
<path d="M34.1429 34.1427C34.9818 33.3037 35.7301 32.4085 36.3889 31.4695L8.53067 3.61121C7.59169 4.26988 6.69645 5.01816 5.85747 5.85714C5.01848 6.69613 4.2702 7.59136 3.61145 8.53043L31.4697 36.3885C32.4086 35.7299 33.3039 34.9817 34.1429 34.1427Z" fill="black"/>
<path d="M5.85718 34.1426C12.1671 40.4525 21.6434 41.6638 29.1705 37.7789L2.22085 10.8293C-1.66391 18.3563 -0.452428 27.8327 5.85718 34.1426Z" fill="#D80027"/>
<path d="M34.1429 5.85713C27.8329 -0.452715 18.3566 -1.66396 10.8296 2.22064L37.7792 29.1705C41.664 21.6435 40.4528 12.167 34.1429 5.85713Z" fill="#D80027"/>
</g>
<defs>
<clipPath id="clip0_394_4420">
<rect width="40" height="40" fill="white"/>
</clipPath>
</defs>
</svg>
