<svg width="40" height="40" viewBox="0 0 40 40" fill="none" xmlns="http://www.w3.org/2000/svg">
<g clip-path="url(#clip0_394_4414)">
<path d="M19.9998 40.0002C31.0455 40.0002 39.9998 31.0458 39.9998 20.0002C39.9998 8.95446 31.0455 0.000152588 19.9998 0.000152588C8.95412 0.000152588 -0.000183105 8.95446 -0.000183105 20.0002C-0.000183105 31.0458 8.95412 40.0002 19.9998 40.0002Z" fill="#D80027"/>
<path d="M20 29.5653C25.2827 29.5653 29.5652 25.2828 29.5652 20.0001C29.5652 14.7173 25.2827 10.4348 20 10.4348C14.7172 10.4348 10.4347 14.7173 10.4347 20.0001C10.4347 25.2828 14.7172 29.5653 20 29.5653Z" fill="#F0F0F0"/>
<path d="M21.1783 16.3428L22.8192 18.6041L25.4768 17.7424L23.8333 20.0018L25.4741 22.263L22.8174 21.398L21.1738 23.6574L21.1756 20.8636L18.5189 19.9986L21.1766 19.1369L21.1783 16.3428Z" fill="#D80027"/>
<path d="M22.1738 25.6524C19.0523 25.6524 16.5217 23.1217 16.5217 20.0002C16.5217 16.8786 19.0523 14.348 22.1738 14.348C23.1471 14.348 24.063 14.5941 24.8625 15.0274C23.6082 13.8007 21.893 13.0436 19.9999 13.0436C16.1581 13.0436 13.0435 16.1581 13.0435 20.0001C13.0435 23.842 16.1581 26.9566 19.9999 26.9566C21.893 26.9566 23.6083 26.1995 24.8625 24.9728C24.063 25.4063 23.1471 25.6524 22.1738 25.6524Z" fill="#D80027"/>
</g>
<defs>
<clipPath id="clip0_394_4414">
<rect width="40" height="40" fill="white"/>
</clipPath>
</defs>
</svg>
