<svg width="40" height="40" viewBox="0 0 40 40" fill="none" xmlns="http://www.w3.org/2000/svg">
<g clip-path="url(#clip0_394_4409)">
<path d="M20.0002 40.0001C31.0459 40.0001 40.0002 31.0458 40.0002 20.0001C40.0002 8.9544 31.0459 9.15527e-05 20.0002 9.15527e-05C8.95449 9.15527e-05 0.000183105 8.9544 0.000183105 20.0001C0.000183105 31.0458 8.95449 40.0001 20.0002 40.0001Z" fill="#D80027"/>
<path d="M19.181 16.3427L20.8221 18.6041L23.4796 17.7424L21.836 20.0017L23.4768 22.263L20.8202 21.398L19.1767 23.6574L19.1784 20.8635L16.5217 19.9985L19.1793 19.1368L19.181 16.3427Z" fill="#F0F0F0"/>
<path d="M14.7027 25.6523C11.5811 25.6523 9.0505 23.1217 9.0505 20.0001C9.0505 16.8785 11.5811 14.3479 14.7027 14.3479C15.676 14.3479 16.5918 14.5941 17.3913 15.0273C16.137 13.8006 14.4216 13.0435 12.5288 13.0435C8.68675 13.0435 5.5723 16.1581 5.5723 20C5.5723 23.842 8.68683 26.9565 12.5288 26.9565C14.4218 26.9565 16.1371 26.1994 17.3913 24.9728C16.5918 25.4061 15.676 25.6523 14.7027 25.6523Z" fill="#F0F0F0"/>
</g>
<defs>
<clipPath id="clip0_394_4409">
<rect width="40" height="40" fill="white"/>
</clipPath>
</defs>
</svg>
