<svg width="40" height="40" viewBox="0 0 40 40" fill="none" xmlns="http://www.w3.org/2000/svg">
<g clip-path="url(#clip0_394_4381)">
<path d="M20 0C18.5067 0 17.0521 0.165078 15.6522 0.475391L14.7827 19.9999L15.6522 39.5245C17.0522 39.8348 18.5068 40 20 40C31.0457 40 40 31.0456 40 19.9999C39.9999 8.9543 31.0457 0 20 0V0Z" fill="#496E2D"/>
<path d="M5.21737 6.52893C1.97644 10.0833 3.05176e-05 14.8106 3.05176e-05 19.9999C3.05176e-05 25.1891 1.97651 29.9164 5.21745 33.471L6.08698 19.9999L5.21737 6.52893Z" fill="#496E2D"/>
<path d="M29.2516 15.0857C30.2356 12.3431 29.1302 9.36017 26.7577 7.87454C27.1845 7.93009 27.6116 8.03056 28.0332 8.18173C31.1975 9.31704 32.8423 12.8024 31.707 15.9666C30.5717 19.131 27.0864 20.7757 23.9221 19.6404C23.5005 19.4892 23.1068 19.295 22.7422 19.0667C25.518 19.4281 28.2677 17.8284 29.2516 15.0857Z" fill="#F0F0F0"/>
<path d="M23.794 7.12283L22.9389 8.22768L21.6242 7.75588L22.4106 8.91041L21.5556 10.0151L22.8967 9.62401L23.6832 10.7784L23.7254 9.38213L25.0665 8.99096L23.7517 8.51932L23.794 7.12283Z" fill="#F0F0F0"/>
<path d="M26.1028 10.7227L25.2477 11.8275L23.9328 11.3557L24.7193 12.5102L23.8643 13.6149L25.2053 13.2237L25.9919 14.3783L26.0342 12.9819L27.3753 12.5907L26.0604 12.119L26.1028 10.7227Z" fill="#F0F0F0"/>
<path d="M19.7234 8.43393L18.8684 9.53862L17.5536 9.06698L18.3401 10.2214L17.4851 11.3262L18.826 10.935L19.6126 12.0895L19.6549 10.6932L20.9959 10.3021L19.6812 9.83026L19.7234 8.43393Z" fill="#F0F0F0"/>
<path d="M19.6297 12.5575L18.7747 13.6623L17.4599 13.1905L18.2464 14.3451L17.3913 15.4498L18.7324 15.0587L19.5189 16.213L19.5612 14.8168L20.9023 14.4256L19.5874 13.9538L19.6297 12.5575Z" fill="#F0F0F0"/>
<path d="M23.5536 13.9654L22.6985 15.0701L21.3837 14.5984L22.1703 15.7529L21.3152 16.8575L22.6563 16.4664L23.4428 17.621L23.4851 16.2246L24.8262 15.8335L23.5112 15.3618L23.5536 13.9654Z" fill="#F0F0F0"/>
<path d="M5.21747 6.52896V33.4709C7.94247 36.4595 11.562 38.6177 15.6522 39.5244V0.475372C11.5619 1.38209 7.94255 3.54029 5.21747 6.52896Z" fill="#D80027"/>
<path d="M9.19944 10.5301L7.45248 9.22866V7.38827L9.19944 6.08694H11.6701L13.4171 7.38827V9.22866L11.6701 10.5301H9.19944Z" fill="#F0F0F0"/>
<path d="M10.4348 6.08701H9.19941L7.45245 7.38833V8.2881H10.4348V6.08701Z" fill="#FF9811"/>
<path d="M10.4348 10.5301H11.6701L13.417 9.22865V8.28983H10.4348V10.5301Z" fill="#FF9811"/>
<path d="M9.19944 33.9129L7.45248 32.6115V30.7712L9.19944 29.4698H11.6701L13.4171 30.7712V32.6115L11.6701 33.9129H9.19944Z" fill="#F0F0F0"/>
<path d="M10.4348 29.4698H9.19941L7.45245 30.7713V31.671H10.4348V29.4698Z" fill="#FF9811"/>
<path d="M10.4348 33.913H11.6701L13.417 32.6116V31.6728H10.4348V33.913Z" fill="#FF9811"/>
<path d="M9.19962 22.2216L7.45267 20.9202V19.0798L9.19962 17.7784H11.6703L13.4173 19.0798V20.9202L11.6703 22.2216H9.19962Z" fill="#496E2D"/>
<path d="M13.4784 25.0848H12.7175V24.3239H11.3804L10.4349 23.3785L9.48954 24.3239H8.15243V25.0848H7.39157V26.6065H8.15243V27.3674H9.48946L10.435 28.3129L11.3804 27.3674H12.7175V26.6065H13.4784V25.0848Z" fill="#496E2D"/>
<path d="M13.4784 13.3933H12.7175V12.6324H11.3804L10.4349 11.6869L9.48954 12.6324H8.15243V13.3933H7.39157V14.915H8.15243V15.6759H9.48946L10.435 16.6215L11.3804 15.6759H12.7175V14.915H13.4784V13.3933Z" fill="#496E2D"/>
<path d="M9.56509 19.1304H11.3042V20.8695H9.56509V19.1304Z" fill="#D80027"/>
<path d="M10.4346 15.0234C10.9149 15.0234 11.3042 14.6341 11.3042 14.1539C11.3042 13.6737 10.9149 13.2844 10.4346 13.2844C9.9544 13.2844 9.56509 13.6737 9.56509 14.1539C9.56509 14.6341 9.9544 15.0234 10.4346 15.0234Z" fill="#D80027"/>
<path d="M10.4346 26.7155C10.9149 26.7155 11.3042 26.3262 11.3042 25.846C11.3042 25.3657 10.9149 24.9764 10.4346 24.9764C9.9544 24.9764 9.56509 25.3657 9.56509 25.846C9.56509 26.3262 9.9544 26.7155 10.4346 26.7155Z" fill="#D80027"/>
</g>
<defs>
<clipPath id="clip0_394_4381">
<rect width="40" height="40" fill="white"/>
</clipPath>
</defs>
</svg>
