<svg width="40" height="40" viewBox="0 0 40 40" fill="none" xmlns="http://www.w3.org/2000/svg">
<g clip-path="url(#clip0_394_4359)">
<path d="M40.0001 19.9999C40.0001 31.0455 31.0457 39.9999 20.0001 39.9999C8.95444 39.9999 6.10352e-05 31.0455 6.10352e-05 19.9999C6.10352e-05 20.0047 20.0001 0.00209595 20.0001 -9.15527e-05C31.0457 -9.15527e-05 40.0001 8.95428 40.0001 19.9999Z" fill="#338AF3"/>
<path d="M9.56535 20H16.3108L10.4349 13.0435L9.56535 15.6522V20Z" fill="#0052B4"/>
<path d="M20.0001 16.3109L13.0436 9.56531H20L20.0001 16.3109Z" fill="#0052B4"/>
<path d="M19.9466 20H20.0001C20.0001 19.982 20.0001 19.9645 20.0001 19.9465C19.9823 19.9644 19.9645 19.9822 19.9466 20Z" fill="#F0F0F0"/>
<path d="M20.0001 10.4347C20.0001 6.91553 20.0001 4.6096 20.0001 -9.15527e-05H19.9968C8.95256 0.00178345 6.10352e-05 8.9553 6.10352e-05 19.9999H10.4349V14.1241L16.3108 19.9999H19.9467C19.9645 19.9821 19.9823 19.9643 20.0002 19.9464C20.0002 18.599 20.0002 17.3967 20.0002 16.3107L14.1241 10.4347H20.0001Z" fill="#F0F0F0"/>
<path d="M10.1183 2.6088C6.99022 4.38997 4.38975 6.99044 2.60858 10.1185V20.0001H7.826V7.82637V7.82622H19.9999C19.9999 6.18067 19.9999 4.61301 19.9999 2.6088H10.1183Z" fill="#D80027"/>
<path d="M19.9999 17.5407L12.894 10.435H10.4346V10.4351L19.9997 20.0001H19.9999C19.9999 20.0001 19.9999 18.3043 19.9999 17.5407Z" fill="#D80027"/>
<path d="M21.8286 33.0435L22.2603 34.3721H23.6572L22.5272 35.1932L22.9589 36.5217L21.8286 35.7007L20.6985 36.5217L21.1302 35.1932L20 34.3721H21.3968L21.8286 33.0435Z" fill="#FFDA44"/>
<path d="M32.9539 24.3479L33.3855 25.6765H34.7825L33.6524 26.4977L34.0842 27.8262L32.9539 27.0052L31.8238 27.8262L32.2555 26.4977L31.1252 25.6765H32.5222L32.9539 24.3479Z" fill="#FFDA44"/>
<path d="M35.7417 11.3044L36.1734 12.633H37.5704L36.4403 13.4541L36.8719 14.7826L35.7417 13.9616L34.6116 14.7826L35.0433 13.4541L33.9131 12.633H35.31L35.7417 11.3044Z" fill="#FFDA44"/>
<path d="M36.4321 20.8696L36.8637 22.1982H38.2607L37.1306 23.0193L37.5623 24.3478L36.4321 23.5268L35.302 24.3478L35.7337 23.0193L34.6034 22.1982H36.0004L36.4321 20.8696Z" fill="#FFDA44"/>
<path d="M23.8316 29.9187L25.0765 30.553L26.0643 29.5652L25.8458 30.9448L27.0904 31.579L25.7106 31.7976L25.4921 33.1774L24.858 31.9326L23.4782 32.1513L24.4659 31.1636L23.8316 29.9187Z" fill="#FFDA44"/>
<path d="M23.8316 24.7014L25.0765 25.3356L26.0643 24.3479L25.8458 25.7276L27.0904 26.3617L25.7106 26.5803L25.4921 27.9601L24.858 26.7154L23.4782 26.934L24.4659 25.9463L23.8316 24.7014Z" fill="#FFDA44"/>
<path d="M28.1794 28.0457L29.4243 28.68L30.4121 27.6923L30.1936 29.0719L31.4383 29.7061L30.0584 29.9247L29.8399 31.3045L29.2058 30.0596L27.826 30.2784L28.8137 29.2906L28.1794 28.0457Z" fill="#FFDA44"/>
<path d="M28.1794 16.8752L29.4243 17.5095L30.4121 16.5217L30.1936 17.9014L31.4383 18.5356L30.0584 18.7541L29.8399 20.1339L29.2058 18.8892L27.826 19.1078L28.8137 18.1201L28.1794 16.8752Z" fill="#FFDA44"/>
<path d="M32.3933 16.7414L33.6382 17.3756L34.6259 16.3879L34.4074 17.7676L35.6521 18.4017L34.2723 18.6203L34.0538 20.0001L33.4197 18.7554L32.0399 18.974L33.0276 17.9862L32.3933 16.7414Z" fill="#FFDA44"/>
</g>
<defs>
<clipPath id="clip0_394_4359">
<rect width="40" height="40" fill="white"/>
</clipPath>
</defs>
</svg>
