<svg width="40" height="40" viewBox="0 0 40 40" fill="none" xmlns="http://www.w3.org/2000/svg">
<g clip-path="url(#clip0_394_4343)">
<path d="M20.0003 40.0002C31.046 40.0002 40.0003 31.0458 40.0003 20.0002C40.0003 8.95446 31.046 0.000152588 20.0003 0.000152588C8.95461 0.000152588 0.000305176 8.95446 0.000305176 20.0002C0.000305176 31.0458 8.95461 40.0002 20.0003 40.0002Z" fill="#F0F0F0"/>
<path d="M11.3046 26.9565L13.0438 38.7562C15.2103 39.5602 17.5538 40 20.0003 40C28.5995 40 35.9304 34.5725 38.7562 26.9565H11.3046Z" fill="black"/>
<path d="M11.3046 13.0436L13.0438 1.24389C15.2103 0.439905 17.5538 6.10352e-05 20.0003 6.10352e-05C28.5995 6.10352e-05 35.9304 5.42756 38.7562 13.0436H11.3046Z" fill="#6DA544"/>
<path d="M6.10352e-05 20C6.10352e-05 28.5993 5.42764 35.9302 13.0436 38.7561V1.24402C5.42764 4.06988 6.10352e-05 11.4007 6.10352e-05 20Z" fill="#A2001D"/>
</g>
<defs>
<clipPath id="clip0_394_4343">
<rect width="40" height="40" fill="white"/>
</clipPath>
</defs>
</svg>
