<svg width="40" height="40" viewBox="0 0 40 40" fill="none" xmlns="http://www.w3.org/2000/svg">
<g clip-path="url(#clip0_394_4326)">
<path d="M20.0002 40C31.0459 40 40.0002 31.0457 40.0002 20C40.0002 8.95434 31.0459 3.05176e-05 20.0002 3.05176e-05C8.95455 3.05176e-05 0.000244141 8.95434 0.000244141 20C0.000244141 31.0457 8.95455 40 20.0002 40Z" fill="#F0F0F0"/>
<path d="M4.13442 7.82376C2.5634 9.86775 1.37879 12.2236 0.689026 14.7829H11.0936L4.13442 7.82376Z" fill="#0052B4"/>
<path d="M39.3111 14.7829C38.6214 12.2237 37.4367 9.86787 35.8657 7.82388L28.9067 14.7829H39.3111Z" fill="#0052B4"/>
<path d="M0.689026 25.2177C1.37887 27.7769 2.56348 30.1328 4.13442 32.1767L11.0933 25.2177H0.689026Z" fill="#0052B4"/>
<path d="M32.1764 4.13459C30.1324 2.56357 27.7766 1.37896 25.2173 0.689117V11.0936L32.1764 4.13459Z" fill="#0052B4"/>
<path d="M7.82367 35.8657C9.86765 37.4367 12.2235 38.6213 14.7827 39.3112V28.9068L7.82367 35.8657Z" fill="#0052B4"/>
<path d="M14.7827 0.689117C12.2234 1.37896 9.86758 2.56357 7.82367 4.13451L14.7827 11.0935V0.689117Z" fill="#0052B4"/>
<path d="M25.2173 39.3112C27.7766 38.6213 30.1324 37.4367 32.1763 35.8658L25.2173 28.9068V39.3112Z" fill="#0052B4"/>
<path d="M28.9067 25.2177L35.8657 32.1767C37.4367 30.1328 38.6214 27.7769 39.3111 25.2177H28.9067Z" fill="#0052B4"/>
<path d="M39.831 17.3914H22.6091H22.609V0.169327C21.755 0.0581555 20.8844 3.05176e-05 20.0002 3.05176e-05C19.1159 3.05176e-05 18.2455 0.0581555 17.3916 0.169327V17.3912V17.3913H0.169541C0.0583692 18.2453 0.000244141 19.1159 0.000244141 20C0.000244141 20.8843 0.0583692 21.7548 0.169541 22.6087H17.3914H17.3915V39.8307C18.2455 39.9419 19.1159 40 20.0002 40C20.8844 40 21.755 39.942 22.6089 39.8307V22.6089V22.6088H39.831C39.9421 21.7548 40.0002 20.8843 40.0002 20C40.0002 19.1159 39.9421 18.2453 39.831 17.3914Z" fill="#D80027"/>
<path d="M25.2174 25.2176L34.1421 34.1423C34.5526 33.7319 34.9441 33.303 35.3177 32.8583L27.6769 25.2175H25.2174V25.2176Z" fill="#D80027"/>
<path d="M14.7826 25.2175H14.7825L5.85785 34.1421C6.26816 34.5526 6.69715 34.9441 7.14183 35.3177L14.7826 27.6768V25.2175Z" fill="#D80027"/>
<path d="M14.7826 14.7828V14.7826L5.85794 5.85785C5.44747 6.26816 5.05591 6.69715 4.68231 7.14183L12.3232 14.7827H14.7826V14.7828Z" fill="#D80027"/>
<path d="M25.2174 14.7828L34.1422 5.85798C33.7319 5.44751 33.3029 5.05595 32.8582 4.68243L25.2174 12.3233V14.7828Z" fill="#D80027"/>
</g>
<defs>
<clipPath id="clip0_394_4326">
<rect width="40" height="40" fill="white"/>
</clipPath>
</defs>
</svg>
