<svg width="40" height="40" viewBox="0 0 40 40" fill="none" xmlns="http://www.w3.org/2000/svg">
<g clip-path="url(#clip0_394_4266)">
<path d="M20 -9.15527e-05C31.0456 -9.15527e-05 40 8.95428 40 19.9999C40 31.0455 31.0456 39.9999 20 39.9999C20 39.1304 17.3913 19.9999 17.3913 19.9999L20 -9.15527e-05Z" fill="#F0F0F0"/>
<path d="M20 39.9999C8.9544 39.9999 3.05176e-05 31.0455 3.05176e-05 19.9999C3.05176e-05 8.95428 8.9544 -9.15527e-05 20 -9.15527e-05" fill="#FFDA44"/>
<path d="M27.6586 17.4034L31.4173 22.3757C30.8251 23.2724 30.8282 24.4806 31.5132 25.3866C32.3819 26.5359 34.0179 26.7634 35.1673 25.8945C36.3166 25.0258 36.5441 23.3898 35.6752 22.2405C34.9904 21.3345 33.8289 21.002 32.8046 21.3271L26.9467 13.5777L25.5594 14.6264L23.4781 16.1994L25.5757 18.974L27.6586 17.4034ZM33.0698 23.1198C33.4529 22.8301 33.9983 22.906 34.2879 23.289C34.5774 23.6721 34.5017 24.2175 34.1186 24.5072C33.7356 24.7967 33.1902 24.721 32.9007 24.3378C32.6109 23.9547 32.6867 23.4093 33.0698 23.1198Z" fill="#ACABB1"/>
<path d="M34.1054 18.974L36.2029 16.1994L34.1218 14.6263L32.7345 13.5775L26.8766 21.327C25.8525 21.0018 24.6909 21.3344 24.006 22.2403C23.1371 23.3897 23.3646 25.0256 24.5139 25.8944C25.6633 26.7631 27.2992 26.5357 28.168 25.3864C28.8528 24.4804 28.8559 23.2723 28.2638 22.3756L32.0225 17.4032L34.1054 18.974ZM26.7806 24.3378C26.4911 24.721 25.9458 24.7967 25.5627 24.5072C25.1795 24.2175 25.1038 23.6721 25.3934 23.289C25.6829 22.906 26.2283 22.8301 26.6115 23.1198C26.9945 23.4094 27.0702 23.9548 26.7806 24.3378Z" fill="#FFDA44"/>
</g>
<defs>
<clipPath id="clip0_394_4266">
<rect width="40" height="40" fill="white"/>
</clipPath>
</defs>
</svg>
