<svg width="40" height="40" viewBox="0 0 40 40" fill="none" xmlns="http://www.w3.org/2000/svg">
<g clip-path="url(#clip0_394_4236)">
<path d="M20 39.9999C31.0457 39.9999 40 31.0456 40 19.9999C40 8.95421 31.0457 -9.15527e-05 20 -9.15527e-05C8.95434 -9.15527e-05 3.05176e-05 8.95421 3.05176e-05 19.9999C3.05176e-05 31.0456 8.95434 39.9999 20 39.9999Z" fill="#F0F0F0"/>
<path d="M19.9999 39.9999C28.5992 39.9999 35.9301 34.5724 38.7559 26.9564H1.24388C4.06974 34.5724 11.4006 39.9999 19.9999 39.9999Z" fill="black"/>
<path d="M19.9999 -9.15527e-05C11.4006 -9.15527e-05 4.06974 5.42741 1.24388 13.0434H38.756C35.9301 5.42741 28.5992 -9.15527e-05 19.9999 -9.15527e-05Z" fill="#D80027"/>
</g>
<defs>
<clipPath id="clip0_394_4236">
<rect width="40" height="40" fill="white"/>
</clipPath>
</defs>
</svg>
