<svg width="40" height="40" viewBox="0 0 40 40" fill="none" xmlns="http://www.w3.org/2000/svg">
<g clip-path="url(#clip0_394_4216)">
<path d="M19.9998 40.0001C31.0455 40.0001 39.9998 31.0458 39.9998 20.0001C39.9998 8.95443 31.0455 0.00012207 19.9998 0.00012207C8.95411 0.00012207 -0.000190735 8.95443 -0.000190735 20.0001C-0.000190735 31.0458 8.95411 40.0001 19.9998 40.0001Z" fill="#F0F0F0"/>
<path d="M38.0858 11.4534C37.0697 9.30698 35.6829 7.37081 34.0079 5.72667L20.0001 4.34784L5.99226 5.72675C5.94757 5.77057 5.90398 5.81542 5.85976 5.85971L11.4535 11.4535L20.0001 11.7145L38.0858 11.4534Z" fill="#FFDA44"/>
<path d="M5.85947 34.1406C5.93306 34.2142 6.0065 34.2879 6.08119 34.3604L20 35.6522L33.9187 34.3604C35.6109 32.7197 37.0147 30.7834 38.0451 28.6336L12.1738 27.8261C9.94783 30.0522 7.38033 32.6196 5.85947 34.1406Z" fill="#FFDA44"/>
<path d="M39.8011 17.1801L16.5217 16.5217L20 20C18.9697 21.0302 17.4318 22.5682 16.5217 23.4783L39.7889 22.9069C39.9272 21.9577 40 20.9874 40 20C40 19.0426 39.9312 18.1015 39.8011 17.1801Z" fill="black"/>
<path d="M20 3.05176e-05C14.5447 3.05176e-05 9.60048 2.18519 5.9922 5.72675H34.0078C30.3995 2.18519 25.4553 3.05176e-05 20 3.05176e-05Z" fill="#6DA544"/>
<path d="M17.1801 17.1801H39.8011C39.5157 15.1583 38.9285 13.2338 38.0857 11.4534H11.4533L17.1801 17.1801Z" fill="#D80027"/>
<path d="M11.3663 28.6337H38.0451C38.8977 26.8546 39.4943 24.9298 39.7889 22.907H17.093C14.8753 25.1247 12.9958 27.0042 11.3663 28.6337Z" fill="#D80027"/>
<path d="M20 40C25.4105 40 30.3183 37.8506 33.9187 34.3603H6.08131C9.68162 37.8506 14.5894 40 20 40Z" fill="#6DA544"/>
<path d="M7.1418 4.68237C6.69719 5.05597 6.26821 5.44761 5.85782 5.85784L20 20L5.85782 34.1422C6.26813 34.5525 6.69719 34.9441 7.1418 35.3177L22.4595 20L7.1418 4.68237Z" fill="black"/>
<path d="M8.04099 14.7826L9.33591 18.7682H13.5269L10.1365 21.2317L11.4315 25.2174L8.04099 22.7541L4.65044 25.2174L5.9456 21.2317L2.55521 18.7682H6.74599L8.04099 14.7826Z" fill="#D80027"/>
<path d="M11.603 20.3261L8.22813 19.1305C8.22813 19.1305 7.97876 16.7912 7.96368 16.7119C7.84915 16.1085 7.31892 15.6522 6.6822 15.6522C5.96188 15.6522 5.37782 16.2362 5.37782 16.9566C5.37782 17.076 5.39524 17.1911 5.42532 17.3011L4.47907 18.2537H6.16157C6.16157 20 4.85845 20 4.85845 21.7392L5.58134 23.4783H9.92915L10.6538 21.7392H10.6535C10.7261 21.5723 10.7702 21.4002 10.7884 21.2282C11.4131 20.9756 11.603 20.3261 11.603 20.3261Z" fill="#FFDA44"/>
</g>
<defs>
<clipPath id="clip0_394_4216">
<rect width="40" height="40" fill="white"/>
</clipPath>
</defs>
</svg>
